<?xml version="1.0" encoding="utf-8" standalone="no"?>
<!DOCTYPE svg PUBLIC "-//W3C//DTD SVG 1.1//EN"
  "http://www.w3.org/Graphics/SVG/1.1/DTD/svg11.dtd">
<svg xmlns:xlink="http://www.w3.org/1999/xlink" width="413.302812pt" height="314.7395pt" viewBox="0 0 413.302812 314.7395" xmlns="http://www.w3.org/2000/svg" version="1.1">
 <metadata>
  <rdf:RDF xmlns:dc="http://purl.org/dc/elements/1.1/" xmlns:cc="http://creativecommons.org/ns#" xmlns:rdf="http://www.w3.org/1999/02/22-rdf-syntax-ns#">
   <cc:Work>
    <dc:type rdf:resource="http://purl.org/dc/dcmitype/StillImage"/>
    <dc:date>2023-04-24T14:14:30.309298</dc:date>
    <dc:format>image/svg+xml</dc:format>
    <dc:creator>
     <cc:Agent>
      <dc:title>Matplotlib v3.6.2, https://matplotlib.org/</dc:title>
     </cc:Agent>
    </dc:creator>
   </cc:Work>
  </rdf:RDF>
 </metadata>
 <defs>
  <style type="text/css">*{stroke-linejoin: round; stroke-linecap: butt}</style>
 </defs>
 <g id="figure_1">
  <g id="patch_1">
   <path d="M 0 314.7395 
L 413.302812 314.7395 
L 413.302812 0 
L 0 0 
z
" style="fill: #ffffff"/>
  </g>
  <g id="axes_1">
   <g id="patch_2">
    <path d="M 48.982813 273.312 
L 406.102813 273.312 
L 406.102813 7.2 
L 48.982813 7.2 
z
" style="fill: #ffffff"/>
   </g>
   <g id="matplotlib.axis_1">
    <g id="xtick_1">
     <g id="line2d_1">
      <defs>
       <path id="mac90878546" d="M 0 0 
L 0 3.5 
" style="stroke: #000000; stroke-width: 0.8"/>
      </defs>
      <g>
       <use xlink:href="#mac90878546" x="65.21554" y="273.312" style="stroke: #000000; stroke-width: 0.8"/>
      </g>
     </g>
     <g id="text_1">
      <!-- 0 -->
      <g transform="translate(62.03429 287.910438) scale(0.1 -0.1)">
       <defs>
        <path id="DejaVuSans-30" d="M 2034 4250 
Q 1547 4250 1301 3770 
Q 1056 3291 1056 2328 
Q 1056 1369 1301 889 
Q 1547 409 2034 409 
Q 2525 409 2770 889 
Q 3016 1369 3016 2328 
Q 3016 3291 2770 3770 
Q 2525 4250 2034 4250 
z
M 2034 4750 
Q 2819 4750 3233 4129 
Q 3647 3509 3647 2328 
Q 3647 1150 3233 529 
Q 2819 -91 2034 -91 
Q 1250 -91 836 529 
Q 422 1150 422 2328 
Q 422 3509 836 4129 
Q 1250 4750 2034 4750 
z
" transform="scale(0.015625)"/>
       </defs>
       <use xlink:href="#DejaVuSans-30"/>
      </g>
     </g>
    </g>
    <g id="xtick_2">
     <g id="line2d_2">
      <g>
       <use xlink:href="#mac90878546" x="130.146449" y="273.312" style="stroke: #000000; stroke-width: 0.8"/>
      </g>
     </g>
     <g id="text_2">
      <!-- 200 -->
      <g transform="translate(120.602699 287.910438) scale(0.1 -0.1)">
       <defs>
        <path id="DejaVuSans-32" d="M 1228 531 
L 3431 531 
L 3431 0 
L 469 0 
L 469 531 
Q 828 903 1448 1529 
Q 2069 2156 2228 2338 
Q 2531 2678 2651 2914 
Q 2772 3150 2772 3378 
Q 2772 3750 2511 3984 
Q 2250 4219 1831 4219 
Q 1534 4219 1204 4116 
Q 875 4013 500 3803 
L 500 4441 
Q 881 4594 1212 4672 
Q 1544 4750 1819 4750 
Q 2544 4750 2975 4387 
Q 3406 4025 3406 3419 
Q 3406 3131 3298 2873 
Q 3191 2616 2906 2266 
Q 2828 2175 2409 1742 
Q 1991 1309 1228 531 
z
" transform="scale(0.015625)"/>
       </defs>
       <use xlink:href="#DejaVuSans-32"/>
       <use xlink:href="#DejaVuSans-30" x="63.623047"/>
       <use xlink:href="#DejaVuSans-30" x="127.246094"/>
      </g>
     </g>
    </g>
    <g id="xtick_3">
     <g id="line2d_3">
      <g>
       <use xlink:href="#mac90878546" x="195.077358" y="273.312" style="stroke: #000000; stroke-width: 0.8"/>
      </g>
     </g>
     <g id="text_3">
      <!-- 400 -->
      <g transform="translate(185.533608 287.910438) scale(0.1 -0.1)">
       <defs>
        <path id="DejaVuSans-34" d="M 2419 4116 
L 825 1625 
L 2419 1625 
L 2419 4116 
z
M 2253 4666 
L 3047 4666 
L 3047 1625 
L 3713 1625 
L 3713 1100 
L 3047 1100 
L 3047 0 
L 2419 0 
L 2419 1100 
L 313 1100 
L 313 1709 
L 2253 4666 
z
" transform="scale(0.015625)"/>
       </defs>
       <use xlink:href="#DejaVuSans-34"/>
       <use xlink:href="#DejaVuSans-30" x="63.623047"/>
       <use xlink:href="#DejaVuSans-30" x="127.246094"/>
      </g>
     </g>
    </g>
    <g id="xtick_4">
     <g id="line2d_4">
      <g>
       <use xlink:href="#mac90878546" x="260.008267" y="273.312" style="stroke: #000000; stroke-width: 0.8"/>
      </g>
     </g>
     <g id="text_4">
      <!-- 600 -->
      <g transform="translate(250.464517 287.910438) scale(0.1 -0.1)">
       <defs>
        <path id="DejaVuSans-36" d="M 2113 2584 
Q 1688 2584 1439 2293 
Q 1191 2003 1191 1497 
Q 1191 994 1439 701 
Q 1688 409 2113 409 
Q 2538 409 2786 701 
Q 3034 994 3034 1497 
Q 3034 2003 2786 2293 
Q 2538 2584 2113 2584 
z
M 3366 4563 
L 3366 3988 
Q 3128 4100 2886 4159 
Q 2644 4219 2406 4219 
Q 1781 4219 1451 3797 
Q 1122 3375 1075 2522 
Q 1259 2794 1537 2939 
Q 1816 3084 2150 3084 
Q 2853 3084 3261 2657 
Q 3669 2231 3669 1497 
Q 3669 778 3244 343 
Q 2819 -91 2113 -91 
Q 1303 -91 875 529 
Q 447 1150 447 2328 
Q 447 3434 972 4092 
Q 1497 4750 2381 4750 
Q 2619 4750 2861 4703 
Q 3103 4656 3366 4563 
z
" transform="scale(0.015625)"/>
       </defs>
       <use xlink:href="#DejaVuSans-36"/>
       <use xlink:href="#DejaVuSans-30" x="63.623047"/>
       <use xlink:href="#DejaVuSans-30" x="127.246094"/>
      </g>
     </g>
    </g>
    <g id="xtick_5">
     <g id="line2d_5">
      <g>
       <use xlink:href="#mac90878546" x="324.939176" y="273.312" style="stroke: #000000; stroke-width: 0.8"/>
      </g>
     </g>
     <g id="text_5">
      <!-- 800 -->
      <g transform="translate(315.395426 287.910438) scale(0.1 -0.1)">
       <defs>
        <path id="DejaVuSans-38" d="M 2034 2216 
Q 1584 2216 1326 1975 
Q 1069 1734 1069 1313 
Q 1069 891 1326 650 
Q 1584 409 2034 409 
Q 2484 409 2743 651 
Q 3003 894 3003 1313 
Q 3003 1734 2745 1975 
Q 2488 2216 2034 2216 
z
M 1403 2484 
Q 997 2584 770 2862 
Q 544 3141 544 3541 
Q 544 4100 942 4425 
Q 1341 4750 2034 4750 
Q 2731 4750 3128 4425 
Q 3525 4100 3525 3541 
Q 3525 3141 3298 2862 
Q 3072 2584 2669 2484 
Q 3125 2378 3379 2068 
Q 3634 1759 3634 1313 
Q 3634 634 3220 271 
Q 2806 -91 2034 -91 
Q 1263 -91 848 271 
Q 434 634 434 1313 
Q 434 1759 690 2068 
Q 947 2378 1403 2484 
z
M 1172 3481 
Q 1172 3119 1398 2916 
Q 1625 2713 2034 2713 
Q 2441 2713 2670 2916 
Q 2900 3119 2900 3481 
Q 2900 3844 2670 4047 
Q 2441 4250 2034 4250 
Q 1625 4250 1398 4047 
Q 1172 3844 1172 3481 
z
" transform="scale(0.015625)"/>
       </defs>
       <use xlink:href="#DejaVuSans-38"/>
       <use xlink:href="#DejaVuSans-30" x="63.623047"/>
       <use xlink:href="#DejaVuSans-30" x="127.246094"/>
      </g>
     </g>
    </g>
    <g id="xtick_6">
     <g id="line2d_6">
      <g>
       <use xlink:href="#mac90878546" x="389.870085" y="273.312" style="stroke: #000000; stroke-width: 0.8"/>
      </g>
     </g>
     <g id="text_6">
      <!-- 1000 -->
      <g transform="translate(377.145085 287.910438) scale(0.1 -0.1)">
       <defs>
        <path id="DejaVuSans-31" d="M 794 531 
L 1825 531 
L 1825 4091 
L 703 3866 
L 703 4441 
L 1819 4666 
L 2450 4666 
L 2450 531 
L 3481 531 
L 3481 0 
L 794 0 
L 794 531 
z
" transform="scale(0.015625)"/>
       </defs>
       <use xlink:href="#DejaVuSans-31"/>
       <use xlink:href="#DejaVuSans-30" x="63.623047"/>
       <use xlink:href="#DejaVuSans-30" x="127.246094"/>
       <use xlink:href="#DejaVuSans-30" x="190.869141"/>
      </g>
     </g>
    </g>
    <g id="text_7">
     <!-- Position (μm) -->
     <g transform="translate(181.334063 304.627938) scale(0.14 -0.14)">
      <defs>
       <path id="DejaVuSans-50" d="M 1259 4147 
L 1259 2394 
L 2053 2394 
Q 2494 2394 2734 2622 
Q 2975 2850 2975 3272 
Q 2975 3691 2734 3919 
Q 2494 4147 2053 4147 
L 1259 4147 
z
M 628 4666 
L 2053 4666 
Q 2838 4666 3239 4311 
Q 3641 3956 3641 3272 
Q 3641 2581 3239 2228 
Q 2838 1875 2053 1875 
L 1259 1875 
L 1259 0 
L 628 0 
L 628 4666 
z
" transform="scale(0.015625)"/>
       <path id="DejaVuSans-6f" d="M 1959 3097 
Q 1497 3097 1228 2736 
Q 959 2375 959 1747 
Q 959 1119 1226 758 
Q 1494 397 1959 397 
Q 2419 397 2687 759 
Q 2956 1122 2956 1747 
Q 2956 2369 2687 2733 
Q 2419 3097 1959 3097 
z
M 1959 3584 
Q 2709 3584 3137 3096 
Q 3566 2609 3566 1747 
Q 3566 888 3137 398 
Q 2709 -91 1959 -91 
Q 1206 -91 779 398 
Q 353 888 353 1747 
Q 353 2609 779 3096 
Q 1206 3584 1959 3584 
z
" transform="scale(0.015625)"/>
       <path id="DejaVuSans-73" d="M 2834 3397 
L 2834 2853 
Q 2591 2978 2328 3040 
Q 2066 3103 1784 3103 
Q 1356 3103 1142 2972 
Q 928 2841 928 2578 
Q 928 2378 1081 2264 
Q 1234 2150 1697 2047 
L 1894 2003 
Q 2506 1872 2764 1633 
Q 3022 1394 3022 966 
Q 3022 478 2636 193 
Q 2250 -91 1575 -91 
Q 1294 -91 989 -36 
Q 684 19 347 128 
L 347 722 
Q 666 556 975 473 
Q 1284 391 1588 391 
Q 1994 391 2212 530 
Q 2431 669 2431 922 
Q 2431 1156 2273 1281 
Q 2116 1406 1581 1522 
L 1381 1569 
Q 847 1681 609 1914 
Q 372 2147 372 2553 
Q 372 3047 722 3315 
Q 1072 3584 1716 3584 
Q 2034 3584 2315 3537 
Q 2597 3491 2834 3397 
z
" transform="scale(0.015625)"/>
       <path id="DejaVuSans-69" d="M 603 3500 
L 1178 3500 
L 1178 0 
L 603 0 
L 603 3500 
z
M 603 4863 
L 1178 4863 
L 1178 4134 
L 603 4134 
L 603 4863 
z
" transform="scale(0.015625)"/>
       <path id="DejaVuSans-74" d="M 1172 4494 
L 1172 3500 
L 2356 3500 
L 2356 3053 
L 1172 3053 
L 1172 1153 
Q 1172 725 1289 603 
Q 1406 481 1766 481 
L 2356 481 
L 2356 0 
L 1766 0 
Q 1100 0 847 248 
Q 594 497 594 1153 
L 594 3053 
L 172 3053 
L 172 3500 
L 594 3500 
L 594 4494 
L 1172 4494 
z
" transform="scale(0.015625)"/>
       <path id="DejaVuSans-6e" d="M 3513 2113 
L 3513 0 
L 2938 0 
L 2938 2094 
Q 2938 2591 2744 2837 
Q 2550 3084 2163 3084 
Q 1697 3084 1428 2787 
Q 1159 2491 1159 1978 
L 1159 0 
L 581 0 
L 581 3500 
L 1159 3500 
L 1159 2956 
Q 1366 3272 1645 3428 
Q 1925 3584 2291 3584 
Q 2894 3584 3203 3211 
Q 3513 2838 3513 2113 
z
" transform="scale(0.015625)"/>
       <path id="DejaVuSans-20" transform="scale(0.015625)"/>
       <path id="DejaVuSans-28" d="M 1984 4856 
Q 1566 4138 1362 3434 
Q 1159 2731 1159 2009 
Q 1159 1288 1364 580 
Q 1569 -128 1984 -844 
L 1484 -844 
Q 1016 -109 783 600 
Q 550 1309 550 2009 
Q 550 2706 781 3412 
Q 1013 4119 1484 4856 
L 1984 4856 
z
" transform="scale(0.015625)"/>
       <path id="DejaVuSans-3bc" d="M 544 -1331 
L 544 3500 
L 1119 3500 
L 1119 1325 
Q 1119 872 1334 640 
Q 1550 409 1972 409 
Q 2434 409 2667 671 
Q 2900 934 2900 1459 
L 2900 3500 
L 3475 3500 
L 3475 806 
Q 3475 619 3529 530 
Q 3584 441 3700 441 
Q 3728 441 3778 458 
Q 3828 475 3916 513 
L 3916 50 
Q 3788 -22 3673 -56 
Q 3559 -91 3450 -91 
Q 3234 -91 3106 31 
Q 2978 153 2931 403 
Q 2775 156 2548 32 
Q 2322 -91 2016 -91 
Q 1697 -91 1473 31 
Q 1250 153 1119 397 
L 1119 -1331 
L 544 -1331 
z
" transform="scale(0.015625)"/>
       <path id="DejaVuSans-6d" d="M 3328 2828 
Q 3544 3216 3844 3400 
Q 4144 3584 4550 3584 
Q 5097 3584 5394 3201 
Q 5691 2819 5691 2113 
L 5691 0 
L 5113 0 
L 5113 2094 
Q 5113 2597 4934 2840 
Q 4756 3084 4391 3084 
Q 3944 3084 3684 2787 
Q 3425 2491 3425 1978 
L 3425 0 
L 2847 0 
L 2847 2094 
Q 2847 2600 2669 2842 
Q 2491 3084 2119 3084 
Q 1678 3084 1418 2786 
Q 1159 2488 1159 1978 
L 1159 0 
L 581 0 
L 581 3500 
L 1159 3500 
L 1159 2956 
Q 1356 3278 1631 3431 
Q 1906 3584 2284 3584 
Q 2666 3584 2933 3390 
Q 3200 3197 3328 2828 
z
" transform="scale(0.015625)"/>
       <path id="DejaVuSans-29" d="M 513 4856 
L 1013 4856 
Q 1481 4119 1714 3412 
Q 1947 2706 1947 2009 
Q 1947 1309 1714 600 
Q 1481 -109 1013 -844 
L 513 -844 
Q 928 -128 1133 580 
Q 1338 1288 1338 2009 
Q 1338 2731 1133 3434 
Q 928 4138 513 4856 
z
" transform="scale(0.015625)"/>
      </defs>
      <use xlink:href="#DejaVuSans-50"/>
      <use xlink:href="#DejaVuSans-6f" x="56.677734"/>
      <use xlink:href="#DejaVuSans-73" x="117.859375"/>
      <use xlink:href="#DejaVuSans-69" x="169.958984"/>
      <use xlink:href="#DejaVuSans-74" x="197.742188"/>
      <use xlink:href="#DejaVuSans-69" x="236.951172"/>
      <use xlink:href="#DejaVuSans-6f" x="264.734375"/>
      <use xlink:href="#DejaVuSans-6e" x="325.916016"/>
      <use xlink:href="#DejaVuSans-20" x="389.294922"/>
      <use xlink:href="#DejaVuSans-28" x="421.082031"/>
      <use xlink:href="#DejaVuSans-3bc" x="460.095703"/>
      <use xlink:href="#DejaVuSans-6d" x="523.71875"/>
      <use xlink:href="#DejaVuSans-29" x="621.130859"/>
     </g>
    </g>
   </g>
   <g id="matplotlib.axis_2">
    <g id="ytick_1">
     <g id="line2d_7">
      <defs>
       <path id="m4074e4cfe4" d="M 0 0 
L -3.5 0 
" style="stroke: #000000; stroke-width: 0.8"/>
      </defs>
      <g>
       <use xlink:href="#m4074e4cfe4" x="48.982813" y="264.324515" style="stroke: #000000; stroke-width: 0.8"/>
      </g>
     </g>
     <g id="text_8">
      <!-- −60 -->
      <g transform="translate(20.878125 268.123734) scale(0.1 -0.1)">
       <defs>
        <path id="DejaVuSans-2212" d="M 678 2272 
L 4684 2272 
L 4684 1741 
L 678 1741 
L 678 2272 
z
" transform="scale(0.015625)"/>
       </defs>
       <use xlink:href="#DejaVuSans-2212"/>
       <use xlink:href="#DejaVuSans-36" x="83.789062"/>
       <use xlink:href="#DejaVuSans-30" x="147.412109"/>
      </g>
     </g>
    </g>
    <g id="ytick_2">
     <g id="line2d_8">
      <g>
       <use xlink:href="#m4074e4cfe4" x="48.982813" y="223.083556" style="stroke: #000000; stroke-width: 0.8"/>
      </g>
     </g>
     <g id="text_9">
      <!-- −59 -->
      <g transform="translate(20.878125 226.882775) scale(0.1 -0.1)">
       <defs>
        <path id="DejaVuSans-35" d="M 691 4666 
L 3169 4666 
L 3169 4134 
L 1269 4134 
L 1269 2991 
Q 1406 3038 1543 3061 
Q 1681 3084 1819 3084 
Q 2600 3084 3056 2656 
Q 3513 2228 3513 1497 
Q 3513 744 3044 326 
Q 2575 -91 1722 -91 
Q 1428 -91 1123 -41 
Q 819 9 494 109 
L 494 744 
Q 775 591 1075 516 
Q 1375 441 1709 441 
Q 2250 441 2565 725 
Q 2881 1009 2881 1497 
Q 2881 1984 2565 2268 
Q 2250 2553 1709 2553 
Q 1456 2553 1204 2497 
Q 953 2441 691 2322 
L 691 4666 
z
" transform="scale(0.015625)"/>
        <path id="DejaVuSans-39" d="M 703 97 
L 703 672 
Q 941 559 1184 500 
Q 1428 441 1663 441 
Q 2288 441 2617 861 
Q 2947 1281 2994 2138 
Q 2813 1869 2534 1725 
Q 2256 1581 1919 1581 
Q 1219 1581 811 2004 
Q 403 2428 403 3163 
Q 403 3881 828 4315 
Q 1253 4750 1959 4750 
Q 2769 4750 3195 4129 
Q 3622 3509 3622 2328 
Q 3622 1225 3098 567 
Q 2575 -91 1691 -91 
Q 1453 -91 1209 -44 
Q 966 3 703 97 
z
M 1959 2075 
Q 2384 2075 2632 2365 
Q 2881 2656 2881 3163 
Q 2881 3666 2632 3958 
Q 2384 4250 1959 4250 
Q 1534 4250 1286 3958 
Q 1038 3666 1038 3163 
Q 1038 2656 1286 2365 
Q 1534 2075 1959 2075 
z
" transform="scale(0.015625)"/>
       </defs>
       <use xlink:href="#DejaVuSans-2212"/>
       <use xlink:href="#DejaVuSans-35" x="83.789062"/>
       <use xlink:href="#DejaVuSans-39" x="147.412109"/>
      </g>
     </g>
    </g>
    <g id="ytick_3">
     <g id="line2d_9">
      <g>
       <use xlink:href="#m4074e4cfe4" x="48.982813" y="181.842597" style="stroke: #000000; stroke-width: 0.8"/>
      </g>
     </g>
     <g id="text_10">
      <!-- −58 -->
      <g transform="translate(20.878125 185.641816) scale(0.1 -0.1)">
       <use xlink:href="#DejaVuSans-2212"/>
       <use xlink:href="#DejaVuSans-35" x="83.789062"/>
       <use xlink:href="#DejaVuSans-38" x="147.412109"/>
      </g>
     </g>
    </g>
    <g id="ytick_4">
     <g id="line2d_10">
      <g>
       <use xlink:href="#m4074e4cfe4" x="48.982813" y="140.601638" style="stroke: #000000; stroke-width: 0.8"/>
      </g>
     </g>
     <g id="text_11">
      <!-- −57 -->
      <g transform="translate(20.878125 144.400857) scale(0.1 -0.1)">
       <defs>
        <path id="DejaVuSans-37" d="M 525 4666 
L 3525 4666 
L 3525 4397 
L 1831 0 
L 1172 0 
L 2766 4134 
L 525 4134 
L 525 4666 
z
" transform="scale(0.015625)"/>
       </defs>
       <use xlink:href="#DejaVuSans-2212"/>
       <use xlink:href="#DejaVuSans-35" x="83.789062"/>
       <use xlink:href="#DejaVuSans-37" x="147.412109"/>
      </g>
     </g>
    </g>
    <g id="ytick_5">
     <g id="line2d_11">
      <g>
       <use xlink:href="#m4074e4cfe4" x="48.982813" y="99.360679" style="stroke: #000000; stroke-width: 0.8"/>
      </g>
     </g>
     <g id="text_12">
      <!-- −56 -->
      <g transform="translate(20.878125 103.159898) scale(0.1 -0.1)">
       <use xlink:href="#DejaVuSans-2212"/>
       <use xlink:href="#DejaVuSans-35" x="83.789062"/>
       <use xlink:href="#DejaVuSans-36" x="147.412109"/>
      </g>
     </g>
    </g>
    <g id="ytick_6">
     <g id="line2d_12">
      <g>
       <use xlink:href="#m4074e4cfe4" x="48.982813" y="58.11972" style="stroke: #000000; stroke-width: 0.8"/>
      </g>
     </g>
     <g id="text_13">
      <!-- −55 -->
      <g transform="translate(20.878125 61.918939) scale(0.1 -0.1)">
       <use xlink:href="#DejaVuSans-2212"/>
       <use xlink:href="#DejaVuSans-35" x="83.789062"/>
       <use xlink:href="#DejaVuSans-35" x="147.412109"/>
      </g>
     </g>
    </g>
    <g id="ytick_7">
     <g id="line2d_13">
      <g>
       <use xlink:href="#m4074e4cfe4" x="48.982813" y="16.878761" style="stroke: #000000; stroke-width: 0.8"/>
      </g>
     </g>
     <g id="text_14">
      <!-- −54 -->
      <g transform="translate(20.878125 20.67798) scale(0.1 -0.1)">
       <use xlink:href="#DejaVuSans-2212"/>
       <use xlink:href="#DejaVuSans-35" x="83.789062"/>
       <use xlink:href="#DejaVuSans-34" x="147.412109"/>
      </g>
     </g>
    </g>
    <g id="text_15">
     <!-- Steady state voltage (mV) -->
     <g transform="translate(14.798438 205.972406) rotate(-90) scale(0.1 -0.1)">
      <defs>
       <path id="DejaVuSans-53" d="M 3425 4513 
L 3425 3897 
Q 3066 4069 2747 4153 
Q 2428 4238 2131 4238 
Q 1616 4238 1336 4038 
Q 1056 3838 1056 3469 
Q 1056 3159 1242 3001 
Q 1428 2844 1947 2747 
L 2328 2669 
Q 3034 2534 3370 2195 
Q 3706 1856 3706 1288 
Q 3706 609 3251 259 
Q 2797 -91 1919 -91 
Q 1588 -91 1214 -16 
Q 841 59 441 206 
L 441 856 
Q 825 641 1194 531 
Q 1563 422 1919 422 
Q 2459 422 2753 634 
Q 3047 847 3047 1241 
Q 3047 1584 2836 1778 
Q 2625 1972 2144 2069 
L 1759 2144 
Q 1053 2284 737 2584 
Q 422 2884 422 3419 
Q 422 4038 858 4394 
Q 1294 4750 2059 4750 
Q 2388 4750 2728 4690 
Q 3069 4631 3425 4513 
z
" transform="scale(0.015625)"/>
       <path id="DejaVuSans-65" d="M 3597 1894 
L 3597 1613 
L 953 1613 
Q 991 1019 1311 708 
Q 1631 397 2203 397 
Q 2534 397 2845 478 
Q 3156 559 3463 722 
L 3463 178 
Q 3153 47 2828 -22 
Q 2503 -91 2169 -91 
Q 1331 -91 842 396 
Q 353 884 353 1716 
Q 353 2575 817 3079 
Q 1281 3584 2069 3584 
Q 2775 3584 3186 3129 
Q 3597 2675 3597 1894 
z
M 3022 2063 
Q 3016 2534 2758 2815 
Q 2500 3097 2075 3097 
Q 1594 3097 1305 2825 
Q 1016 2553 972 2059 
L 3022 2063 
z
" transform="scale(0.015625)"/>
       <path id="DejaVuSans-61" d="M 2194 1759 
Q 1497 1759 1228 1600 
Q 959 1441 959 1056 
Q 959 750 1161 570 
Q 1363 391 1709 391 
Q 2188 391 2477 730 
Q 2766 1069 2766 1631 
L 2766 1759 
L 2194 1759 
z
M 3341 1997 
L 3341 0 
L 2766 0 
L 2766 531 
Q 2569 213 2275 61 
Q 1981 -91 1556 -91 
Q 1019 -91 701 211 
Q 384 513 384 1019 
Q 384 1609 779 1909 
Q 1175 2209 1959 2209 
L 2766 2209 
L 2766 2266 
Q 2766 2663 2505 2880 
Q 2244 3097 1772 3097 
Q 1472 3097 1187 3025 
Q 903 2953 641 2809 
L 641 3341 
Q 956 3463 1253 3523 
Q 1550 3584 1831 3584 
Q 2591 3584 2966 3190 
Q 3341 2797 3341 1997 
z
" transform="scale(0.015625)"/>
       <path id="DejaVuSans-64" d="M 2906 2969 
L 2906 4863 
L 3481 4863 
L 3481 0 
L 2906 0 
L 2906 525 
Q 2725 213 2448 61 
Q 2172 -91 1784 -91 
Q 1150 -91 751 415 
Q 353 922 353 1747 
Q 353 2572 751 3078 
Q 1150 3584 1784 3584 
Q 2172 3584 2448 3432 
Q 2725 3281 2906 2969 
z
M 947 1747 
Q 947 1113 1208 752 
Q 1469 391 1925 391 
Q 2381 391 2643 752 
Q 2906 1113 2906 1747 
Q 2906 2381 2643 2742 
Q 2381 3103 1925 3103 
Q 1469 3103 1208 2742 
Q 947 2381 947 1747 
z
" transform="scale(0.015625)"/>
       <path id="DejaVuSans-79" d="M 2059 -325 
Q 1816 -950 1584 -1140 
Q 1353 -1331 966 -1331 
L 506 -1331 
L 506 -850 
L 844 -850 
Q 1081 -850 1212 -737 
Q 1344 -625 1503 -206 
L 1606 56 
L 191 3500 
L 800 3500 
L 1894 763 
L 2988 3500 
L 3597 3500 
L 2059 -325 
z
" transform="scale(0.015625)"/>
       <path id="DejaVuSans-76" d="M 191 3500 
L 800 3500 
L 1894 563 
L 2988 3500 
L 3597 3500 
L 2284 0 
L 1503 0 
L 191 3500 
z
" transform="scale(0.015625)"/>
       <path id="DejaVuSans-6c" d="M 603 4863 
L 1178 4863 
L 1178 0 
L 603 0 
L 603 4863 
z
" transform="scale(0.015625)"/>
       <path id="DejaVuSans-67" d="M 2906 1791 
Q 2906 2416 2648 2759 
Q 2391 3103 1925 3103 
Q 1463 3103 1205 2759 
Q 947 2416 947 1791 
Q 947 1169 1205 825 
Q 1463 481 1925 481 
Q 2391 481 2648 825 
Q 2906 1169 2906 1791 
z
M 3481 434 
Q 3481 -459 3084 -895 
Q 2688 -1331 1869 -1331 
Q 1566 -1331 1297 -1286 
Q 1028 -1241 775 -1147 
L 775 -588 
Q 1028 -725 1275 -790 
Q 1522 -856 1778 -856 
Q 2344 -856 2625 -561 
Q 2906 -266 2906 331 
L 2906 616 
Q 2728 306 2450 153 
Q 2172 0 1784 0 
Q 1141 0 747 490 
Q 353 981 353 1791 
Q 353 2603 747 3093 
Q 1141 3584 1784 3584 
Q 2172 3584 2450 3431 
Q 2728 3278 2906 2969 
L 2906 3500 
L 3481 3500 
L 3481 434 
z
" transform="scale(0.015625)"/>
       <path id="DejaVuSans-56" d="M 1831 0 
L 50 4666 
L 709 4666 
L 2188 738 
L 3669 4666 
L 4325 4666 
L 2547 0 
L 1831 0 
z
" transform="scale(0.015625)"/>
      </defs>
      <use xlink:href="#DejaVuSans-53"/>
      <use xlink:href="#DejaVuSans-74" x="63.476562"/>
      <use xlink:href="#DejaVuSans-65" x="102.685547"/>
      <use xlink:href="#DejaVuSans-61" x="164.208984"/>
      <use xlink:href="#DejaVuSans-64" x="225.488281"/>
      <use xlink:href="#DejaVuSans-79" x="288.964844"/>
      <use xlink:href="#DejaVuSans-20" x="348.144531"/>
      <use xlink:href="#DejaVuSans-73" x="379.931641"/>
      <use xlink:href="#DejaVuSans-74" x="432.03125"/>
      <use xlink:href="#DejaVuSans-61" x="471.240234"/>
      <use xlink:href="#DejaVuSans-74" x="532.519531"/>
      <use xlink:href="#DejaVuSans-65" x="571.728516"/>
      <use xlink:href="#DejaVuSans-20" x="633.251953"/>
      <use xlink:href="#DejaVuSans-76" x="665.039062"/>
      <use xlink:href="#DejaVuSans-6f" x="724.21875"/>
      <use xlink:href="#DejaVuSans-6c" x="785.400391"/>
      <use xlink:href="#DejaVuSans-74" x="813.183594"/>
      <use xlink:href="#DejaVuSans-61" x="852.392578"/>
      <use xlink:href="#DejaVuSans-67" x="913.671875"/>
      <use xlink:href="#DejaVuSans-65" x="977.148438"/>
      <use xlink:href="#DejaVuSans-20" x="1038.671875"/>
      <use xlink:href="#DejaVuSans-28" x="1070.458984"/>
      <use xlink:href="#DejaVuSans-6d" x="1109.472656"/>
      <use xlink:href="#DejaVuSans-56" x="1206.884766"/>
      <use xlink:href="#DejaVuSans-29" x="1275.292969"/>
     </g>
    </g>
   </g>
   <g id="line2d_14">
    <path d="M 65.21554 34.121897 
L 71.708631 56.017802 
L 78.201722 75.830639 
L 84.694813 93.758539 
L 91.187903 109.980776 
L 97.680994 124.65958 
L 104.174085 137.941729 
L 110.667176 149.960057 
L 117.160267 160.834733 
L 123.653358 170.674519 
L 130.146449 179.577796 
L 136.63954 187.633616 
L 143.132631 194.922516 
L 149.625722 201.517408 
L 156.118813 207.484216 
L 162.611903 212.882635 
L 169.104994 217.76662 
L 175.598085 222.185042 
L 182.091176 226.182053 
L 188.584267 229.797657 
L 195.077358 233.067973 
L 201.570449 236.025744 
L 208.06354 238.700506 
L 214.556631 241.11905 
L 221.049722 243.305517 
L 227.542813 245.281816 
L 234.035903 247.067666 
L 240.528994 248.680971 
L 247.022085 250.137815 
L 253.515176 251.452818 
L 260.008267 252.639078 
L 266.501358 253.708511 
L 272.994449 254.671756 
L 279.48754 255.538501 
L 285.980631 256.317358 
L 292.473722 257.016172 
L 298.966813 257.641873 
L 305.459903 258.200778 
L 311.952994 258.698415 
L 318.446085 259.139822 
L 324.939176 259.529351 
L 331.432267 259.870959 
L 337.925358 260.168 
L 344.418449 260.423509 
L 350.91154 260.639974 
L 357.404631 260.819627 
L 363.897722 260.964199 
L 370.390813 261.0752 
L 376.883903 261.153674 
L 383.376994 261.200474 
L 389.870085 261.216 
" clip-path="url(#p1142168ae5)" style="fill: none; stroke: #1f77b4; stroke-opacity: 0.75; stroke-width: 1.5; stroke-linecap: square"/>
   </g>
   <g id="line2d_15">
    <path d="M 65.21554 32.706021 
L 71.708631 54.473277 
L 78.201722 74.17696 
L 84.694813 92.012443 
L 91.187903 108.156629 
L 97.680994 122.769719 
L 104.174085 135.996739 
L 110.667176 147.96902 
L 117.160267 158.805429 
L 123.653358 168.613613 
L 130.146449 177.49098 
L 136.63954 185.525755 
L 143.132631 192.797746 
L 149.625722 199.379252 
L 156.118813 205.33565 
L 162.611903 210.726183 
L 169.104994 215.604395 
L 175.598085 220.018826 
L 182.091176 224.013316 
L 188.584267 227.627631 
L 195.077358 230.897656 
L 201.570449 233.855961 
L 208.06354 236.531908 
L 214.556631 238.952165 
L 221.049722 241.14074 
L 227.542813 243.119463 
L 234.035903 244.907947 
L 240.528994 246.524046 
L 247.022085 247.983766 
L 253.515176 249.301695 
L 260.008267 250.490869 
L 266.501358 251.563191 
L 272.994449 252.529249 
L 279.48754 253.398733 
L 285.980631 254.180209 
L 292.473722 254.881533 
L 298.966813 255.509598 
L 305.459903 256.070736 
L 311.952994 256.570443 
L 318.446085 257.013776 
L 324.939176 257.405057 
L 331.432267 257.748268 
L 337.925358 258.046733 
L 344.418449 258.303511 
L 350.91154 258.521065 
L 357.404631 258.701651 
L 363.897722 258.846974 
L 370.390813 258.958572 
L 376.883903 259.03746 
L 383.376994 259.08452 
L 389.870085 259.100123 
" clip-path="url(#p1142168ae5)" style="fill: none; stroke: #ff7f0e; stroke-opacity: 0.75; stroke-width: 1.5; stroke-linecap: square"/>
   </g>
   <g id="line2d_16">
    <path d="M 65.21554 31.276235 
L 71.708631 52.913623 
L 78.201722 72.507055 
L 84.694813 90.249134 
L 91.187903 106.314396 
L 97.680994 120.860993 
L 104.174085 134.032203 
L 110.667176 145.957833 
L 117.160267 156.755456 
L 123.653358 166.531578 
L 130.146449 175.38265 
L 136.63954 183.396036 
L 143.132631 190.65084 
L 149.625722 197.218709 
L 156.118813 203.164505 
L 162.611903 208.546974 
L 169.104994 213.419287 
L 175.598085 217.829604 
L 182.091176 221.821499 
L 188.584267 225.434445 
L 195.077358 228.704144 
L 201.570449 231.662936 
L 208.06354 234.340061 
L 214.556631 236.762006 
L 221.049722 238.952706 
L 227.542813 240.933843 
L 234.035903 242.724991 
L 240.528994 244.343887 
L 247.022085 245.806522 
L 253.515176 247.127385 
L 260.008267 248.31952 
L 266.501358 249.394742 
L 272.994449 250.363666 
L 279.48754 251.235899 
L 285.980631 252.020047 
L 292.473722 252.723891 
L 298.966813 253.354372 
L 305.459903 253.917751 
L 311.952994 254.419577 
L 318.446085 254.86484 
L 324.939176 255.257921 
L 331.432267 255.602734 
L 337.925358 255.902666 
L 344.418449 256.160709 
L 350.91154 256.379391 
L 357.404631 256.560901 
L 363.897722 256.70701 
L 370.390813 256.819189 
L 376.883903 256.898523 
L 383.376994 256.945821 
L 389.870085 256.961527 
" clip-path="url(#p1142168ae5)" style="fill: none; stroke: #2ca02c; stroke-opacity: 0.75; stroke-width: 1.5; stroke-linecap: square"/>
   </g>
   <g id="line2d_17">
    <path d="M 65.21554 26.900144 
L 71.708631 48.140339 
L 78.201722 67.396166 
L 84.694813 84.851899 
L 91.187903 100.674906 
L 97.680994 115.017177 
L 104.174085 128.016665 
L 110.667176 139.798594 
L 117.160267 150.476563 
L 123.653358 160.153662 
L 130.146449 168.923367 
L 136.63954 176.870492 
L 143.132631 184.07191 
L 149.625722 190.597367 
L 156.118813 196.510051 
L 162.611903 201.867294 
L 169.104994 206.721011 
L 175.598085 211.118315 
L 182.091176 215.101841 
L 188.584267 218.71029 
L 195.077358 221.978659 
L 201.570449 224.938729 
L 208.06354 227.619213 
L 214.556631 230.046196 
L 221.049722 232.243218 
L 227.542813 234.23168 
L 234.035903 236.030861 
L 240.528994 237.658304 
L 247.022085 239.12978 
L 253.515176 240.459653 
L 260.008267 241.660799 
L 266.501358 242.744959 
L 272.994449 243.722618 
L 279.48754 244.603348 
L 285.980631 245.395655 
L 292.473722 246.107309 
L 298.966813 246.745171 
L 305.459903 247.315511 
L 311.952994 247.823813 
L 318.446085 248.275089 
L 324.939176 248.673665 
L 331.432267 249.023485 
L 337.925358 249.327886 
L 344.418449 249.589899 
L 350.91154 249.812005 
L 357.404631 249.996434 
L 363.897722 250.144911 
L 370.390813 250.258953 
L 376.883903 250.339597 
L 383.376994 250.3877 
L 389.870085 250.403659 
" clip-path="url(#p1142168ae5)" style="fill: none; stroke: #d62728; stroke-opacity: 0.75; stroke-width: 1.5; stroke-linecap: square"/>
   </g>
   <g id="line2d_18">
    <path d="M 65.21554 19.296 
L 71.708631 39.847048 
L 78.201722 58.515658 
L 84.694813 75.472097 
L 91.187903 90.871666 
L 97.680994 104.855899 
L 104.174085 117.553738 
L 110.667176 129.082565 
L 117.160267 139.549235 
L 123.653358 149.050933 
L 130.146449 157.676086 
L 136.63954 165.505053 
L 143.132631 172.610929 
L 149.625722 179.060093 
L 156.118813 184.912916 
L 162.611903 190.224181 
L 169.104994 195.043717 
L 175.598085 199.416702 
L 182.091176 203.384238 
L 188.584267 206.983558 
L 195.077358 210.248546 
L 201.570449 213.209866 
L 208.06354 215.895436 
L 214.556631 218.330488 
L 221.049722 220.538012 
L 227.542813 222.53875 
L 234.035903 224.351617 
L 240.528994 225.993645 
L 247.022085 227.480378 
L 253.515176 228.825779 
L 260.008267 230.042603 
L 266.501358 231.142268 
L 272.994449 232.135218 
L 279.48754 233.030757 
L 285.980631 233.83741 
L 292.473722 234.562721 
L 298.966813 235.213613 
L 305.459903 235.796157 
L 311.952994 236.315931 
L 318.446085 236.777768 
L 324.939176 237.186107 
L 331.432267 237.544728 
L 337.925358 237.857098 
L 344.418449 238.126087 
L 350.91154 238.354318 
L 357.404631 238.543867 
L 363.897722 238.696605 
L 370.390813 238.813893 
L 376.883903 238.896923 
L 383.376994 238.946397 
L 389.870085 238.962864 
" clip-path="url(#p1142168ae5)" style="fill: none; stroke: #9467bd; stroke-opacity: 0.75; stroke-width: 1.5; stroke-linecap: square"/>
   </g>
   <g id="patch_3">
    <path d="M 48.982813 273.312 
L 48.982813 7.2 
" style="fill: none; stroke: #000000; stroke-width: 0.8; stroke-linejoin: miter; stroke-linecap: square"/>
   </g>
   <g id="patch_4">
    <path d="M 406.102813 273.312 
L 406.102813 7.2 
" style="fill: none; stroke: #000000; stroke-width: 0.8; stroke-linejoin: miter; stroke-linecap: square"/>
   </g>
   <g id="patch_5">
    <path d="M 48.982813 273.312 
L 406.102813 273.312 
" style="fill: none; stroke: #000000; stroke-width: 0.8; stroke-linejoin: miter; stroke-linecap: square"/>
   </g>
   <g id="patch_6">
    <path d="M 48.982813 7.2 
L 406.102813 7.2 
" style="fill: none; stroke: #000000; stroke-width: 0.8; stroke-linejoin: miter; stroke-linecap: square"/>
   </g>
   <g id="legend_1">
    <g id="line2d_19">
     <path d="M 298.518438 20.298438 
L 308.518438 20.298438 
L 318.518438 20.298438 
" style="fill: none; stroke: #1f77b4; stroke-opacity: 0.75; stroke-width: 1.5; stroke-linecap: square"/>
    </g>
    <g id="text_16">
     <!-- Passive, ϵ = 0 -->
     <g transform="translate(326.518438 23.798438) scale(0.1 -0.1)">
      <defs>
       <path id="DejaVuSans-2c" d="M 750 794 
L 1409 794 
L 1409 256 
L 897 -744 
L 494 -744 
L 750 256 
L 750 794 
z
" transform="scale(0.015625)"/>
       <path id="DejaVuSans-3f5" d="M 3075 2944 
Q 2959 2984 2844 3016 
Q 2534 3097 2203 3097 
Q 1631 3097 1313 2788 
Q 1016 2500 959 1972 
L 3075 1972 
L 3075 1522 
L 959 1522 
Q 1016 994 1313 706 
Q 1631 397 2203 397 
Q 2603 397 2844 478 
L 3075 556 
L 3075 34 
L 2828 -22 
Q 2503 -91 2169 -91 
Q 1331 -91 844 397 
Q 353 884 353 1746 
Q 353 2609 844 3097 
Q 1331 3584 2169 3584 
Q 2484 3584 2828 3516 
Q 2953 3491 3075 3453 
L 3075 2944 
z
" transform="scale(0.015625)"/>
       <path id="DejaVuSans-3d" d="M 678 2906 
L 4684 2906 
L 4684 2381 
L 678 2381 
L 678 2906 
z
M 678 1631 
L 4684 1631 
L 4684 1100 
L 678 1100 
L 678 1631 
z
" transform="scale(0.015625)"/>
      </defs>
      <use xlink:href="#DejaVuSans-50"/>
      <use xlink:href="#DejaVuSans-61" x="55.802734"/>
      <use xlink:href="#DejaVuSans-73" x="117.082031"/>
      <use xlink:href="#DejaVuSans-73" x="169.181641"/>
      <use xlink:href="#DejaVuSans-69" x="221.28125"/>
      <use xlink:href="#DejaVuSans-76" x="249.064453"/>
      <use xlink:href="#DejaVuSans-65" x="308.244141"/>
      <use xlink:href="#DejaVuSans-2c" x="369.767578"/>
      <use xlink:href="#DejaVuSans-20" x="401.554688"/>
      <use xlink:href="#DejaVuSans-3f5" x="433.341797"/>
      <use xlink:href="#DejaVuSans-20" x="494.865234"/>
      <use xlink:href="#DejaVuSans-3d" x="526.652344"/>
      <use xlink:href="#DejaVuSans-20" x="610.441406"/>
      <use xlink:href="#DejaVuSans-30" x="642.228516"/>
     </g>
    </g>
    <g id="line2d_20">
     <path d="M 298.518438 34.976563 
L 308.518438 34.976563 
L 318.518438 34.976563 
" style="fill: none; stroke: #ff7f0e; stroke-opacity: 0.75; stroke-width: 1.5; stroke-linecap: square"/>
    </g>
    <g id="text_17">
     <!-- ϵ = 0.1 -->
     <g transform="translate(326.518438 38.476563) scale(0.1 -0.1)">
      <defs>
       <path id="DejaVuSans-2e" d="M 684 794 
L 1344 794 
L 1344 0 
L 684 0 
L 684 794 
z
" transform="scale(0.015625)"/>
      </defs>
      <use xlink:href="#DejaVuSans-3f5"/>
      <use xlink:href="#DejaVuSans-20" x="61.523438"/>
      <use xlink:href="#DejaVuSans-3d" x="93.310547"/>
      <use xlink:href="#DejaVuSans-20" x="177.099609"/>
      <use xlink:href="#DejaVuSans-30" x="208.886719"/>
      <use xlink:href="#DejaVuSans-2e" x="272.509766"/>
      <use xlink:href="#DejaVuSans-31" x="304.296875"/>
     </g>
    </g>
    <g id="line2d_21">
     <path d="M 298.518438 49.654688 
L 308.518438 49.654688 
L 318.518438 49.654688 
" style="fill: none; stroke: #2ca02c; stroke-opacity: 0.75; stroke-width: 1.5; stroke-linecap: square"/>
    </g>
    <g id="text_18">
     <!-- ϵ = 0.2 -->
     <g transform="translate(326.518438 53.154688) scale(0.1 -0.1)">
      <use xlink:href="#DejaVuSans-3f5"/>
      <use xlink:href="#DejaVuSans-20" x="61.523438"/>
      <use xlink:href="#DejaVuSans-3d" x="93.310547"/>
      <use xlink:href="#DejaVuSans-20" x="177.099609"/>
      <use xlink:href="#DejaVuSans-30" x="208.886719"/>
      <use xlink:href="#DejaVuSans-2e" x="272.509766"/>
      <use xlink:href="#DejaVuSans-32" x="304.296875"/>
     </g>
    </g>
    <g id="line2d_22">
     <path d="M 298.518438 64.332813 
L 308.518438 64.332813 
L 318.518438 64.332813 
" style="fill: none; stroke: #d62728; stroke-opacity: 0.75; stroke-width: 1.5; stroke-linecap: square"/>
    </g>
    <g id="text_19">
     <!-- ϵ = 0.5 -->
     <g transform="translate(326.518438 67.832813) scale(0.1 -0.1)">
      <use xlink:href="#DejaVuSans-3f5"/>
      <use xlink:href="#DejaVuSans-20" x="61.523438"/>
      <use xlink:href="#DejaVuSans-3d" x="93.310547"/>
      <use xlink:href="#DejaVuSans-20" x="177.099609"/>
      <use xlink:href="#DejaVuSans-30" x="208.886719"/>
      <use xlink:href="#DejaVuSans-2e" x="272.509766"/>
      <use xlink:href="#DejaVuSans-35" x="304.296875"/>
     </g>
    </g>
    <g id="line2d_23">
     <path d="M 298.518438 79.010938 
L 308.518438 79.010938 
L 318.518438 79.010938 
" style="fill: none; stroke: #9467bd; stroke-opacity: 0.75; stroke-width: 1.5; stroke-linecap: square"/>
    </g>
    <g id="text_20">
     <!-- ϵ = 1.0 -->
     <g transform="translate(326.518438 82.510938) scale(0.1 -0.1)">
      <use xlink:href="#DejaVuSans-3f5"/>
      <use xlink:href="#DejaVuSans-20" x="61.523438"/>
      <use xlink:href="#DejaVuSans-3d" x="93.310547"/>
      <use xlink:href="#DejaVuSans-20" x="177.099609"/>
      <use xlink:href="#DejaVuSans-31" x="208.886719"/>
      <use xlink:href="#DejaVuSans-2e" x="272.509766"/>
      <use xlink:href="#DejaVuSans-30" x="304.296875"/>
     </g>
    </g>
   </g>
  </g>
 </g>
 <defs>
  <clipPath id="p1142168ae5">
   <rect x="48.982813" y="7.2" width="357.12" height="266.112"/>
  </clipPath>
 </defs>
</svg>
