<?xml version="1.0" encoding="utf-8" standalone="no"?>
<!DOCTYPE svg PUBLIC "-//W3C//DTD SVG 1.1//EN"
  "http://www.w3.org/Graphics/SVG/1.1/DTD/svg11.dtd">
<svg xmlns:xlink="http://www.w3.org/1999/xlink" width="562.382676pt" height="576.57625pt" viewBox="0 0 562.382676 576.57625" xmlns="http://www.w3.org/2000/svg" version="1.1">
 <metadata>
  <rdf:RDF xmlns:dc="http://purl.org/dc/elements/1.1/" xmlns:cc="http://creativecommons.org/ns#" xmlns:rdf="http://www.w3.org/1999/02/22-rdf-syntax-ns#">
   <cc:Work>
    <dc:type rdf:resource="http://purl.org/dc/dcmitype/StillImage"/>
    <dc:date>2023-04-27T16:02:20.872050</dc:date>
    <dc:format>image/svg+xml</dc:format>
    <dc:creator>
     <cc:Agent>
      <dc:title>Matplotlib v3.6.2, https://matplotlib.org/</dc:title>
     </cc:Agent>
    </dc:creator>
   </cc:Work>
  </rdf:RDF>
 </metadata>
 <defs>
  <style type="text/css">*{stroke-linejoin: round; stroke-linecap: butt}</style>
 </defs>
 <g id="figure_1">
  <g id="patch_1">
   <path d="M 0 576.57625 
L 562.382676 576.57625 
L 562.382676 0 
L 0 0 
z
" style="fill: #ffffff"/>
  </g>
  <g id="axes_1">
   <g id="patch_2">
    <path d="M 52.76875 249.25663 
L 281.041477 249.25663 
L 281.041477 32.3175 
L 52.76875 32.3175 
z
" style="fill: #ffffff"/>
   </g>
   <g id="matplotlib.axis_1">
    <g id="xtick_1">
     <g id="line2d_1">
      <defs>
       <path id="m06c85ee297" d="M 0 0 
L 0 3.5 
" style="stroke: #000000; stroke-width: 0.8"/>
      </defs>
      <g>
       <use xlink:href="#m06c85ee297" x="62.096699" y="249.25663" style="stroke: #000000; stroke-width: 0.8"/>
      </g>
     </g>
     <g id="text_1">
      <!-- 0.0 -->
      <g transform="translate(52.554824 265.374755) scale(0.12 -0.12)">
       <defs>
        <path id="DejaVuSans-30" d="M 2034 4250 
Q 1547 4250 1301 3770 
Q 1056 3291 1056 2328 
Q 1056 1369 1301 889 
Q 1547 409 2034 409 
Q 2525 409 2770 889 
Q 3016 1369 3016 2328 
Q 3016 3291 2770 3770 
Q 2525 4250 2034 4250 
z
M 2034 4750 
Q 2819 4750 3233 4129 
Q 3647 3509 3647 2328 
Q 3647 1150 3233 529 
Q 2819 -91 2034 -91 
Q 1250 -91 836 529 
Q 422 1150 422 2328 
Q 422 3509 836 4129 
Q 1250 4750 2034 4750 
z
" transform="scale(0.015625)"/>
        <path id="DejaVuSans-2e" d="M 684 794 
L 1344 794 
L 1344 0 
L 684 0 
L 684 794 
z
" transform="scale(0.015625)"/>
       </defs>
       <use xlink:href="#DejaVuSans-30"/>
       <use xlink:href="#DejaVuSans-2e" x="63.623047"/>
       <use xlink:href="#DejaVuSans-30" x="95.410156"/>
      </g>
     </g>
    </g>
    <g id="xtick_2">
     <g id="line2d_2">
      <g>
       <use xlink:href="#m06c85ee297" x="104.020065" y="249.25663" style="stroke: #000000; stroke-width: 0.8"/>
      </g>
     </g>
     <g id="text_2">
      <!-- 0.2 -->
      <g transform="translate(94.47819 265.374755) scale(0.12 -0.12)">
       <defs>
        <path id="DejaVuSans-32" d="M 1228 531 
L 3431 531 
L 3431 0 
L 469 0 
L 469 531 
Q 828 903 1448 1529 
Q 2069 2156 2228 2338 
Q 2531 2678 2651 2914 
Q 2772 3150 2772 3378 
Q 2772 3750 2511 3984 
Q 2250 4219 1831 4219 
Q 1534 4219 1204 4116 
Q 875 4013 500 3803 
L 500 4441 
Q 881 4594 1212 4672 
Q 1544 4750 1819 4750 
Q 2544 4750 2975 4387 
Q 3406 4025 3406 3419 
Q 3406 3131 3298 2873 
Q 3191 2616 2906 2266 
Q 2828 2175 2409 1742 
Q 1991 1309 1228 531 
z
" transform="scale(0.015625)"/>
       </defs>
       <use xlink:href="#DejaVuSans-30"/>
       <use xlink:href="#DejaVuSans-2e" x="63.623047"/>
       <use xlink:href="#DejaVuSans-32" x="95.410156"/>
      </g>
     </g>
    </g>
    <g id="xtick_3">
     <g id="line2d_3">
      <g>
       <use xlink:href="#m06c85ee297" x="145.943431" y="249.25663" style="stroke: #000000; stroke-width: 0.8"/>
      </g>
     </g>
     <g id="text_3">
      <!-- 0.4 -->
      <g transform="translate(136.401556 265.374755) scale(0.12 -0.12)">
       <defs>
        <path id="DejaVuSans-34" d="M 2419 4116 
L 825 1625 
L 2419 1625 
L 2419 4116 
z
M 2253 4666 
L 3047 4666 
L 3047 1625 
L 3713 1625 
L 3713 1100 
L 3047 1100 
L 3047 0 
L 2419 0 
L 2419 1100 
L 313 1100 
L 313 1709 
L 2253 4666 
z
" transform="scale(0.015625)"/>
       </defs>
       <use xlink:href="#DejaVuSans-30"/>
       <use xlink:href="#DejaVuSans-2e" x="63.623047"/>
       <use xlink:href="#DejaVuSans-34" x="95.410156"/>
      </g>
     </g>
    </g>
    <g id="xtick_4">
     <g id="line2d_4">
      <g>
       <use xlink:href="#m06c85ee297" x="187.866797" y="249.25663" style="stroke: #000000; stroke-width: 0.8"/>
      </g>
     </g>
     <g id="text_4">
      <!-- 0.6 -->
      <g transform="translate(178.324922 265.374755) scale(0.12 -0.12)">
       <defs>
        <path id="DejaVuSans-36" d="M 2113 2584 
Q 1688 2584 1439 2293 
Q 1191 2003 1191 1497 
Q 1191 994 1439 701 
Q 1688 409 2113 409 
Q 2538 409 2786 701 
Q 3034 994 3034 1497 
Q 3034 2003 2786 2293 
Q 2538 2584 2113 2584 
z
M 3366 4563 
L 3366 3988 
Q 3128 4100 2886 4159 
Q 2644 4219 2406 4219 
Q 1781 4219 1451 3797 
Q 1122 3375 1075 2522 
Q 1259 2794 1537 2939 
Q 1816 3084 2150 3084 
Q 2853 3084 3261 2657 
Q 3669 2231 3669 1497 
Q 3669 778 3244 343 
Q 2819 -91 2113 -91 
Q 1303 -91 875 529 
Q 447 1150 447 2328 
Q 447 3434 972 4092 
Q 1497 4750 2381 4750 
Q 2619 4750 2861 4703 
Q 3103 4656 3366 4563 
z
" transform="scale(0.015625)"/>
       </defs>
       <use xlink:href="#DejaVuSans-30"/>
       <use xlink:href="#DejaVuSans-2e" x="63.623047"/>
       <use xlink:href="#DejaVuSans-36" x="95.410156"/>
      </g>
     </g>
    </g>
    <g id="xtick_5">
     <g id="line2d_5">
      <g>
       <use xlink:href="#m06c85ee297" x="229.790162" y="249.25663" style="stroke: #000000; stroke-width: 0.8"/>
      </g>
     </g>
     <g id="text_5">
      <!-- 0.8 -->
      <g transform="translate(220.248287 265.374755) scale(0.12 -0.12)">
       <defs>
        <path id="DejaVuSans-38" d="M 2034 2216 
Q 1584 2216 1326 1975 
Q 1069 1734 1069 1313 
Q 1069 891 1326 650 
Q 1584 409 2034 409 
Q 2484 409 2743 651 
Q 3003 894 3003 1313 
Q 3003 1734 2745 1975 
Q 2488 2216 2034 2216 
z
M 1403 2484 
Q 997 2584 770 2862 
Q 544 3141 544 3541 
Q 544 4100 942 4425 
Q 1341 4750 2034 4750 
Q 2731 4750 3128 4425 
Q 3525 4100 3525 3541 
Q 3525 3141 3298 2862 
Q 3072 2584 2669 2484 
Q 3125 2378 3379 2068 
Q 3634 1759 3634 1313 
Q 3634 634 3220 271 
Q 2806 -91 2034 -91 
Q 1263 -91 848 271 
Q 434 634 434 1313 
Q 434 1759 690 2068 
Q 947 2378 1403 2484 
z
M 1172 3481 
Q 1172 3119 1398 2916 
Q 1625 2713 2034 2713 
Q 2441 2713 2670 2916 
Q 2900 3119 2900 3481 
Q 2900 3844 2670 4047 
Q 2441 4250 2034 4250 
Q 1625 4250 1398 4047 
Q 1172 3844 1172 3481 
z
" transform="scale(0.015625)"/>
       </defs>
       <use xlink:href="#DejaVuSans-30"/>
       <use xlink:href="#DejaVuSans-2e" x="63.623047"/>
       <use xlink:href="#DejaVuSans-38" x="95.410156"/>
      </g>
     </g>
    </g>
    <g id="xtick_6">
     <g id="line2d_6">
      <g>
       <use xlink:href="#m06c85ee297" x="271.713528" y="249.25663" style="stroke: #000000; stroke-width: 0.8"/>
      </g>
     </g>
     <g id="text_6">
      <!-- 1.0 -->
      <g transform="translate(262.171653 265.374755) scale(0.12 -0.12)">
       <defs>
        <path id="DejaVuSans-31" d="M 794 531 
L 1825 531 
L 1825 4091 
L 703 3866 
L 703 4441 
L 1819 4666 
L 2450 4666 
L 2450 531 
L 3481 531 
L 3481 0 
L 794 0 
L 794 531 
z
" transform="scale(0.015625)"/>
       </defs>
       <use xlink:href="#DejaVuSans-31"/>
       <use xlink:href="#DejaVuSans-2e" x="63.623047"/>
       <use xlink:href="#DejaVuSans-30" x="95.410156"/>
      </g>
     </g>
    </g>
   </g>
   <g id="matplotlib.axis_2">
    <g id="ytick_1">
     <g id="line2d_7">
      <defs>
       <path id="md6ef57b89b" d="M 0 0 
L -3.5 0 
" style="stroke: #000000; stroke-width: 0.8"/>
      </defs>
      <g>
       <use xlink:href="#md6ef57b89b" x="52.76875" y="239.311239" style="stroke: #000000; stroke-width: 0.8"/>
      </g>
     </g>
     <g id="text_7">
      <!-- 0.0 -->
      <g transform="translate(26.685 243.870302) scale(0.12 -0.12)">
       <use xlink:href="#DejaVuSans-30"/>
       <use xlink:href="#DejaVuSans-2e" x="63.623047"/>
       <use xlink:href="#DejaVuSans-30" x="95.410156"/>
      </g>
     </g>
    </g>
    <g id="ytick_2">
     <g id="line2d_8">
      <g>
       <use xlink:href="#md6ef57b89b" x="52.76875" y="199.884665" style="stroke: #000000; stroke-width: 0.8"/>
      </g>
     </g>
     <g id="text_8">
      <!-- 0.2 -->
      <g transform="translate(26.685 204.443728) scale(0.12 -0.12)">
       <use xlink:href="#DejaVuSans-30"/>
       <use xlink:href="#DejaVuSans-2e" x="63.623047"/>
       <use xlink:href="#DejaVuSans-32" x="95.410156"/>
      </g>
     </g>
    </g>
    <g id="ytick_3">
     <g id="line2d_9">
      <g>
       <use xlink:href="#md6ef57b89b" x="52.76875" y="160.458091" style="stroke: #000000; stroke-width: 0.8"/>
      </g>
     </g>
     <g id="text_9">
      <!-- 0.4 -->
      <g transform="translate(26.685 165.017154) scale(0.12 -0.12)">
       <use xlink:href="#DejaVuSans-30"/>
       <use xlink:href="#DejaVuSans-2e" x="63.623047"/>
       <use xlink:href="#DejaVuSans-34" x="95.410156"/>
      </g>
     </g>
    </g>
    <g id="ytick_4">
     <g id="line2d_10">
      <g>
       <use xlink:href="#md6ef57b89b" x="52.76875" y="121.031517" style="stroke: #000000; stroke-width: 0.8"/>
      </g>
     </g>
     <g id="text_10">
      <!-- 0.6 -->
      <g transform="translate(26.685 125.59058) scale(0.12 -0.12)">
       <use xlink:href="#DejaVuSans-30"/>
       <use xlink:href="#DejaVuSans-2e" x="63.623047"/>
       <use xlink:href="#DejaVuSans-36" x="95.410156"/>
      </g>
     </g>
    </g>
    <g id="ytick_5">
     <g id="line2d_11">
      <g>
       <use xlink:href="#md6ef57b89b" x="52.76875" y="81.604944" style="stroke: #000000; stroke-width: 0.8"/>
      </g>
     </g>
     <g id="text_11">
      <!-- 0.8 -->
      <g transform="translate(26.685 86.164006) scale(0.12 -0.12)">
       <use xlink:href="#DejaVuSans-30"/>
       <use xlink:href="#DejaVuSans-2e" x="63.623047"/>
       <use xlink:href="#DejaVuSans-38" x="95.410156"/>
      </g>
     </g>
    </g>
    <g id="ytick_6">
     <g id="line2d_12">
      <g>
       <use xlink:href="#md6ef57b89b" x="52.76875" y="42.17837" style="stroke: #000000; stroke-width: 0.8"/>
      </g>
     </g>
     <g id="text_12">
      <!-- 1.0 -->
      <g transform="translate(26.685 46.737432) scale(0.12 -0.12)">
       <use xlink:href="#DejaVuSans-31"/>
       <use xlink:href="#DejaVuSans-2e" x="63.623047"/>
       <use xlink:href="#DejaVuSans-30" x="95.410156"/>
      </g>
     </g>
    </g>
    <g id="text_13">
     <!-- PRC -->
     <g transform="translate(19.3575 156.355815) rotate(-90) scale(0.16 -0.16)">
      <defs>
       <path id="DejaVuSans-50" d="M 1259 4147 
L 1259 2394 
L 2053 2394 
Q 2494 2394 2734 2622 
Q 2975 2850 2975 3272 
Q 2975 3691 2734 3919 
Q 2494 4147 2053 4147 
L 1259 4147 
z
M 628 4666 
L 2053 4666 
Q 2838 4666 3239 4311 
Q 3641 3956 3641 3272 
Q 3641 2581 3239 2228 
Q 2838 1875 2053 1875 
L 1259 1875 
L 1259 0 
L 628 0 
L 628 4666 
z
" transform="scale(0.015625)"/>
       <path id="DejaVuSans-52" d="M 2841 2188 
Q 3044 2119 3236 1894 
Q 3428 1669 3622 1275 
L 4263 0 
L 3584 0 
L 2988 1197 
Q 2756 1666 2539 1819 
Q 2322 1972 1947 1972 
L 1259 1972 
L 1259 0 
L 628 0 
L 628 4666 
L 2053 4666 
Q 2853 4666 3247 4331 
Q 3641 3997 3641 3322 
Q 3641 2881 3436 2590 
Q 3231 2300 2841 2188 
z
M 1259 4147 
L 1259 2491 
L 2053 2491 
Q 2509 2491 2742 2702 
Q 2975 2913 2975 3322 
Q 2975 3731 2742 3939 
Q 2509 4147 2053 4147 
L 1259 4147 
z
" transform="scale(0.015625)"/>
       <path id="DejaVuSans-43" d="M 4122 4306 
L 4122 3641 
Q 3803 3938 3442 4084 
Q 3081 4231 2675 4231 
Q 1875 4231 1450 3742 
Q 1025 3253 1025 2328 
Q 1025 1406 1450 917 
Q 1875 428 2675 428 
Q 3081 428 3442 575 
Q 3803 722 4122 1019 
L 4122 359 
Q 3791 134 3420 21 
Q 3050 -91 2638 -91 
Q 1578 -91 968 557 
Q 359 1206 359 2328 
Q 359 3453 968 4101 
Q 1578 4750 2638 4750 
Q 3056 4750 3426 4639 
Q 3797 4528 4122 4306 
z
" transform="scale(0.015625)"/>
      </defs>
      <use xlink:href="#DejaVuSans-50"/>
      <use xlink:href="#DejaVuSans-52" x="60.302734"/>
      <use xlink:href="#DejaVuSans-43" x="124.785156"/>
     </g>
    </g>
   </g>
   <g id="line2d_13">
    <path d="M 52.76875 239.311239 
L 281.041477 239.311239 
" clip-path="url(#pda9fa69e1b)" style="fill: none; stroke-dasharray: 7.4,3.2; stroke-dashoffset: 0; stroke: #808080; stroke-opacity: 0.5; stroke-width: 2"/>
   </g>
   <g id="line2d_14">
    <path d="M 63.144783 239.030481 
L 65.240951 239.057121 
L 67.33712 238.907825 
L 69.433288 239.232976 
L 71.529456 238.866608 
L 73.625625 237.834199 
L 75.721793 237.478921 
L 77.817961 235.78975 
L 79.914129 234.766145 
L 82.010298 232.418404 
L 84.106466 230.735293 
L 86.202634 227.712739 
L 88.298803 224.697629 
L 90.394971 221.680446 
L 92.491139 217.99995 
L 94.587307 213.652876 
L 96.683476 209.305774 
L 98.779644 204.96201 
L 100.875812 199.94671 
L 102.971981 194.265367 
L 105.068149 188.591521 
L 107.164317 182.908281 
L 109.260486 176.908384 
L 111.356654 170.878828 
L 113.452822 164.444566 
L 115.54899 158.188544 
L 117.645159 151.839105 
L 119.741327 144.833376 
L 121.837495 138.484178 
L 123.933664 132.14286 
L 126.029832 125.123738 
L 128.126 118.777795 
L 130.222168 112.430921 
L 132.318337 106.084128 
L 134.414505 99.740863 
L 136.510673 94.061536 
L 138.606842 88.3867 
L 140.70301 82.700595 
L 142.799178 77.694951 
L 144.895347 72.677255 
L 146.991515 67.99654 
L 149.087683 63.651373 
L 151.183851 59.306357 
L 153.28002 56.291178 
L 155.376188 52.609967 
L 157.472356 49.808052 
L 159.568525 47.915283 
L 161.664693 45.910208 
L 163.760861 43.889877 
L 165.857029 42.868806 
L 167.953198 42.524575 
L 170.049366 42.17837 
L 172.145534 42.496968 
L 174.241703 42.815513 
L 176.337871 43.800516 
L 178.434039 45.453176 
L 180.530208 47.100779 
L 182.626376 48.753615 
L 184.722544 51.735895 
L 186.818712 54.723567 
L 188.914881 57.706758 
L 191.011049 61.354998 
L 193.107217 65.002862 
L 195.203386 69.324752 
L 197.299554 73.976331 
L 199.395722 78.287751 
L 201.49189 83.271689 
L 203.588059 88.260738 
L 205.684227 93.979635 
L 207.780395 99.554536 
L 209.876564 105.295341 
L 211.972732 110.855349 
L 214.0689 117.168728 
L 216.165069 122.825325 
L 218.261237 129.136605 
L 220.357405 135.45416 
L 222.453573 141.767183 
L 224.549742 148.088172 
L 226.64591 153.741068 
L 228.742078 160.050811 
L 230.838247 166.36661 
L 232.934415 172.021466 
L 235.030583 178.331791 
L 237.126752 183.982696 
L 239.22292 189.630054 
L 241.319088 194.621011 
L 243.415256 200.262591 
L 245.511425 205.245467 
L 247.607593 209.568551 
L 249.703761 214.550835 
L 251.79993 218.200754 
L 253.896098 222.443226 
L 255.992266 225.501166 
L 258.088434 228.917509 
L 260.184603 231.464849 
L 262.280771 234.44393 
L 264.376939 236.085565 
L 266.473108 237.724165 
L 268.569276 238.684843 
L 270.665444 239.000705 
" clip-path="url(#pda9fa69e1b)" style="fill: none; stroke: #440154; stroke-opacity: 0.75; stroke-width: 2; stroke-linecap: square"/>
   </g>
   <g id="line2d_15">
    <path d="M 63.144783 239.224347 
L 65.240951 239.395761 
L 67.33712 238.895699 
L 69.433288 239.218552 
L 71.529456 238.852763 
L 73.625625 237.812062 
L 75.721793 237.441595 
L 77.817961 235.730766 
L 79.914129 234.692258 
L 82.010298 232.981412 
L 84.106466 230.594617 
L 86.202634 227.533921 
L 88.298803 225.144601 
L 90.394971 221.411756 
L 92.491139 217.72631 
L 94.587307 213.932966 
L 96.683476 209.611586 
L 98.779644 204.425813 
L 100.875812 200.009623 
L 102.971981 194.246194 
L 105.068149 189.152938 
L 107.164317 183.385938 
L 109.260486 176.940907 
L 111.356654 171.176343 
L 113.452822 164.734009 
L 115.54899 158.289114 
L 117.645159 151.844435 
L 119.741327 145.398241 
L 121.837495 138.950842 
L 123.933664 131.834522 
L 126.029832 125.392472 
L 128.126 118.947067 
L 130.222168 112.502402 
L 132.318337 106.060099 
L 134.414505 100.287146 
L 136.510673 93.846679 
L 138.606842 88.078903 
L 140.70301 83.060884 
L 142.799178 77.893698 
L 144.895347 72.943789 
L 146.991515 67.717014 
L 149.087683 63.976773 
L 151.183851 59.570415 
L 153.28002 56.503789 
L 155.376188 52.770746 
L 157.472356 50.384454 
L 159.568525 48.001051 
L 161.664693 45.622272 
L 163.760861 43.9096 
L 165.857029 42.883426 
L 167.953198 42.530734 
L 170.049366 42.17837 
L 172.145534 42.496099 
L 174.241703 42.825556 
L 176.337871 43.825268 
L 178.434039 44.82577 
L 180.530208 46.499501 
L 182.626376 48.860448 
L 184.722544 51.211478 
L 186.818712 54.244112 
L 188.914881 57.373812 
L 191.011049 60.982277 
L 193.107217 64.875731 
L 195.203386 69.072792 
L 197.299554 73.454297 
L 199.395722 78.508331 
L 201.49189 82.896548 
L 203.588059 88.630386 
L 205.684227 93.696703 
L 207.780395 99.431156 
L 209.876564 105.167183 
L 211.972732 110.907794 
L 214.0689 116.647721 
L 216.165069 123.056154 
L 218.261237 128.797808 
L 220.357405 135.212753 
L 222.453573 141.622088 
L 224.549742 147.363145 
L 226.64591 153.779361 
L 228.742078 160.187627 
L 230.838247 165.93096 
L 232.934415 172.337974 
L 235.030583 178.079114 
L 237.126752 183.93471 
L 239.22292 189.551125 
L 241.319088 194.843755 
L 243.415256 199.675118 
L 245.511425 204.735801 
L 247.607593 209.794664 
L 249.703761 214.180315 
L 251.79993 218.558605 
L 253.896098 222.268635 
L 255.992266 225.970228 
L 258.088434 229.001565 
L 260.184603 232.027241 
L 262.280771 234.375425 
L 264.376939 236.052399 
L 266.473108 237.715721 
L 268.569276 238.689712 
L 270.665444 238.976658 
" clip-path="url(#pda9fa69e1b)" style="fill: none; stroke: #25848e; stroke-opacity: 0.75; stroke-width: 2; stroke-linecap: square"/>
   </g>
   <g id="line2d_16">
    <path d="M 63.144783 239.245981 
L 65.240951 239.278515 
L 67.33712 238.67729 
L 69.433288 239.16823 
L 71.529456 238.748383 
L 73.625625 237.529358 
L 75.721793 236.911068 
L 77.817961 235.726689 
L 79.914129 234.736947 
L 82.010298 232.552465 
L 84.106466 230.80272 
L 86.202634 227.818826 
L 88.298803 225.178519 
L 90.394971 221.564426 
L 92.491139 218.001568 
L 94.587307 214.679015 
L 96.683476 210.351885 
L 98.779644 205.168742 
L 100.875812 200.354875 
L 102.971981 195.826232 
L 105.068149 189.771216 
L 107.164317 184.827435 
L 109.260486 178.223826 
L 111.356654 172.235104 
L 113.452822 166.154771 
L 115.54899 160.481156 
L 117.645159 153.762373 
L 119.741327 146.94697 
L 121.837495 140.375778 
L 123.933664 133.772466 
L 126.029832 127.851626 
L 128.126 120.99683 
L 130.222168 114.475154 
L 132.318337 108.437687 
L 134.414505 102.767582 
L 136.510673 96.072788 
L 138.606842 90.979839 
L 140.70301 84.898954 
L 142.799178 79.76088 
L 144.895347 74.666504 
L 146.991515 69.772553 
L 149.087683 65.422518 
L 151.183851 61.764072 
L 153.28002 58.387894 
L 155.376188 54.648396 
L 157.472356 52.09682 
L 159.568525 49.134208 
L 161.664693 47.36923 
L 163.760861 45.17081 
L 165.857029 44.13537 
L 167.953198 42.825314 
L 170.049366 42.410732 
L 172.145534 42.17837 
L 174.241703 42.541279 
L 176.337871 43.614753 
L 178.434039 44.78779 
L 180.530208 46.032031 
L 182.626376 47.984509 
L 184.722544 50.649931 
L 186.818712 53.426538 
L 188.914881 56.110918 
L 191.011049 59.586735 
L 193.107217 63.209294 
L 195.203386 67.399208 
L 197.299554 71.706314 
L 199.395722 76.150592 
L 201.49189 81.113321 
L 203.588059 86.050055 
L 205.684227 91.409601 
L 207.780395 97.166035 
L 209.876564 103.258688 
L 211.972732 108.41242 
L 214.0689 115.002377 
L 216.165069 120.881356 
L 218.261237 126.608219 
L 220.357405 133.0046 
L 222.453573 139.084974 
L 224.549742 145.941273 
L 226.64591 151.604279 
L 228.742078 157.678007 
L 230.838247 164.118084 
L 232.934415 170.032876 
L 235.030583 175.974623 
L 237.126752 181.824047 
L 239.22292 187.613865 
L 241.319088 192.916685 
L 243.415256 198.637587 
L 245.511425 203.727715 
L 247.607593 208.170292 
L 249.703761 213.107167 
L 251.79993 217.425762 
L 253.896098 221.039546 
L 255.992266 224.613505 
L 258.088434 227.995443 
L 260.184603 230.828858 
L 262.280771 233.411354 
L 264.376939 235.441772 
L 266.473108 237.293786 
L 268.569276 238.462353 
L 270.665444 238.698945 
" clip-path="url(#pda9fa69e1b)" style="fill: none; stroke: #bddf26; stroke-opacity: 0.75; stroke-width: 2; stroke-linecap: square"/>
   </g>
   <g id="patch_3">
    <path d="M 52.76875 249.25663 
L 52.76875 32.3175 
" style="fill: none; stroke: #000000; stroke-width: 0.8; stroke-linejoin: miter; stroke-linecap: square"/>
   </g>
   <g id="patch_4">
    <path d="M 52.76875 249.25663 
L 281.041477 249.25663 
" style="fill: none; stroke: #000000; stroke-width: 0.8; stroke-linejoin: miter; stroke-linecap: square"/>
   </g>
   <g id="text_14">
    <!-- $\epsilon$ -->
    <g transform="translate(151.183851 188.056693) scale(0.16 -0.16)">
     <defs>
      <path id="DejaVuSans-Oblique-3b5" d="M 1263 1888 
Q 925 1963 778 2166 
Q 669 2309 669 2503 
Q 669 3034 1175 3344 
Q 1575 3588 2188 3588 
Q 2425 3588 2684 3550 
Q 2944 3513 3234 3438 
L 3134 2916 
Q 2847 3006 2606 3047 
Q 2359 3088 2138 3088 
Q 1766 3088 1522 2944 
Q 1228 2772 1228 2522 
Q 1228 2356 1381 2241 
Q 1563 2103 1925 2103 
L 2409 2103 
L 2319 1628 
L 1856 1628 
Q 1425 1628 1172 1469 
Q 828 1253 828 916 
Q 828 703 1013 563 
Q 1244 388 1716 388 
Q 2006 388 2284 444 
Q 2563 503 2806 619 
L 2700 84 
Q 2403 -3 2131 -47 
Q 1859 -91 1609 -91 
Q 866 -91 516 194 
Q 250 413 250 781 
Q 250 1278 600 1584 
Q 859 1813 1263 1888 
z
" transform="scale(0.015625)"/>
     </defs>
     <use xlink:href="#DejaVuSans-Oblique-3b5" transform="translate(0 0.9375)"/>
    </g>
   </g>
   <g id="text_15">
    <!-- $G_{\mathrm{in}} = $ 3.0 nS -->
    <g transform="translate(117.545114 26.3175) scale(0.16 -0.16)">
     <defs>
      <path id="DejaVuSans-Oblique-47" d="M 3494 697 
L 3738 1919 
L 2700 1919 
L 2797 2438 
L 4453 2438 
L 4050 384 
Q 3634 156 3143 32 
Q 2653 -91 2156 -91 
Q 1278 -91 783 396 
Q 288 884 288 1753 
Q 288 2475 589 3126 
Q 891 3778 1422 4213 
Q 1756 4484 2153 4617 
Q 2550 4750 3034 4750 
Q 3472 4750 3873 4639 
Q 4275 4528 4641 4306 
L 4513 3634 
Q 4231 3928 3853 4083 
Q 3475 4238 3047 4238 
Q 2550 4238 2172 4048 
Q 1794 3859 1497 3463 
Q 1244 3125 1098 2667 
Q 953 2209 953 1734 
Q 953 1081 1287 751 
Q 1622 422 2284 422 
Q 2616 422 2925 492 
Q 3234 563 3494 697 
z
" transform="scale(0.015625)"/>
      <path id="DejaVuSans-69" d="M 603 3500 
L 1178 3500 
L 1178 0 
L 603 0 
L 603 3500 
z
M 603 4863 
L 1178 4863 
L 1178 4134 
L 603 4134 
L 603 4863 
z
" transform="scale(0.015625)"/>
      <path id="DejaVuSans-6e" d="M 3513 2113 
L 3513 0 
L 2938 0 
L 2938 2094 
Q 2938 2591 2744 2837 
Q 2550 3084 2163 3084 
Q 1697 3084 1428 2787 
Q 1159 2491 1159 1978 
L 1159 0 
L 581 0 
L 581 3500 
L 1159 3500 
L 1159 2956 
Q 1366 3272 1645 3428 
Q 1925 3584 2291 3584 
Q 2894 3584 3203 3211 
Q 3513 2838 3513 2113 
z
" transform="scale(0.015625)"/>
      <path id="DejaVuSans-3d" d="M 678 2906 
L 4684 2906 
L 4684 2381 
L 678 2381 
L 678 2906 
z
M 678 1631 
L 4684 1631 
L 4684 1100 
L 678 1100 
L 678 1631 
z
" transform="scale(0.015625)"/>
      <path id="DejaVuSans-20" transform="scale(0.015625)"/>
      <path id="DejaVuSans-33" d="M 2597 2516 
Q 3050 2419 3304 2112 
Q 3559 1806 3559 1356 
Q 3559 666 3084 287 
Q 2609 -91 1734 -91 
Q 1441 -91 1130 -33 
Q 819 25 488 141 
L 488 750 
Q 750 597 1062 519 
Q 1375 441 1716 441 
Q 2309 441 2620 675 
Q 2931 909 2931 1356 
Q 2931 1769 2642 2001 
Q 2353 2234 1838 2234 
L 1294 2234 
L 1294 2753 
L 1863 2753 
Q 2328 2753 2575 2939 
Q 2822 3125 2822 3475 
Q 2822 3834 2567 4026 
Q 2313 4219 1838 4219 
Q 1578 4219 1281 4162 
Q 984 4106 628 3988 
L 628 4550 
Q 988 4650 1302 4700 
Q 1616 4750 1894 4750 
Q 2613 4750 3031 4423 
Q 3450 4097 3450 3541 
Q 3450 3153 3228 2886 
Q 3006 2619 2597 2516 
z
" transform="scale(0.015625)"/>
      <path id="DejaVuSans-53" d="M 3425 4513 
L 3425 3897 
Q 3066 4069 2747 4153 
Q 2428 4238 2131 4238 
Q 1616 4238 1336 4038 
Q 1056 3838 1056 3469 
Q 1056 3159 1242 3001 
Q 1428 2844 1947 2747 
L 2328 2669 
Q 3034 2534 3370 2195 
Q 3706 1856 3706 1288 
Q 3706 609 3251 259 
Q 2797 -91 1919 -91 
Q 1588 -91 1214 -16 
Q 841 59 441 206 
L 441 856 
Q 825 641 1194 531 
Q 1563 422 1919 422 
Q 2459 422 2753 634 
Q 3047 847 3047 1241 
Q 3047 1584 2836 1778 
Q 2625 1972 2144 2069 
L 1759 2144 
Q 1053 2284 737 2584 
Q 422 2884 422 3419 
Q 422 4038 858 4394 
Q 1294 4750 2059 4750 
Q 2388 4750 2728 4690 
Q 3069 4631 3425 4513 
z
" transform="scale(0.015625)"/>
     </defs>
     <use xlink:href="#DejaVuSans-Oblique-47" transform="translate(0 0.78125)"/>
     <use xlink:href="#DejaVuSans-69" transform="translate(77.490234 -15.625) scale(0.7)"/>
     <use xlink:href="#DejaVuSans-6e" transform="translate(96.938477 -15.625) scale(0.7)"/>
     <use xlink:href="#DejaVuSans-3d" transform="translate(163.520508 0.78125)"/>
     <use xlink:href="#DejaVuSans-20" transform="translate(266.791992 0.78125)"/>
     <use xlink:href="#DejaVuSans-33" transform="translate(298.579102 0.78125)"/>
     <use xlink:href="#DejaVuSans-2e" transform="translate(362.202148 0.78125)"/>
     <use xlink:href="#DejaVuSans-30" transform="translate(393.989258 0.78125)"/>
     <use xlink:href="#DejaVuSans-20" transform="translate(457.612305 0.78125)"/>
     <use xlink:href="#DejaVuSans-6e" transform="translate(489.399414 0.78125)"/>
     <use xlink:href="#DejaVuSans-53" transform="translate(552.77832 0.78125)"/>
    </g>
   </g>
   <g id="legend_1">
    <g id="line2d_17">
     <path d="M 117.051676 196.533505 
L 129.051676 196.533505 
L 141.051676 196.533505 
" style="fill: none; stroke: #440154; stroke-opacity: 0.75; stroke-width: 2; stroke-linecap: square"/>
    </g>
    <g id="text_16">
     <!-- 0 (passive) -->
     <g transform="translate(150.651676 200.733505) scale(0.12 -0.12)">
      <defs>
       <path id="DejaVuSans-28" d="M 1984 4856 
Q 1566 4138 1362 3434 
Q 1159 2731 1159 2009 
Q 1159 1288 1364 580 
Q 1569 -128 1984 -844 
L 1484 -844 
Q 1016 -109 783 600 
Q 550 1309 550 2009 
Q 550 2706 781 3412 
Q 1013 4119 1484 4856 
L 1984 4856 
z
" transform="scale(0.015625)"/>
       <path id="DejaVuSans-70" d="M 1159 525 
L 1159 -1331 
L 581 -1331 
L 581 3500 
L 1159 3500 
L 1159 2969 
Q 1341 3281 1617 3432 
Q 1894 3584 2278 3584 
Q 2916 3584 3314 3078 
Q 3713 2572 3713 1747 
Q 3713 922 3314 415 
Q 2916 -91 2278 -91 
Q 1894 -91 1617 61 
Q 1341 213 1159 525 
z
M 3116 1747 
Q 3116 2381 2855 2742 
Q 2594 3103 2138 3103 
Q 1681 3103 1420 2742 
Q 1159 2381 1159 1747 
Q 1159 1113 1420 752 
Q 1681 391 2138 391 
Q 2594 391 2855 752 
Q 3116 1113 3116 1747 
z
" transform="scale(0.015625)"/>
       <path id="DejaVuSans-61" d="M 2194 1759 
Q 1497 1759 1228 1600 
Q 959 1441 959 1056 
Q 959 750 1161 570 
Q 1363 391 1709 391 
Q 2188 391 2477 730 
Q 2766 1069 2766 1631 
L 2766 1759 
L 2194 1759 
z
M 3341 1997 
L 3341 0 
L 2766 0 
L 2766 531 
Q 2569 213 2275 61 
Q 1981 -91 1556 -91 
Q 1019 -91 701 211 
Q 384 513 384 1019 
Q 384 1609 779 1909 
Q 1175 2209 1959 2209 
L 2766 2209 
L 2766 2266 
Q 2766 2663 2505 2880 
Q 2244 3097 1772 3097 
Q 1472 3097 1187 3025 
Q 903 2953 641 2809 
L 641 3341 
Q 956 3463 1253 3523 
Q 1550 3584 1831 3584 
Q 2591 3584 2966 3190 
Q 3341 2797 3341 1997 
z
" transform="scale(0.015625)"/>
       <path id="DejaVuSans-73" d="M 2834 3397 
L 2834 2853 
Q 2591 2978 2328 3040 
Q 2066 3103 1784 3103 
Q 1356 3103 1142 2972 
Q 928 2841 928 2578 
Q 928 2378 1081 2264 
Q 1234 2150 1697 2047 
L 1894 2003 
Q 2506 1872 2764 1633 
Q 3022 1394 3022 966 
Q 3022 478 2636 193 
Q 2250 -91 1575 -91 
Q 1294 -91 989 -36 
Q 684 19 347 128 
L 347 722 
Q 666 556 975 473 
Q 1284 391 1588 391 
Q 1994 391 2212 530 
Q 2431 669 2431 922 
Q 2431 1156 2273 1281 
Q 2116 1406 1581 1522 
L 1381 1569 
Q 847 1681 609 1914 
Q 372 2147 372 2553 
Q 372 3047 722 3315 
Q 1072 3584 1716 3584 
Q 2034 3584 2315 3537 
Q 2597 3491 2834 3397 
z
" transform="scale(0.015625)"/>
       <path id="DejaVuSans-76" d="M 191 3500 
L 800 3500 
L 1894 563 
L 2988 3500 
L 3597 3500 
L 2284 0 
L 1503 0 
L 191 3500 
z
" transform="scale(0.015625)"/>
       <path id="DejaVuSans-65" d="M 3597 1894 
L 3597 1613 
L 953 1613 
Q 991 1019 1311 708 
Q 1631 397 2203 397 
Q 2534 397 2845 478 
Q 3156 559 3463 722 
L 3463 178 
Q 3153 47 2828 -22 
Q 2503 -91 2169 -91 
Q 1331 -91 842 396 
Q 353 884 353 1716 
Q 353 2575 817 3079 
Q 1281 3584 2069 3584 
Q 2775 3584 3186 3129 
Q 3597 2675 3597 1894 
z
M 3022 2063 
Q 3016 2534 2758 2815 
Q 2500 3097 2075 3097 
Q 1594 3097 1305 2825 
Q 1016 2553 972 2059 
L 3022 2063 
z
" transform="scale(0.015625)"/>
       <path id="DejaVuSans-29" d="M 513 4856 
L 1013 4856 
Q 1481 4119 1714 3412 
Q 1947 2706 1947 2009 
Q 1947 1309 1714 600 
Q 1481 -109 1013 -844 
L 513 -844 
Q 928 -128 1133 580 
Q 1338 1288 1338 2009 
Q 1338 2731 1133 3434 
Q 928 4138 513 4856 
z
" transform="scale(0.015625)"/>
      </defs>
      <use xlink:href="#DejaVuSans-30"/>
      <use xlink:href="#DejaVuSans-20" x="63.623047"/>
      <use xlink:href="#DejaVuSans-28" x="95.410156"/>
      <use xlink:href="#DejaVuSans-70" x="134.423828"/>
      <use xlink:href="#DejaVuSans-61" x="197.900391"/>
      <use xlink:href="#DejaVuSans-73" x="259.179688"/>
      <use xlink:href="#DejaVuSans-73" x="311.279297"/>
      <use xlink:href="#DejaVuSans-69" x="363.378906"/>
      <use xlink:href="#DejaVuSans-76" x="391.162109"/>
      <use xlink:href="#DejaVuSans-65" x="450.341797"/>
      <use xlink:href="#DejaVuSans-29" x="511.865234"/>
     </g>
    </g>
    <g id="line2d_18">
     <path d="M 117.051676 214.147255 
L 129.051676 214.147255 
L 141.051676 214.147255 
" style="fill: none; stroke: #25848e; stroke-opacity: 0.75; stroke-width: 2; stroke-linecap: square"/>
    </g>
    <g id="text_17">
     <!-- 0.1 -->
     <g transform="translate(150.651676 218.347255) scale(0.12 -0.12)">
      <use xlink:href="#DejaVuSans-30"/>
      <use xlink:href="#DejaVuSans-2e" x="63.623047"/>
      <use xlink:href="#DejaVuSans-31" x="95.410156"/>
     </g>
    </g>
    <g id="line2d_19">
     <path d="M 117.051676 231.761005 
L 129.051676 231.761005 
L 141.051676 231.761005 
" style="fill: none; stroke: #bddf26; stroke-opacity: 0.75; stroke-width: 2; stroke-linecap: square"/>
    </g>
    <g id="text_18">
     <!-- 1.0 -->
     <g transform="translate(150.651676 235.961005) scale(0.12 -0.12)">
      <use xlink:href="#DejaVuSans-31"/>
      <use xlink:href="#DejaVuSans-2e" x="63.623047"/>
      <use xlink:href="#DejaVuSans-30" x="95.410156"/>
     </g>
    </g>
   </g>
  </g>
  <g id="axes_2">
   <g id="patch_5">
    <path d="M 326.696023 249.25663 
L 554.96875 249.25663 
L 554.96875 32.3175 
L 326.696023 32.3175 
z
" style="fill: #ffffff"/>
   </g>
   <g id="matplotlib.axis_3">
    <g id="xtick_7">
     <g id="line2d_20">
      <g>
       <use xlink:href="#m06c85ee297" x="336.023972" y="249.25663" style="stroke: #000000; stroke-width: 0.8"/>
      </g>
     </g>
     <g id="text_19">
      <!-- 0.0 -->
      <g transform="translate(326.482097 265.374755) scale(0.12 -0.12)">
       <use xlink:href="#DejaVuSans-30"/>
       <use xlink:href="#DejaVuSans-2e" x="63.623047"/>
       <use xlink:href="#DejaVuSans-30" x="95.410156"/>
      </g>
     </g>
    </g>
    <g id="xtick_8">
     <g id="line2d_21">
      <g>
       <use xlink:href="#m06c85ee297" x="377.947338" y="249.25663" style="stroke: #000000; stroke-width: 0.8"/>
      </g>
     </g>
     <g id="text_20">
      <!-- 0.2 -->
      <g transform="translate(368.405463 265.374755) scale(0.12 -0.12)">
       <use xlink:href="#DejaVuSans-30"/>
       <use xlink:href="#DejaVuSans-2e" x="63.623047"/>
       <use xlink:href="#DejaVuSans-32" x="95.410156"/>
      </g>
     </g>
    </g>
    <g id="xtick_9">
     <g id="line2d_22">
      <g>
       <use xlink:href="#m06c85ee297" x="419.870703" y="249.25663" style="stroke: #000000; stroke-width: 0.8"/>
      </g>
     </g>
     <g id="text_21">
      <!-- 0.4 -->
      <g transform="translate(410.328828 265.374755) scale(0.12 -0.12)">
       <use xlink:href="#DejaVuSans-30"/>
       <use xlink:href="#DejaVuSans-2e" x="63.623047"/>
       <use xlink:href="#DejaVuSans-34" x="95.410156"/>
      </g>
     </g>
    </g>
    <g id="xtick_10">
     <g id="line2d_23">
      <g>
       <use xlink:href="#m06c85ee297" x="461.794069" y="249.25663" style="stroke: #000000; stroke-width: 0.8"/>
      </g>
     </g>
     <g id="text_22">
      <!-- 0.6 -->
      <g transform="translate(452.252194 265.374755) scale(0.12 -0.12)">
       <use xlink:href="#DejaVuSans-30"/>
       <use xlink:href="#DejaVuSans-2e" x="63.623047"/>
       <use xlink:href="#DejaVuSans-36" x="95.410156"/>
      </g>
     </g>
    </g>
    <g id="xtick_11">
     <g id="line2d_24">
      <g>
       <use xlink:href="#m06c85ee297" x="503.717435" y="249.25663" style="stroke: #000000; stroke-width: 0.8"/>
      </g>
     </g>
     <g id="text_23">
      <!-- 0.8 -->
      <g transform="translate(494.17556 265.374755) scale(0.12 -0.12)">
       <use xlink:href="#DejaVuSans-30"/>
       <use xlink:href="#DejaVuSans-2e" x="63.623047"/>
       <use xlink:href="#DejaVuSans-38" x="95.410156"/>
      </g>
     </g>
    </g>
    <g id="xtick_12">
     <g id="line2d_25">
      <g>
       <use xlink:href="#m06c85ee297" x="545.640801" y="249.25663" style="stroke: #000000; stroke-width: 0.8"/>
      </g>
     </g>
     <g id="text_24">
      <!-- 1.0 -->
      <g transform="translate(536.098926 265.374755) scale(0.12 -0.12)">
       <use xlink:href="#DejaVuSans-31"/>
       <use xlink:href="#DejaVuSans-2e" x="63.623047"/>
       <use xlink:href="#DejaVuSans-30" x="95.410156"/>
      </g>
     </g>
    </g>
   </g>
   <g id="matplotlib.axis_4">
    <g id="ytick_7">
     <g id="line2d_26">
      <g>
       <use xlink:href="#md6ef57b89b" x="326.696023" y="238.750407" style="stroke: #000000; stroke-width: 0.8"/>
      </g>
     </g>
     <g id="text_25">
      <!-- 0.0 -->
      <g transform="translate(300.612273 243.30947) scale(0.12 -0.12)">
       <use xlink:href="#DejaVuSans-30"/>
       <use xlink:href="#DejaVuSans-2e" x="63.623047"/>
       <use xlink:href="#DejaVuSans-30" x="95.410156"/>
      </g>
     </g>
    </g>
    <g id="ytick_8">
     <g id="line2d_27">
      <g>
       <use xlink:href="#md6ef57b89b" x="326.696023" y="199.436" style="stroke: #000000; stroke-width: 0.8"/>
      </g>
     </g>
     <g id="text_26">
      <!-- 0.2 -->
      <g transform="translate(300.612273 203.995062) scale(0.12 -0.12)">
       <use xlink:href="#DejaVuSans-30"/>
       <use xlink:href="#DejaVuSans-2e" x="63.623047"/>
       <use xlink:href="#DejaVuSans-32" x="95.410156"/>
      </g>
     </g>
    </g>
    <g id="ytick_9">
     <g id="line2d_28">
      <g>
       <use xlink:href="#md6ef57b89b" x="326.696023" y="160.121592" style="stroke: #000000; stroke-width: 0.8"/>
      </g>
     </g>
     <g id="text_27">
      <!-- 0.4 -->
      <g transform="translate(300.612273 164.680655) scale(0.12 -0.12)">
       <use xlink:href="#DejaVuSans-30"/>
       <use xlink:href="#DejaVuSans-2e" x="63.623047"/>
       <use xlink:href="#DejaVuSans-34" x="95.410156"/>
      </g>
     </g>
    </g>
    <g id="ytick_10">
     <g id="line2d_29">
      <g>
       <use xlink:href="#md6ef57b89b" x="326.696023" y="120.807185" style="stroke: #000000; stroke-width: 0.8"/>
      </g>
     </g>
     <g id="text_28">
      <!-- 0.6 -->
      <g transform="translate(300.612273 125.366247) scale(0.12 -0.12)">
       <use xlink:href="#DejaVuSans-30"/>
       <use xlink:href="#DejaVuSans-2e" x="63.623047"/>
       <use xlink:href="#DejaVuSans-36" x="95.410156"/>
      </g>
     </g>
    </g>
    <g id="ytick_11">
     <g id="line2d_30">
      <g>
       <use xlink:href="#md6ef57b89b" x="326.696023" y="81.492777" style="stroke: #000000; stroke-width: 0.8"/>
      </g>
     </g>
     <g id="text_29">
      <!-- 0.8 -->
      <g transform="translate(300.612273 86.05184) scale(0.12 -0.12)">
       <use xlink:href="#DejaVuSans-30"/>
       <use xlink:href="#DejaVuSans-2e" x="63.623047"/>
       <use xlink:href="#DejaVuSans-38" x="95.410156"/>
      </g>
     </g>
    </g>
    <g id="ytick_12">
     <g id="line2d_31">
      <g>
       <use xlink:href="#md6ef57b89b" x="326.696023" y="42.17837" style="stroke: #000000; stroke-width: 0.8"/>
      </g>
     </g>
     <g id="text_30">
      <!-- 1.0 -->
      <g transform="translate(300.612273 46.737432) scale(0.12 -0.12)">
       <use xlink:href="#DejaVuSans-31"/>
       <use xlink:href="#DejaVuSans-2e" x="63.623047"/>
       <use xlink:href="#DejaVuSans-30" x="95.410156"/>
      </g>
     </g>
    </g>
   </g>
   <g id="line2d_32">
    <path d="M 326.696023 238.750407 
L 554.96875 238.750407 
" clip-path="url(#p3a0c86888f)" style="fill: none; stroke-dasharray: 7.4,3.2; stroke-dashoffset: 0; stroke: #808080; stroke-opacity: 0.5; stroke-width: 2"/>
   </g>
   <g id="line2d_33">
    <path d="M 337.072056 238.572476 
L 339.168224 238.741339 
L 341.264392 238.802121 
L 343.360561 238.999882 
L 345.456729 239.129154 
L 347.552897 239.258425 
L 349.649066 237.291402 
L 351.745234 233.207279 
L 353.841402 225.670941 
L 355.93757 213.222443 
L 358.033739 196.581355 
L 360.129907 176.446443 
L 362.226075 154.777369 
L 364.322244 132.682794 
L 366.418412 111.849117 
L 368.51458 93.111734 
L 370.610748 76.470647 
L 372.706917 63.323384 
L 374.803085 53.669946 
L 376.899253 46.811568 
L 378.995422 43.446891 
L 381.09159 42.17837 
L 383.187758 43.70494 
L 385.283927 46.929745 
L 387.380095 51.649516 
L 389.476263 58.067514 
L 391.572431 65.184296 
L 393.6686 72.999859 
L 395.764768 81.514202 
L 397.860936 90.727321 
L 399.957105 99.241687 
L 402.053273 108.454827 
L 404.149441 117.667975 
L 406.24561 126.182366 
L 408.341778 134.626042 
L 410.437946 142.512403 
L 412.534114 150.328046 
L 414.630283 157.44493 
L 416.726451 163.863052 
L 418.822619 170.749281 
L 420.918788 176.699307 
L 423.014956 181.719909 
L 425.111124 186.740514 
L 427.207292 191.76112 
L 429.303461 196.082964 
L 431.399629 199.706045 
L 433.495797 203.329126 
L 435.591966 206.95221 
L 437.688134 209.876529 
L 439.784302 212.800849 
L 441.880471 215.277312 
L 443.976639 217.950727 
L 446.072807 219.47752 
L 448.168975 221.703078 
L 450.265144 223.229871 
L 452.361312 224.756665 
L 454.45748 226.283458 
L 456.553649 227.810252 
L 458.649817 228.638281 
L 460.745985 229.46631 
L 462.842153 230.294338 
L 464.938322 231.705517 
L 467.03449 231.950394 
L 469.130658 232.778421 
L 471.226827 233.606447 
L 473.322995 233.735708 
L 475.419163 234.235929 
L 477.515332 234.692991 
L 479.6115 235.521013 
L 481.707668 235.650268 
L 483.803836 235.779522 
L 485.900005 236.607539 
L 487.996173 236.736789 
L 490.092341 236.866035 
L 492.18851 236.995279 
L 494.284678 237.12452 
L 496.380846 237.253756 
L 498.477014 237.580759 
L 500.573183 237.512213 
L 502.669351 237.641433 
L 504.765519 237.770645 
L 506.861688 237.899848 
L 508.957856 238.02904 
L 511.054024 238.158219 
L 513.150193 238.287382 
L 515.246361 238.416526 
L 517.342529 237.846881 
L 519.438697 237.975971 
L 521.534866 237.94407 
L 523.631034 238.234021 
L 525.727202 238.362951 
L 527.823371 238.491785 
L 529.919539 237.921715 
L 532.015707 238.298712 
L 534.111875 238.178341 
L 536.208044 238.305871 
L 538.304212 238.432157 
L 540.40038 238.555446 
L 542.496549 237.973259 
L 544.592717 237.862038 
" clip-path="url(#p3a0c86888f)" style="fill: none; stroke: #440154; stroke-opacity: 0.75; stroke-width: 2; stroke-linecap: square"/>
   </g>
   <g id="line2d_34">
    <path d="M 337.072056 238.419295 
L 339.168224 239.198003 
L 341.264392 238.784715 
L 343.360561 238.355004 
L 345.456729 239.395761 
L 347.552897 238.928798 
L 349.649066 238.461773 
L 351.745234 237.995979 
L 353.841402 236.029807 
L 355.93757 232.563082 
L 358.033739 229.097314 
L 360.129907 224.1306 
L 362.226075 217.662788 
L 364.322244 210.528502 
L 366.418412 201.725134 
L 368.51458 192.255121 
L 370.610748 182.785379 
L 372.706917 171.814141 
L 374.803085 162.344804 
L 376.899253 152.875619 
L 378.995422 141.904842 
L 381.09159 132.435888 
L 383.187758 124.46874 
L 385.283927 114.979518 
L 387.380095 107.032934 
L 389.476263 99.065973 
L 391.572431 91.099055 
L 393.6686 84.633891 
L 395.764768 78.168759 
L 397.860936 73.20537 
L 399.957105 68.242003 
L 402.053273 63.278655 
L 404.149441 58.315322 
L 406.24561 54.85372 
L 408.341778 51.39213 
L 410.437946 49.432266 
L 412.534114 46.28431 
L 414.630283 45.512562 
L 416.726451 43.55272 
L 418.822619 43.094599 
L 420.918788 42.636483 
L 423.014956 42.17837 
L 425.111124 43.221977 
L 427.207292 44.265586 
L 429.303461 45.309198 
L 431.399629 46.352811 
L 433.495797 48.08609 
L 435.591966 49.941757 
L 437.688134 53.988807 
L 439.784302 56.487806 
L 441.880471 59.079472 
L 443.976639 63.126522 
L 446.072807 67.173572 
L 448.168975 71.220621 
L 450.265144 75.267669 
L 452.361312 79.314716 
L 454.45748 83.361761 
L 456.553649 88.910522 
L 458.649817 92.957564 
L 460.745985 98.167204 
L 462.842153 104.055077 
L 464.938322 109.603829 
L 467.03449 115.152578 
L 469.130658 120.701324 
L 471.226827 126.250067 
L 473.322995 131.798805 
L 475.419163 137.347538 
L 477.515332 142.896267 
L 479.6115 146.943273 
L 481.707668 152.49199 
L 483.803836 158.040699 
L 485.900005 163.589401 
L 487.996173 168.629025 
L 490.092341 174.686778 
L 492.18851 178.733733 
L 494.284678 184.282392 
L 496.380846 188.32932 
L 498.477014 192.376231 
L 500.573183 197.924841 
L 502.669351 201.971712 
L 504.765519 206.018557 
L 506.861688 208.563655 
L 508.957856 212.933393 
L 511.054024 216.657173 
L 513.150193 219.202142 
L 515.246361 221.74705 
L 517.342529 224.291882 
L 519.438697 226.836617 
L 521.534866 229.38123 
L 523.631034 230.423965 
L 525.727202 232.968204 
L 527.823371 234.010429 
L 529.919539 235.05223 
L 532.015707 236.093398 
L 534.111875 237.133556 
L 536.208044 238.650059 
L 538.304212 237.705091 
L 540.40038 238.731422 
L 542.496549 238.212915 
L 544.592717 239.360759 
" clip-path="url(#p3a0c86888f)" style="fill: none; stroke: #25848e; stroke-opacity: 0.75; stroke-width: 2; stroke-linecap: square"/>
   </g>
   <g id="line2d_35">
    <path d="M 337.072056 239.222935 
L 339.168224 239.389457 
L 341.264392 239.308941 
L 343.360561 239.015071 
L 345.456729 238.560192 
L 347.552897 238.886886 
L 349.649066 238.497684 
L 351.745234 237.16812 
L 353.841402 235.821496 
L 355.93757 234.452004 
L 358.033739 232.958137 
L 360.129907 230.681142 
L 362.226075 227.621003 
L 364.322244 224.427274 
L 366.418412 221.668809 
L 368.51458 217.917356 
L 370.610748 213.224029 
L 372.706917 208.902139 
L 374.803085 203.863872 
L 376.899253 198.855666 
L 378.995422 193.799949 
L 381.09159 187.88827 
L 383.187758 182.784546 
L 385.283927 176.00437 
L 387.380095 170.039709 
L 389.476263 163.985229 
L 391.572431 157.224759 
L 393.6686 150.403534 
L 395.764768 144.353477 
L 397.860936 137.5007 
L 399.957105 130.701238 
L 402.053273 123.886396 
L 404.149441 117.816699 
L 406.24561 111.053643 
L 408.341778 105.009674 
L 410.437946 98.286431 
L 412.534114 92.344901 
L 414.630283 87.188003 
L 416.726451 81.370929 
L 418.822619 75.865988 
L 420.918788 71.313722 
L 423.014956 66.449808 
L 425.111124 62.14909 
L 427.207292 58.900733 
L 429.303461 54.898215 
L 431.399629 52.534 
L 433.495797 49.40714 
L 435.591966 47.132229 
L 437.688134 45.717163 
L 439.784302 43.522012 
L 441.880471 43.01383 
L 443.976639 42.529002 
L 446.072807 42.17837 
L 448.168975 42.618267 
L 450.265144 43.149802 
L 452.361312 44.495004 
L 454.45748 45.925806 
L 456.553649 48.14723 
L 458.649817 50.48335 
L 460.745985 52.877417 
L 462.842153 56.101268 
L 464.938322 59.297911 
L 467.03449 63.45965 
L 469.130658 67.603759 
L 471.226827 72.10478 
L 473.322995 76.803479 
L 475.419163 81.932509 
L 477.515332 86.945204 
L 479.6115 92.791297 
L 481.707668 97.983688 
L 483.803836 103.950561 
L 485.900005 109.929712 
L 487.996173 115.916301 
L 490.092341 122.686913 
L 492.18851 128.733586 
L 494.284678 134.765635 
L 496.380846 141.558496 
L 498.477014 147.635139 
L 500.573183 154.395838 
L 502.669351 160.466136 
L 504.765519 166.486343 
L 506.861688 172.460135 
L 508.957856 178.401166 
L 511.054024 184.418075 
L 513.150193 190.364877 
L 515.246361 196.289121 
L 517.342529 201.326561 
L 519.438697 206.373283 
L 521.534866 210.635199 
L 523.631034 215.047888 
L 525.727202 219.724726 
L 527.823371 223.110748 
L 529.919539 227.068365 
L 532.015707 229.502795 
L 534.111875 232.661716 
L 536.208044 234.946141 
L 538.304212 236.420398 
L 540.40038 237.792674 
L 542.496549 239.00387 
L 544.592717 239.26904 
" clip-path="url(#p3a0c86888f)" style="fill: none; stroke: #bddf26; stroke-opacity: 0.75; stroke-width: 2; stroke-linecap: square"/>
   </g>
   <g id="patch_6">
    <path d="M 326.696023 249.25663 
L 326.696023 32.3175 
" style="fill: none; stroke: #000000; stroke-width: 0.8; stroke-linejoin: miter; stroke-linecap: square"/>
   </g>
   <g id="patch_7">
    <path d="M 326.696023 249.25663 
L 554.96875 249.25663 
" style="fill: none; stroke: #000000; stroke-width: 0.8; stroke-linejoin: miter; stroke-linecap: square"/>
   </g>
   <g id="text_31">
    <!-- $G_{\mathrm{in}} = $ 5.4 nS -->
    <g transform="translate(391.472386 26.3175) scale(0.16 -0.16)">
     <defs>
      <path id="DejaVuSans-35" d="M 691 4666 
L 3169 4666 
L 3169 4134 
L 1269 4134 
L 1269 2991 
Q 1406 3038 1543 3061 
Q 1681 3084 1819 3084 
Q 2600 3084 3056 2656 
Q 3513 2228 3513 1497 
Q 3513 744 3044 326 
Q 2575 -91 1722 -91 
Q 1428 -91 1123 -41 
Q 819 9 494 109 
L 494 744 
Q 775 591 1075 516 
Q 1375 441 1709 441 
Q 2250 441 2565 725 
Q 2881 1009 2881 1497 
Q 2881 1984 2565 2268 
Q 2250 2553 1709 2553 
Q 1456 2553 1204 2497 
Q 953 2441 691 2322 
L 691 4666 
z
" transform="scale(0.015625)"/>
     </defs>
     <use xlink:href="#DejaVuSans-Oblique-47" transform="translate(0 0.78125)"/>
     <use xlink:href="#DejaVuSans-69" transform="translate(77.490234 -15.625) scale(0.7)"/>
     <use xlink:href="#DejaVuSans-6e" transform="translate(96.938477 -15.625) scale(0.7)"/>
     <use xlink:href="#DejaVuSans-3d" transform="translate(163.520508 0.78125)"/>
     <use xlink:href="#DejaVuSans-20" transform="translate(266.791992 0.78125)"/>
     <use xlink:href="#DejaVuSans-35" transform="translate(298.579102 0.78125)"/>
     <use xlink:href="#DejaVuSans-2e" transform="translate(362.202148 0.78125)"/>
     <use xlink:href="#DejaVuSans-34" transform="translate(393.989258 0.78125)"/>
     <use xlink:href="#DejaVuSans-20" transform="translate(457.612305 0.78125)"/>
     <use xlink:href="#DejaVuSans-6e" transform="translate(489.399414 0.78125)"/>
     <use xlink:href="#DejaVuSans-53" transform="translate(552.77832 0.78125)"/>
    </g>
   </g>
  </g>
  <g id="axes_3">
   <g id="patch_8">
    <path d="M 52.76875 531.2775 
L 281.041477 531.2775 
L 281.041477 314.33837 
L 52.76875 314.33837 
z
" style="fill: #ffffff"/>
   </g>
   <g id="matplotlib.axis_5">
    <g id="xtick_13">
     <g id="line2d_36">
      <g>
       <use xlink:href="#m06c85ee297" x="62.096699" y="531.2775" style="stroke: #000000; stroke-width: 0.8"/>
      </g>
     </g>
     <g id="text_32">
      <!-- 0.0 -->
      <g transform="translate(52.554824 547.395625) scale(0.12 -0.12)">
       <use xlink:href="#DejaVuSans-30"/>
       <use xlink:href="#DejaVuSans-2e" x="63.623047"/>
       <use xlink:href="#DejaVuSans-30" x="95.410156"/>
      </g>
     </g>
    </g>
    <g id="xtick_14">
     <g id="line2d_37">
      <g>
       <use xlink:href="#m06c85ee297" x="104.020065" y="531.2775" style="stroke: #000000; stroke-width: 0.8"/>
      </g>
     </g>
     <g id="text_33">
      <!-- 0.2 -->
      <g transform="translate(94.47819 547.395625) scale(0.12 -0.12)">
       <use xlink:href="#DejaVuSans-30"/>
       <use xlink:href="#DejaVuSans-2e" x="63.623047"/>
       <use xlink:href="#DejaVuSans-32" x="95.410156"/>
      </g>
     </g>
    </g>
    <g id="xtick_15">
     <g id="line2d_38">
      <g>
       <use xlink:href="#m06c85ee297" x="145.943431" y="531.2775" style="stroke: #000000; stroke-width: 0.8"/>
      </g>
     </g>
     <g id="text_34">
      <!-- 0.4 -->
      <g transform="translate(136.401556 547.395625) scale(0.12 -0.12)">
       <use xlink:href="#DejaVuSans-30"/>
       <use xlink:href="#DejaVuSans-2e" x="63.623047"/>
       <use xlink:href="#DejaVuSans-34" x="95.410156"/>
      </g>
     </g>
    </g>
    <g id="xtick_16">
     <g id="line2d_39">
      <g>
       <use xlink:href="#m06c85ee297" x="187.866797" y="531.2775" style="stroke: #000000; stroke-width: 0.8"/>
      </g>
     </g>
     <g id="text_35">
      <!-- 0.6 -->
      <g transform="translate(178.324922 547.395625) scale(0.12 -0.12)">
       <use xlink:href="#DejaVuSans-30"/>
       <use xlink:href="#DejaVuSans-2e" x="63.623047"/>
       <use xlink:href="#DejaVuSans-36" x="95.410156"/>
      </g>
     </g>
    </g>
    <g id="xtick_17">
     <g id="line2d_40">
      <g>
       <use xlink:href="#m06c85ee297" x="229.790162" y="531.2775" style="stroke: #000000; stroke-width: 0.8"/>
      </g>
     </g>
     <g id="text_36">
      <!-- 0.8 -->
      <g transform="translate(220.248287 547.395625) scale(0.12 -0.12)">
       <use xlink:href="#DejaVuSans-30"/>
       <use xlink:href="#DejaVuSans-2e" x="63.623047"/>
       <use xlink:href="#DejaVuSans-38" x="95.410156"/>
      </g>
     </g>
    </g>
    <g id="xtick_18">
     <g id="line2d_41">
      <g>
       <use xlink:href="#m06c85ee297" x="271.713528" y="531.2775" style="stroke: #000000; stroke-width: 0.8"/>
      </g>
     </g>
     <g id="text_37">
      <!-- 1.0 -->
      <g transform="translate(262.171653 547.395625) scale(0.12 -0.12)">
       <use xlink:href="#DejaVuSans-31"/>
       <use xlink:href="#DejaVuSans-2e" x="63.623047"/>
       <use xlink:href="#DejaVuSans-30" x="95.410156"/>
      </g>
     </g>
    </g>
    <g id="text_38">
     <!-- Phase -->
     <g transform="translate(143.018864 566.04875) scale(0.16 -0.16)">
      <defs>
       <path id="DejaVuSans-68" d="M 3513 2113 
L 3513 0 
L 2938 0 
L 2938 2094 
Q 2938 2591 2744 2837 
Q 2550 3084 2163 3084 
Q 1697 3084 1428 2787 
Q 1159 2491 1159 1978 
L 1159 0 
L 581 0 
L 581 4863 
L 1159 4863 
L 1159 2956 
Q 1366 3272 1645 3428 
Q 1925 3584 2291 3584 
Q 2894 3584 3203 3211 
Q 3513 2838 3513 2113 
z
" transform="scale(0.015625)"/>
      </defs>
      <use xlink:href="#DejaVuSans-50"/>
      <use xlink:href="#DejaVuSans-68" x="60.302734"/>
      <use xlink:href="#DejaVuSans-61" x="123.681641"/>
      <use xlink:href="#DejaVuSans-73" x="184.960938"/>
      <use xlink:href="#DejaVuSans-65" x="237.060547"/>
     </g>
    </g>
   </g>
   <g id="matplotlib.axis_6">
    <g id="ytick_13">
     <g id="line2d_42">
      <g>
       <use xlink:href="#md6ef57b89b" x="52.76875" y="519.534084" style="stroke: #000000; stroke-width: 0.8"/>
      </g>
     </g>
     <g id="text_39">
      <!-- 0.0 -->
      <g transform="translate(26.685 524.093147) scale(0.12 -0.12)">
       <use xlink:href="#DejaVuSans-30"/>
       <use xlink:href="#DejaVuSans-2e" x="63.623047"/>
       <use xlink:href="#DejaVuSans-30" x="95.410156"/>
      </g>
     </g>
    </g>
    <g id="ytick_14">
     <g id="line2d_43">
      <g>
       <use xlink:href="#md6ef57b89b" x="52.76875" y="480.467115" style="stroke: #000000; stroke-width: 0.8"/>
      </g>
     </g>
     <g id="text_40">
      <!-- 0.2 -->
      <g transform="translate(26.685 485.026178) scale(0.12 -0.12)">
       <use xlink:href="#DejaVuSans-30"/>
       <use xlink:href="#DejaVuSans-2e" x="63.623047"/>
       <use xlink:href="#DejaVuSans-32" x="95.410156"/>
      </g>
     </g>
    </g>
    <g id="ytick_15">
     <g id="line2d_44">
      <g>
       <use xlink:href="#md6ef57b89b" x="52.76875" y="441.400146" style="stroke: #000000; stroke-width: 0.8"/>
      </g>
     </g>
     <g id="text_41">
      <!-- 0.4 -->
      <g transform="translate(26.685 445.959209) scale(0.12 -0.12)">
       <use xlink:href="#DejaVuSans-30"/>
       <use xlink:href="#DejaVuSans-2e" x="63.623047"/>
       <use xlink:href="#DejaVuSans-34" x="95.410156"/>
      </g>
     </g>
    </g>
    <g id="ytick_16">
     <g id="line2d_45">
      <g>
       <use xlink:href="#md6ef57b89b" x="52.76875" y="402.333177" style="stroke: #000000; stroke-width: 0.8"/>
      </g>
     </g>
     <g id="text_42">
      <!-- 0.6 -->
      <g transform="translate(26.685 406.89224) scale(0.12 -0.12)">
       <use xlink:href="#DejaVuSans-30"/>
       <use xlink:href="#DejaVuSans-2e" x="63.623047"/>
       <use xlink:href="#DejaVuSans-36" x="95.410156"/>
      </g>
     </g>
    </g>
    <g id="ytick_17">
     <g id="line2d_46">
      <g>
       <use xlink:href="#md6ef57b89b" x="52.76875" y="363.266208" style="stroke: #000000; stroke-width: 0.8"/>
      </g>
     </g>
     <g id="text_43">
      <!-- 0.8 -->
      <g transform="translate(26.685 367.825271) scale(0.12 -0.12)">
       <use xlink:href="#DejaVuSans-30"/>
       <use xlink:href="#DejaVuSans-2e" x="63.623047"/>
       <use xlink:href="#DejaVuSans-38" x="95.410156"/>
      </g>
     </g>
    </g>
    <g id="ytick_18">
     <g id="line2d_47">
      <g>
       <use xlink:href="#md6ef57b89b" x="52.76875" y="324.199239" style="stroke: #000000; stroke-width: 0.8"/>
      </g>
     </g>
     <g id="text_44">
      <!-- 1.0 -->
      <g transform="translate(26.685 328.758302) scale(0.12 -0.12)">
       <use xlink:href="#DejaVuSans-31"/>
       <use xlink:href="#DejaVuSans-2e" x="63.623047"/>
       <use xlink:href="#DejaVuSans-30" x="95.410156"/>
      </g>
     </g>
    </g>
    <g id="text_45">
     <!-- PRC -->
     <g transform="translate(19.3575 438.376685) rotate(-90) scale(0.16 -0.16)">
      <use xlink:href="#DejaVuSans-50"/>
      <use xlink:href="#DejaVuSans-52" x="60.302734"/>
      <use xlink:href="#DejaVuSans-43" x="124.785156"/>
     </g>
    </g>
   </g>
   <g id="line2d_48">
    <path d="M 52.76875 519.534084 
L 281.041477 519.534084 
" clip-path="url(#pcb8eb822fb)" style="fill: none; stroke-dasharray: 7.4,3.2; stroke-dashoffset: 0; stroke: #808080; stroke-opacity: 0.5; stroke-width: 2"/>
   </g>
   <g id="line2d_49">
    <path d="M 63.144783 518.749388 
L 65.240951 519.379592 
L 67.33712 519.827221 
L 69.433288 519.493688 
L 71.529456 520.073742 
L 73.625625 520.521371 
L 75.721793 520.969001 
L 77.817961 521.41663 
L 79.914129 521.215522 
L 82.010298 520.365674 
L 84.106466 518.867089 
L 86.202634 515.422288 
L 88.298803 510.68001 
L 90.394971 502.964488 
L 92.491139 492.761857 
L 94.587307 480.883457 
L 96.683476 467.058843 
L 98.779644 451.288013 
L 100.875812 434.868445 
L 102.971981 418.448877 
L 105.068149 402.029309 
L 107.164317 386.907218 
L 109.260486 373.082603 
L 111.356654 360.555465 
L 113.452822 349.974542 
L 115.54899 340.691096 
L 117.645159 333.875175 
L 119.741327 329.260326 
L 121.837495 325.815526 
L 123.933664 324.199239 
L 126.029832 324.764569 
L 128.126 326.509676 
L 130.222168 329.552259 
L 132.318337 333.24358 
L 134.414505 338.881116 
L 136.510673 345.167391 
L 138.606842 351.453666 
L 140.70301 359.037417 
L 142.799178 367.269907 
L 144.895347 375.502397 
L 146.991515 383.734887 
L 149.087683 392.616115 
L 151.183851 401.185021 
L 153.28002 409.081095 
L 155.376188 417.313585 
L 157.472356 425.546075 
L 159.568525 433.129826 
L 161.664693 440.713578 
L 163.760861 447.648591 
L 165.857029 453.934866 
L 167.953198 460.22114 
L 170.049366 466.507415 
L 172.145534 471.496213 
L 174.241703 476.485011 
L 176.337871 480.825071 
L 178.434039 485.185109 
L 180.530208 488.856452 
L 182.626376 492.547773 
L 184.722544 495.537529 
L 186.818712 497.984201 
L 188.914881 500.378045 
L 191.011049 502.77189 
L 193.107217 504.516996 
L 195.203386 506.262102 
L 197.299554 508.007208 
L 199.395722 509.103576 
L 201.49189 510.199944 
L 203.588059 511.296312 
L 205.684227 512.39268 
L 207.780395 513.489048 
L 209.876564 513.936677 
L 211.972732 514.785596 
L 214.0689 514.831936 
L 216.165069 515.279565 
L 218.261237 515.727195 
L 220.357405 516.174824 
L 222.453573 516.622454 
L 224.549742 516.421345 
L 226.64591 516.868974 
L 228.742078 517.316604 
L 230.838247 517.115495 
L 232.934415 517.563125 
L 235.030583 517.362016 
L 237.126752 517.160907 
L 239.22292 517.751472 
L 241.319088 517.407427 
L 243.415256 517.855057 
L 245.511425 517.653948 
L 247.607593 517.452839 
L 249.703761 517.900469 
L 251.79993 517.69936 
L 253.896098 517.498251 
L 255.992266 517.94588 
L 258.088434 517.744771 
L 260.184603 518.192401 
L 262.280771 517.991292 
L 264.376939 517.790183 
L 266.473108 518.206583 
L 268.569276 518.036704 
L 270.665444 518.484333 
" clip-path="url(#pcb8eb822fb)" style="fill: none; stroke: #440154; stroke-opacity: 0.75; stroke-width: 2; stroke-linecap: square"/>
   </g>
   <g id="line2d_50">
    <path d="M 63.144783 519.417081 
L 65.240951 519.777969 
L 67.33712 519.610362 
L 69.433288 519.898801 
L 71.529456 519.671282 
L 73.625625 519.974308 
L 75.721793 519.153531 
L 77.817961 517.77132 
L 79.914129 514.704077 
L 82.010298 509.389919 
L 84.106466 501.828776 
L 86.202634 492.020583 
L 88.298803 480.213858 
L 90.394971 466.786511 
L 92.491139 452.398964 
L 94.587307 437.058395 
L 96.683476 422.194504 
L 98.779644 407.330701 
L 100.875812 393.590637 
L 102.971981 380.974301 
L 105.068149 369.481683 
L 107.164317 359.67461 
L 109.260486 350.99124 
L 111.356654 343.431568 
L 113.452822 337.557424 
L 115.54899 332.658841 
L 117.645159 329.461118 
L 119.741327 326.958033 
L 121.837495 325.016797 
L 123.933664 324.199239 
L 126.029832 324.505359 
L 128.126 325.373322 
L 130.222168 326.803125 
L 132.318337 328.232936 
L 134.414505 330.786419 
L 136.510673 333.05899 
L 138.606842 336.526185 
L 140.70301 339.851478 
L 142.799178 343.528644 
L 144.895347 347.205812 
L 146.991515 351.444816 
L 149.087683 355.121988 
L 151.183851 359.922829 
L 153.28002 364.161837 
L 155.376188 368.96268 
L 157.472356 373.20169 
L 159.568525 378.002534 
L 161.664693 382.531021 
L 163.760861 387.042391 
L 165.857029 391.843236 
L 167.953198 396.644081 
L 170.049366 401.444926 
L 172.145534 406.245771 
L 174.241703 411.046616 
L 176.337871 415.285627 
L 178.434039 420.086471 
L 180.530208 424.32548 
L 182.626376 429.126323 
L 184.722544 433.591447 
L 186.818712 437.604339 
L 188.914881 441.843345 
L 191.011049 446.082351 
L 193.107217 450.321355 
L 195.203386 453.998525 
L 197.299554 458.237526 
L 199.395722 461.914692 
L 201.49189 465.591857 
L 203.588059 469.269019 
L 205.684227 472.384346 
L 207.780395 475.661294 
L 209.876564 479.176826 
L 211.972732 482.292144 
L 214.0689 485.40746 
L 216.165069 487.960938 
L 218.261237 490.514411 
L 220.357405 493.629713 
L 222.453573 495.621343 
L 224.549742 498.1748 
L 226.64591 500.166416 
L 228.742078 502.719857 
L 230.838247 504.245341 
L 232.934415 506.141207 
L 235.030583 508.132779 
L 237.126752 509.562502 
L 239.22292 510.992205 
L 241.319088 512.421883 
L 243.415256 513.289699 
L 245.511425 514.157476 
L 247.607593 515.587039 
L 249.703761 516.454707 
L 251.79993 516.760457 
L 253.896098 517.646508 
L 255.992266 517.933392 
L 258.088434 518.238607 
L 260.184603 518.543418 
L 262.280771 518.847529 
L 264.376939 519.150248 
L 266.473108 519.449614 
L 268.569276 519.168293 
L 270.665444 519.406385 
" clip-path="url(#pcb8eb822fb)" style="fill: none; stroke: #25848e; stroke-opacity: 0.75; stroke-width: 2; stroke-linecap: square"/>
   </g>
   <g id="line2d_51">
    <path d="M 63.144783 520.016184 
L 65.240951 520.063159 
L 67.33712 519.220607 
L 69.433288 519.792886 
L 71.529456 519.33661 
L 73.625625 518.872754 
L 75.721793 518.420499 
L 77.817961 517.97776 
L 79.914129 516.618461 
L 82.010298 515.261095 
L 84.106466 512.875768 
L 86.202634 510.720141 
L 88.298803 508.121752 
L 90.394971 505.27384 
L 92.491139 502.102688 
L 94.587307 498.003045 
L 96.683476 493.909913 
L 98.779644 489.823259 
L 100.875812 484.812789 
L 102.971981 479.806322 
L 105.068149 474.806765 
L 107.164317 468.880189 
L 109.260486 463.877474 
L 111.356654 457.042213 
L 113.452822 451.121734 
L 115.54899 445.210295 
L 117.645159 438.369022 
L 119.741327 432.452283 
L 121.837495 425.622687 
L 123.933664 418.784938 
L 126.029832 411.950352 
L 128.126 405.438401 
L 130.222168 399.202163 
L 132.318337 392.73735 
L 134.414505 386.444073 
L 136.510673 380.531631 
L 138.606842 374.611555 
L 140.70301 368.686654 
L 142.799178 363.688652 
L 144.895347 358.684831 
L 146.991515 353.679718 
L 149.087683 348.666094 
L 151.183851 344.575197 
L 153.28002 341.403351 
L 155.376188 337.307967 
L 157.472356 334.130733 
L 159.568525 331.876082 
L 161.664693 329.613034 
L 163.760861 327.34358 
L 165.857029 325.994732 
L 167.953198 324.958893 
L 170.049366 325.130327 
L 172.145534 324.199239 
L 174.241703 325.178747 
L 176.337871 325.652893 
L 178.434039 327.051934 
L 180.530208 328.444393 
L 182.626376 330.749386 
L 184.722544 333.060572 
L 186.818712 335.361853 
L 188.914881 338.589273 
L 191.011049 341.80505 
L 193.107217 345.949844 
L 195.203386 350.084323 
L 197.299554 354.21309 
L 199.395722 359.271075 
L 201.49189 364.319515 
L 203.588059 369.370978 
L 205.684227 374.413721 
L 207.780395 380.385054 
L 209.876564 386.345578 
L 211.972732 391.483904 
L 214.0689 398.277857 
L 216.165069 404.491002 
L 218.261237 410.197991 
L 220.357405 417.079186 
L 222.453573 423.050259 
L 224.549742 429.004909 
L 226.64591 435.890553 
L 228.742078 441.853354 
L 230.838247 447.811348 
L 232.934415 453.775562 
L 235.030583 459.739086 
L 237.126752 465.702186 
L 239.22292 471.673978 
L 241.319088 476.715742 
L 243.415256 481.764985 
L 245.511425 486.813719 
L 247.607593 491.873185 
L 249.703761 495.998489 
L 251.79993 500.132828 
L 253.896098 504.274782 
L 255.992266 507.753759 
L 258.088434 510.713044 
L 260.184603 512.932336 
L 262.280771 515.316158 
L 264.376939 516.693745 
L 266.473108 518.065725 
L 268.569276 519.286474 
L 270.665444 519.822442 
" clip-path="url(#pcb8eb822fb)" style="fill: none; stroke: #bddf26; stroke-opacity: 0.75; stroke-width: 2; stroke-linecap: square"/>
   </g>
   <g id="patch_9">
    <path d="M 52.76875 531.2775 
L 52.76875 314.33837 
" style="fill: none; stroke: #000000; stroke-width: 0.8; stroke-linejoin: miter; stroke-linecap: square"/>
   </g>
   <g id="patch_10">
    <path d="M 52.76875 531.2775 
L 281.041477 531.2775 
" style="fill: none; stroke: #000000; stroke-width: 0.8; stroke-linejoin: miter; stroke-linecap: square"/>
   </g>
   <g id="text_46">
    <!-- $G_{\mathrm{in}} = $ 5.5 nS -->
    <g transform="translate(117.545114 308.33837) scale(0.16 -0.16)">
     <use xlink:href="#DejaVuSans-Oblique-47" transform="translate(0 0.78125)"/>
     <use xlink:href="#DejaVuSans-69" transform="translate(77.490234 -15.625) scale(0.7)"/>
     <use xlink:href="#DejaVuSans-6e" transform="translate(96.938477 -15.625) scale(0.7)"/>
     <use xlink:href="#DejaVuSans-3d" transform="translate(163.520508 0.78125)"/>
     <use xlink:href="#DejaVuSans-20" transform="translate(266.791992 0.78125)"/>
     <use xlink:href="#DejaVuSans-35" transform="translate(298.579102 0.78125)"/>
     <use xlink:href="#DejaVuSans-2e" transform="translate(362.202148 0.78125)"/>
     <use xlink:href="#DejaVuSans-35" transform="translate(393.989258 0.78125)"/>
     <use xlink:href="#DejaVuSans-20" transform="translate(457.612305 0.78125)"/>
     <use xlink:href="#DejaVuSans-6e" transform="translate(489.399414 0.78125)"/>
     <use xlink:href="#DejaVuSans-53" transform="translate(552.77832 0.78125)"/>
    </g>
   </g>
  </g>
  <g id="axes_4">
   <g id="patch_11">
    <path d="M 326.696023 531.2775 
L 554.96875 531.2775 
L 554.96875 314.33837 
L 326.696023 314.33837 
z
" style="fill: #ffffff"/>
   </g>
   <g id="matplotlib.axis_7">
    <g id="xtick_19">
     <g id="line2d_52">
      <g>
       <use xlink:href="#m06c85ee297" x="336.023972" y="531.2775" style="stroke: #000000; stroke-width: 0.8"/>
      </g>
     </g>
     <g id="text_47">
      <!-- 0.0 -->
      <g transform="translate(326.482097 547.395625) scale(0.12 -0.12)">
       <use xlink:href="#DejaVuSans-30"/>
       <use xlink:href="#DejaVuSans-2e" x="63.623047"/>
       <use xlink:href="#DejaVuSans-30" x="95.410156"/>
      </g>
     </g>
    </g>
    <g id="xtick_20">
     <g id="line2d_53">
      <g>
       <use xlink:href="#m06c85ee297" x="377.947338" y="531.2775" style="stroke: #000000; stroke-width: 0.8"/>
      </g>
     </g>
     <g id="text_48">
      <!-- 0.2 -->
      <g transform="translate(368.405463 547.395625) scale(0.12 -0.12)">
       <use xlink:href="#DejaVuSans-30"/>
       <use xlink:href="#DejaVuSans-2e" x="63.623047"/>
       <use xlink:href="#DejaVuSans-32" x="95.410156"/>
      </g>
     </g>
    </g>
    <g id="xtick_21">
     <g id="line2d_54">
      <g>
       <use xlink:href="#m06c85ee297" x="419.870703" y="531.2775" style="stroke: #000000; stroke-width: 0.8"/>
      </g>
     </g>
     <g id="text_49">
      <!-- 0.4 -->
      <g transform="translate(410.328828 547.395625) scale(0.12 -0.12)">
       <use xlink:href="#DejaVuSans-30"/>
       <use xlink:href="#DejaVuSans-2e" x="63.623047"/>
       <use xlink:href="#DejaVuSans-34" x="95.410156"/>
      </g>
     </g>
    </g>
    <g id="xtick_22">
     <g id="line2d_55">
      <g>
       <use xlink:href="#m06c85ee297" x="461.794069" y="531.2775" style="stroke: #000000; stroke-width: 0.8"/>
      </g>
     </g>
     <g id="text_50">
      <!-- 0.6 -->
      <g transform="translate(452.252194 547.395625) scale(0.12 -0.12)">
       <use xlink:href="#DejaVuSans-30"/>
       <use xlink:href="#DejaVuSans-2e" x="63.623047"/>
       <use xlink:href="#DejaVuSans-36" x="95.410156"/>
      </g>
     </g>
    </g>
    <g id="xtick_23">
     <g id="line2d_56">
      <g>
       <use xlink:href="#m06c85ee297" x="503.717435" y="531.2775" style="stroke: #000000; stroke-width: 0.8"/>
      </g>
     </g>
     <g id="text_51">
      <!-- 0.8 -->
      <g transform="translate(494.17556 547.395625) scale(0.12 -0.12)">
       <use xlink:href="#DejaVuSans-30"/>
       <use xlink:href="#DejaVuSans-2e" x="63.623047"/>
       <use xlink:href="#DejaVuSans-38" x="95.410156"/>
      </g>
     </g>
    </g>
    <g id="xtick_24">
     <g id="line2d_57">
      <g>
       <use xlink:href="#m06c85ee297" x="545.640801" y="531.2775" style="stroke: #000000; stroke-width: 0.8"/>
      </g>
     </g>
     <g id="text_52">
      <!-- 1.0 -->
      <g transform="translate(536.098926 547.395625) scale(0.12 -0.12)">
       <use xlink:href="#DejaVuSans-31"/>
       <use xlink:href="#DejaVuSans-2e" x="63.623047"/>
       <use xlink:href="#DejaVuSans-30" x="95.410156"/>
      </g>
     </g>
    </g>
    <g id="text_53">
     <!-- Phase -->
     <g transform="translate(416.946136 566.04875) scale(0.16 -0.16)">
      <use xlink:href="#DejaVuSans-50"/>
      <use xlink:href="#DejaVuSans-68" x="60.302734"/>
      <use xlink:href="#DejaVuSans-61" x="123.681641"/>
      <use xlink:href="#DejaVuSans-73" x="184.960938"/>
      <use xlink:href="#DejaVuSans-65" x="237.060547"/>
     </g>
    </g>
   </g>
   <g id="matplotlib.axis_8">
    <g id="ytick_19">
     <g id="line2d_58">
      <g>
       <use xlink:href="#md6ef57b89b" x="326.696023" y="527.291738" style="stroke: #000000; stroke-width: 0.8"/>
      </g>
     </g>
     <g id="text_54">
      <!-- 0.2 -->
      <g transform="translate(290.556648 531.850801) scale(0.12 -0.12)">
       <defs>
        <path id="DejaVuSans-2212" d="M 678 2272 
L 4684 2272 
L 4684 1741 
L 678 1741 
L 678 2272 
z
" transform="scale(0.015625)"/>
       </defs>
       <use xlink:href="#DejaVuSans-2212"/>
       <use xlink:href="#DejaVuSans-30" x="83.789062"/>
       <use xlink:href="#DejaVuSans-2e" x="147.412109"/>
       <use xlink:href="#DejaVuSans-32" x="179.199219"/>
      </g>
     </g>
    </g>
    <g id="ytick_20">
     <g id="line2d_59">
      <g>
       <use xlink:href="#md6ef57b89b" x="326.696023" y="493.442988" style="stroke: #000000; stroke-width: 0.8"/>
      </g>
     </g>
     <g id="text_55">
      <!-- 0.0 -->
      <g transform="translate(300.612273 498.002051) scale(0.12 -0.12)">
       <use xlink:href="#DejaVuSans-30"/>
       <use xlink:href="#DejaVuSans-2e" x="63.623047"/>
       <use xlink:href="#DejaVuSans-30" x="95.410156"/>
      </g>
     </g>
    </g>
    <g id="ytick_21">
     <g id="line2d_60">
      <g>
       <use xlink:href="#md6ef57b89b" x="326.696023" y="459.594239" style="stroke: #000000; stroke-width: 0.8"/>
      </g>
     </g>
     <g id="text_56">
      <!-- 0.2 -->
      <g transform="translate(300.612273 464.153301) scale(0.12 -0.12)">
       <use xlink:href="#DejaVuSans-30"/>
       <use xlink:href="#DejaVuSans-2e" x="63.623047"/>
       <use xlink:href="#DejaVuSans-32" x="95.410156"/>
      </g>
     </g>
    </g>
    <g id="ytick_22">
     <g id="line2d_61">
      <g>
       <use xlink:href="#md6ef57b89b" x="326.696023" y="425.745489" style="stroke: #000000; stroke-width: 0.8"/>
      </g>
     </g>
     <g id="text_57">
      <!-- 0.4 -->
      <g transform="translate(300.612273 430.304551) scale(0.12 -0.12)">
       <use xlink:href="#DejaVuSans-30"/>
       <use xlink:href="#DejaVuSans-2e" x="63.623047"/>
       <use xlink:href="#DejaVuSans-34" x="95.410156"/>
      </g>
     </g>
    </g>
    <g id="ytick_23">
     <g id="line2d_62">
      <g>
       <use xlink:href="#md6ef57b89b" x="326.696023" y="391.896739" style="stroke: #000000; stroke-width: 0.8"/>
      </g>
     </g>
     <g id="text_58">
      <!-- 0.6 -->
      <g transform="translate(300.612273 396.455801) scale(0.12 -0.12)">
       <use xlink:href="#DejaVuSans-30"/>
       <use xlink:href="#DejaVuSans-2e" x="63.623047"/>
       <use xlink:href="#DejaVuSans-36" x="95.410156"/>
      </g>
     </g>
    </g>
    <g id="ytick_24">
     <g id="line2d_63">
      <g>
       <use xlink:href="#md6ef57b89b" x="326.696023" y="358.047989" style="stroke: #000000; stroke-width: 0.8"/>
      </g>
     </g>
     <g id="text_59">
      <!-- 0.8 -->
      <g transform="translate(300.612273 362.607051) scale(0.12 -0.12)">
       <use xlink:href="#DejaVuSans-30"/>
       <use xlink:href="#DejaVuSans-2e" x="63.623047"/>
       <use xlink:href="#DejaVuSans-38" x="95.410156"/>
      </g>
     </g>
    </g>
    <g id="ytick_25">
     <g id="line2d_64">
      <g>
       <use xlink:href="#md6ef57b89b" x="326.696023" y="324.199239" style="stroke: #000000; stroke-width: 0.8"/>
      </g>
     </g>
     <g id="text_60">
      <!-- 1.0 -->
      <g transform="translate(300.612273 328.758302) scale(0.12 -0.12)">
       <use xlink:href="#DejaVuSans-31"/>
       <use xlink:href="#DejaVuSans-2e" x="63.623047"/>
       <use xlink:href="#DejaVuSans-30" x="95.410156"/>
      </g>
     </g>
    </g>
   </g>
   <g id="line2d_65">
    <path d="M 326.696023 493.442988 
L 554.96875 493.442988 
" clip-path="url(#p2677ee4302)" style="fill: none; stroke-dasharray: 7.4,3.2; stroke-dashoffset: 0; stroke: #808080; stroke-opacity: 0.5; stroke-width: 2"/>
   </g>
   <g id="line2d_66">
    <path d="M 337.072056 493.895739 
L 339.168224 498.285076 
L 341.264392 501.894793 
L 343.360561 506.765574 
L 345.456729 508.171756 
L 347.552897 511.31497 
L 349.649066 514.370755 
L 351.745234 515.871153 
L 353.841402 517.285441 
L 355.93757 518.702095 
L 358.033739 518.38704 
L 360.129907 519.807723 
L 362.226075 519.496139 
L 364.322244 520.919641 
L 366.418412 520.610151 
L 368.51458 520.301116 
L 370.610748 519.992126 
L 372.706917 521.41663 
L 374.803085 521.10655 
L 376.899253 520.795387 
L 378.995422 520.482839 
L 381.09159 520.168659 
L 383.187758 519.852653 
L 385.283927 519.534687 
L 387.380095 519.214682 
L 389.476263 518.892607 
L 391.572431 518.568476 
L 393.6686 516.508488 
L 395.764768 516.18042 
L 397.860936 514.116671 
L 399.957105 513.785059 
L 402.053273 511.718 
L 404.149441 508.598596 
L 406.24561 505.845741 
L 408.341778 503.774627 
L 410.437946 499.968545 
L 412.534114 496.161457 
L 414.630283 492.031748 
L 416.726451 486.810816 
L 418.822619 481.267443 
L 420.918788 475.723427 
L 423.014956 470.178839 
L 425.111124 462.631878 
L 427.207292 457.354351 
L 429.303461 450.07456 
L 431.399629 441.060566 
L 433.495797 433.780109 
L 435.591966 426.498372 
L 437.688134 419.218396 
L 439.784302 410.203347 
L 441.880471 402.921953 
L 443.976639 393.906531 
L 446.072807 386.624802 
L 448.168975 379.342929 
L 450.265144 372.060923 
L 452.361312 364.778795 
L 454.45748 359.230403 
L 456.553649 353.681904 
L 458.649817 348.133302 
L 460.745985 342.584601 
L 462.842153 338.769653 
L 464.938322 334.954609 
L 467.03449 331.139469 
L 469.130658 329.058083 
L 471.226827 326.976599 
L 473.322995 324.895017 
L 475.419163 324.547181 
L 477.515332 324.199239 
L 479.6115 325.118155 
L 481.707668 326.970722 
L 483.803836 328.356291 
L 485.900005 329.74174 
L 487.996173 332.860913 
L 490.092341 337.280343 
L 492.18851 340.832719 
L 494.284678 343.951498 
L 496.380846 348.80399 
L 498.477014 353.656349 
L 500.573183 360.378853 
L 502.669351 365.094516 
L 504.765519 371.680337 
L 506.861688 378.266044 
L 508.957856 384.851651 
L 511.054024 391.583757 
L 513.150193 398.022643 
L 515.246361 404.608082 
L 517.342529 411.193531 
L 519.438697 417.779039 
L 521.534866 426.098511 
L 523.631034 432.684319 
L 525.727202 439.270397 
L 527.823371 445.85685 
L 529.919539 452.443776 
L 532.015707 459.031258 
L 534.111875 465.61738 
L 536.208044 470.470776 
L 538.304212 477.059365 
L 540.40038 481.915678 
L 542.496549 486.773808 
L 544.592717 491.634005 
" clip-path="url(#p2677ee4302)" style="fill: none; stroke: #440154; stroke-opacity: 0.75; stroke-width: 2; stroke-linecap: square"/>
   </g>
   <g id="line2d_67">
    <path d="M 337.072056 488.6694 
L 339.168224 490.792315 
L 341.264392 492.918402 
L 343.360561 493.887588 
L 345.456729 496.016552 
L 347.552897 496.988885 
L 349.649066 497.963206 
L 351.745234 497.780323 
L 353.841402 498.757499 
L 355.93757 498.576512 
L 358.033739 498.288762 
L 360.129907 499.3676 
L 362.226075 499.179764 
L 364.322244 498.991067 
L 366.418412 499.96017 
L 368.51458 499.769291 
L 370.610748 500.736133 
L 372.706917 500.543059 
L 374.803085 501.507873 
L 376.899253 501.312994 
L 378.995422 501.117397 
L 381.09159 500.921203 
L 383.187758 500.721267 
L 385.283927 500.527438 
L 387.380095 499.17118 
L 389.476263 498.973513 
L 391.572431 496.457943 
L 393.6686 493.942215 
L 395.764768 492.030642 
L 397.860936 488.910427 
L 399.957105 484.076719 
L 402.053273 479.242963 
L 404.149441 474.409176 
L 406.24561 468.416519 
L 408.341778 462.313808 
L 410.437946 455.272329 
L 412.534114 448.12081 
L 414.630283 440.9693 
L 416.726451 432.658949 
L 418.822619 424.348611 
L 420.918788 416.213587 
L 423.014956 407.727981 
L 425.111124 399.417691 
L 427.207292 391.107417 
L 429.303461 382.797161 
L 431.399629 375.645771 
L 433.495797 368.571079 
L 435.591966 361.343037 
L 437.688134 355.350543 
L 439.784302 349.358063 
L 441.880471 344.524445 
L 443.976639 339.690837 
L 446.072807 336.016091 
L 448.168975 332.341353 
L 450.265144 329.825473 
L 452.361312 327.309598 
L 454.45748 325.952581 
L 456.553649 324.595566 
L 458.649817 324.397403 
L 460.745985 324.199239 
L 462.842153 325.159924 
L 464.938322 326.120605 
L 467.03449 328.24013 
L 469.130658 330.359648 
L 471.226827 332.479155 
L 473.322995 335.7575 
L 475.419163 339.035831 
L 477.515332 342.314144 
L 479.6115 346.751288 
L 481.707668 351.188393 
L 483.803836 355.624698 
L 485.900005 360.060954 
L 487.996173 364.497156 
L 490.092341 370.092149 
L 492.18851 374.528223 
L 494.284678 379.835429 
L 496.380846 385.717839 
L 498.477014 391.312513 
L 500.573183 395.748234 
L 502.669351 401.342691 
L 504.765519 406.937026 
L 506.861688 412.729155 
L 508.957856 416.966421 
L 511.054024 422.560307 
L 513.150193 428.154017 
L 515.246361 432.588687 
L 517.342529 437.023157 
L 519.438697 442.031215 
L 521.534866 447.050307 
L 523.631034 451.48413 
L 525.727202 455.917744 
L 527.823371 460.351171 
L 529.919539 463.6256 
L 532.015707 467.558182 
L 534.111875 471.333162 
L 536.208044 474.607682 
L 538.304212 477.882546 
L 540.40038 481.156612 
L 542.496549 484.431488 
L 544.592717 487.037533 
" clip-path="url(#p2677ee4302)" style="fill: none; stroke: #25848e; stroke-opacity: 0.75; stroke-width: 2; stroke-linecap: square"/>
   </g>
   <g id="line2d_68">
    <path d="M 337.072056 493.226018 
L 339.168224 493.396213 
L 341.264392 493.239711 
L 343.360561 492.926167 
L 345.456729 493.334919 
L 347.552897 492.919986 
L 349.649066 492.271708 
L 351.745234 492.105229 
L 353.841402 491.003119 
L 355.93757 489.6723 
L 358.033739 488.095453 
L 360.129907 486.4292 
L 362.226075 483.585062 
L 364.322244 481.556921 
L 366.418412 478.714662 
L 368.51458 475.055257 
L 370.610748 471.39538 
L 372.706917 467.737414 
L 374.803085 463.26179 
L 376.899253 459.602741 
L 378.995422 454.312445 
L 381.09159 449.838097 
L 383.187758 444.546049 
L 385.283927 439.255839 
L 387.380095 433.964268 
L 389.476263 428.673517 
L 391.572431 423.383297 
L 393.6686 417.276149 
L 395.764768 411.985742 
L 397.860936 405.877495 
L 399.957105 400.587301 
L 402.053273 394.983696 
L 404.149441 389.190051 
L 406.24561 383.182607 
L 408.341778 377.792259 
L 410.437946 372.955819 
L 412.534114 367.210743 
L 414.630283 362.73615 
L 416.726451 358.262454 
L 418.822619 353.788165 
L 420.918788 349.314272 
L 423.014956 345.656399 
L 425.111124 341.998212 
L 427.207292 338.340401 
L 429.303461 335.499694 
L 431.399629 332.658622 
L 433.495797 330.633824 
L 435.591966 328.608793 
L 437.688134 326.58403 
L 439.784302 325.375702 
L 441.880471 324.982839 
L 443.976639 324.591785 
L 446.072807 324.199239 
L 448.168975 324.622765 
L 450.265144 325.047298 
L 452.361312 326.287892 
L 454.45748 327.208353 
L 456.553649 329.585724 
L 458.649817 331.740441 
L 460.745985 333.701068 
L 462.842153 336.213091 
L 464.938322 339.447849 
L 467.03449 343.138197 
L 469.130658 346.828294 
L 471.226827 350.51727 
L 473.322995 354.207336 
L 475.419163 358.713983 
L 477.515332 363.221132 
L 479.6115 367.727548 
L 481.707668 373.049425 
L 483.803836 377.556493 
L 485.900005 382.878939 
L 487.996173 388.201543 
L 490.092341 393.524723 
L 492.18851 398.847368 
L 494.284678 404.16967 
L 496.380846 410.309041 
L 498.477014 415.631602 
L 500.573183 420.954756 
L 502.669351 426.277058 
L 504.765519 431.599002 
L 506.861688 437.407136 
L 508.957856 442.244312 
L 511.054024 446.844219 
L 513.150193 452.073472 
L 515.246361 457.032985 
L 517.342529 461.084398 
L 519.438697 465.589427 
L 521.534866 469.279849 
L 523.631034 473.784748 
L 525.727202 476.656238 
L 527.823371 480.34591 
L 529.919539 483.216484 
L 532.015707 485.270318 
L 534.111875 488.139669 
L 536.208044 489.374678 
L 538.304212 491.421822 
L 540.40038 492.642119 
L 542.496549 492.800612 
L 544.592717 493.580857 
" clip-path="url(#p2677ee4302)" style="fill: none; stroke: #bddf26; stroke-opacity: 0.75; stroke-width: 2; stroke-linecap: square"/>
   </g>
   <g id="patch_12">
    <path d="M 326.696023 531.2775 
L 326.696023 314.33837 
" style="fill: none; stroke: #000000; stroke-width: 0.8; stroke-linejoin: miter; stroke-linecap: square"/>
   </g>
   <g id="patch_13">
    <path d="M 326.696023 531.2775 
L 554.96875 531.2775 
" style="fill: none; stroke: #000000; stroke-width: 0.8; stroke-linejoin: miter; stroke-linecap: square"/>
   </g>
   <g id="text_61">
    <!-- $G_{\mathrm{in}} = $ 5.9 nS -->
    <g transform="translate(391.472386 308.33837) scale(0.16 -0.16)">
     <defs>
      <path id="DejaVuSans-39" d="M 703 97 
L 703 672 
Q 941 559 1184 500 
Q 1428 441 1663 441 
Q 2288 441 2617 861 
Q 2947 1281 2994 2138 
Q 2813 1869 2534 1725 
Q 2256 1581 1919 1581 
Q 1219 1581 811 2004 
Q 403 2428 403 3163 
Q 403 3881 828 4315 
Q 1253 4750 1959 4750 
Q 2769 4750 3195 4129 
Q 3622 3509 3622 2328 
Q 3622 1225 3098 567 
Q 2575 -91 1691 -91 
Q 1453 -91 1209 -44 
Q 966 3 703 97 
z
M 1959 2075 
Q 2384 2075 2632 2365 
Q 2881 2656 2881 3163 
Q 2881 3666 2632 3958 
Q 2384 4250 1959 4250 
Q 1534 4250 1286 3958 
Q 1038 3666 1038 3163 
Q 1038 2656 1286 2365 
Q 1534 2075 1959 2075 
z
" transform="scale(0.015625)"/>
     </defs>
     <use xlink:href="#DejaVuSans-Oblique-47" transform="translate(0 0.78125)"/>
     <use xlink:href="#DejaVuSans-69" transform="translate(77.490234 -15.625) scale(0.7)"/>
     <use xlink:href="#DejaVuSans-6e" transform="translate(96.938477 -15.625) scale(0.7)"/>
     <use xlink:href="#DejaVuSans-3d" transform="translate(163.520508 0.78125)"/>
     <use xlink:href="#DejaVuSans-20" transform="translate(266.791992 0.78125)"/>
     <use xlink:href="#DejaVuSans-35" transform="translate(298.579102 0.78125)"/>
     <use xlink:href="#DejaVuSans-2e" transform="translate(362.202148 0.78125)"/>
     <use xlink:href="#DejaVuSans-39" transform="translate(393.989258 0.78125)"/>
     <use xlink:href="#DejaVuSans-20" transform="translate(457.612305 0.78125)"/>
     <use xlink:href="#DejaVuSans-6e" transform="translate(489.399414 0.78125)"/>
     <use xlink:href="#DejaVuSans-53" transform="translate(552.77832 0.78125)"/>
    </g>
   </g>
  </g>
  <g id="text_62">
   <!-- A -->
   <g transform="translate(20.36875 19.3575) scale(0.16 -0.16)">
    <defs>
     <path id="DejaVuSans-41" d="M 2188 4044 
L 1331 1722 
L 3047 1722 
L 2188 4044 
z
M 1831 4666 
L 2547 4666 
L 4325 0 
L 3669 0 
L 3244 1197 
L 1141 1197 
L 716 0 
L 50 0 
L 1831 4666 
z
" transform="scale(0.015625)"/>
    </defs>
    <use xlink:href="#DejaVuSans-41"/>
   </g>
  </g>
  <g id="text_63">
   <!-- B -->
   <g transform="translate(295.76875 19.3575) scale(0.16 -0.16)">
    <defs>
     <path id="DejaVuSans-42" d="M 1259 2228 
L 1259 519 
L 2272 519 
Q 2781 519 3026 730 
Q 3272 941 3272 1375 
Q 3272 1813 3026 2020 
Q 2781 2228 2272 2228 
L 1259 2228 
z
M 1259 4147 
L 1259 2741 
L 2194 2741 
Q 2656 2741 2882 2914 
Q 3109 3088 3109 3444 
Q 3109 3797 2882 3972 
Q 2656 4147 2194 4147 
L 1259 4147 
z
M 628 4666 
L 2241 4666 
Q 2963 4666 3353 4366 
Q 3744 4066 3744 3513 
Q 3744 3084 3544 2831 
Q 3344 2578 2956 2516 
Q 3422 2416 3680 2098 
Q 3938 1781 3938 1306 
Q 3938 681 3513 340 
Q 3088 0 2303 0 
L 628 0 
L 628 4666 
z
" transform="scale(0.015625)"/>
    </defs>
    <use xlink:href="#DejaVuSans-42"/>
   </g>
  </g>
  <g id="text_64">
   <!-- C -->
   <g transform="translate(20.36875 310.9575) scale(0.16 -0.16)">
    <use xlink:href="#DejaVuSans-43"/>
   </g>
  </g>
  <g id="text_65">
   <!-- D -->
   <g transform="translate(295.76875 310.9575) scale(0.16 -0.16)">
    <defs>
     <path id="DejaVuSans-44" d="M 1259 4147 
L 1259 519 
L 2022 519 
Q 2988 519 3436 956 
Q 3884 1394 3884 2338 
Q 3884 3275 3436 3711 
Q 2988 4147 2022 4147 
L 1259 4147 
z
M 628 4666 
L 1925 4666 
Q 3281 4666 3915 4102 
Q 4550 3538 4550 2338 
Q 4550 1131 3912 565 
Q 3275 0 1925 0 
L 628 0 
L 628 4666 
z
" transform="scale(0.015625)"/>
    </defs>
    <use xlink:href="#DejaVuSans-44"/>
   </g>
  </g>
 </g>
 <defs>
  <clipPath id="pda9fa69e1b">
   <rect x="52.76875" y="32.3175" width="228.272727" height="216.93913"/>
  </clipPath>
  <clipPath id="p3a0c86888f">
   <rect x="326.696023" y="32.3175" width="228.272727" height="216.93913"/>
  </clipPath>
  <clipPath id="pcb8eb822fb">
   <rect x="52.76875" y="314.33837" width="228.272727" height="216.93913"/>
  </clipPath>
  <clipPath id="p2677ee4302">
   <rect x="326.696023" y="314.33837" width="228.272727" height="216.93913"/>
  </clipPath>
 </defs>
</svg>
