<?xml version="1.0" encoding="utf-8" standalone="no"?>
<!DOCTYPE svg PUBLIC "-//W3C//DTD SVG 1.1//EN"
  "http://www.w3.org/Graphics/SVG/1.1/DTD/svg11.dtd">
<svg xmlns:xlink="http://www.w3.org/1999/xlink" width="570.741255pt" height="402.065pt" viewBox="0 0 570.741255 402.065" xmlns="http://www.w3.org/2000/svg" version="1.1">
 <metadata>
  <rdf:RDF xmlns:dc="http://purl.org/dc/elements/1.1/" xmlns:cc="http://creativecommons.org/ns#" xmlns:rdf="http://www.w3.org/1999/02/22-rdf-syntax-ns#">
   <cc:Work>
    <dc:type rdf:resource="http://purl.org/dc/dcmitype/StillImage"/>
    <dc:date>2023-11-25T10:05:46.430835</dc:date>
    <dc:format>image/svg+xml</dc:format>
    <dc:creator>
     <cc:Agent>
      <dc:title>Matplotlib v3.8.1, https://matplotlib.org/</dc:title>
     </cc:Agent>
    </dc:creator>
   </cc:Work>
  </rdf:RDF>
 </metadata>
 <defs>
  <style type="text/css">*{stroke-linejoin: round; stroke-linecap: butt}</style>
 </defs>
 <g id="figure_1">
  <g id="patch_1">
   <path d="M 0 402.065 
L 570.741255 402.065 
L 570.741255 0 
L 0 0 
z
" style="fill: #ffffff"/>
  </g>
  <g id="axes_1">
   <g id="patch_2">
    <path d="M 56.5325 120.3975 
L 265.7825 120.3975 
L 265.7825 27.9975 
L 56.5325 27.9975 
z
" style="fill: #ffffff"/>
   </g>
   <g id="matplotlib.axis_1">
    <g id="xtick_1">
     <g id="line2d_1">
      <defs>
       <path id="md36a050792" d="M 0 0 
L 0 3.5 
" style="stroke: #000000; stroke-width: 0.8"/>
      </defs>
      <g>
       <use xlink:href="#md36a050792" x="56.5325" y="120.3975" style="stroke: #000000; stroke-width: 0.8"/>
      </g>
     </g>
     <g id="text_1">
      <!-- 0 -->
      <g transform="translate(52.715 136.515625) scale(0.12 -0.12)">
       <defs>
        <path id="DejaVuSans-30" d="M 2034 4250 
Q 1547 4250 1301 3770 
Q 1056 3291 1056 2328 
Q 1056 1369 1301 889 
Q 1547 409 2034 409 
Q 2525 409 2770 889 
Q 3016 1369 3016 2328 
Q 3016 3291 2770 3770 
Q 2525 4250 2034 4250 
z
M 2034 4750 
Q 2819 4750 3233 4129 
Q 3647 3509 3647 2328 
Q 3647 1150 3233 529 
Q 2819 -91 2034 -91 
Q 1250 -91 836 529 
Q 422 1150 422 2328 
Q 422 3509 836 4129 
Q 1250 4750 2034 4750 
z
" transform="scale(0.015625)"/>
       </defs>
       <use xlink:href="#DejaVuSans-30"/>
      </g>
     </g>
    </g>
    <g id="xtick_2">
     <g id="line2d_2">
      <g>
       <use xlink:href="#md36a050792" x="91.4075" y="120.3975" style="stroke: #000000; stroke-width: 0.8"/>
      </g>
     </g>
     <g id="text_2">
      <!-- 1 -->
      <g transform="translate(87.59 136.515625) scale(0.12 -0.12)">
       <defs>
        <path id="DejaVuSans-31" d="M 794 531 
L 1825 531 
L 1825 4091 
L 703 3866 
L 703 4441 
L 1819 4666 
L 2450 4666 
L 2450 531 
L 3481 531 
L 3481 0 
L 794 0 
L 794 531 
z
" transform="scale(0.015625)"/>
       </defs>
       <use xlink:href="#DejaVuSans-31"/>
      </g>
     </g>
    </g>
    <g id="xtick_3">
     <g id="line2d_3">
      <g>
       <use xlink:href="#md36a050792" x="126.2825" y="120.3975" style="stroke: #000000; stroke-width: 0.8"/>
      </g>
     </g>
     <g id="text_3">
      <!-- 2 -->
      <g transform="translate(122.465 136.515625) scale(0.12 -0.12)">
       <defs>
        <path id="DejaVuSans-32" d="M 1228 531 
L 3431 531 
L 3431 0 
L 469 0 
L 469 531 
Q 828 903 1448 1529 
Q 2069 2156 2228 2338 
Q 2531 2678 2651 2914 
Q 2772 3150 2772 3378 
Q 2772 3750 2511 3984 
Q 2250 4219 1831 4219 
Q 1534 4219 1204 4116 
Q 875 4013 500 3803 
L 500 4441 
Q 881 4594 1212 4672 
Q 1544 4750 1819 4750 
Q 2544 4750 2975 4387 
Q 3406 4025 3406 3419 
Q 3406 3131 3298 2873 
Q 3191 2616 2906 2266 
Q 2828 2175 2409 1742 
Q 1991 1309 1228 531 
z
" transform="scale(0.015625)"/>
       </defs>
       <use xlink:href="#DejaVuSans-32"/>
      </g>
     </g>
    </g>
    <g id="xtick_4">
     <g id="line2d_4">
      <g>
       <use xlink:href="#md36a050792" x="161.1575" y="120.3975" style="stroke: #000000; stroke-width: 0.8"/>
      </g>
     </g>
     <g id="text_4">
      <!-- 3 -->
      <g transform="translate(157.34 136.515625) scale(0.12 -0.12)">
       <defs>
        <path id="DejaVuSans-33" d="M 2597 2516 
Q 3050 2419 3304 2112 
Q 3559 1806 3559 1356 
Q 3559 666 3084 287 
Q 2609 -91 1734 -91 
Q 1441 -91 1130 -33 
Q 819 25 488 141 
L 488 750 
Q 750 597 1062 519 
Q 1375 441 1716 441 
Q 2309 441 2620 675 
Q 2931 909 2931 1356 
Q 2931 1769 2642 2001 
Q 2353 2234 1838 2234 
L 1294 2234 
L 1294 2753 
L 1863 2753 
Q 2328 2753 2575 2939 
Q 2822 3125 2822 3475 
Q 2822 3834 2567 4026 
Q 2313 4219 1838 4219 
Q 1578 4219 1281 4162 
Q 984 4106 628 3988 
L 628 4550 
Q 988 4650 1302 4700 
Q 1616 4750 1894 4750 
Q 2613 4750 3031 4423 
Q 3450 4097 3450 3541 
Q 3450 3153 3228 2886 
Q 3006 2619 2597 2516 
z
" transform="scale(0.015625)"/>
       </defs>
       <use xlink:href="#DejaVuSans-33"/>
      </g>
     </g>
    </g>
    <g id="xtick_5">
     <g id="line2d_5">
      <g>
       <use xlink:href="#md36a050792" x="196.0325" y="120.3975" style="stroke: #000000; stroke-width: 0.8"/>
      </g>
     </g>
     <g id="text_5">
      <!-- 4 -->
      <g transform="translate(192.215 136.515625) scale(0.12 -0.12)">
       <defs>
        <path id="DejaVuSans-34" d="M 2419 4116 
L 825 1625 
L 2419 1625 
L 2419 4116 
z
M 2253 4666 
L 3047 4666 
L 3047 1625 
L 3713 1625 
L 3713 1100 
L 3047 1100 
L 3047 0 
L 2419 0 
L 2419 1100 
L 313 1100 
L 313 1709 
L 2253 4666 
z
" transform="scale(0.015625)"/>
       </defs>
       <use xlink:href="#DejaVuSans-34"/>
      </g>
     </g>
    </g>
    <g id="xtick_6">
     <g id="line2d_6">
      <g>
       <use xlink:href="#md36a050792" x="230.9075" y="120.3975" style="stroke: #000000; stroke-width: 0.8"/>
      </g>
     </g>
     <g id="text_6">
      <!-- 5 -->
      <g transform="translate(227.09 136.515625) scale(0.12 -0.12)">
       <defs>
        <path id="DejaVuSans-35" d="M 691 4666 
L 3169 4666 
L 3169 4134 
L 1269 4134 
L 1269 2991 
Q 1406 3038 1543 3061 
Q 1681 3084 1819 3084 
Q 2600 3084 3056 2656 
Q 3513 2228 3513 1497 
Q 3513 744 3044 326 
Q 2575 -91 1722 -91 
Q 1428 -91 1123 -41 
Q 819 9 494 109 
L 494 744 
Q 775 591 1075 516 
Q 1375 441 1709 441 
Q 2250 441 2565 725 
Q 2881 1009 2881 1497 
Q 2881 1984 2565 2268 
Q 2250 2553 1709 2553 
Q 1456 2553 1204 2497 
Q 953 2441 691 2322 
L 691 4666 
z
" transform="scale(0.015625)"/>
       </defs>
       <use xlink:href="#DejaVuSans-35"/>
      </g>
     </g>
    </g>
    <g id="xtick_7">
     <g id="line2d_7">
      <g>
       <use xlink:href="#md36a050792" x="265.7825" y="120.3975" style="stroke: #000000; stroke-width: 0.8"/>
      </g>
     </g>
     <g id="text_7">
      <!-- 6 -->
      <g transform="translate(261.965 136.515625) scale(0.12 -0.12)">
       <defs>
        <path id="DejaVuSans-36" d="M 2113 2584 
Q 1688 2584 1439 2293 
Q 1191 2003 1191 1497 
Q 1191 994 1439 701 
Q 1688 409 2113 409 
Q 2538 409 2786 701 
Q 3034 994 3034 1497 
Q 3034 2003 2786 2293 
Q 2538 2584 2113 2584 
z
M 3366 4563 
L 3366 3988 
Q 3128 4100 2886 4159 
Q 2644 4219 2406 4219 
Q 1781 4219 1451 3797 
Q 1122 3375 1075 2522 
Q 1259 2794 1537 2939 
Q 1816 3084 2150 3084 
Q 2853 3084 3261 2657 
Q 3669 2231 3669 1497 
Q 3669 778 3244 343 
Q 2819 -91 2113 -91 
Q 1303 -91 875 529 
Q 447 1150 447 2328 
Q 447 3434 972 4092 
Q 1497 4750 2381 4750 
Q 2619 4750 2861 4703 
Q 3103 4656 3366 4563 
z
" transform="scale(0.015625)"/>
       </defs>
       <use xlink:href="#DejaVuSans-36"/>
      </g>
     </g>
    </g>
    <g id="text_8">
     <!-- Time (# ISI) -->
     <g transform="translate(125.604688 152.129375) scale(0.12 -0.12)">
      <defs>
       <path id="DejaVuSans-54" d="M -19 4666 
L 3928 4666 
L 3928 4134 
L 2272 4134 
L 2272 0 
L 1638 0 
L 1638 4134 
L -19 4134 
L -19 4666 
z
" transform="scale(0.015625)"/>
       <path id="DejaVuSans-69" d="M 603 3500 
L 1178 3500 
L 1178 0 
L 603 0 
L 603 3500 
z
M 603 4863 
L 1178 4863 
L 1178 4134 
L 603 4134 
L 603 4863 
z
" transform="scale(0.015625)"/>
       <path id="DejaVuSans-6d" d="M 3328 2828 
Q 3544 3216 3844 3400 
Q 4144 3584 4550 3584 
Q 5097 3584 5394 3201 
Q 5691 2819 5691 2113 
L 5691 0 
L 5113 0 
L 5113 2094 
Q 5113 2597 4934 2840 
Q 4756 3084 4391 3084 
Q 3944 3084 3684 2787 
Q 3425 2491 3425 1978 
L 3425 0 
L 2847 0 
L 2847 2094 
Q 2847 2600 2669 2842 
Q 2491 3084 2119 3084 
Q 1678 3084 1418 2786 
Q 1159 2488 1159 1978 
L 1159 0 
L 581 0 
L 581 3500 
L 1159 3500 
L 1159 2956 
Q 1356 3278 1631 3431 
Q 1906 3584 2284 3584 
Q 2666 3584 2933 3390 
Q 3200 3197 3328 2828 
z
" transform="scale(0.015625)"/>
       <path id="DejaVuSans-65" d="M 3597 1894 
L 3597 1613 
L 953 1613 
Q 991 1019 1311 708 
Q 1631 397 2203 397 
Q 2534 397 2845 478 
Q 3156 559 3463 722 
L 3463 178 
Q 3153 47 2828 -22 
Q 2503 -91 2169 -91 
Q 1331 -91 842 396 
Q 353 884 353 1716 
Q 353 2575 817 3079 
Q 1281 3584 2069 3584 
Q 2775 3584 3186 3129 
Q 3597 2675 3597 1894 
z
M 3022 2063 
Q 3016 2534 2758 2815 
Q 2500 3097 2075 3097 
Q 1594 3097 1305 2825 
Q 1016 2553 972 2059 
L 3022 2063 
z
" transform="scale(0.015625)"/>
       <path id="DejaVuSans-20" transform="scale(0.015625)"/>
       <path id="DejaVuSans-28" d="M 1984 4856 
Q 1566 4138 1362 3434 
Q 1159 2731 1159 2009 
Q 1159 1288 1364 580 
Q 1569 -128 1984 -844 
L 1484 -844 
Q 1016 -109 783 600 
Q 550 1309 550 2009 
Q 550 2706 781 3412 
Q 1013 4119 1484 4856 
L 1984 4856 
z
" transform="scale(0.015625)"/>
       <path id="DejaVuSans-23" d="M 3272 2816 
L 2363 2816 
L 2100 1772 
L 3016 1772 
L 3272 2816 
z
M 2803 4594 
L 2478 3297 
L 3391 3297 
L 3719 4594 
L 4219 4594 
L 3897 3297 
L 4872 3297 
L 4872 2816 
L 3775 2816 
L 3519 1772 
L 4513 1772 
L 4513 1294 
L 3397 1294 
L 3072 0 
L 2572 0 
L 2894 1294 
L 1978 1294 
L 1656 0 
L 1153 0 
L 1478 1294 
L 494 1294 
L 494 1772 
L 1594 1772 
L 1856 2816 
L 850 2816 
L 850 3297 
L 1978 3297 
L 2297 4594 
L 2803 4594 
z
" transform="scale(0.015625)"/>
       <path id="DejaVuSans-49" d="M 628 4666 
L 1259 4666 
L 1259 0 
L 628 0 
L 628 4666 
z
" transform="scale(0.015625)"/>
       <path id="DejaVuSans-53" d="M 3425 4513 
L 3425 3897 
Q 3066 4069 2747 4153 
Q 2428 4238 2131 4238 
Q 1616 4238 1336 4038 
Q 1056 3838 1056 3469 
Q 1056 3159 1242 3001 
Q 1428 2844 1947 2747 
L 2328 2669 
Q 3034 2534 3370 2195 
Q 3706 1856 3706 1288 
Q 3706 609 3251 259 
Q 2797 -91 1919 -91 
Q 1588 -91 1214 -16 
Q 841 59 441 206 
L 441 856 
Q 825 641 1194 531 
Q 1563 422 1919 422 
Q 2459 422 2753 634 
Q 3047 847 3047 1241 
Q 3047 1584 2836 1778 
Q 2625 1972 2144 2069 
L 1759 2144 
Q 1053 2284 737 2584 
Q 422 2884 422 3419 
Q 422 4038 858 4394 
Q 1294 4750 2059 4750 
Q 2388 4750 2728 4690 
Q 3069 4631 3425 4513 
z
" transform="scale(0.015625)"/>
       <path id="DejaVuSans-29" d="M 513 4856 
L 1013 4856 
Q 1481 4119 1714 3412 
Q 1947 2706 1947 2009 
Q 1947 1309 1714 600 
Q 1481 -109 1013 -844 
L 513 -844 
Q 928 -128 1133 580 
Q 1338 1288 1338 2009 
Q 1338 2731 1133 3434 
Q 928 4138 513 4856 
z
" transform="scale(0.015625)"/>
      </defs>
      <use xlink:href="#DejaVuSans-54"/>
      <use xlink:href="#DejaVuSans-69" x="57.958984"/>
      <use xlink:href="#DejaVuSans-6d" x="85.742188"/>
      <use xlink:href="#DejaVuSans-65" x="183.154297"/>
      <use xlink:href="#DejaVuSans-20" x="244.677734"/>
      <use xlink:href="#DejaVuSans-28" x="276.464844"/>
      <use xlink:href="#DejaVuSans-23" x="315.478516"/>
      <use xlink:href="#DejaVuSans-20" x="399.267578"/>
      <use xlink:href="#DejaVuSans-49" x="431.054688"/>
      <use xlink:href="#DejaVuSans-53" x="460.546875"/>
      <use xlink:href="#DejaVuSans-49" x="524.023438"/>
      <use xlink:href="#DejaVuSans-29" x="553.515625"/>
     </g>
    </g>
   </g>
   <g id="matplotlib.axis_2">
    <g id="text_9">
     <!-- Neuron -->
     <g transform="translate(50.036875 95.985937) rotate(-90) scale(0.12 -0.12)">
      <defs>
       <path id="DejaVuSans-4e" d="M 628 4666 
L 1478 4666 
L 3547 763 
L 3547 4666 
L 4159 4666 
L 4159 0 
L 3309 0 
L 1241 3903 
L 1241 0 
L 628 0 
L 628 4666 
z
" transform="scale(0.015625)"/>
       <path id="DejaVuSans-75" d="M 544 1381 
L 544 3500 
L 1119 3500 
L 1119 1403 
Q 1119 906 1312 657 
Q 1506 409 1894 409 
Q 2359 409 2629 706 
Q 2900 1003 2900 1516 
L 2900 3500 
L 3475 3500 
L 3475 0 
L 2900 0 
L 2900 538 
Q 2691 219 2414 64 
Q 2138 -91 1772 -91 
Q 1169 -91 856 284 
Q 544 659 544 1381 
z
M 1991 3584 
L 1991 3584 
z
" transform="scale(0.015625)"/>
       <path id="DejaVuSans-72" d="M 2631 2963 
Q 2534 3019 2420 3045 
Q 2306 3072 2169 3072 
Q 1681 3072 1420 2755 
Q 1159 2438 1159 1844 
L 1159 0 
L 581 0 
L 581 3500 
L 1159 3500 
L 1159 2956 
Q 1341 3275 1631 3429 
Q 1922 3584 2338 3584 
Q 2397 3584 2469 3576 
Q 2541 3569 2628 3553 
L 2631 2963 
z
" transform="scale(0.015625)"/>
       <path id="DejaVuSans-6f" d="M 1959 3097 
Q 1497 3097 1228 2736 
Q 959 2375 959 1747 
Q 959 1119 1226 758 
Q 1494 397 1959 397 
Q 2419 397 2687 759 
Q 2956 1122 2956 1747 
Q 2956 2369 2687 2733 
Q 2419 3097 1959 3097 
z
M 1959 3584 
Q 2709 3584 3137 3096 
Q 3566 2609 3566 1747 
Q 3566 888 3137 398 
Q 2709 -91 1959 -91 
Q 1206 -91 779 398 
Q 353 888 353 1747 
Q 353 2609 779 3096 
Q 1206 3584 1959 3584 
z
" transform="scale(0.015625)"/>
       <path id="DejaVuSans-6e" d="M 3513 2113 
L 3513 0 
L 2938 0 
L 2938 2094 
Q 2938 2591 2744 2837 
Q 2550 3084 2163 3084 
Q 1697 3084 1428 2787 
Q 1159 2491 1159 1978 
L 1159 0 
L 581 0 
L 581 3500 
L 1159 3500 
L 1159 2956 
Q 1366 3272 1645 3428 
Q 1925 3584 2291 3584 
Q 2894 3584 3203 3211 
Q 3513 2838 3513 2113 
z
" transform="scale(0.015625)"/>
      </defs>
      <use xlink:href="#DejaVuSans-4e"/>
      <use xlink:href="#DejaVuSans-65" x="74.804688"/>
      <use xlink:href="#DejaVuSans-75" x="136.328125"/>
      <use xlink:href="#DejaVuSans-72" x="199.707031"/>
      <use xlink:href="#DejaVuSans-6f" x="238.570312"/>
      <use xlink:href="#DejaVuSans-6e" x="299.751953"/>
     </g>
    </g>
   </g>
   <g id="EventCollection_1">
    <path clip-path="url(#p8d45790a95)" style="fill: none; stroke: #bddf26; stroke-width: 2.5"/>
    <path clip-path="url(#p8d45790a95)" style="fill: none; stroke: #bddf26; stroke-width: 2.5"/>
    <path clip-path="url(#p8d45790a95)" style="fill: none; stroke: #bddf26; stroke-width: 2.5"/>
    <path clip-path="url(#p8d45790a95)" style="fill: none; stroke: #bddf26; stroke-width: 2.5"/>
    <path clip-path="url(#p8d45790a95)" style="fill: none; stroke: #bddf26; stroke-width: 2.5"/>
    <path clip-path="url(#p8d45790a95)" style="fill: none; stroke: #bddf26; stroke-width: 2.5"/>
    <path clip-path="url(#p8d45790a95)" style="fill: none; stroke: #bddf26; stroke-width: 2.5"/>
    <path clip-path="url(#p8d45790a95)" style="fill: none; stroke: #bddf26; stroke-width: 2.5"/>
    <path clip-path="url(#p8d45790a95)" style="fill: none; stroke: #bddf26; stroke-width: 2.5"/>
    <path clip-path="url(#p8d45790a95)" style="fill: none; stroke: #bddf26; stroke-width: 2.5"/>
    <path clip-path="url(#p8d45790a95)" style="fill: none; stroke: #bddf26; stroke-width: 2.5"/>
    <path clip-path="url(#p8d45790a95)" style="fill: none; stroke: #bddf26; stroke-width: 2.5"/>
    <path clip-path="url(#p8d45790a95)" style="fill: none; stroke: #bddf26; stroke-width: 2.5"/>
    <path clip-path="url(#p8d45790a95)" style="fill: none; stroke: #bddf26; stroke-width: 2.5"/>
    <path clip-path="url(#p8d45790a95)" style="fill: none; stroke: #bddf26; stroke-width: 2.5"/>
    <path clip-path="url(#p8d45790a95)" style="fill: none; stroke: #bddf26; stroke-width: 2.5"/>
    <path clip-path="url(#p8d45790a95)" style="fill: none; stroke: #bddf26; stroke-width: 2.5"/>
    <path d="M 3.194536 77.428269 
L 3.194536 103.274423 
" clip-path="url(#p8d45790a95)" style="fill: none; stroke: #bddf26; stroke-width: 2.5"/>
    <path d="M 37.741862 77.428269 
L 37.741862 103.274423 
" clip-path="url(#p8d45790a95)" style="fill: none; stroke: #bddf26; stroke-width: 2.5"/>
    <path d="M 72.340885 77.428269 
L 72.340885 103.274423 
" clip-path="url(#p8d45790a95)" style="fill: none; stroke: #bddf26; stroke-width: 2.5"/>
    <path d="M 106.984789 77.428269 
L 106.984789 103.274423 
" clip-path="url(#p8d45790a95)" style="fill: none; stroke: #bddf26; stroke-width: 2.5"/>
    <path d="M 141.673318 77.428269 
L 141.673318 103.274423 
" clip-path="url(#p8d45790a95)" style="fill: none; stroke: #bddf26; stroke-width: 2.5"/>
    <path d="M 176.400357 77.428269 
L 176.400357 103.274423 
" clip-path="url(#p8d45790a95)" style="fill: none; stroke: #bddf26; stroke-width: 2.5"/>
    <path d="M 211.163531 77.428269 
L 211.163531 103.274423 
" clip-path="url(#p8d45790a95)" style="fill: none; stroke: #bddf26; stroke-width: 2.5"/>
    <path d="M 245.960834 77.428269 
L 245.960834 103.274423 
" clip-path="url(#p8d45790a95)" style="fill: none; stroke: #bddf26; stroke-width: 2.5"/>
   </g>
   <g id="EventCollection_2">
    <path clip-path="url(#p8d45790a95)" style="fill: none; stroke: #bddf26; stroke-width: 2.5"/>
    <path clip-path="url(#p8d45790a95)" style="fill: none; stroke: #bddf26; stroke-width: 2.5"/>
    <path clip-path="url(#p8d45790a95)" style="fill: none; stroke: #bddf26; stroke-width: 2.5"/>
    <path clip-path="url(#p8d45790a95)" style="fill: none; stroke: #bddf26; stroke-width: 2.5"/>
    <path clip-path="url(#p8d45790a95)" style="fill: none; stroke: #bddf26; stroke-width: 2.5"/>
    <path clip-path="url(#p8d45790a95)" style="fill: none; stroke: #bddf26; stroke-width: 2.5"/>
    <path clip-path="url(#p8d45790a95)" style="fill: none; stroke: #bddf26; stroke-width: 2.5"/>
    <path clip-path="url(#p8d45790a95)" style="fill: none; stroke: #bddf26; stroke-width: 2.5"/>
    <path clip-path="url(#p8d45790a95)" style="fill: none; stroke: #bddf26; stroke-width: 2.5"/>
    <path clip-path="url(#p8d45790a95)" style="fill: none; stroke: #bddf26; stroke-width: 2.5"/>
    <path clip-path="url(#p8d45790a95)" style="fill: none; stroke: #bddf26; stroke-width: 2.5"/>
    <path clip-path="url(#p8d45790a95)" style="fill: none; stroke: #bddf26; stroke-width: 2.5"/>
    <path clip-path="url(#p8d45790a95)" style="fill: none; stroke: #bddf26; stroke-width: 2.5"/>
    <path clip-path="url(#p8d45790a95)" style="fill: none; stroke: #bddf26; stroke-width: 2.5"/>
    <path clip-path="url(#p8d45790a95)" style="fill: none; stroke: #bddf26; stroke-width: 2.5"/>
    <path clip-path="url(#p8d45790a95)" style="fill: none; stroke: #bddf26; stroke-width: 2.5"/>
    <path clip-path="url(#p8d45790a95)" style="fill: none; stroke: #bddf26; stroke-width: 2.5"/>
    <path clip-path="url(#p8d45790a95)" style="fill: none; stroke: #bddf26; stroke-width: 2.5"/>
    <path d="M 33.338161 45.120577 
L 33.338161 70.966731 
" clip-path="url(#p8d45790a95)" style="fill: none; stroke: #bddf26; stroke-width: 2.5"/>
    <path d="M 68.124538 45.120577 
L 68.124538 70.966731 
" clip-path="url(#p8d45790a95)" style="fill: none; stroke: #bddf26; stroke-width: 2.5"/>
    <path d="M 102.95108 45.120577 
L 102.95108 70.966731 
" clip-path="url(#p8d45790a95)" style="fill: none; stroke: #bddf26; stroke-width: 2.5"/>
    <path d="M 137.81541 45.120577 
L 137.81541 70.966731 
" clip-path="url(#p8d45790a95)" style="fill: none; stroke: #bddf26; stroke-width: 2.5"/>
    <path d="M 172.71126 45.120577 
L 172.71126 70.966731 
" clip-path="url(#p8d45790a95)" style="fill: none; stroke: #bddf26; stroke-width: 2.5"/>
    <path d="M 207.637129 45.120577 
L 207.637129 70.966731 
" clip-path="url(#p8d45790a95)" style="fill: none; stroke: #bddf26; stroke-width: 2.5"/>
    <path d="M 242.589826 45.120577 
L 242.589826 70.966731 
" clip-path="url(#p8d45790a95)" style="fill: none; stroke: #bddf26; stroke-width: 2.5"/>
   </g>
   <g id="patch_3">
    <path d="M 56.5325 120.3975 
L 56.5325 27.9975 
" style="fill: none; stroke: #000000; stroke-width: 0.8; stroke-linejoin: miter; stroke-linecap: square"/>
   </g>
   <g id="patch_4">
    <path d="M 56.5325 120.3975 
L 265.7825 120.3975 
" style="fill: none; stroke: #000000; stroke-width: 0.8; stroke-linejoin: miter; stroke-linecap: square"/>
   </g>
   <g id="text_10">
    <!-- SNIC Network -->
    <g transform="translate(106.2025 21.9975) scale(0.16 -0.16)">
     <defs>
      <path id="DejaVuSans-43" d="M 4122 4306 
L 4122 3641 
Q 3803 3938 3442 4084 
Q 3081 4231 2675 4231 
Q 1875 4231 1450 3742 
Q 1025 3253 1025 2328 
Q 1025 1406 1450 917 
Q 1875 428 2675 428 
Q 3081 428 3442 575 
Q 3803 722 4122 1019 
L 4122 359 
Q 3791 134 3420 21 
Q 3050 -91 2638 -91 
Q 1578 -91 968 557 
Q 359 1206 359 2328 
Q 359 3453 968 4101 
Q 1578 4750 2638 4750 
Q 3056 4750 3426 4639 
Q 3797 4528 4122 4306 
z
" transform="scale(0.015625)"/>
      <path id="DejaVuSans-74" d="M 1172 4494 
L 1172 3500 
L 2356 3500 
L 2356 3053 
L 1172 3053 
L 1172 1153 
Q 1172 725 1289 603 
Q 1406 481 1766 481 
L 2356 481 
L 2356 0 
L 1766 0 
Q 1100 0 847 248 
Q 594 497 594 1153 
L 594 3053 
L 172 3053 
L 172 3500 
L 594 3500 
L 594 4494 
L 1172 4494 
z
" transform="scale(0.015625)"/>
      <path id="DejaVuSans-77" d="M 269 3500 
L 844 3500 
L 1563 769 
L 2278 3500 
L 2956 3500 
L 3675 769 
L 4391 3500 
L 4966 3500 
L 4050 0 
L 3372 0 
L 2619 2869 
L 1863 0 
L 1184 0 
L 269 3500 
z
" transform="scale(0.015625)"/>
      <path id="DejaVuSans-6b" d="M 581 4863 
L 1159 4863 
L 1159 1991 
L 2875 3500 
L 3609 3500 
L 1753 1863 
L 3688 0 
L 2938 0 
L 1159 1709 
L 1159 0 
L 581 0 
L 581 4863 
z
" transform="scale(0.015625)"/>
     </defs>
     <use xlink:href="#DejaVuSans-53"/>
     <use xlink:href="#DejaVuSans-4e" x="63.476562"/>
     <use xlink:href="#DejaVuSans-49" x="138.28125"/>
     <use xlink:href="#DejaVuSans-43" x="167.773438"/>
     <use xlink:href="#DejaVuSans-20" x="237.597656"/>
     <use xlink:href="#DejaVuSans-4e" x="269.384766"/>
     <use xlink:href="#DejaVuSans-65" x="344.189453"/>
     <use xlink:href="#DejaVuSans-74" x="405.712891"/>
     <use xlink:href="#DejaVuSans-77" x="444.921875"/>
     <use xlink:href="#DejaVuSans-6f" x="526.708984"/>
     <use xlink:href="#DejaVuSans-72" x="587.890625"/>
     <use xlink:href="#DejaVuSans-6b" x="629.003906"/>
    </g>
   </g>
  </g>
  <g id="axes_2">
   <g id="patch_5">
    <path d="M 349.4825 120.3975 
L 558.7325 120.3975 
L 558.7325 27.9975 
L 349.4825 27.9975 
z
" style="fill: #ffffff"/>
   </g>
   <g id="matplotlib.axis_3">
    <g id="xtick_8">
     <g id="line2d_8">
      <g>
       <use xlink:href="#md36a050792" x="349.4825" y="120.3975" style="stroke: #000000; stroke-width: 0.8"/>
      </g>
     </g>
     <g id="text_11">
      <!-- 0 -->
      <g transform="translate(345.665 136.515625) scale(0.12 -0.12)">
       <use xlink:href="#DejaVuSans-30"/>
      </g>
     </g>
    </g>
    <g id="xtick_9">
     <g id="line2d_9">
      <g>
       <use xlink:href="#md36a050792" x="384.3575" y="120.3975" style="stroke: #000000; stroke-width: 0.8"/>
      </g>
     </g>
     <g id="text_12">
      <!-- 1 -->
      <g transform="translate(380.54 136.515625) scale(0.12 -0.12)">
       <use xlink:href="#DejaVuSans-31"/>
      </g>
     </g>
    </g>
    <g id="xtick_10">
     <g id="line2d_10">
      <g>
       <use xlink:href="#md36a050792" x="419.2325" y="120.3975" style="stroke: #000000; stroke-width: 0.8"/>
      </g>
     </g>
     <g id="text_13">
      <!-- 2 -->
      <g transform="translate(415.415 136.515625) scale(0.12 -0.12)">
       <use xlink:href="#DejaVuSans-32"/>
      </g>
     </g>
    </g>
    <g id="xtick_11">
     <g id="line2d_11">
      <g>
       <use xlink:href="#md36a050792" x="454.1075" y="120.3975" style="stroke: #000000; stroke-width: 0.8"/>
      </g>
     </g>
     <g id="text_14">
      <!-- 3 -->
      <g transform="translate(450.29 136.515625) scale(0.12 -0.12)">
       <use xlink:href="#DejaVuSans-33"/>
      </g>
     </g>
    </g>
    <g id="xtick_12">
     <g id="line2d_12">
      <g>
       <use xlink:href="#md36a050792" x="488.9825" y="120.3975" style="stroke: #000000; stroke-width: 0.8"/>
      </g>
     </g>
     <g id="text_15">
      <!-- 4 -->
      <g transform="translate(485.165 136.515625) scale(0.12 -0.12)">
       <use xlink:href="#DejaVuSans-34"/>
      </g>
     </g>
    </g>
    <g id="xtick_13">
     <g id="line2d_13">
      <g>
       <use xlink:href="#md36a050792" x="523.8575" y="120.3975" style="stroke: #000000; stroke-width: 0.8"/>
      </g>
     </g>
     <g id="text_16">
      <!-- 5 -->
      <g transform="translate(520.04 136.515625) scale(0.12 -0.12)">
       <use xlink:href="#DejaVuSans-35"/>
      </g>
     </g>
    </g>
    <g id="xtick_14">
     <g id="line2d_14">
      <g>
       <use xlink:href="#md36a050792" x="558.7325" y="120.3975" style="stroke: #000000; stroke-width: 0.8"/>
      </g>
     </g>
     <g id="text_17">
      <!-- 6 -->
      <g transform="translate(554.915 136.515625) scale(0.12 -0.12)">
       <use xlink:href="#DejaVuSans-36"/>
      </g>
     </g>
    </g>
    <g id="text_18">
     <!-- Time (# ISI) -->
     <g transform="translate(418.554688 152.129375) scale(0.12 -0.12)">
      <use xlink:href="#DejaVuSans-54"/>
      <use xlink:href="#DejaVuSans-69" x="57.958984"/>
      <use xlink:href="#DejaVuSans-6d" x="85.742188"/>
      <use xlink:href="#DejaVuSans-65" x="183.154297"/>
      <use xlink:href="#DejaVuSans-20" x="244.677734"/>
      <use xlink:href="#DejaVuSans-28" x="276.464844"/>
      <use xlink:href="#DejaVuSans-23" x="315.478516"/>
      <use xlink:href="#DejaVuSans-20" x="399.267578"/>
      <use xlink:href="#DejaVuSans-49" x="431.054688"/>
      <use xlink:href="#DejaVuSans-53" x="460.546875"/>
      <use xlink:href="#DejaVuSans-49" x="524.023438"/>
      <use xlink:href="#DejaVuSans-29" x="553.515625"/>
     </g>
    </g>
   </g>
   <g id="matplotlib.axis_4">
    <g id="text_19">
     <!-- Neuron -->
     <g transform="translate(342.986875 95.985937) rotate(-90) scale(0.12 -0.12)">
      <use xlink:href="#DejaVuSans-4e"/>
      <use xlink:href="#DejaVuSans-65" x="74.804688"/>
      <use xlink:href="#DejaVuSans-75" x="136.328125"/>
      <use xlink:href="#DejaVuSans-72" x="199.707031"/>
      <use xlink:href="#DejaVuSans-6f" x="238.570312"/>
      <use xlink:href="#DejaVuSans-6e" x="299.751953"/>
     </g>
    </g>
   </g>
   <g id="EventCollection_3">
    <path clip-path="url(#p0c96ceb790)" style="fill: none; stroke: #25848e; stroke-width: 2.5"/>
    <path clip-path="url(#p0c96ceb790)" style="fill: none; stroke: #25848e; stroke-width: 2.5"/>
    <path clip-path="url(#p0c96ceb790)" style="fill: none; stroke: #25848e; stroke-width: 2.5"/>
    <path clip-path="url(#p0c96ceb790)" style="fill: none; stroke: #25848e; stroke-width: 2.5"/>
    <path clip-path="url(#p0c96ceb790)" style="fill: none; stroke: #25848e; stroke-width: 2.5"/>
    <path clip-path="url(#p0c96ceb790)" style="fill: none; stroke: #25848e; stroke-width: 2.5"/>
    <path clip-path="url(#p0c96ceb790)" style="fill: none; stroke: #25848e; stroke-width: 2.5"/>
    <path clip-path="url(#p0c96ceb790)" style="fill: none; stroke: #25848e; stroke-width: 2.5"/>
    <path clip-path="url(#p0c96ceb790)" style="fill: none; stroke: #25848e; stroke-width: 2.5"/>
    <path d="M 2.493986 77.428269 
L 2.493986 103.274423 
" clip-path="url(#p0c96ceb790)" style="fill: none; stroke: #25848e; stroke-width: 2.5"/>
    <path d="M 37.446479 77.428269 
L 37.446479 103.274423 
" clip-path="url(#p0c96ceb790)" style="fill: none; stroke: #25848e; stroke-width: 2.5"/>
    <path d="M 72.387435 77.428269 
L 72.387435 103.274423 
" clip-path="url(#p0c96ceb790)" style="fill: none; stroke: #25848e; stroke-width: 2.5"/>
    <path d="M 107.317974 77.428269 
L 107.317974 103.274423 
" clip-path="url(#p0c96ceb790)" style="fill: none; stroke: #25848e; stroke-width: 2.5"/>
    <path d="M 142.242332 77.428269 
L 142.242332 103.274423 
" clip-path="url(#p0c96ceb790)" style="fill: none; stroke: #25848e; stroke-width: 2.5"/>
    <path d="M 177.15751 77.428269 
L 177.15751 103.274423 
" clip-path="url(#p0c96ceb790)" style="fill: none; stroke: #25848e; stroke-width: 2.5"/>
    <path d="M 212.068219 77.428269 
L 212.068219 103.274423 
" clip-path="url(#p0c96ceb790)" style="fill: none; stroke: #25848e; stroke-width: 2.5"/>
    <path d="M 246.971931 77.428269 
L 246.971931 103.274423 
" clip-path="url(#p0c96ceb790)" style="fill: none; stroke: #25848e; stroke-width: 2.5"/>
    <path d="M 281.873443 77.428269 
L 281.873443 103.274423 
" clip-path="url(#p0c96ceb790)" style="fill: none; stroke: #25848e; stroke-width: 2.5"/>
    <path d="M 316.76946 77.428269 
L 316.76946 103.274423 
" clip-path="url(#p0c96ceb790)" style="fill: none; stroke: #25848e; stroke-width: 2.5"/>
    <path d="M 351.662859 77.428269 
L 351.662859 103.274423 
" clip-path="url(#p0c96ceb790)" style="fill: none; stroke: #25848e; stroke-width: 2.5"/>
    <path d="M 386.553204 77.428269 
L 386.553204 103.274423 
" clip-path="url(#p0c96ceb790)" style="fill: none; stroke: #25848e; stroke-width: 2.5"/>
    <path d="M 421.440952 77.428269 
L 421.440952 103.274423 
" clip-path="url(#p0c96ceb790)" style="fill: none; stroke: #25848e; stroke-width: 2.5"/>
    <path d="M 456.326153 77.428269 
L 456.326153 103.274423 
" clip-path="url(#p0c96ceb790)" style="fill: none; stroke: #25848e; stroke-width: 2.5"/>
    <path d="M 491.210683 77.428269 
L 491.210683 103.274423 
" clip-path="url(#p0c96ceb790)" style="fill: none; stroke: #25848e; stroke-width: 2.5"/>
    <path d="M 526.094065 77.428269 
L 526.094065 103.274423 
" clip-path="url(#p0c96ceb790)" style="fill: none; stroke: #25848e; stroke-width: 2.5"/>
   </g>
   <g id="EventCollection_4">
    <path clip-path="url(#p0c96ceb790)" style="fill: none; stroke: #25848e; stroke-width: 2.5"/>
    <path clip-path="url(#p0c96ceb790)" style="fill: none; stroke: #25848e; stroke-width: 2.5"/>
    <path clip-path="url(#p0c96ceb790)" style="fill: none; stroke: #25848e; stroke-width: 2.5"/>
    <path clip-path="url(#p0c96ceb790)" style="fill: none; stroke: #25848e; stroke-width: 2.5"/>
    <path clip-path="url(#p0c96ceb790)" style="fill: none; stroke: #25848e; stroke-width: 2.5"/>
    <path clip-path="url(#p0c96ceb790)" style="fill: none; stroke: #25848e; stroke-width: 2.5"/>
    <path clip-path="url(#p0c96ceb790)" style="fill: none; stroke: #25848e; stroke-width: 2.5"/>
    <path clip-path="url(#p0c96ceb790)" style="fill: none; stroke: #25848e; stroke-width: 2.5"/>
    <path clip-path="url(#p0c96ceb790)" style="fill: none; stroke: #25848e; stroke-width: 2.5"/>
    <path clip-path="url(#p0c96ceb790)" style="fill: none; stroke: #25848e; stroke-width: 2.5"/>
    <path d="M 20.964751 45.120577 
L 20.964751 70.966731 
" clip-path="url(#p0c96ceb790)" style="fill: none; stroke: #25848e; stroke-width: 2.5"/>
    <path d="M 55.751132 45.120577 
L 55.751132 70.966731 
" clip-path="url(#p0c96ceb790)" style="fill: none; stroke: #25848e; stroke-width: 2.5"/>
    <path d="M 90.55264 45.120577 
L 90.55264 70.966731 
" clip-path="url(#p0c96ceb790)" style="fill: none; stroke: #25848e; stroke-width: 2.5"/>
    <path d="M 125.368171 45.120577 
L 125.368171 70.966731 
" clip-path="url(#p0c96ceb790)" style="fill: none; stroke: #25848e; stroke-width: 2.5"/>
    <path d="M 160.193842 45.120577 
L 160.193842 70.966731 
" clip-path="url(#p0c96ceb790)" style="fill: none; stroke: #25848e; stroke-width: 2.5"/>
    <path d="M 195.027702 45.120577 
L 195.027702 70.966731 
" clip-path="url(#p0c96ceb790)" style="fill: none; stroke: #25848e; stroke-width: 2.5"/>
    <path d="M 229.868454 45.120577 
L 229.868454 70.966731 
" clip-path="url(#p0c96ceb790)" style="fill: none; stroke: #25848e; stroke-width: 2.5"/>
    <path d="M 264.713843 45.120577 
L 264.713843 70.966731 
" clip-path="url(#p0c96ceb790)" style="fill: none; stroke: #25848e; stroke-width: 2.5"/>
    <path d="M 299.565966 45.120577 
L 299.565966 70.966731 
" clip-path="url(#p0c96ceb790)" style="fill: none; stroke: #25848e; stroke-width: 2.5"/>
    <path d="M 334.42201 45.120577 
L 334.42201 70.966731 
" clip-path="url(#p0c96ceb790)" style="fill: none; stroke: #25848e; stroke-width: 2.5"/>
    <path d="M 369.281219 45.120577 
L 369.281219 70.966731 
" clip-path="url(#p0c96ceb790)" style="fill: none; stroke: #25848e; stroke-width: 2.5"/>
    <path d="M 404.14158 45.120577 
L 404.14158 70.966731 
" clip-path="url(#p0c96ceb790)" style="fill: none; stroke: #25848e; stroke-width: 2.5"/>
    <path d="M 439.006426 45.120577 
L 439.006426 70.966731 
" clip-path="url(#p0c96ceb790)" style="fill: none; stroke: #25848e; stroke-width: 2.5"/>
    <path d="M 473.87223 45.120577 
L 473.87223 70.966731 
" clip-path="url(#p0c96ceb790)" style="fill: none; stroke: #25848e; stroke-width: 2.5"/>
    <path d="M 508.738848 45.120577 
L 508.738848 70.966731 
" clip-path="url(#p0c96ceb790)" style="fill: none; stroke: #25848e; stroke-width: 2.5"/>
   </g>
   <g id="patch_6">
    <path d="M 349.4825 120.3975 
L 349.4825 27.9975 
" style="fill: none; stroke: #000000; stroke-width: 0.8; stroke-linejoin: miter; stroke-linecap: square"/>
   </g>
   <g id="patch_7">
    <path d="M 349.4825 120.3975 
L 558.7325 120.3975 
" style="fill: none; stroke: #000000; stroke-width: 0.8; stroke-linejoin: miter; stroke-linecap: square"/>
   </g>
   <g id="text_20">
    <!-- HOM Network -->
    <g transform="translate(398.94625 21.9975) scale(0.16 -0.16)">
     <defs>
      <path id="DejaVuSans-48" d="M 628 4666 
L 1259 4666 
L 1259 2753 
L 3553 2753 
L 3553 4666 
L 4184 4666 
L 4184 0 
L 3553 0 
L 3553 2222 
L 1259 2222 
L 1259 0 
L 628 0 
L 628 4666 
z
" transform="scale(0.015625)"/>
      <path id="DejaVuSans-4f" d="M 2522 4238 
Q 1834 4238 1429 3725 
Q 1025 3213 1025 2328 
Q 1025 1447 1429 934 
Q 1834 422 2522 422 
Q 3209 422 3611 934 
Q 4013 1447 4013 2328 
Q 4013 3213 3611 3725 
Q 3209 4238 2522 4238 
z
M 2522 4750 
Q 3503 4750 4090 4092 
Q 4678 3434 4678 2328 
Q 4678 1225 4090 567 
Q 3503 -91 2522 -91 
Q 1538 -91 948 565 
Q 359 1222 359 2328 
Q 359 3434 948 4092 
Q 1538 4750 2522 4750 
z
" transform="scale(0.015625)"/>
      <path id="DejaVuSans-4d" d="M 628 4666 
L 1569 4666 
L 2759 1491 
L 3956 4666 
L 4897 4666 
L 4897 0 
L 4281 0 
L 4281 4097 
L 3078 897 
L 2444 897 
L 1241 4097 
L 1241 0 
L 628 0 
L 628 4666 
z
" transform="scale(0.015625)"/>
     </defs>
     <use xlink:href="#DejaVuSans-48"/>
     <use xlink:href="#DejaVuSans-4f" x="75.195312"/>
     <use xlink:href="#DejaVuSans-4d" x="153.90625"/>
     <use xlink:href="#DejaVuSans-20" x="240.185547"/>
     <use xlink:href="#DejaVuSans-4e" x="271.972656"/>
     <use xlink:href="#DejaVuSans-65" x="346.777344"/>
     <use xlink:href="#DejaVuSans-74" x="408.300781"/>
     <use xlink:href="#DejaVuSans-77" x="447.509766"/>
     <use xlink:href="#DejaVuSans-6f" x="529.296875"/>
     <use xlink:href="#DejaVuSans-72" x="590.478516"/>
     <use xlink:href="#DejaVuSans-6b" x="631.591797"/>
    </g>
   </g>
  </g>
  <g id="axes_3">
   <g id="patch_8">
    <path d="M 56.5325 360.6375 
L 265.7825 360.6375 
L 265.7825 175.8375 
L 56.5325 175.8375 
z
" style="fill: #ffffff"/>
   </g>
   <g id="matplotlib.axis_5">
    <g id="xtick_15">
     <g id="line2d_15">
      <g>
       <use xlink:href="#md36a050792" x="65.08312" y="360.6375" style="stroke: #000000; stroke-width: 0.8"/>
      </g>
     </g>
     <g id="text_21">
      <!-- 0.00 -->
      <g transform="translate(51.723745 376.755625) scale(0.12 -0.12)">
       <defs>
        <path id="DejaVuSans-2e" d="M 684 794 
L 1344 794 
L 1344 0 
L 684 0 
L 684 794 
z
" transform="scale(0.015625)"/>
       </defs>
       <use xlink:href="#DejaVuSans-30"/>
       <use xlink:href="#DejaVuSans-2e" x="63.623047"/>
       <use xlink:href="#DejaVuSans-30" x="95.410156"/>
       <use xlink:href="#DejaVuSans-30" x="159.033203"/>
      </g>
     </g>
    </g>
    <g id="xtick_16">
     <g id="line2d_16">
      <g>
       <use xlink:href="#md36a050792" x="113.12031" y="360.6375" style="stroke: #000000; stroke-width: 0.8"/>
      </g>
     </g>
     <g id="text_22">
      <!-- 0.25 -->
      <g transform="translate(99.760935 376.755625) scale(0.12 -0.12)">
       <use xlink:href="#DejaVuSans-30"/>
       <use xlink:href="#DejaVuSans-2e" x="63.623047"/>
       <use xlink:href="#DejaVuSans-32" x="95.410156"/>
       <use xlink:href="#DejaVuSans-35" x="159.033203"/>
      </g>
     </g>
    </g>
    <g id="xtick_17">
     <g id="line2d_17">
      <g>
       <use xlink:href="#md36a050792" x="161.1575" y="360.6375" style="stroke: #000000; stroke-width: 0.8"/>
      </g>
     </g>
     <g id="text_23">
      <!-- 0.50 -->
      <g transform="translate(147.798125 376.755625) scale(0.12 -0.12)">
       <use xlink:href="#DejaVuSans-30"/>
       <use xlink:href="#DejaVuSans-2e" x="63.623047"/>
       <use xlink:href="#DejaVuSans-35" x="95.410156"/>
       <use xlink:href="#DejaVuSans-30" x="159.033203"/>
      </g>
     </g>
    </g>
    <g id="xtick_18">
     <g id="line2d_18">
      <g>
       <use xlink:href="#md36a050792" x="209.19469" y="360.6375" style="stroke: #000000; stroke-width: 0.8"/>
      </g>
     </g>
     <g id="text_24">
      <!-- 0.75 -->
      <g transform="translate(195.835315 376.755625) scale(0.12 -0.12)">
       <defs>
        <path id="DejaVuSans-37" d="M 525 4666 
L 3525 4666 
L 3525 4397 
L 1831 0 
L 1172 0 
L 2766 4134 
L 525 4134 
L 525 4666 
z
" transform="scale(0.015625)"/>
       </defs>
       <use xlink:href="#DejaVuSans-30"/>
       <use xlink:href="#DejaVuSans-2e" x="63.623047"/>
       <use xlink:href="#DejaVuSans-37" x="95.410156"/>
       <use xlink:href="#DejaVuSans-35" x="159.033203"/>
      </g>
     </g>
    </g>
    <g id="xtick_19">
     <g id="line2d_19">
      <g>
       <use xlink:href="#md36a050792" x="257.23188" y="360.6375" style="stroke: #000000; stroke-width: 0.8"/>
      </g>
     </g>
     <g id="text_25">
      <!-- 1.00 -->
      <g transform="translate(243.872505 376.755625) scale(0.12 -0.12)">
       <use xlink:href="#DejaVuSans-31"/>
       <use xlink:href="#DejaVuSans-2e" x="63.623047"/>
       <use xlink:href="#DejaVuSans-30" x="95.410156"/>
       <use xlink:href="#DejaVuSans-30" x="159.033203"/>
      </g>
     </g>
    </g>
    <g id="text_26">
     <!-- Phase -->
     <g transform="translate(143.242813 392.369375) scale(0.12 -0.12)">
      <defs>
       <path id="DejaVuSans-50" d="M 1259 4147 
L 1259 2394 
L 2053 2394 
Q 2494 2394 2734 2622 
Q 2975 2850 2975 3272 
Q 2975 3691 2734 3919 
Q 2494 4147 2053 4147 
L 1259 4147 
z
M 628 4666 
L 2053 4666 
Q 2838 4666 3239 4311 
Q 3641 3956 3641 3272 
Q 3641 2581 3239 2228 
Q 2838 1875 2053 1875 
L 1259 1875 
L 1259 0 
L 628 0 
L 628 4666 
z
" transform="scale(0.015625)"/>
       <path id="DejaVuSans-68" d="M 3513 2113 
L 3513 0 
L 2938 0 
L 2938 2094 
Q 2938 2591 2744 2837 
Q 2550 3084 2163 3084 
Q 1697 3084 1428 2787 
Q 1159 2491 1159 1978 
L 1159 0 
L 581 0 
L 581 4863 
L 1159 4863 
L 1159 2956 
Q 1366 3272 1645 3428 
Q 1925 3584 2291 3584 
Q 2894 3584 3203 3211 
Q 3513 2838 3513 2113 
z
" transform="scale(0.015625)"/>
       <path id="DejaVuSans-61" d="M 2194 1759 
Q 1497 1759 1228 1600 
Q 959 1441 959 1056 
Q 959 750 1161 570 
Q 1363 391 1709 391 
Q 2188 391 2477 730 
Q 2766 1069 2766 1631 
L 2766 1759 
L 2194 1759 
z
M 3341 1997 
L 3341 0 
L 2766 0 
L 2766 531 
Q 2569 213 2275 61 
Q 1981 -91 1556 -91 
Q 1019 -91 701 211 
Q 384 513 384 1019 
Q 384 1609 779 1909 
Q 1175 2209 1959 2209 
L 2766 2209 
L 2766 2266 
Q 2766 2663 2505 2880 
Q 2244 3097 1772 3097 
Q 1472 3097 1187 3025 
Q 903 2953 641 2809 
L 641 3341 
Q 956 3463 1253 3523 
Q 1550 3584 1831 3584 
Q 2591 3584 2966 3190 
Q 3341 2797 3341 1997 
z
" transform="scale(0.015625)"/>
       <path id="DejaVuSans-73" d="M 2834 3397 
L 2834 2853 
Q 2591 2978 2328 3040 
Q 2066 3103 1784 3103 
Q 1356 3103 1142 2972 
Q 928 2841 928 2578 
Q 928 2378 1081 2264 
Q 1234 2150 1697 2047 
L 1894 2003 
Q 2506 1872 2764 1633 
Q 3022 1394 3022 966 
Q 3022 478 2636 193 
Q 2250 -91 1575 -91 
Q 1294 -91 989 -36 
Q 684 19 347 128 
L 347 722 
Q 666 556 975 473 
Q 1284 391 1588 391 
Q 1994 391 2212 530 
Q 2431 669 2431 922 
Q 2431 1156 2273 1281 
Q 2116 1406 1581 1522 
L 1381 1569 
Q 847 1681 609 1914 
Q 372 2147 372 2553 
Q 372 3047 722 3315 
Q 1072 3584 1716 3584 
Q 2034 3584 2315 3537 
Q 2597 3491 2834 3397 
z
" transform="scale(0.015625)"/>
      </defs>
      <use xlink:href="#DejaVuSans-50"/>
      <use xlink:href="#DejaVuSans-68" x="60.302734"/>
      <use xlink:href="#DejaVuSans-61" x="123.681641"/>
      <use xlink:href="#DejaVuSans-73" x="184.960938"/>
      <use xlink:href="#DejaVuSans-65" x="237.060547"/>
     </g>
    </g>
   </g>
   <g id="matplotlib.axis_6">
    <g id="ytick_1">
     <g id="line2d_20">
      <defs>
       <path id="m93f0294b16" d="M 0 0 
L -3.5 0 
" style="stroke: #000000; stroke-width: 0.8"/>
      </defs>
      <g>
       <use xlink:href="#m93f0294b16" x="56.5325" y="350.417066" style="stroke: #000000; stroke-width: 0.8"/>
      </g>
     </g>
     <g id="text_27">
      <!-- 0.00 -->
      <g transform="translate(22.81375 354.976129) scale(0.12 -0.12)">
       <use xlink:href="#DejaVuSans-30"/>
       <use xlink:href="#DejaVuSans-2e" x="63.623047"/>
       <use xlink:href="#DejaVuSans-30" x="95.410156"/>
       <use xlink:href="#DejaVuSans-30" x="159.033203"/>
      </g>
     </g>
    </g>
    <g id="ytick_2">
     <g id="line2d_21">
      <g>
       <use xlink:href="#m93f0294b16" x="56.5325" y="317.213016" style="stroke: #000000; stroke-width: 0.8"/>
      </g>
     </g>
     <g id="text_28">
      <!-- 0.02 -->
      <g transform="translate(22.81375 321.772078) scale(0.12 -0.12)">
       <use xlink:href="#DejaVuSans-30"/>
       <use xlink:href="#DejaVuSans-2e" x="63.623047"/>
       <use xlink:href="#DejaVuSans-30" x="95.410156"/>
       <use xlink:href="#DejaVuSans-32" x="159.033203"/>
      </g>
     </g>
    </g>
    <g id="ytick_3">
     <g id="line2d_22">
      <g>
       <use xlink:href="#m93f0294b16" x="56.5325" y="284.008965" style="stroke: #000000; stroke-width: 0.8"/>
      </g>
     </g>
     <g id="text_29">
      <!-- 0.04 -->
      <g transform="translate(22.81375 288.568028) scale(0.12 -0.12)">
       <use xlink:href="#DejaVuSans-30"/>
       <use xlink:href="#DejaVuSans-2e" x="63.623047"/>
       <use xlink:href="#DejaVuSans-30" x="95.410156"/>
       <use xlink:href="#DejaVuSans-34" x="159.033203"/>
      </g>
     </g>
    </g>
    <g id="ytick_4">
     <g id="line2d_23">
      <g>
       <use xlink:href="#m93f0294b16" x="56.5325" y="250.804915" style="stroke: #000000; stroke-width: 0.8"/>
      </g>
     </g>
     <g id="text_30">
      <!-- 0.06 -->
      <g transform="translate(22.81375 255.363977) scale(0.12 -0.12)">
       <use xlink:href="#DejaVuSans-30"/>
       <use xlink:href="#DejaVuSans-2e" x="63.623047"/>
       <use xlink:href="#DejaVuSans-30" x="95.410156"/>
       <use xlink:href="#DejaVuSans-36" x="159.033203"/>
      </g>
     </g>
    </g>
    <g id="ytick_5">
     <g id="line2d_24">
      <g>
       <use xlink:href="#m93f0294b16" x="56.5325" y="217.600864" style="stroke: #000000; stroke-width: 0.8"/>
      </g>
     </g>
     <g id="text_31">
      <!-- 0.08 -->
      <g transform="translate(22.81375 222.159927) scale(0.12 -0.12)">
       <defs>
        <path id="DejaVuSans-38" d="M 2034 2216 
Q 1584 2216 1326 1975 
Q 1069 1734 1069 1313 
Q 1069 891 1326 650 
Q 1584 409 2034 409 
Q 2484 409 2743 651 
Q 3003 894 3003 1313 
Q 3003 1734 2745 1975 
Q 2488 2216 2034 2216 
z
M 1403 2484 
Q 997 2584 770 2862 
Q 544 3141 544 3541 
Q 544 4100 942 4425 
Q 1341 4750 2034 4750 
Q 2731 4750 3128 4425 
Q 3525 4100 3525 3541 
Q 3525 3141 3298 2862 
Q 3072 2584 2669 2484 
Q 3125 2378 3379 2068 
Q 3634 1759 3634 1313 
Q 3634 634 3220 271 
Q 2806 -91 2034 -91 
Q 1263 -91 848 271 
Q 434 634 434 1313 
Q 434 1759 690 2068 
Q 947 2378 1403 2484 
z
M 1172 3481 
Q 1172 3119 1398 2916 
Q 1625 2713 2034 2713 
Q 2441 2713 2670 2916 
Q 2900 3119 2900 3481 
Q 2900 3844 2670 4047 
Q 2441 4250 2034 4250 
Q 1625 4250 1398 4047 
Q 1172 3844 1172 3481 
z
" transform="scale(0.015625)"/>
       </defs>
       <use xlink:href="#DejaVuSans-30"/>
       <use xlink:href="#DejaVuSans-2e" x="63.623047"/>
       <use xlink:href="#DejaVuSans-30" x="95.410156"/>
       <use xlink:href="#DejaVuSans-38" x="159.033203"/>
      </g>
     </g>
    </g>
    <g id="ytick_6">
     <g id="line2d_25">
      <g>
       <use xlink:href="#m93f0294b16" x="56.5325" y="184.396813" style="stroke: #000000; stroke-width: 0.8"/>
      </g>
     </g>
     <g id="text_32">
      <!-- 0.10 -->
      <g transform="translate(22.81375 188.955876) scale(0.12 -0.12)">
       <use xlink:href="#DejaVuSans-30"/>
       <use xlink:href="#DejaVuSans-2e" x="63.623047"/>
       <use xlink:href="#DejaVuSans-31" x="95.410156"/>
       <use xlink:href="#DejaVuSans-30" x="159.033203"/>
      </g>
     </g>
    </g>
    <g id="text_33">
     <!-- PRC -->
     <g transform="translate(16.318125 279.914062) rotate(-90) scale(0.12 -0.12)">
      <defs>
       <path id="DejaVuSans-52" d="M 2841 2188 
Q 3044 2119 3236 1894 
Q 3428 1669 3622 1275 
L 4263 0 
L 3584 0 
L 2988 1197 
Q 2756 1666 2539 1819 
Q 2322 1972 1947 1972 
L 1259 1972 
L 1259 0 
L 628 0 
L 628 4666 
L 2053 4666 
Q 2853 4666 3247 4331 
Q 3641 3997 3641 3322 
Q 3641 2881 3436 2590 
Q 3231 2300 2841 2188 
z
M 1259 4147 
L 1259 2491 
L 2053 2491 
Q 2509 2491 2742 2702 
Q 2975 2913 2975 3322 
Q 2975 3731 2742 3939 
Q 2509 4147 2053 4147 
L 1259 4147 
z
" transform="scale(0.015625)"/>
      </defs>
      <use xlink:href="#DejaVuSans-50"/>
      <use xlink:href="#DejaVuSans-52" x="60.302734"/>
      <use xlink:href="#DejaVuSans-43" x="124.785156"/>
     </g>
    </g>
   </g>
   <g id="line2d_26">
    <path d="M 66.043864 350.503138 
L 67.965351 350.481152 
L 69.886839 350.433109 
L 71.808326 350.373073 
L 73.729814 350.157928 
L 75.651302 349.557967 
L 77.572789 348.808529 
L 79.494277 347.51383 
L 81.415764 345.805658 
L 83.337252 343.534042 
L 85.25874 341.003955 
L 87.180227 337.910434 
L 89.101715 334.406255 
L 91.023202 330.635278 
L 92.94469 326.293905 
L 94.866178 321.702731 
L 96.787665 316.80195 
L 98.709153 311.460993 
L 100.63064 306.002871 
L 102.552128 300.186124 
L 104.473616 294.169098 
L 106.395103 287.944311 
L 108.316591 281.473447 
L 110.238079 275.013848 
L 112.159566 268.501219 
L 114.081054 262.0815 
L 116.002541 255.559931 
L 117.924029 249.149009 
L 119.845517 242.895481 
L 121.767004 236.904438 
L 123.688492 231.055937 
L 125.609979 225.349856 
L 127.531467 220.043413 
L 129.452955 215.032122 
L 131.374442 210.288682 
L 133.29593 206.092523 
L 135.217417 202.048571 
L 137.138905 198.530562 
L 139.060393 195.319372 
L 140.98188 192.62172 
L 142.903368 190.243487 
L 144.824855 188.226565 
L 146.746343 186.681032 
L 148.667831 185.465325 
L 150.589318 184.633647 
L 152.510806 184.325782 
L 154.432293 184.2375 
L 156.353781 184.472539 
L 158.275269 185.219383 
L 160.196756 186.134824 
L 162.118244 187.439891 
L 164.039731 189.034172 
L 165.961219 190.898114 
L 167.882707 193.037123 
L 169.804194 195.459798 
L 171.725682 198.147347 
L 173.647169 200.984579 
L 175.568657 204.09482 
L 177.490145 207.336007 
L 179.411632 210.868748 
L 181.33312 214.51242 
L 183.254607 218.190367 
L 185.176095 222.239516 
L 187.097583 226.200491 
L 189.01907 230.381968 
L 190.940558 234.622069 
L 192.862045 239.04774 
L 194.783533 243.455757 
L 196.705021 247.967478 
L 198.626508 252.56491 
L 200.547996 257.068326 
L 202.469483 261.810819 
L 204.390971 266.305471 
L 206.312459 271.055394 
L 208.233946 275.680557 
L 210.155434 280.162852 
L 212.076921 284.778249 
L 213.998409 289.270018 
L 215.919897 293.750417 
L 217.841384 298.100892 
L 219.762872 302.453246 
L 221.68436 306.655885 
L 223.605847 310.741413 
L 225.527335 314.658419 
L 227.448822 318.544269 
L 229.37031 322.177289 
L 231.291798 325.725843 
L 233.213285 329.078673 
L 235.134773 332.218378 
L 237.05626 335.090609 
L 238.977748 337.882871 
L 240.899236 340.322014 
L 242.820723 342.577892 
L 244.742211 344.595249 
L 246.663698 346.302296 
L 248.585186 347.749779 
L 250.506674 348.762376 
L 252.428161 349.622927 
L 254.349649 350.17336 
L 256.271136 350.407164 
" clip-path="url(#p52f95ceec3)" style="fill: none; stroke: #bddf26; stroke-width: 2; stroke-linecap: square"/>
   </g>
   <g id="line2d_27">
    <path d="M 66.043864 350.367968 
L 67.965351 350.53016 
L 69.886839 351.101595 
L 71.808326 352.2375 
L 73.729814 352.058437 
L 75.651302 345.002504 
L 77.572789 326.792441 
L 79.494277 299.245243 
L 81.415764 268.933122 
L 83.337252 241.240797 
L 85.25874 219.084512 
L 87.180227 203.047424 
L 89.101715 192.398525 
L 91.023202 186.556624 
L 92.94469 184.356056 
L 94.866178 185.069006 
L 96.787665 187.818666 
L 98.709153 192.170677 
L 100.63064 197.685833 
L 102.552128 203.937104 
L 104.473616 210.768374 
L 106.395103 217.737315 
L 108.316591 224.83781 
L 110.238079 231.959452 
L 112.159566 239.072474 
L 114.081054 245.91503 
L 116.002541 252.464217 
L 117.924029 258.867067 
L 119.845517 264.977151 
L 121.767004 270.794548 
L 123.688492 276.318994 
L 125.609979 281.550734 
L 127.531467 286.48944 
L 129.452955 291.13536 
L 131.374442 295.634175 
L 133.29593 299.692904 
L 135.217417 303.459571 
L 137.138905 307.089966 
L 139.060393 310.422432 
L 140.98188 313.603076 
L 142.903368 316.468365 
L 144.824855 319.187523 
L 146.746343 321.686838 
L 148.667831 324.012486 
L 150.589318 326.191496 
L 152.510806 328.222776 
L 154.432293 329.9606 
L 156.353781 331.698334 
L 158.275269 333.288521 
L 160.196756 334.731166 
L 162.118244 336.02625 
L 164.039731 337.174291 
L 165.961219 338.320774 
L 167.882707 339.466383 
L 169.804194 340.326014 
L 171.725682 341.182 
L 173.647169 342.035192 
L 175.568657 342.730685 
L 177.490145 343.396972 
L 179.411632 344.129548 
L 181.33312 344.707053 
L 183.254607 345.137081 
L 185.176095 345.713166 
L 187.097583 346.141493 
L 189.01907 346.567872 
L 190.940558 346.846715 
L 192.862045 347.271209 
L 194.783533 347.54786 
L 196.705021 347.822886 
L 198.626508 348.096673 
L 200.547996 348.222191 
L 202.469483 348.491818 
L 204.390971 348.769973 
L 206.312459 348.89842 
L 208.233946 349.019436 
L 210.155434 349.126211 
L 212.076921 349.398145 
L 213.998409 349.518805 
L 215.919897 349.512688 
L 217.841384 349.651508 
L 219.762872 349.789971 
L 221.68436 349.77998 
L 223.605847 349.914769 
L 225.527335 350.048572 
L 227.448822 350.033947 
L 229.37031 350.164989 
L 231.291798 350.147652 
L 233.213285 350.129155 
L 235.134773 350.2552 
L 237.05626 350.232167 
L 238.977748 350.220965 
L 240.899236 350.348409 
L 242.820723 350.319841 
L 244.742211 350.270827 
L 246.663698 350.363705 
L 248.585186 350.390569 
L 250.506674 350.384185 
L 252.428161 350.3762 
L 254.349649 350.359021 
L 256.271136 350.350286 
" clip-path="url(#p52f95ceec3)" style="fill: none; stroke: #25848e; stroke-width: 2; stroke-linecap: square"/>
   </g>
   <g id="patch_9">
    <path d="M 56.5325 360.6375 
L 56.5325 175.8375 
" style="fill: none; stroke: #000000; stroke-width: 0.8; stroke-linejoin: miter; stroke-linecap: square"/>
   </g>
   <g id="patch_10">
    <path d="M 56.5325 360.6375 
L 265.7825 360.6375 
" style="fill: none; stroke: #000000; stroke-width: 0.8; stroke-linejoin: miter; stroke-linecap: square"/>
   </g>
   <g id="legend_1">
    <g id="line2d_28">
     <path d="M 192.558125 191.555625 
L 204.558125 191.555625 
L 216.558125 191.555625 
" style="fill: none; stroke: #bddf26; stroke-width: 2; stroke-linecap: square"/>
    </g>
    <g id="text_34">
     <!-- SNIC -->
     <g transform="translate(226.158125 195.755625) scale(0.12 -0.12)">
      <use xlink:href="#DejaVuSans-53"/>
      <use xlink:href="#DejaVuSans-4e" x="63.476562"/>
      <use xlink:href="#DejaVuSans-49" x="138.28125"/>
      <use xlink:href="#DejaVuSans-43" x="167.773438"/>
     </g>
    </g>
    <g id="line2d_29">
     <path d="M 192.558125 209.169375 
L 204.558125 209.169375 
L 216.558125 209.169375 
" style="fill: none; stroke: #25848e; stroke-width: 2; stroke-linecap: square"/>
    </g>
    <g id="text_35">
     <!-- HOM -->
     <g transform="translate(226.158125 213.369375) scale(0.12 -0.12)">
      <use xlink:href="#DejaVuSans-48"/>
      <use xlink:href="#DejaVuSans-4f" x="75.195312"/>
      <use xlink:href="#DejaVuSans-4d" x="153.90625"/>
     </g>
    </g>
   </g>
  </g>
  <g id="axes_4">
   <g id="patch_11">
    <path d="M 349.4825 360.6375 
L 558.7325 360.6375 
L 558.7325 175.8375 
L 349.4825 175.8375 
z
" style="fill: #ffffff"/>
   </g>
   <g id="matplotlib.axis_7">
    <g id="xtick_20">
     <g id="line2d_30">
      <g>
       <use xlink:href="#md36a050792" x="358.03312" y="360.6375" style="stroke: #000000; stroke-width: 0.8"/>
      </g>
     </g>
     <g id="text_36">
      <!-- 0.00 -->
      <g transform="translate(344.673745 376.755625) scale(0.12 -0.12)">
       <use xlink:href="#DejaVuSans-30"/>
       <use xlink:href="#DejaVuSans-2e" x="63.623047"/>
       <use xlink:href="#DejaVuSans-30" x="95.410156"/>
       <use xlink:href="#DejaVuSans-30" x="159.033203"/>
      </g>
     </g>
    </g>
    <g id="xtick_21">
     <g id="line2d_31">
      <g>
       <use xlink:href="#md36a050792" x="406.07031" y="360.6375" style="stroke: #000000; stroke-width: 0.8"/>
      </g>
     </g>
     <g id="text_37">
      <!-- 0.25 -->
      <g transform="translate(392.710935 376.755625) scale(0.12 -0.12)">
       <use xlink:href="#DejaVuSans-30"/>
       <use xlink:href="#DejaVuSans-2e" x="63.623047"/>
       <use xlink:href="#DejaVuSans-32" x="95.410156"/>
       <use xlink:href="#DejaVuSans-35" x="159.033203"/>
      </g>
     </g>
    </g>
    <g id="xtick_22">
     <g id="line2d_32">
      <g>
       <use xlink:href="#md36a050792" x="454.1075" y="360.6375" style="stroke: #000000; stroke-width: 0.8"/>
      </g>
     </g>
     <g id="text_38">
      <!-- 0.50 -->
      <g transform="translate(440.748125 376.755625) scale(0.12 -0.12)">
       <use xlink:href="#DejaVuSans-30"/>
       <use xlink:href="#DejaVuSans-2e" x="63.623047"/>
       <use xlink:href="#DejaVuSans-35" x="95.410156"/>
       <use xlink:href="#DejaVuSans-30" x="159.033203"/>
      </g>
     </g>
    </g>
    <g id="xtick_23">
     <g id="line2d_33">
      <g>
       <use xlink:href="#md36a050792" x="502.14469" y="360.6375" style="stroke: #000000; stroke-width: 0.8"/>
      </g>
     </g>
     <g id="text_39">
      <!-- 0.75 -->
      <g transform="translate(488.785315 376.755625) scale(0.12 -0.12)">
       <use xlink:href="#DejaVuSans-30"/>
       <use xlink:href="#DejaVuSans-2e" x="63.623047"/>
       <use xlink:href="#DejaVuSans-37" x="95.410156"/>
       <use xlink:href="#DejaVuSans-35" x="159.033203"/>
      </g>
     </g>
    </g>
    <g id="xtick_24">
     <g id="line2d_34">
      <g>
       <use xlink:href="#md36a050792" x="550.18188" y="360.6375" style="stroke: #000000; stroke-width: 0.8"/>
      </g>
     </g>
     <g id="text_40">
      <!-- 1.00 -->
      <g transform="translate(536.822505 376.755625) scale(0.12 -0.12)">
       <use xlink:href="#DejaVuSans-31"/>
       <use xlink:href="#DejaVuSans-2e" x="63.623047"/>
       <use xlink:href="#DejaVuSans-30" x="95.410156"/>
       <use xlink:href="#DejaVuSans-30" x="159.033203"/>
      </g>
     </g>
    </g>
    <g id="text_41">
     <!-- Phase -->
     <g transform="translate(436.192813 392.369375) scale(0.12 -0.12)">
      <use xlink:href="#DejaVuSans-50"/>
      <use xlink:href="#DejaVuSans-68" x="60.302734"/>
      <use xlink:href="#DejaVuSans-61" x="123.681641"/>
      <use xlink:href="#DejaVuSans-73" x="184.960938"/>
      <use xlink:href="#DejaVuSans-65" x="237.060547"/>
     </g>
    </g>
   </g>
   <g id="matplotlib.axis_8">
    <g id="ytick_7">
     <g id="line2d_35">
      <g>
       <use xlink:href="#m93f0294b16" x="349.4825" y="352.344556" style="stroke: #000000; stroke-width: 0.8"/>
      </g>
     </g>
     <g id="text_42">
      <!-- 0.10 -->
      <g transform="translate(305.708125 356.903618) scale(0.12 -0.12)">
       <defs>
        <path id="DejaVuSans-2212" d="M 678 2272 
L 4684 2272 
L 4684 1741 
L 678 1741 
L 678 2272 
z
" transform="scale(0.015625)"/>
       </defs>
       <use xlink:href="#DejaVuSans-2212"/>
       <use xlink:href="#DejaVuSans-30" x="83.789062"/>
       <use xlink:href="#DejaVuSans-2e" x="147.412109"/>
       <use xlink:href="#DejaVuSans-31" x="179.199219"/>
       <use xlink:href="#DejaVuSans-30" x="242.822266"/>
      </g>
     </g>
    </g>
    <g id="ytick_8">
     <g id="line2d_36">
      <g>
       <use xlink:href="#m93f0294b16" x="349.4825" y="310.291028" style="stroke: #000000; stroke-width: 0.8"/>
      </g>
     </g>
     <g id="text_43">
      <!-- 0.05 -->
      <g transform="translate(305.708125 314.85009) scale(0.12 -0.12)">
       <use xlink:href="#DejaVuSans-2212"/>
       <use xlink:href="#DejaVuSans-30" x="83.789062"/>
       <use xlink:href="#DejaVuSans-2e" x="147.412109"/>
       <use xlink:href="#DejaVuSans-30" x="179.199219"/>
       <use xlink:href="#DejaVuSans-35" x="242.822266"/>
      </g>
     </g>
    </g>
    <g id="ytick_9">
     <g id="line2d_37">
      <g>
       <use xlink:href="#m93f0294b16" x="349.4825" y="268.2375" style="stroke: #000000; stroke-width: 0.8"/>
      </g>
     </g>
     <g id="text_44">
      <!-- 0.00 -->
      <g transform="translate(315.76375 272.796563) scale(0.12 -0.12)">
       <use xlink:href="#DejaVuSans-30"/>
       <use xlink:href="#DejaVuSans-2e" x="63.623047"/>
       <use xlink:href="#DejaVuSans-30" x="95.410156"/>
       <use xlink:href="#DejaVuSans-30" x="159.033203"/>
      </g>
     </g>
    </g>
    <g id="ytick_10">
     <g id="line2d_38">
      <g>
       <use xlink:href="#m93f0294b16" x="349.4825" y="226.183972" style="stroke: #000000; stroke-width: 0.8"/>
      </g>
     </g>
     <g id="text_45">
      <!-- 0.05 -->
      <g transform="translate(315.76375 230.743035) scale(0.12 -0.12)">
       <use xlink:href="#DejaVuSans-30"/>
       <use xlink:href="#DejaVuSans-2e" x="63.623047"/>
       <use xlink:href="#DejaVuSans-30" x="95.410156"/>
       <use xlink:href="#DejaVuSans-35" x="159.033203"/>
      </g>
     </g>
    </g>
    <g id="ytick_11">
     <g id="line2d_39">
      <g>
       <use xlink:href="#m93f0294b16" x="349.4825" y="184.130444" style="stroke: #000000; stroke-width: 0.8"/>
      </g>
     </g>
     <g id="text_46">
      <!-- 0.10 -->
      <g transform="translate(315.76375 188.689507) scale(0.12 -0.12)">
       <use xlink:href="#DejaVuSans-30"/>
       <use xlink:href="#DejaVuSans-2e" x="63.623047"/>
       <use xlink:href="#DejaVuSans-31" x="95.410156"/>
       <use xlink:href="#DejaVuSans-30" x="159.033203"/>
      </g>
     </g>
    </g>
    <g id="text_47">
     <!-- Coupling function -->
     <g transform="translate(299.2125 321.07125) rotate(-90) scale(0.12 -0.12)">
      <defs>
       <path id="DejaVuSans-70" d="M 1159 525 
L 1159 -1331 
L 581 -1331 
L 581 3500 
L 1159 3500 
L 1159 2969 
Q 1341 3281 1617 3432 
Q 1894 3584 2278 3584 
Q 2916 3584 3314 3078 
Q 3713 2572 3713 1747 
Q 3713 922 3314 415 
Q 2916 -91 2278 -91 
Q 1894 -91 1617 61 
Q 1341 213 1159 525 
z
M 3116 1747 
Q 3116 2381 2855 2742 
Q 2594 3103 2138 3103 
Q 1681 3103 1420 2742 
Q 1159 2381 1159 1747 
Q 1159 1113 1420 752 
Q 1681 391 2138 391 
Q 2594 391 2855 752 
Q 3116 1113 3116 1747 
z
" transform="scale(0.015625)"/>
       <path id="DejaVuSans-6c" d="M 603 4863 
L 1178 4863 
L 1178 0 
L 603 0 
L 603 4863 
z
" transform="scale(0.015625)"/>
       <path id="DejaVuSans-67" d="M 2906 1791 
Q 2906 2416 2648 2759 
Q 2391 3103 1925 3103 
Q 1463 3103 1205 2759 
Q 947 2416 947 1791 
Q 947 1169 1205 825 
Q 1463 481 1925 481 
Q 2391 481 2648 825 
Q 2906 1169 2906 1791 
z
M 3481 434 
Q 3481 -459 3084 -895 
Q 2688 -1331 1869 -1331 
Q 1566 -1331 1297 -1286 
Q 1028 -1241 775 -1147 
L 775 -588 
Q 1028 -725 1275 -790 
Q 1522 -856 1778 -856 
Q 2344 -856 2625 -561 
Q 2906 -266 2906 331 
L 2906 616 
Q 2728 306 2450 153 
Q 2172 0 1784 0 
Q 1141 0 747 490 
Q 353 981 353 1791 
Q 353 2603 747 3093 
Q 1141 3584 1784 3584 
Q 2172 3584 2450 3431 
Q 2728 3278 2906 2969 
L 2906 3500 
L 3481 3500 
L 3481 434 
z
" transform="scale(0.015625)"/>
       <path id="DejaVuSans-66" d="M 2375 4863 
L 2375 4384 
L 1825 4384 
Q 1516 4384 1395 4259 
Q 1275 4134 1275 3809 
L 1275 3500 
L 2222 3500 
L 2222 3053 
L 1275 3053 
L 1275 0 
L 697 0 
L 697 3053 
L 147 3053 
L 147 3500 
L 697 3500 
L 697 3744 
Q 697 4328 969 4595 
Q 1241 4863 1831 4863 
L 2375 4863 
z
" transform="scale(0.015625)"/>
       <path id="DejaVuSans-63" d="M 3122 3366 
L 3122 2828 
Q 2878 2963 2633 3030 
Q 2388 3097 2138 3097 
Q 1578 3097 1268 2742 
Q 959 2388 959 1747 
Q 959 1106 1268 751 
Q 1578 397 2138 397 
Q 2388 397 2633 464 
Q 2878 531 3122 666 
L 3122 134 
Q 2881 22 2623 -34 
Q 2366 -91 2075 -91 
Q 1284 -91 818 406 
Q 353 903 353 1747 
Q 353 2603 823 3093 
Q 1294 3584 2113 3584 
Q 2378 3584 2631 3529 
Q 2884 3475 3122 3366 
z
" transform="scale(0.015625)"/>
      </defs>
      <use xlink:href="#DejaVuSans-43"/>
      <use xlink:href="#DejaVuSans-6f" x="69.824219"/>
      <use xlink:href="#DejaVuSans-75" x="131.005859"/>
      <use xlink:href="#DejaVuSans-70" x="194.384766"/>
      <use xlink:href="#DejaVuSans-6c" x="257.861328"/>
      <use xlink:href="#DejaVuSans-69" x="285.644531"/>
      <use xlink:href="#DejaVuSans-6e" x="313.427734"/>
      <use xlink:href="#DejaVuSans-67" x="376.806641"/>
      <use xlink:href="#DejaVuSans-20" x="440.283203"/>
      <use xlink:href="#DejaVuSans-66" x="472.070312"/>
      <use xlink:href="#DejaVuSans-75" x="507.275391"/>
      <use xlink:href="#DejaVuSans-6e" x="570.654297"/>
      <use xlink:href="#DejaVuSans-63" x="634.033203"/>
      <use xlink:href="#DejaVuSans-74" x="689.013672"/>
      <use xlink:href="#DejaVuSans-69" x="728.222656"/>
      <use xlink:href="#DejaVuSans-6f" x="756.005859"/>
      <use xlink:href="#DejaVuSans-6e" x="817.1875"/>
     </g>
    </g>
   </g>
   <g id="line2d_40">
    <path d="M 358.993864 268.286121 
L 360.915351 268.39343 
L 362.836839 268.647944 
L 364.758326 269.053491 
L 366.679814 269.457486 
L 368.601302 269.886846 
L 370.522789 270.371978 
L 372.444277 270.738082 
L 374.365764 271.015553 
L 376.287252 271.100424 
L 378.20874 271.233244 
L 380.130227 271.121136 
L 382.051715 270.936491 
L 383.973202 270.724655 
L 385.89469 270.323007 
L 387.816178 269.8376 
L 389.737665 269.323428 
L 391.659153 268.602044 
L 393.58064 267.906679 
L 395.502128 267.08896 
L 397.423616 266.245625 
L 399.345103 265.296085 
L 401.266591 264.287701 
L 403.188079 263.290784 
L 405.109566 262.329633 
L 407.031054 261.34812 
L 408.952541 260.387387 
L 410.874029 259.545912 
L 412.795517 258.654854 
L 414.717004 258.022329 
L 416.638492 257.340899 
L 418.559979 256.77925 
L 420.481467 256.376638 
L 422.402955 256.071015 
L 424.324442 255.910031 
L 426.24593 255.932292 
L 428.167417 256.001964 
L 430.088905 256.226373 
L 432.010393 256.650889 
L 433.93188 257.147514 
L 435.853368 257.788594 
L 437.774855 258.556519 
L 439.696343 259.41555 
L 441.617831 260.375334 
L 443.539318 261.391362 
L 445.460806 262.596927 
L 447.382293 263.779548 
L 449.303781 264.982257 
L 451.225269 266.304901 
L 453.146756 267.576344 
L 455.068244 268.898656 
L 456.989731 270.170099 
L 458.911219 271.492743 
L 460.832707 272.695452 
L 462.754194 273.878073 
L 464.675682 275.083638 
L 466.597169 276.099666 
L 468.518657 277.05945 
L 470.440145 277.918481 
L 472.361632 278.686406 
L 474.28312 279.327486 
L 476.204607 279.824111 
L 478.126095 280.248627 
L 480.047583 280.473036 
L 481.96907 280.542708 
L 483.890558 280.564969 
L 485.812045 280.403985 
L 487.733533 280.098362 
L 489.655021 279.69575 
L 491.576508 279.134101 
L 493.497996 278.452671 
L 495.419483 277.820146 
L 497.340971 276.929088 
L 499.262459 276.087613 
L 501.183946 275.12688 
L 503.105434 274.145367 
L 505.026921 273.184216 
L 506.948409 272.187299 
L 508.869897 271.178915 
L 510.791384 270.229375 
L 512.712872 269.38604 
L 514.63436 268.568321 
L 516.555847 267.872956 
L 518.477335 267.151572 
L 520.398822 266.6374 
L 522.32031 266.151993 
L 524.241798 265.750345 
L 526.163285 265.538509 
L 528.084773 265.353864 
L 530.00626 265.241756 
L 531.927748 265.374576 
L 533.849236 265.459447 
L 535.770723 265.736918 
L 537.692211 266.103022 
L 539.613698 266.588154 
L 541.535186 267.017514 
L 543.456674 267.421509 
L 545.378161 267.827056 
L 547.299649 268.08157 
L 549.221136 268.188879 
" clip-path="url(#p2954759877)" style="fill: none; stroke: #bddf26; stroke-width: 2; stroke-linecap: square"/>
   </g>
   <g id="line2d_41">
    <path d="M 358.993864 268.246458 
L 360.915351 268.3242 
L 362.836839 268.60499 
L 364.758326 269.176403 
L 366.679814 269.082454 
L 368.601302 265.521477 
L 370.522789 256.34318 
L 372.444277 242.362741 
L 374.365764 226.991929 
L 376.287252 213.027362 
L 378.20874 201.797153 
L 380.130227 193.66098 
L 382.051715 188.330027 
L 383.973202 185.361107 
L 385.89469 184.2375 
L 387.816178 184.665072 
L 389.737665 186.050661 
L 391.659153 188.323207 
L 393.58064 191.18551 
L 395.502128 194.347387 
L 397.423616 197.878304 
L 399.345103 201.479147 
L 401.266591 205.07321 
L 403.188079 208.742212 
L 405.109566 212.483484 
L 407.031054 216.004065 
L 408.952541 219.383238 
L 410.874029 222.69204 
L 412.795517 225.928368 
L 414.717004 229.012098 
L 416.638492 231.87441 
L 418.559979 234.66355 
L 420.481467 237.304865 
L 422.402955 239.798675 
L 424.324442 242.292858 
L 426.24593 244.490304 
L 428.167417 246.614531 
L 430.088905 248.670709 
L 432.010393 250.650809 
L 433.93188 252.480001 
L 435.853368 254.224145 
L 437.774855 255.972818 
L 439.696343 257.576536 
L 441.617831 259.107067 
L 443.539318 260.643203 
L 445.460806 262.105913 
L 447.382293 263.421802 
L 449.303781 264.882524 
L 451.225269 266.268941 
L 453.146756 267.581402 
L 455.068244 268.893598 
L 456.989731 270.206059 
L 458.911219 271.592476 
L 460.832707 273.053198 
L 462.754194 274.369087 
L 464.675682 275.831797 
L 466.597169 277.367933 
L 468.518657 278.898464 
L 470.440145 280.502182 
L 472.361632 282.250855 
L 474.28312 283.994999 
L 476.204607 285.824191 
L 478.126095 287.804291 
L 480.047583 289.860469 
L 481.96907 291.984696 
L 483.890558 294.182142 
L 485.812045 296.676325 
L 487.733533 299.170135 
L 489.655021 301.81145 
L 491.576508 304.60059 
L 493.497996 307.462902 
L 495.419483 310.546632 
L 497.340971 313.78296 
L 499.262459 317.091762 
L 501.183946 320.470935 
L 503.105434 323.991516 
L 505.026921 327.732788 
L 506.948409 331.40179 
L 508.869897 334.995853 
L 510.791384 338.596696 
L 512.712872 342.127613 
L 514.63436 345.28949 
L 516.555847 348.151793 
L 518.477335 350.424339 
L 520.398822 351.809928 
L 522.32031 352.2375 
L 524.241798 351.113893 
L 526.163285 348.144973 
L 528.084773 342.81402 
L 530.00626 334.677847 
L 531.927748 323.447638 
L 533.849236 309.483071 
L 535.770723 294.112259 
L 537.692211 280.13182 
L 539.613698 270.953523 
L 541.535186 267.392546 
L 543.456674 267.298597 
L 545.378161 267.87001 
L 547.299649 268.1508 
L 549.221136 268.228542 
" clip-path="url(#p2954759877)" style="fill: none; stroke: #25848e; stroke-width: 2; stroke-linecap: square"/>
   </g>
   <g id="line2d_42">
    <path d="M 349.4825 268.2375 
L 558.7325 268.2375 
" clip-path="url(#p2954759877)" style="fill: none; stroke-dasharray: 5.55,2.4; stroke-dashoffset: 0; stroke: #000000; stroke-opacity: 0.5; stroke-width: 1.5"/>
   </g>
   <g id="patch_12">
    <path d="M 349.4825 360.6375 
L 349.4825 175.8375 
" style="fill: none; stroke: #000000; stroke-width: 0.8; stroke-linejoin: miter; stroke-linecap: square"/>
   </g>
   <g id="patch_13">
    <path d="M 349.4825 360.6375 
L 558.7325 360.6375 
" style="fill: none; stroke: #000000; stroke-width: 0.8; stroke-linejoin: miter; stroke-linecap: square"/>
   </g>
   <g id="legend_2">
    <g id="line2d_43">
     <path d="M 485.508125 191.555625 
L 497.508125 191.555625 
L 509.508125 191.555625 
" style="fill: none; stroke: #bddf26; stroke-width: 2; stroke-linecap: square"/>
    </g>
    <g id="text_48">
     <!-- SNIC -->
     <g transform="translate(519.108125 195.755625) scale(0.12 -0.12)">
      <use xlink:href="#DejaVuSans-53"/>
      <use xlink:href="#DejaVuSans-4e" x="63.476562"/>
      <use xlink:href="#DejaVuSans-49" x="138.28125"/>
      <use xlink:href="#DejaVuSans-43" x="167.773438"/>
     </g>
    </g>
    <g id="line2d_44">
     <path d="M 485.508125 209.169375 
L 497.508125 209.169375 
L 509.508125 209.169375 
" style="fill: none; stroke: #25848e; stroke-width: 2; stroke-linecap: square"/>
    </g>
    <g id="text_49">
     <!-- HOM -->
     <g transform="translate(519.108125 213.369375) scale(0.12 -0.12)">
      <use xlink:href="#DejaVuSans-48"/>
      <use xlink:href="#DejaVuSans-4f" x="75.195312"/>
      <use xlink:href="#DejaVuSans-4d" x="153.90625"/>
     </g>
    </g>
   </g>
  </g>
  <g id="text_50">
   <!-- A -->
   <g transform="translate(24.1325 19.3575) scale(0.16 -0.16)">
    <defs>
     <path id="DejaVuSans-41" d="M 2188 4044 
L 1331 1722 
L 3047 1722 
L 2188 4044 
z
M 1831 4666 
L 2547 4666 
L 4325 0 
L 3669 0 
L 3244 1197 
L 1141 1197 
L 716 0 
L 50 0 
L 1831 4666 
z
" transform="scale(0.015625)"/>
    </defs>
    <use xlink:href="#DejaVuSans-41"/>
   </g>
  </g>
  <g id="text_51">
   <!-- B -->
   <g transform="translate(299.5325 19.3575) scale(0.16 -0.16)">
    <defs>
     <path id="DejaVuSans-42" d="M 1259 2228 
L 1259 519 
L 2272 519 
Q 2781 519 3026 730 
Q 3272 941 3272 1375 
Q 3272 1813 3026 2020 
Q 2781 2228 2272 2228 
L 1259 2228 
z
M 1259 4147 
L 1259 2741 
L 2194 2741 
Q 2656 2741 2882 2914 
Q 3109 3088 3109 3444 
Q 3109 3797 2882 3972 
Q 2656 4147 2194 4147 
L 1259 4147 
z
M 628 4666 
L 2241 4666 
Q 2963 4666 3353 4366 
Q 3744 4066 3744 3513 
Q 3744 3084 3544 2831 
Q 3344 2578 2956 2516 
Q 3422 2416 3680 2098 
Q 3938 1781 3938 1306 
Q 3938 681 3513 340 
Q 3088 0 2303 0 
L 628 0 
L 628 4666 
z
" transform="scale(0.015625)"/>
    </defs>
    <use xlink:href="#DejaVuSans-42"/>
   </g>
  </g>
  <g id="text_52">
   <!-- C -->
   <g transform="translate(24.1325 159.7575) scale(0.16 -0.16)">
    <use xlink:href="#DejaVuSans-43"/>
   </g>
  </g>
  <g id="text_53">
   <!-- D -->
   <g transform="translate(299.5325 159.7575) scale(0.16 -0.16)">
    <defs>
     <path id="DejaVuSans-44" d="M 1259 4147 
L 1259 519 
L 2022 519 
Q 2988 519 3436 956 
Q 3884 1394 3884 2338 
Q 3884 3275 3436 3711 
Q 2988 4147 2022 4147 
L 1259 4147 
z
M 628 4666 
L 1925 4666 
Q 3281 4666 3915 4102 
Q 4550 3538 4550 2338 
Q 4550 1131 3912 565 
Q 3275 0 1925 0 
L 628 0 
L 628 4666 
z
" transform="scale(0.015625)"/>
    </defs>
    <use xlink:href="#DejaVuSans-44"/>
   </g>
  </g>
 </g>
 <defs>
  <clipPath id="p8d45790a95">
   <rect x="56.5325" y="27.9975" width="209.25" height="92.4"/>
  </clipPath>
  <clipPath id="p0c96ceb790">
   <rect x="349.4825" y="27.9975" width="209.25" height="92.4"/>
  </clipPath>
  <clipPath id="p52f95ceec3">
   <rect x="56.5325" y="175.8375" width="209.25" height="184.8"/>
  </clipPath>
  <clipPath id="p2954759877">
   <rect x="349.4825" y="175.8375" width="209.25" height="184.8"/>
  </clipPath>
 </defs>
</svg>
