<?xml version="1.0" encoding="utf-8" standalone="no"?>
<!DOCTYPE svg PUBLIC "-//W3C//DTD SVG 1.1//EN"
  "http://www.w3.org/Graphics/SVG/1.1/DTD/svg11.dtd">
<svg xmlns:xlink="http://www.w3.org/1999/xlink" width="402.998587pt" height="330.987625pt" viewBox="0 0 402.998587 330.987625" xmlns="http://www.w3.org/2000/svg" version="1.1">
 <metadata>
  <rdf:RDF xmlns:dc="http://purl.org/dc/elements/1.1/" xmlns:cc="http://creativecommons.org/ns#" xmlns:rdf="http://www.w3.org/1999/02/22-rdf-syntax-ns#">
   <cc:Work>
    <dc:type rdf:resource="http://purl.org/dc/dcmitype/StillImage"/>
    <dc:date>2023-02-16T12:47:09.053113</dc:date>
    <dc:format>image/svg+xml</dc:format>
    <dc:creator>
     <cc:Agent>
      <dc:title>Matplotlib v3.6.2, https://matplotlib.org/</dc:title>
     </cc:Agent>
    </dc:creator>
   </cc:Work>
  </rdf:RDF>
 </metadata>
 <defs>
  <style type="text/css">*{stroke-linejoin: round; stroke-linecap: butt}</style>
 </defs>
 <g id="figure_1">
  <g id="patch_1">
   <path d="M 0 330.987625 
L 402.998587 330.987625 
L 402.998587 0 
L 0 0 
z
" style="fill: #ffffff"/>
  </g>
  <g id="axes_1">
   <g id="patch_2">
    <path d="M 36.17625 291.4695 
L 393.29625 291.4695 
L 393.29625 25.3575 
L 36.17625 25.3575 
z
" style="fill: #ffffff"/>
   </g>
   <g id="matplotlib.axis_1">
    <g id="xtick_1">
     <g id="line2d_1">
      <defs>
       <path id="maaebb26640" d="M 0 0 
L 0 3.5 
" style="stroke: #000000; stroke-width: 0.8"/>
      </defs>
      <g>
       <use xlink:href="#maaebb26640" x="64.025686" y="291.4695" style="stroke: #000000; stroke-width: 0.8"/>
      </g>
     </g>
     <g id="text_1">
      <!-- 0 -->
      <g transform="translate(60.844436 306.067937) scale(0.1 -0.1)">
       <defs>
        <path id="DejaVuSans-30" d="M 2034 4250 
Q 1547 4250 1301 3770 
Q 1056 3291 1056 2328 
Q 1056 1369 1301 889 
Q 1547 409 2034 409 
Q 2525 409 2770 889 
Q 3016 1369 3016 2328 
Q 3016 3291 2770 3770 
Q 2525 4250 2034 4250 
z
M 2034 4750 
Q 2819 4750 3233 4129 
Q 3647 3509 3647 2328 
Q 3647 1150 3233 529 
Q 2819 -91 2034 -91 
Q 1250 -91 836 529 
Q 422 1150 422 2328 
Q 422 3509 836 4129 
Q 1250 4750 2034 4750 
z
" transform="scale(0.015625)"/>
       </defs>
       <use xlink:href="#DejaVuSans-30"/>
      </g>
     </g>
    </g>
    <g id="xtick_2">
     <g id="line2d_2">
      <g>
       <use xlink:href="#maaebb26640" x="104.30433" y="291.4695" style="stroke: #000000; stroke-width: 0.8"/>
      </g>
     </g>
     <g id="text_2">
      <!-- 50 -->
      <g transform="translate(97.94183 306.067937) scale(0.1 -0.1)">
       <defs>
        <path id="DejaVuSans-35" d="M 691 4666 
L 3169 4666 
L 3169 4134 
L 1269 4134 
L 1269 2991 
Q 1406 3038 1543 3061 
Q 1681 3084 1819 3084 
Q 2600 3084 3056 2656 
Q 3513 2228 3513 1497 
Q 3513 744 3044 326 
Q 2575 -91 1722 -91 
Q 1428 -91 1123 -41 
Q 819 9 494 109 
L 494 744 
Q 775 591 1075 516 
Q 1375 441 1709 441 
Q 2250 441 2565 725 
Q 2881 1009 2881 1497 
Q 2881 1984 2565 2268 
Q 2250 2553 1709 2553 
Q 1456 2553 1204 2497 
Q 953 2441 691 2322 
L 691 4666 
z
" transform="scale(0.015625)"/>
       </defs>
       <use xlink:href="#DejaVuSans-35"/>
       <use xlink:href="#DejaVuSans-30" x="63.623047"/>
      </g>
     </g>
    </g>
    <g id="xtick_3">
     <g id="line2d_3">
      <g>
       <use xlink:href="#maaebb26640" x="144.582974" y="291.4695" style="stroke: #000000; stroke-width: 0.8"/>
      </g>
     </g>
     <g id="text_3">
      <!-- 100 -->
      <g transform="translate(135.039224 306.067937) scale(0.1 -0.1)">
       <defs>
        <path id="DejaVuSans-31" d="M 794 531 
L 1825 531 
L 1825 4091 
L 703 3866 
L 703 4441 
L 1819 4666 
L 2450 4666 
L 2450 531 
L 3481 531 
L 3481 0 
L 794 0 
L 794 531 
z
" transform="scale(0.015625)"/>
       </defs>
       <use xlink:href="#DejaVuSans-31"/>
       <use xlink:href="#DejaVuSans-30" x="63.623047"/>
       <use xlink:href="#DejaVuSans-30" x="127.246094"/>
      </g>
     </g>
    </g>
    <g id="xtick_4">
     <g id="line2d_4">
      <g>
       <use xlink:href="#maaebb26640" x="184.861618" y="291.4695" style="stroke: #000000; stroke-width: 0.8"/>
      </g>
     </g>
     <g id="text_4">
      <!-- 150 -->
      <g transform="translate(175.317868 306.067937) scale(0.1 -0.1)">
       <use xlink:href="#DejaVuSans-31"/>
       <use xlink:href="#DejaVuSans-35" x="63.623047"/>
       <use xlink:href="#DejaVuSans-30" x="127.246094"/>
      </g>
     </g>
    </g>
    <g id="xtick_5">
     <g id="line2d_5">
      <g>
       <use xlink:href="#maaebb26640" x="225.140262" y="291.4695" style="stroke: #000000; stroke-width: 0.8"/>
      </g>
     </g>
     <g id="text_5">
      <!-- 200 -->
      <g transform="translate(215.596512 306.067937) scale(0.1 -0.1)">
       <defs>
        <path id="DejaVuSans-32" d="M 1228 531 
L 3431 531 
L 3431 0 
L 469 0 
L 469 531 
Q 828 903 1448 1529 
Q 2069 2156 2228 2338 
Q 2531 2678 2651 2914 
Q 2772 3150 2772 3378 
Q 2772 3750 2511 3984 
Q 2250 4219 1831 4219 
Q 1534 4219 1204 4116 
Q 875 4013 500 3803 
L 500 4441 
Q 881 4594 1212 4672 
Q 1544 4750 1819 4750 
Q 2544 4750 2975 4387 
Q 3406 4025 3406 3419 
Q 3406 3131 3298 2873 
Q 3191 2616 2906 2266 
Q 2828 2175 2409 1742 
Q 1991 1309 1228 531 
z
" transform="scale(0.015625)"/>
       </defs>
       <use xlink:href="#DejaVuSans-32"/>
       <use xlink:href="#DejaVuSans-30" x="63.623047"/>
       <use xlink:href="#DejaVuSans-30" x="127.246094"/>
      </g>
     </g>
    </g>
    <g id="xtick_6">
     <g id="line2d_6">
      <g>
       <use xlink:href="#maaebb26640" x="265.418905" y="291.4695" style="stroke: #000000; stroke-width: 0.8"/>
      </g>
     </g>
     <g id="text_6">
      <!-- 250 -->
      <g transform="translate(255.875155 306.067937) scale(0.1 -0.1)">
       <use xlink:href="#DejaVuSans-32"/>
       <use xlink:href="#DejaVuSans-35" x="63.623047"/>
       <use xlink:href="#DejaVuSans-30" x="127.246094"/>
      </g>
     </g>
    </g>
    <g id="xtick_7">
     <g id="line2d_7">
      <g>
       <use xlink:href="#maaebb26640" x="305.697549" y="291.4695" style="stroke: #000000; stroke-width: 0.8"/>
      </g>
     </g>
     <g id="text_7">
      <!-- 300 -->
      <g transform="translate(296.153799 306.067937) scale(0.1 -0.1)">
       <defs>
        <path id="DejaVuSans-33" d="M 2597 2516 
Q 3050 2419 3304 2112 
Q 3559 1806 3559 1356 
Q 3559 666 3084 287 
Q 2609 -91 1734 -91 
Q 1441 -91 1130 -33 
Q 819 25 488 141 
L 488 750 
Q 750 597 1062 519 
Q 1375 441 1716 441 
Q 2309 441 2620 675 
Q 2931 909 2931 1356 
Q 2931 1769 2642 2001 
Q 2353 2234 1838 2234 
L 1294 2234 
L 1294 2753 
L 1863 2753 
Q 2328 2753 2575 2939 
Q 2822 3125 2822 3475 
Q 2822 3834 2567 4026 
Q 2313 4219 1838 4219 
Q 1578 4219 1281 4162 
Q 984 4106 628 3988 
L 628 4550 
Q 988 4650 1302 4700 
Q 1616 4750 1894 4750 
Q 2613 4750 3031 4423 
Q 3450 4097 3450 3541 
Q 3450 3153 3228 2886 
Q 3006 2619 2597 2516 
z
" transform="scale(0.015625)"/>
       </defs>
       <use xlink:href="#DejaVuSans-33"/>
       <use xlink:href="#DejaVuSans-30" x="63.623047"/>
       <use xlink:href="#DejaVuSans-30" x="127.246094"/>
      </g>
     </g>
    </g>
    <g id="xtick_8">
     <g id="line2d_8">
      <g>
       <use xlink:href="#maaebb26640" x="345.976193" y="291.4695" style="stroke: #000000; stroke-width: 0.8"/>
      </g>
     </g>
     <g id="text_8">
      <!-- 350 -->
      <g transform="translate(336.432443 306.067937) scale(0.1 -0.1)">
       <use xlink:href="#DejaVuSans-33"/>
       <use xlink:href="#DejaVuSans-35" x="63.623047"/>
       <use xlink:href="#DejaVuSans-30" x="127.246094"/>
      </g>
     </g>
    </g>
    <g id="xtick_9">
     <g id="line2d_9">
      <g>
       <use xlink:href="#maaebb26640" x="386.254837" y="291.4695" style="stroke: #000000; stroke-width: 0.8"/>
      </g>
     </g>
     <g id="text_9">
      <!-- 400 -->
      <g transform="translate(376.711087 306.067937) scale(0.1 -0.1)">
       <defs>
        <path id="DejaVuSans-34" d="M 2419 4116 
L 825 1625 
L 2419 1625 
L 2419 4116 
z
M 2253 4666 
L 3047 4666 
L 3047 1625 
L 3713 1625 
L 3713 1100 
L 3047 1100 
L 3047 0 
L 2419 0 
L 2419 1100 
L 313 1100 
L 313 1709 
L 2253 4666 
z
" transform="scale(0.015625)"/>
       </defs>
       <use xlink:href="#DejaVuSans-34"/>
       <use xlink:href="#DejaVuSans-30" x="63.623047"/>
       <use xlink:href="#DejaVuSans-30" x="127.246094"/>
      </g>
     </g>
    </g>
    <g id="text_10">
     <!-- $I_{\mathrm{ext}}$ (pA) -->
     <g transform="translate(191.57625 321.267625) scale(0.12 -0.12)">
      <defs>
       <path id="DejaVuSans-Oblique-49" d="M 1081 4666 
L 1716 4666 
L 806 0 
L 172 0 
L 1081 4666 
z
" transform="scale(0.015625)"/>
       <path id="DejaVuSans-65" d="M 3597 1894 
L 3597 1613 
L 953 1613 
Q 991 1019 1311 708 
Q 1631 397 2203 397 
Q 2534 397 2845 478 
Q 3156 559 3463 722 
L 3463 178 
Q 3153 47 2828 -22 
Q 2503 -91 2169 -91 
Q 1331 -91 842 396 
Q 353 884 353 1716 
Q 353 2575 817 3079 
Q 1281 3584 2069 3584 
Q 2775 3584 3186 3129 
Q 3597 2675 3597 1894 
z
M 3022 2063 
Q 3016 2534 2758 2815 
Q 2500 3097 2075 3097 
Q 1594 3097 1305 2825 
Q 1016 2553 972 2059 
L 3022 2063 
z
" transform="scale(0.015625)"/>
       <path id="DejaVuSans-78" d="M 3513 3500 
L 2247 1797 
L 3578 0 
L 2900 0 
L 1881 1375 
L 863 0 
L 184 0 
L 1544 1831 
L 300 3500 
L 978 3500 
L 1906 2253 
L 2834 3500 
L 3513 3500 
z
" transform="scale(0.015625)"/>
       <path id="DejaVuSans-74" d="M 1172 4494 
L 1172 3500 
L 2356 3500 
L 2356 3053 
L 1172 3053 
L 1172 1153 
Q 1172 725 1289 603 
Q 1406 481 1766 481 
L 2356 481 
L 2356 0 
L 1766 0 
Q 1100 0 847 248 
Q 594 497 594 1153 
L 594 3053 
L 172 3053 
L 172 3500 
L 594 3500 
L 594 4494 
L 1172 4494 
z
" transform="scale(0.015625)"/>
       <path id="DejaVuSans-20" transform="scale(0.015625)"/>
       <path id="DejaVuSans-28" d="M 1984 4856 
Q 1566 4138 1362 3434 
Q 1159 2731 1159 2009 
Q 1159 1288 1364 580 
Q 1569 -128 1984 -844 
L 1484 -844 
Q 1016 -109 783 600 
Q 550 1309 550 2009 
Q 550 2706 781 3412 
Q 1013 4119 1484 4856 
L 1984 4856 
z
" transform="scale(0.015625)"/>
       <path id="DejaVuSans-70" d="M 1159 525 
L 1159 -1331 
L 581 -1331 
L 581 3500 
L 1159 3500 
L 1159 2969 
Q 1341 3281 1617 3432 
Q 1894 3584 2278 3584 
Q 2916 3584 3314 3078 
Q 3713 2572 3713 1747 
Q 3713 922 3314 415 
Q 2916 -91 2278 -91 
Q 1894 -91 1617 61 
Q 1341 213 1159 525 
z
M 3116 1747 
Q 3116 2381 2855 2742 
Q 2594 3103 2138 3103 
Q 1681 3103 1420 2742 
Q 1159 2381 1159 1747 
Q 1159 1113 1420 752 
Q 1681 391 2138 391 
Q 2594 391 2855 752 
Q 3116 1113 3116 1747 
z
" transform="scale(0.015625)"/>
       <path id="DejaVuSans-41" d="M 2188 4044 
L 1331 1722 
L 3047 1722 
L 2188 4044 
z
M 1831 4666 
L 2547 4666 
L 4325 0 
L 3669 0 
L 3244 1197 
L 1141 1197 
L 716 0 
L 50 0 
L 1831 4666 
z
" transform="scale(0.015625)"/>
       <path id="DejaVuSans-29" d="M 513 4856 
L 1013 4856 
Q 1481 4119 1714 3412 
Q 1947 2706 1947 2009 
Q 1947 1309 1714 600 
Q 1481 -109 1013 -844 
L 513 -844 
Q 928 -128 1133 580 
Q 1338 1288 1338 2009 
Q 1338 2731 1133 3434 
Q 928 4138 513 4856 
z
" transform="scale(0.015625)"/>
      </defs>
      <use xlink:href="#DejaVuSans-Oblique-49" transform="translate(0 0.125)"/>
      <use xlink:href="#DejaVuSans-65" transform="translate(29.492188 -16.28125) scale(0.7)"/>
      <use xlink:href="#DejaVuSans-78" transform="translate(72.558594 -16.28125) scale(0.7)"/>
      <use xlink:href="#DejaVuSans-74" transform="translate(113.984375 -16.28125) scale(0.7)"/>
      <use xlink:href="#DejaVuSans-20" transform="translate(144.165039 0.125)"/>
      <use xlink:href="#DejaVuSans-28" transform="translate(175.952148 0.125)"/>
      <use xlink:href="#DejaVuSans-70" transform="translate(214.96582 0.125)"/>
      <use xlink:href="#DejaVuSans-41" transform="translate(278.442383 0.125)"/>
      <use xlink:href="#DejaVuSans-29" transform="translate(346.850586 0.125)"/>
     </g>
    </g>
   </g>
   <g id="matplotlib.axis_2">
    <g id="ytick_1">
     <g id="line2d_10">
      <defs>
       <path id="mc052329d50" d="M 0 0 
L -3.5 0 
" style="stroke: #000000; stroke-width: 0.8"/>
      </defs>
      <g>
       <use xlink:href="#mc052329d50" x="36.17625" y="279.3735" style="stroke: #000000; stroke-width: 0.8"/>
      </g>
     </g>
     <g id="text_11">
      <!-- 2 -->
      <g transform="translate(22.81375 283.172719) scale(0.1 -0.1)">
       <use xlink:href="#DejaVuSans-32"/>
      </g>
     </g>
    </g>
    <g id="ytick_2">
     <g id="line2d_11">
      <g>
       <use xlink:href="#mc052329d50" x="36.17625" y="245.7735" style="stroke: #000000; stroke-width: 0.8"/>
      </g>
     </g>
     <g id="text_12">
      <!-- 3 -->
      <g transform="translate(22.81375 249.572719) scale(0.1 -0.1)">
       <use xlink:href="#DejaVuSans-33"/>
      </g>
     </g>
    </g>
    <g id="ytick_3">
     <g id="line2d_12">
      <g>
       <use xlink:href="#mc052329d50" x="36.17625" y="212.1735" style="stroke: #000000; stroke-width: 0.8"/>
      </g>
     </g>
     <g id="text_13">
      <!-- 4 -->
      <g transform="translate(22.81375 215.972719) scale(0.1 -0.1)">
       <use xlink:href="#DejaVuSans-34"/>
      </g>
     </g>
    </g>
    <g id="ytick_4">
     <g id="line2d_13">
      <g>
       <use xlink:href="#mc052329d50" x="36.17625" y="178.5735" style="stroke: #000000; stroke-width: 0.8"/>
      </g>
     </g>
     <g id="text_14">
      <!-- 5 -->
      <g transform="translate(22.81375 182.372719) scale(0.1 -0.1)">
       <use xlink:href="#DejaVuSans-35"/>
      </g>
     </g>
    </g>
    <g id="ytick_5">
     <g id="line2d_14">
      <g>
       <use xlink:href="#mc052329d50" x="36.17625" y="144.9735" style="stroke: #000000; stroke-width: 0.8"/>
      </g>
     </g>
     <g id="text_15">
      <!-- 6 -->
      <g transform="translate(22.81375 148.772719) scale(0.1 -0.1)">
       <defs>
        <path id="DejaVuSans-36" d="M 2113 2584 
Q 1688 2584 1439 2293 
Q 1191 2003 1191 1497 
Q 1191 994 1439 701 
Q 1688 409 2113 409 
Q 2538 409 2786 701 
Q 3034 994 3034 1497 
Q 3034 2003 2786 2293 
Q 2538 2584 2113 2584 
z
M 3366 4563 
L 3366 3988 
Q 3128 4100 2886 4159 
Q 2644 4219 2406 4219 
Q 1781 4219 1451 3797 
Q 1122 3375 1075 2522 
Q 1259 2794 1537 2939 
Q 1816 3084 2150 3084 
Q 2853 3084 3261 2657 
Q 3669 2231 3669 1497 
Q 3669 778 3244 343 
Q 2819 -91 2113 -91 
Q 1303 -91 875 529 
Q 447 1150 447 2328 
Q 447 3434 972 4092 
Q 1497 4750 2381 4750 
Q 2619 4750 2861 4703 
Q 3103 4656 3366 4563 
z
" transform="scale(0.015625)"/>
       </defs>
       <use xlink:href="#DejaVuSans-36"/>
      </g>
     </g>
    </g>
    <g id="ytick_6">
     <g id="line2d_15">
      <g>
       <use xlink:href="#mc052329d50" x="36.17625" y="111.3735" style="stroke: #000000; stroke-width: 0.8"/>
      </g>
     </g>
     <g id="text_16">
      <!-- 7 -->
      <g transform="translate(22.81375 115.172719) scale(0.1 -0.1)">
       <defs>
        <path id="DejaVuSans-37" d="M 525 4666 
L 3525 4666 
L 3525 4397 
L 1831 0 
L 1172 0 
L 2766 4134 
L 525 4134 
L 525 4666 
z
" transform="scale(0.015625)"/>
       </defs>
       <use xlink:href="#DejaVuSans-37"/>
      </g>
     </g>
    </g>
    <g id="ytick_7">
     <g id="line2d_16">
      <g>
       <use xlink:href="#mc052329d50" x="36.17625" y="77.7735" style="stroke: #000000; stroke-width: 0.8"/>
      </g>
     </g>
     <g id="text_17">
      <!-- 8 -->
      <g transform="translate(22.81375 81.572719) scale(0.1 -0.1)">
       <defs>
        <path id="DejaVuSans-38" d="M 2034 2216 
Q 1584 2216 1326 1975 
Q 1069 1734 1069 1313 
Q 1069 891 1326 650 
Q 1584 409 2034 409 
Q 2484 409 2743 651 
Q 3003 894 3003 1313 
Q 3003 1734 2745 1975 
Q 2488 2216 2034 2216 
z
M 1403 2484 
Q 997 2584 770 2862 
Q 544 3141 544 3541 
Q 544 4100 942 4425 
Q 1341 4750 2034 4750 
Q 2731 4750 3128 4425 
Q 3525 4100 3525 3541 
Q 3525 3141 3298 2862 
Q 3072 2584 2669 2484 
Q 3125 2378 3379 2068 
Q 3634 1759 3634 1313 
Q 3634 634 3220 271 
Q 2806 -91 2034 -91 
Q 1263 -91 848 271 
Q 434 634 434 1313 
Q 434 1759 690 2068 
Q 947 2378 1403 2484 
z
M 1172 3481 
Q 1172 3119 1398 2916 
Q 1625 2713 2034 2713 
Q 2441 2713 2670 2916 
Q 2900 3119 2900 3481 
Q 2900 3844 2670 4047 
Q 2441 4250 2034 4250 
Q 1625 4250 1398 4047 
Q 1172 3844 1172 3481 
z
" transform="scale(0.015625)"/>
       </defs>
       <use xlink:href="#DejaVuSans-38"/>
      </g>
     </g>
    </g>
    <g id="ytick_8">
     <g id="line2d_17">
      <g>
       <use xlink:href="#mc052329d50" x="36.17625" y="44.1735" style="stroke: #000000; stroke-width: 0.8"/>
      </g>
     </g>
     <g id="text_18">
      <!-- 9 -->
      <g transform="translate(22.81375 47.972719) scale(0.1 -0.1)">
       <defs>
        <path id="DejaVuSans-39" d="M 703 97 
L 703 672 
Q 941 559 1184 500 
Q 1428 441 1663 441 
Q 2288 441 2617 861 
Q 2947 1281 2994 2138 
Q 2813 1869 2534 1725 
Q 2256 1581 1919 1581 
Q 1219 1581 811 2004 
Q 403 2428 403 3163 
Q 403 3881 828 4315 
Q 1253 4750 1959 4750 
Q 2769 4750 3195 4129 
Q 3622 3509 3622 2328 
Q 3622 1225 3098 567 
Q 2575 -91 1691 -91 
Q 1453 -91 1209 -44 
Q 966 3 703 97 
z
M 1959 2075 
Q 2384 2075 2632 2365 
Q 2881 2656 2881 3163 
Q 2881 3666 2632 3958 
Q 2384 4250 1959 4250 
Q 1534 4250 1286 3958 
Q 1038 3666 1038 3163 
Q 1038 2656 1286 2365 
Q 1534 2075 1959 2075 
z
" transform="scale(0.015625)"/>
       </defs>
       <use xlink:href="#DejaVuSans-39"/>
      </g>
     </g>
    </g>
    <g id="text_19">
     <!-- $G_{\mathrm{in}}$ (nS) -->
     <g transform="translate(16.318125 181.2735) rotate(-90) scale(0.12 -0.12)">
      <defs>
       <path id="DejaVuSans-Oblique-47" d="M 3494 697 
L 3738 1919 
L 2700 1919 
L 2797 2438 
L 4453 2438 
L 4050 384 
Q 3634 156 3143 32 
Q 2653 -91 2156 -91 
Q 1278 -91 783 396 
Q 288 884 288 1753 
Q 288 2475 589 3126 
Q 891 3778 1422 4213 
Q 1756 4484 2153 4617 
Q 2550 4750 3034 4750 
Q 3472 4750 3873 4639 
Q 4275 4528 4641 4306 
L 4513 3634 
Q 4231 3928 3853 4083 
Q 3475 4238 3047 4238 
Q 2550 4238 2172 4048 
Q 1794 3859 1497 3463 
Q 1244 3125 1098 2667 
Q 953 2209 953 1734 
Q 953 1081 1287 751 
Q 1622 422 2284 422 
Q 2616 422 2925 492 
Q 3234 563 3494 697 
z
" transform="scale(0.015625)"/>
       <path id="DejaVuSans-69" d="M 603 3500 
L 1178 3500 
L 1178 0 
L 603 0 
L 603 3500 
z
M 603 4863 
L 1178 4863 
L 1178 4134 
L 603 4134 
L 603 4863 
z
" transform="scale(0.015625)"/>
       <path id="DejaVuSans-6e" d="M 3513 2113 
L 3513 0 
L 2938 0 
L 2938 2094 
Q 2938 2591 2744 2837 
Q 2550 3084 2163 3084 
Q 1697 3084 1428 2787 
Q 1159 2491 1159 1978 
L 1159 0 
L 581 0 
L 581 3500 
L 1159 3500 
L 1159 2956 
Q 1366 3272 1645 3428 
Q 1925 3584 2291 3584 
Q 2894 3584 3203 3211 
Q 3513 2838 3513 2113 
z
" transform="scale(0.015625)"/>
       <path id="DejaVuSans-53" d="M 3425 4513 
L 3425 3897 
Q 3066 4069 2747 4153 
Q 2428 4238 2131 4238 
Q 1616 4238 1336 4038 
Q 1056 3838 1056 3469 
Q 1056 3159 1242 3001 
Q 1428 2844 1947 2747 
L 2328 2669 
Q 3034 2534 3370 2195 
Q 3706 1856 3706 1288 
Q 3706 609 3251 259 
Q 2797 -91 1919 -91 
Q 1588 -91 1214 -16 
Q 841 59 441 206 
L 441 856 
Q 825 641 1194 531 
Q 1563 422 1919 422 
Q 2459 422 2753 634 
Q 3047 847 3047 1241 
Q 3047 1584 2836 1778 
Q 2625 1972 2144 2069 
L 1759 2144 
Q 1053 2284 737 2584 
Q 422 2884 422 3419 
Q 422 4038 858 4394 
Q 1294 4750 2059 4750 
Q 2388 4750 2728 4690 
Q 3069 4631 3425 4513 
z
" transform="scale(0.015625)"/>
      </defs>
      <use xlink:href="#DejaVuSans-Oblique-47" transform="translate(0 0.125)"/>
      <use xlink:href="#DejaVuSans-69" transform="translate(77.490234 -16.28125) scale(0.7)"/>
      <use xlink:href="#DejaVuSans-6e" transform="translate(96.938477 -16.28125) scale(0.7)"/>
      <use xlink:href="#DejaVuSans-20" transform="translate(144.038086 0.125)"/>
      <use xlink:href="#DejaVuSans-28" transform="translate(175.825195 0.125)"/>
      <use xlink:href="#DejaVuSans-6e" transform="translate(214.838867 0.125)"/>
      <use xlink:href="#DejaVuSans-53" transform="translate(278.217773 0.125)"/>
      <use xlink:href="#DejaVuSans-29" transform="translate(341.694336 0.125)"/>
     </g>
    </g>
   </g>
   <g id="line2d_18">
    <path d="M 96.001656 279.3735 
L 102.27135 270.9735 
L 108.807008 262.5735 
L 115.588985 254.1735 
L 124.031297 244.0935 
L 132.786733 234.0135 
L 141.841368 223.9335 
L 151.186538 213.8535 
L 160.818885 203.7735 
L 170.741325 193.6935 
L 180.965794 183.6135 
L 191.52109 173.5335 
L 200.622402 165.1335 
L 204.372446 161.7735 
L 204.372446 161.7735 
" clip-path="url(#pf7d48c9cd5)" style="fill: none; stroke: #000000; stroke-opacity: 0.75; stroke-width: 1.5; stroke-linecap: square"/>
   </g>
   <g id="line2d_19">
    <path d="M 52.408977 279.3735 
L 81.768117 257.5335 
L 108.514074 237.3735 
L 132.689682 218.8935 
L 154.335363 202.0935 
L 173.486822 186.9735 
L 190.167549 173.5335 
L 202.358288 163.4535 
L 204.343559 161.7735 
L 204.343559 161.7735 
" clip-path="url(#pf7d48c9cd5)" style="fill: none; stroke: #000000; stroke-opacity: 0.75; stroke-width: 1.5; stroke-linecap: square"/>
   </g>
   <g id="line2d_20">
    <defs>
     <path id="mb70112ee55" d="M 0 -3 
L -3 3 
L 3 3 
z
" style="stroke: #000000; stroke-opacity: 0.75; stroke-linejoin: miter"/>
    </defs>
    <g clip-path="url(#pf7d48c9cd5)">
     <use xlink:href="#mb70112ee55" x="205.496688" y="160.785789" style="fill-opacity: 0.75; stroke: #000000; stroke-opacity: 0.75; stroke-linejoin: miter"/>
    </g>
   </g>
   <g id="line2d_21">
    <defs>
     <path id="m3d79cb6c53" d="M 0 3 
C 0.795609 3 1.55874 2.683901 2.12132 2.12132 
C 2.683901 1.55874 3 0.795609 3 0 
C 3 -0.795609 2.683901 -1.55874 2.12132 -2.12132 
C 1.55874 -2.683901 0.795609 -3 0 -3 
C -0.795609 -3 -1.55874 -2.683901 -2.12132 -2.12132 
C -2.683901 -1.55874 -3 -0.795609 -3 0 
C -3 0.795609 -2.683901 1.55874 -2.12132 2.12132 
C -1.55874 2.683901 -0.795609 3 0 3 
z
" style="stroke: #440154; stroke-opacity: 0.75"/>
    </defs>
    <g clip-path="url(#pf7d48c9cd5)">
     <use xlink:href="#m3d79cb6c53" x="178.276202" y="186.235281" style="fill: #440154; fill-opacity: 0.75; stroke: #440154; stroke-opacity: 0.75"/>
    </g>
   </g>
   <g id="line2d_22">
    <path d="M 179.239427 185.2935 
L 180.962604 183.6135 
L 182.692095 181.9335 
L 184.42791 180.2535 
L 186.170056 178.5735 
L 187.918545 176.8935 
L 189.673389 175.2135 
L 191.434602 173.5335 
L 193.202198 171.8535 
L 194.976195 170.1735 
L 196.756611 168.4935 
L 198.543466 166.8135 
L 200.336782 165.1335 
L 202.136582 163.4535 
L 203.942892 161.7735 
L 205.755739 160.0935 
L 207.575152 158.4135 
L 209.401163 156.7335 
L 211.233804 155.0535 
L 213.073112 153.3735 
L 214.919124 151.6935 
L 216.77188 150.0135 
L 218.631422 148.3335 
L 220.497797 146.6535 
L 222.371051 144.9735 
L 224.251235 143.2935 
L 226.138403 141.6135 
L 228.032611 139.9335 
L 229.933919 138.2535 
L 231.84239 136.5735 
L 233.758091 134.8935 
L 235.681091 133.2135 
L 237.611465 131.5335 
L 239.549292 129.8535 
L 241.494653 128.1735 
L 243.447637 126.4935 
L 245.408336 124.8135 
L 247.376847 123.1335 
L 249.353272 121.4535 
L 251.337722 119.7735 
L 253.33031 118.0935 
L 255.331159 116.4135 
L 257.340397 114.7335 
L 259.358162 113.0535 
L 261.384597 111.3735 
L 263.419857 109.6935 
L 265.464105 108.0135 
L 267.517514 106.3335 
L 269.580268 104.6535 
L 271.652565 102.9735 
L 273.734613 101.2935 
L 275.826637 99.6135 
" clip-path="url(#pf7d48c9cd5)" style="fill: none; stroke-dasharray: 1.5,2.475; stroke-dashoffset: 0; stroke: #440154; stroke-opacity: 0.75; stroke-width: 1.5"/>
   </g>
   <g id="line2d_23">
    <path d="M 277.928876 97.9335 
L 280.041586 96.2535 
L 282.165042 94.5735 
L 284.299539 92.8935 
L 286.445395 91.2135 
L 288.602952 89.5335 
L 290.772582 87.8535 
L 292.954684 86.1735 
L 295.149695 84.4935 
L 297.358088 82.8135 
L 299.58038 81.1335 
L 301.817139 79.4535 
L 304.068987 77.7735 
L 306.336609 76.0935 
L 308.620766 74.4135 
L 310.9223 72.7335 
L 313.242156 71.0535 
L 315.581391 69.3735 
L 317.9412 67.6935 
L 320.32294 66.0135 
L 322.728162 64.3335 
L 325.158657 62.6535 
L 327.616506 60.9735 
L 330.104153 59.2935 
L 332.624504 57.6135 
L 335.181057 55.9335 
L 337.778087 54.2535 
L 340.420919 52.5735 
L 343.116327 50.8935 
L 345.873165 49.2135 
L 348.703393 47.5335 
L 351.623882 45.8535 
L 354.659828 44.1735 
L 357.852047 42.4935 
L 361.275395 40.8135 
L 365.100901 39.1335 
L 370.016069 37.4535 
" clip-path="url(#pf7d48c9cd5)" style="fill: none; stroke: #440154; stroke-opacity: 0.75; stroke-width: 1.5; stroke-linecap: square"/>
   </g>
   <g id="line2d_24">
    <path d="M 132.582541 279.3735 
L 134.522461 277.6935 
L 136.461349 276.0135 
L 138.399193 274.3335 
L 140.335978 272.6535 
L 142.271691 270.9735 
L 144.206317 269.2935 
L 146.139844 267.6135 
L 148.072255 265.9335 
L 150.003537 264.2535 
L 151.933675 262.5735 
L 153.862654 260.8935 
L 155.790458 259.2135 
L 157.717072 257.5335 
L 159.642479 255.8535 
L 161.566665 254.1735 
L 163.489612 252.4935 
L 165.411305 250.8135 
L 167.331726 249.1335 
L 169.250857 247.4535 
L 171.168683 245.7735 
L 173.085184 244.0935 
L 175.000344 242.4135 
L 176.914143 240.7335 
L 178.826564 239.0535 
L 180.737587 237.3735 
L 182.647192 235.6935 
L 184.555361 234.0135 
L 186.462074 232.3335 
L 188.367309 230.6535 
L 190.271047 228.9735 
L 192.173266 227.2935 
L 194.073946 225.6135 
L 195.973063 223.9335 
L 197.870596 222.2535 
L 199.766522 220.5735 
L 201.660819 218.8935 
L 203.553462 217.2135 
L 205.444427 215.5335 
L 207.33369 213.8535 
L 209.221226 212.1735 
L 211.107009 210.4935 
L 212.991014 208.8135 
L 214.873214 207.1335 
L 216.753581 205.4535 
L 218.632088 203.7735 
L 220.508707 202.0935 
L 222.383408 200.4135 
L 224.256163 198.7335 
L 226.12694 197.0535 
L 227.995709 195.3735 
L 229.862439 193.6935 
L 231.727097 192.0135 
L 233.58965 190.3335 
L 235.450063 188.6535 
L 237.308304 186.9735 
L 239.164335 185.2935 
L 241.01812 183.6135 
L 242.869622 181.9335 
L 244.718803 180.2535 
L 246.565624 178.5735 
L 248.410044 176.8935 
L 250.252022 175.2135 
L 252.091515 173.5335 
L 253.92848 171.8535 
L 255.762872 170.1735 
L 257.594645 168.4935 
L 259.423752 166.8135 
L 261.250144 165.1335 
L 263.073771 163.4535 
L 264.894581 161.7735 
L 266.712522 160.0935 
L 268.527538 158.4135 
L 270.339572 156.7335 
L 272.148568 155.0535 
L 273.954464 153.3735 
L 275.757199 151.6935 
L 277.556708 150.0135 
L 279.352926 148.3335 
L 281.145783 146.6535 
L 282.935209 144.9735 
L 284.721131 143.2935 
L 286.503473 141.6135 
L 288.282155 139.9335 
" clip-path="url(#pf7d48c9cd5)" style="fill: none; stroke-dasharray: 1.5,2.475; stroke-dashoffset: 0; stroke: #440154; stroke-opacity: 0.75; stroke-width: 1.5"/>
   </g>
   <g id="line2d_25">
    <path d="M 290.057096 138.2535 
L 291.828212 136.5735 
L 293.595414 134.8935 
L 295.358611 133.2135 
L 297.117707 131.5335 
L 298.872604 129.8535 
L 300.623198 128.1735 
L 302.369381 126.4935 
L 304.111042 124.8135 
L 305.848064 123.1335 
L 307.580322 121.4535 
L 309.307691 119.7735 
L 311.030034 118.0935 
L 312.747212 116.4135 
L 314.459078 114.7335 
L 316.165474 113.0535 
L 317.86624 111.3735 
L 319.561202 109.6935 
L 321.250181 108.0135 
L 322.932984 106.3335 
L 324.609409 104.6535 
L 326.279244 102.9735 
L 327.94226 101.2935 
L 329.598218 99.6135 
L 331.24686 97.9335 
L 332.887915 96.2535 
L 334.521091 94.5735 
L 336.146076 92.8935 
L 337.762536 91.2135 
L 339.370113 89.5335 
L 340.968421 87.8535 
L 342.557043 86.1735 
L 344.135528 84.4935 
L 345.703386 82.8135 
L 347.260086 81.1335 
L 348.805045 79.4535 
L 350.337626 77.7735 
L 351.857129 76.0935 
L 353.362779 74.4135 
L 354.853718 72.7335 
L 356.328988 71.0535 
L 357.787518 69.3735 
L 359.228098 67.6935 
L 360.649358 66.0135 
L 362.049732 64.3335 
L 363.427416 62.6535 
L 364.780316 60.9735 
L 366.105973 59.2935 
L 367.401469 57.6135 
L 368.663293 55.9335 
L 369.887156 54.2535 
L 371.067721 52.5735 
L 372.1982 50.8935 
L 373.269728 49.2135 
L 374.270331 47.5335 
L 375.183125 45.8535 
L 375.982903 44.1735 
L 376.628837 42.4935 
L 377.046057 40.8135 
L 377.063523 39.1335 
L 375.99372 37.4535 
" clip-path="url(#pf7d48c9cd5)" style="fill: none; stroke: #440154; stroke-opacity: 0.75; stroke-width: 1.5; stroke-linecap: square"/>
   </g>
   <g id="line2d_26">
    <path d="M 370.016069 37.4535 
L 375.99372 37.4535 
" clip-path="url(#pf7d48c9cd5)" style="fill: none; stroke: #440154; stroke-opacity: 0.75; stroke-width: 1.5; stroke-linecap: square"/>
   </g>
   <g id="line2d_27">
    <defs>
     <path id="mdcd882a039" d="M 0 3 
C 0.795609 3 1.55874 2.683901 2.12132 2.12132 
C 2.683901 1.55874 3 0.795609 3 0 
C 3 -0.795609 2.683901 -1.55874 2.12132 -2.12132 
C 1.55874 -2.683901 0.795609 -3 0 -3 
C -0.795609 -3 -1.55874 -2.683901 -2.12132 -2.12132 
C -2.683901 -1.55874 -3 -0.795609 -3 0 
C -3 0.795609 -2.683901 1.55874 -2.12132 2.12132 
C -1.55874 2.683901 -0.795609 3 0 3 
z
" style="stroke: #3e4a89; stroke-opacity: 0.5"/>
    </defs>
    <g clip-path="url(#pf7d48c9cd5)">
     <use xlink:href="#mdcd882a039" x="187.432661" y="177.397549" style="fill: #3e4a89; fill-opacity: 0.5; stroke: #3e4a89; stroke-opacity: 0.5"/>
    </g>
   </g>
   <g id="line2d_28">
    <path d="M 187.962737 176.8935 
L 189.734016 175.2135 
L 191.512285 173.5335 
L 193.297575 171.8535 
L 195.089918 170.1735 
L 196.88935 168.4935 
L 198.695909 166.8135 
L 200.509636 165.1335 
L 202.330575 163.4535 
L 204.158774 161.7735 
L 205.994281 160.0935 
L 207.837152 158.4135 
L 209.687443 156.7335 
L 211.545215 155.0535 
L 213.410533 153.3735 
L 215.283465 151.6935 
L 217.164086 150.0135 
L 219.052472 148.3335 
L 220.948706 146.6535 
L 222.852877 144.9735 
L 224.765076 143.2935 
L 226.685404 141.6135 
L 228.613965 139.9335 
L 230.550872 138.2535 
L 232.496242 136.5735 
L 234.450202 134.8935 
L 236.412886 133.2135 
L 238.384438 131.5335 
L 240.365009 129.8535 
L 242.354762 128.1735 
L 244.353871 126.4935 
L 246.362519 124.8135 
L 248.380906 123.1335 
L 250.409242 121.4535 
L 252.447756 119.7735 
L 254.49669 118.0935 
L 256.556306 116.4135 
" clip-path="url(#pf7d48c9cd5)" style="fill: none; stroke-dasharray: 1.5,2.475; stroke-dashoffset: 0; stroke: #3e4a89; stroke-opacity: 0.75; stroke-width: 1.5"/>
   </g>
   <g id="line2d_29">
    <path d="M 258.626887 114.7335 
L 260.708736 113.0535 
L 262.802183 111.3735 
L 264.907583 109.6935 
L 267.025323 108.0135 
L 269.155824 106.3335 
L 271.299543 104.6535 
L 273.456983 102.9735 
L 275.628695 101.2935 
L 277.815286 99.6135 
L 280.017425 97.9335 
L 282.235857 96.2535 
L 284.471412 94.5735 
L 286.725017 92.8935 
L 288.99772 91.2135 
L 291.290705 89.5335 
L 293.605324 87.8535 
L 295.943127 86.1735 
L 298.305914 84.4935 
L 300.695785 82.8135 
L 303.115224 81.1335 
L 305.567201 79.4535 
L 308.055321 77.7735 
L 310.58403 76.0935 
L 313.158925 74.4135 
L 315.787224 72.7335 
L 318.478514 71.0535 
L 321.246023 69.3735 
L 324.108932 67.6935 
L 327.09702 66.0135 
L 330.261386 64.3335 
L 333.705295 62.6535 
L 337.7195 60.9735 
" clip-path="url(#pf7d48c9cd5)" style="fill: none; stroke: #3e4a89; stroke-opacity: 0.75; stroke-width: 1.5; stroke-linecap: square"/>
   </g>
   <g id="line2d_30">
    <path d="M 132.582541 279.3735 
L 134.422839 277.6935 
L 136.262741 276.0135 
L 138.102227 274.3335 
L 139.941274 272.6535 
L 141.779861 270.9735 
L 143.617966 269.2935 
L 145.455568 267.6135 
L 147.292644 265.9335 
L 149.129172 264.2535 
L 150.965128 262.5735 
L 152.80049 260.8935 
L 154.635234 259.2135 
L 156.469338 257.5335 
L 158.302776 255.8535 
L 160.135524 254.1735 
L 161.967559 252.4935 
L 163.798856 250.8135 
L 165.629388 249.1335 
L 167.459131 247.4535 
L 169.28806 245.7735 
L 171.116146 244.0935 
L 172.943365 242.4135 
L 174.76969 240.7335 
L 176.595091 239.0535 
L 178.419543 237.3735 
L 180.243017 235.6935 
L 182.065484 234.0135 
L 183.886915 232.3335 
L 185.707281 230.6535 
L 187.526552 228.9735 
L 189.344696 227.2935 
L 191.161683 225.6135 
L 192.977482 223.9335 
L 194.79206 222.2535 
L 196.605384 220.5735 
L 198.417421 218.8935 
L 200.228138 217.2135 
L 202.037499 215.5335 
L 203.845469 213.8535 
L 205.652013 212.1735 
L 207.457094 210.4935 
L 209.260674 208.8135 
L 211.062714 207.1335 
L 212.863177 205.4535 
L 214.662022 203.7735 
L 216.459209 202.0935 
L 218.254695 200.4135 
L 220.048438 198.7335 
L 221.840396 197.0535 
L 223.630522 195.3735 
L 225.418772 193.6935 
L 227.205098 192.0135 
L 228.989453 190.3335 
L 230.771787 188.6535 
L 232.552051 186.9735 
L 234.330192 185.2935 
L 236.106157 183.6135 
L 237.879892 181.9335 
L 239.65134 180.2535 
L 241.420443 178.5735 
L 243.187143 176.8935 
L 244.951378 175.2135 
L 246.713086 173.5335 
L 248.4722 171.8535 
L 250.228654 170.1735 
L 251.98238 168.4935 
L 253.733305 166.8135 
L 255.481356 165.1335 
L 257.226457 163.4535 
L 258.968529 161.7735 
L 260.707489 160.0935 
L 262.443255 158.4135 
L 264.175736 156.7335 
L 265.904844 155.0535 
L 267.630483 153.3735 
L 269.352554 151.6935 
L 271.070956 150.0135 
L 272.785582 148.3335 
L 274.496321 146.6535 
" clip-path="url(#pf7d48c9cd5)" style="fill: none; stroke-dasharray: 1.5,2.475; stroke-dashoffset: 0; stroke: #3e4a89; stroke-opacity: 0.75; stroke-width: 1.5"/>
   </g>
   <g id="line2d_31">
    <path d="M 276.203058 144.9735 
L 277.905671 143.2935 
L 279.604035 141.6135 
L 281.298017 139.9335 
L 282.987479 138.2535 
L 284.672277 136.5735 
L 286.352257 134.8935 
L 288.02726 133.2135 
L 289.697118 131.5335 
L 291.361653 129.8535 
L 293.020678 128.1735 
L 294.673996 126.4935 
L 296.321397 124.8135 
L 297.96266 123.1335 
L 299.597548 121.4535 
L 301.225813 119.7735 
L 302.847187 118.0935 
L 304.461385 116.4135 
L 306.068102 114.7335 
L 307.667013 113.0535 
L 309.257766 111.3735 
L 310.839984 109.6935 
L 312.413259 108.0135 
L 313.977148 106.3335 
L 315.531172 104.6535 
L 317.074808 102.9735 
L 318.607485 101.2935 
L 320.128575 99.6135 
L 321.637388 97.9335 
L 323.13316 96.2535 
L 324.615042 94.5735 
L 326.082084 92.8935 
L 327.533222 91.2135 
L 328.967252 89.5335 
L 330.382803 87.8535 
L 331.778304 86.1735 
L 333.15194 84.4935 
L 334.501589 82.8135 
L 335.824752 81.1335 
L 337.118439 79.4535 
L 338.379027 77.7735 
L 339.602054 76.0935 
L 340.781903 74.4135 
L 341.911341 72.7335 
L 342.980762 71.0535 
L 343.976922 69.3735 
L 344.880623 67.6935 
L 345.662069 66.0135 
L 346.270144 64.3335 
L 346.601568 62.6535 
L 346.365571 60.9735 
" clip-path="url(#pf7d48c9cd5)" style="fill: none; stroke: #3e4a89; stroke-opacity: 0.75; stroke-width: 1.5; stroke-linecap: square"/>
   </g>
   <g id="line2d_32">
    <path d="M 337.7195 60.9735 
L 346.365571 60.9735 
" clip-path="url(#pf7d48c9cd5)" style="fill: none; stroke: #3e4a89; stroke-opacity: 0.75; stroke-width: 1.5; stroke-linecap: square"/>
   </g>
   <g id="line2d_33">
    <defs>
     <path id="m16bc046ac9" d="M 0 3 
C 0.795609 3 1.55874 2.683901 2.12132 2.12132 
C 2.683901 1.55874 3 0.795609 3 0 
C 3 -0.795609 2.683901 -1.55874 2.12132 -2.12132 
C 1.55874 -2.683901 0.795609 -3 0 -3 
C -0.795609 -3 -1.55874 -2.683901 -2.12132 -2.12132 
C -2.683901 -1.55874 -3 -0.795609 -3 0 
C -3 0.795609 -2.683901 1.55874 -2.12132 2.12132 
C -1.55874 2.683901 -0.795609 3 0 3 
z
" style="stroke: #25848e; stroke-opacity: 0.5"/>
    </defs>
    <g clip-path="url(#pf7d48c9cd5)">
     <use xlink:href="#m16bc046ac9" x="195.263076" y="170.044047" style="fill: #25848e; fill-opacity: 0.5; stroke: #25848e; stroke-opacity: 0.5"/>
    </g>
   </g>
   <g id="line2d_34">
    <path d="M 196.940545 168.4935 
L 198.765695 166.8135 
L 200.598854 165.1335 
L 202.440099 163.4535 
L 204.289513 161.7735 
L 206.147186 160.0935 
L 208.013212 158.4135 
L 209.887692 156.7335 
L 211.770736 155.0535 
L 213.662459 153.3735 
L 215.562985 151.6935 
L 217.472447 150.0135 
L 219.390986 148.3335 
L 221.318754 146.6535 
L 223.255914 144.9735 
L 225.20264 143.2935 
L 227.159119 141.6135 
L 229.125552 139.9335 
L 231.102155 138.2535 
L 233.089161 136.5735 
L 235.08682 134.8935 
L 237.095403 133.2135 
L 239.115204 131.5335 
L 241.146539 129.8535 
" clip-path="url(#pf7d48c9cd5)" style="fill: none; stroke-dasharray: 1.5,2.475; stroke-dashoffset: 0; stroke: #25848e; stroke-opacity: 0.75; stroke-width: 1.5"/>
   </g>
   <g id="line2d_35">
    <path d="M 243.189755 128.1735 
L 245.245226 126.4935 
L 247.313364 124.8135 
L 249.394616 123.1335 
L 251.489476 121.4535 
L 253.598486 119.7735 
L 255.722245 118.0935 
L 257.861419 116.4135 
L 260.016748 114.7335 
L 262.189062 113.0535 
L 264.379294 111.3735 
L 266.588499 109.6935 
L 268.817881 108.0135 
L 271.068817 106.3335 
L 273.342903 104.6535 
L 275.641997 102.9735 
L 277.968291 101.2935 
L 280.324399 99.6135 
L 282.713483 97.9335 
L 285.139423 96.2535 
L 287.607084 94.5735 
L 290.122696 92.8935 
L 292.694471 91.2135 
L 295.333627 89.5335 
L 298.056217 87.8535 
L 300.886703 86.1735 
L 303.8659 84.4935 
L 307.072428 82.8135 
L 310.704924 81.1335 
L 316.171206 79.4535 
" clip-path="url(#pf7d48c9cd5)" style="fill: none; stroke: #25848e; stroke-opacity: 0.75; stroke-width: 1.5; stroke-linecap: square"/>
   </g>
   <g id="line2d_36">
    <path d="M 132.582541 279.3735 
L 134.292419 277.6935 
L 136.003411 276.0135 
L 137.715471 274.3335 
L 139.428556 272.6535 
L 141.142622 270.9735 
L 142.857624 269.2935 
L 144.573517 267.6135 
L 146.290258 265.9335 
L 148.007801 264.2535 
L 149.726102 262.5735 
L 151.445117 260.8935 
L 153.164801 259.2135 
L 154.885109 257.5335 
L 156.605995 255.8535 
L 158.327415 254.1735 
L 160.049323 252.4935 
L 161.771674 250.8135 
L 163.494421 249.1335 
L 165.21752 247.4535 
L 166.940923 245.7735 
L 168.664585 244.0935 
L 170.388458 242.4135 
L 172.112495 240.7335 
L 173.836649 239.0535 
L 175.560872 237.3735 
L 177.285115 235.6935 
L 179.009331 234.0135 
L 180.733471 232.3335 
L 182.457484 230.6535 
L 184.18132 228.9735 
L 185.904931 227.2935 
L 187.628263 225.6135 
L 189.351266 223.9335 
L 191.073888 222.2535 
L 192.796075 220.5735 
L 194.517774 218.8935 
L 196.238931 217.2135 
L 197.95949 215.5335 
L 199.679397 213.8535 
L 201.398593 212.1735 
L 203.117022 210.4935 
L 204.834625 208.8135 
L 206.551343 207.1335 
L 208.267114 205.4535 
L 209.981877 203.7735 
L 211.69557 202.0935 
L 213.408127 200.4135 
L 215.119485 198.7335 
L 216.829575 197.0535 
L 218.538329 195.3735 
L 220.245678 193.6935 
L 221.951551 192.0135 
L 223.655873 190.3335 
L 225.358571 188.6535 
L 227.059567 186.9735 
L 228.758782 185.2935 
L 230.456135 183.6135 
L 232.151543 181.9335 
L 233.84492 180.2535 
L 235.536178 178.5735 
L 237.225225 176.8935 
L 238.911969 175.2135 
L 240.59631 173.5335 
L 242.278151 171.8535 
L 243.957385 170.1735 
L 245.633907 168.4935 
L 247.307605 166.8135 
L 248.978362 165.1335 
L 250.64606 163.4535 
L 252.310572 161.7735 
L 253.971769 160.0935 
L 255.629515 158.4135 
L 257.283667 156.7335 
L 258.934079 155.0535 
" clip-path="url(#pf7d48c9cd5)" style="fill: none; stroke-dasharray: 1.5,2.475; stroke-dashoffset: 0; stroke: #25848e; stroke-opacity: 0.75; stroke-width: 1.5"/>
   </g>
   <g id="line2d_37">
    <path d="M 260.580595 153.3735 
L 262.223051 151.6935 
L 263.861279 150.0135 
L 265.495097 148.3335 
L 267.124318 146.6535 
L 268.748742 144.9735 
L 270.368159 143.2935 
L 271.982345 141.6135 
L 273.591066 139.9335 
L 275.194069 138.2535 
L 276.791089 136.5735 
L 278.38184 134.8935 
L 279.966019 133.2135 
L 281.543298 131.5335 
L 283.113328 129.8535 
L 284.675732 128.1735 
L 286.230101 126.4935 
L 287.775994 124.8135 
L 289.312932 123.1335 
L 290.840391 121.4535 
L 292.357798 119.7735 
L 293.864523 118.0935 
L 295.359873 116.4135 
L 296.843077 114.7335 
L 298.313276 113.0535 
L 299.76951 111.3735 
L 301.210693 109.6935 
L 302.635597 108.0135 
L 304.042814 106.3335 
L 305.430723 104.6535 
L 306.797437 102.9735 
L 308.140738 101.2935 
L 309.457987 99.6135 
L 310.745995 97.9335 
L 312.000856 96.2535 
L 313.21768 94.5735 
L 314.390212 92.8935 
L 315.510215 91.2135 
L 316.566445 89.5335 
L 317.542826 87.8535 
L 318.414872 86.1735 
L 319.141744 84.4935 
L 319.644799 82.8135 
L 319.725375 81.1335 
L 317.975633 79.4535 
" clip-path="url(#pf7d48c9cd5)" style="fill: none; stroke: #25848e; stroke-opacity: 0.75; stroke-width: 1.5; stroke-linecap: square"/>
   </g>
   <g id="line2d_38">
    <path d="M 316.171206 79.4535 
L 317.975633 79.4535 
" clip-path="url(#pf7d48c9cd5)" style="fill: none; stroke: #25848e; stroke-opacity: 0.75; stroke-width: 1.5; stroke-linecap: square"/>
   </g>
   <g id="line2d_39">
    <defs>
     <path id="ma94864d405" d="M 0 3 
C 0.795609 3 1.55874 2.683901 2.12132 2.12132 
C 2.683901 1.55874 3 0.795609 3 0 
C 3 -0.795609 2.683901 -1.55874 2.12132 -2.12132 
C 1.55874 -2.683901 0.795609 -3 0 -3 
C -0.795609 -3 -1.55874 -2.683901 -2.12132 -2.12132 
C -2.683901 -1.55874 -3 -0.795609 -3 0 
C -3 0.795609 -2.683901 1.55874 -2.12132 2.12132 
C -1.55874 2.683901 -0.795609 3 0 3 
z
" style="stroke: #38b977; stroke-opacity: 0.5"/>
    </defs>
    <g clip-path="url(#pf7d48c9cd5)">
     <use xlink:href="#ma94864d405" x="204.301148" y="161.836581" style="fill: #38b977; fill-opacity: 0.5; stroke: #38b977; stroke-opacity: 0.5"/>
    </g>
   </g>
   <g id="line2d_40">
    <path d="M 204.372431 161.7735 
L 206.2766 160.0935 
L 208.192029 158.4135 
L 210.11902 156.7335 
L 212.057906 155.0535 
L 214.009053 153.3735 
L 215.972862 151.6935 
" clip-path="url(#pf7d48c9cd5)" style="fill: none; stroke-dasharray: 1.5,2.475; stroke-dashoffset: 0; stroke: #38b977; stroke-opacity: 0.75; stroke-width: 1.5"/>
   </g>
   <g id="line2d_41">
    <path d="M 217.949775 150.0135 
L 219.940282 148.3335 
L 221.944926 146.6535 
L 223.964312 144.9735 
L 225.999119 143.2935 
L 228.050107 141.6135 
L 230.118139 139.9335 
L 232.204195 138.2535 
L 234.309396 136.5735 
L 236.435037 134.8935 
L 238.582623 133.2135 
L 240.753925 131.5335 
L 242.951043 129.8535 
L 245.176509 128.1735 
L 247.433412 126.4935 
L 249.725596 124.8135 
L 252.057944 123.1335 
L 254.436828 121.4535 
L 256.870832 119.7735 
L 259.372025 118.0935 
L 261.958354 116.4135 
L 264.658708 114.7335 
L 267.525551 113.0535 
L 270.676548 111.3735 
L 274.555706 109.6935 
" clip-path="url(#pf7d48c9cd5)" style="fill: none; stroke: #38b977; stroke-opacity: 0.75; stroke-width: 1.5; stroke-linecap: square"/>
   </g>
   <g id="line2d_42">
    <path d="M 132.582541 279.3735 
L 134.038004 277.6935 
L 135.498587 276.0135 
L 136.964164 274.3335 
L 138.434612 272.6535 
L 139.909807 270.9735 
L 141.38963 269.2935 
L 142.873959 267.6135 
L 144.362676 265.9335 
L 145.855664 264.2535 
L 147.352805 262.5735 
L 148.853985 260.8935 
L 150.359089 259.2135 
L 151.868004 257.5335 
L 153.380617 255.8535 
L 154.896815 254.1735 
L 156.416489 252.4935 
L 157.939527 250.8135 
L 159.46582 249.1335 
L 160.995259 247.4535 
L 162.527735 245.7735 
L 164.06314 244.0935 
L 165.601366 242.4135 
L 167.142306 240.7335 
L 168.685853 239.0535 
L 170.231899 237.3735 
L 171.780339 235.6935 
L 173.331064 234.0135 
L 174.88397 232.3335 
L 176.438948 230.6535 
L 177.995892 228.9735 
L 179.554694 227.2935 
L 181.115247 225.6135 
L 182.677443 223.9335 
L 184.241174 222.2535 
L 185.80633 220.5735 
L 187.372802 218.8935 
L 188.940479 217.2135 
L 190.509249 215.5335 
L 192.079 213.8535 
L 193.649619 212.1735 
L 195.220989 210.4935 
L 196.792996 208.8135 
L 198.36552 207.1335 
L 199.938441 205.4535 
L 201.511639 203.7735 
L 203.084989 202.0935 
L 204.658365 200.4135 
L 206.23164 198.7335 
L 207.80468 197.0535 
L 209.377352 195.3735 
L 210.94952 193.6935 
L 212.521041 192.0135 
L 214.091771 190.3335 
L 215.661562 188.6535 
L 217.23026 186.9735 
L 218.797707 185.2935 
L 220.363739 183.6135 
L 221.928187 181.9335 
L 223.490877 180.2535 
L 225.051625 178.5735 
L 226.610242 176.8935 
L 228.166529 175.2135 
L 229.720281 173.5335 
L 231.271281 171.8535 
L 232.819301 170.1735 
L 234.364102 168.4935 
" clip-path="url(#pf7d48c9cd5)" style="fill: none; stroke-dasharray: 1.5,2.475; stroke-dashoffset: 0; stroke: #38b977; stroke-opacity: 0.75; stroke-width: 1.5"/>
   </g>
   <g id="line2d_43">
    <path d="M 235.905432 166.8135 
L 237.443024 165.1335 
L 238.976596 163.4535 
L 240.505848 161.7735 
L 242.030461 160.0935 
L 243.550091 158.4135 
L 245.064373 156.7335 
L 246.572913 155.0535 
L 248.075286 153.3735 
L 249.571031 151.6935 
L 251.059646 150.0135 
L 252.540585 148.3335 
L 254.013248 146.6535 
L 255.476974 144.9735 
L 256.931029 143.2935 
L 258.374598 141.6135 
L 259.806765 139.9335 
L 261.226498 138.2535 
L 262.632624 136.5735 
L 264.023796 134.8935 
L 265.398459 133.2135 
L 266.754793 131.5335 
L 268.090647 129.8535 
L 269.403444 128.1735 
L 270.690045 126.4935 
L 271.946559 124.8135 
L 273.168058 123.1335 
L 274.348124 121.4535 
L 275.478127 119.7735 
L 276.545956 118.0935 
L 277.533617 116.4135 
L 278.412181 114.7335 
L 279.129139 113.0535 
L 279.566786 111.3735 
L 279.281071 109.6935 
" clip-path="url(#pf7d48c9cd5)" style="fill: none; stroke: #38b977; stroke-opacity: 0.75; stroke-width: 1.5; stroke-linecap: square"/>
   </g>
   <g id="line2d_44">
    <path d="M 274.555706 109.6935 
L 279.281071 109.6935 
" clip-path="url(#pf7d48c9cd5)" style="fill: none; stroke: #38b977; stroke-opacity: 0.75; stroke-width: 1.5; stroke-linecap: square"/>
   </g>
   <g id="line2d_45">
    <defs>
     <path id="mf1719c51c2" d="M 0 3 
C 0.795609 3 1.55874 2.683901 2.12132 2.12132 
C 2.683901 1.55874 3 0.795609 3 0 
C 3 -0.795609 2.683901 -1.55874 2.12132 -2.12132 
C 1.55874 -2.683901 0.795609 -3 0 -3 
C -0.795609 -3 -1.55874 -2.683901 -2.12132 -2.12132 
C -2.683901 -1.55874 -3 -0.795609 -3 0 
C -3 0.795609 -2.683901 1.55874 -2.12132 2.12132 
C -1.55874 2.683901 -0.795609 3 0 3 
z
" style="stroke: #bddf26; stroke-opacity: 0.5"/>
    </defs>
    <g clip-path="url(#pf7d48c9cd5)">
     <use xlink:href="#mf1719c51c2" x="200.494867" y="165.016477" style="fill: #bddf26; fill-opacity: 0.5; stroke: #bddf26; stroke-opacity: 0.5"/>
    </g>
   </g>
   <g id="line2d_46"/>
   <g id="line2d_47">
    <path d="M 202.375874 163.4535 
L 204.42438 161.7735 
L 206.503822 160.0935 
L 208.618534 158.4135 
L 210.774243 156.7335 
L 212.978806 155.0535 
L 215.243524 153.3735 
L 217.585757 151.6935 
L 220.034811 150.0135 
L 222.648286 148.3335 
L 225.578334 146.6535 
" clip-path="url(#pf7d48c9cd5)" style="fill: none; stroke: #bddf26; stroke-opacity: 0.75; stroke-width: 1.5; stroke-linecap: square"/>
   </g>
   <g id="line2d_48">
    <path d="M 132.582541 279.3735 
L 133.61878 277.6935 
L 134.669123 276.0135 
L 135.733198 274.3335 
L 136.810639 272.6535 
L 137.90109 270.9735 
L 139.0042 269.2935 
L 140.119627 267.6135 
L 141.247035 265.9335 
L 142.386097 264.2535 
L 143.53649 262.5735 
L 144.697899 260.8935 
L 145.870011 259.2135 
L 147.052525 257.5335 
L 148.245139 255.8535 
L 149.447561 254.1735 
L 150.659502 252.4935 
L 151.880675 250.8135 
L 153.110802 249.1335 
L 154.349607 247.4535 
L 155.596816 245.7735 
L 156.852162 244.0935 
L 158.115378 242.4135 
L 159.386202 240.7335 
L 160.664375 239.0535 
L 161.94964 237.3735 
L 163.241741 235.6935 
L 164.540425 234.0135 
L 165.845441 232.3335 
L 167.156539 230.6535 
L 168.47347 228.9735 
L 169.795984 227.2935 
L 171.123834 225.6135 
L 172.456772 223.9335 
L 173.794548 222.2535 
L 175.136913 220.5735 
L 176.483617 218.8935 
L 177.834405 217.2135 
L 179.189024 215.5335 
L 180.547215 213.8535 
L 181.908717 212.1735 
L 183.273265 210.4935 
L 184.640587 208.8135 
L 186.010409 207.1335 
L 187.382448 205.4535 
L 188.756414 203.7735 
L 190.132008 202.0935 
L 191.508923 200.4135 
L 192.88684 198.7335 
L 194.265427 197.0535 
L 195.644338 195.3735 
L 197.023211 193.6935 
L 198.401665 192.0135 
L 199.779297 190.3335 
L 201.155682 188.6535 
L 202.530364 186.9735 
" clip-path="url(#pf7d48c9cd5)" style="fill: none; stroke-dasharray: 1.5,2.475; stroke-dashoffset: 0; stroke: #bddf26; stroke-opacity: 0.75; stroke-width: 1.5"/>
   </g>
   <g id="line2d_49">
    <path d="M 203.902858 185.2935 
L 205.272641 183.6135 
L 206.639144 181.9335 
L 208.001752 180.2535 
L 209.359789 178.5735 
L 210.712509 176.8935 
L 212.059085 175.2135 
L 213.398588 173.5335 
L 214.729971 171.8535 
L 216.052039 170.1735 
L 217.363414 168.4935 
L 218.662491 166.8135 
L 219.947372 165.1335 
L 221.21578 163.4535 
L 222.464938 161.7735 
L 223.691382 160.0935 
L 224.890691 158.4135 
L 226.057051 156.7335 
L 227.182518 155.0535 
L 228.255701 153.3735 
L 229.259158 151.6935 
L 230.163495 150.0135 
L 230.911027 148.3335 
L 231.34952 146.6535 
" clip-path="url(#pf7d48c9cd5)" style="fill: none; stroke: #bddf26; stroke-opacity: 0.75; stroke-width: 1.5; stroke-linecap: square"/>
   </g>
   <g id="line2d_50">
    <path d="M 225.578334 146.6535 
L 231.34952 146.6535 
" clip-path="url(#pf7d48c9cd5)" style="fill: none; stroke: #bddf26; stroke-opacity: 0.75; stroke-width: 1.5; stroke-linecap: square"/>
   </g>
   <g id="patch_3">
    <path d="M 36.17625 291.4695 
L 36.17625 25.3575 
" style="fill: none; stroke: #000000; stroke-width: 0.8; stroke-linejoin: miter; stroke-linecap: square"/>
   </g>
   <g id="patch_4">
    <path d="M 36.17625 291.4695 
L 393.29625 291.4695 
" style="fill: none; stroke: #000000; stroke-width: 0.8; stroke-linejoin: miter; stroke-linecap: square"/>
   </g>
   <g id="text_20">
    <!-- Bifurcation diagram -->
    <g transform="translate(135.59625 19.3575) scale(0.16 -0.16)">
     <defs>
      <path id="DejaVuSans-42" d="M 1259 2228 
L 1259 519 
L 2272 519 
Q 2781 519 3026 730 
Q 3272 941 3272 1375 
Q 3272 1813 3026 2020 
Q 2781 2228 2272 2228 
L 1259 2228 
z
M 1259 4147 
L 1259 2741 
L 2194 2741 
Q 2656 2741 2882 2914 
Q 3109 3088 3109 3444 
Q 3109 3797 2882 3972 
Q 2656 4147 2194 4147 
L 1259 4147 
z
M 628 4666 
L 2241 4666 
Q 2963 4666 3353 4366 
Q 3744 4066 3744 3513 
Q 3744 3084 3544 2831 
Q 3344 2578 2956 2516 
Q 3422 2416 3680 2098 
Q 3938 1781 3938 1306 
Q 3938 681 3513 340 
Q 3088 0 2303 0 
L 628 0 
L 628 4666 
z
" transform="scale(0.015625)"/>
      <path id="DejaVuSans-66" d="M 2375 4863 
L 2375 4384 
L 1825 4384 
Q 1516 4384 1395 4259 
Q 1275 4134 1275 3809 
L 1275 3500 
L 2222 3500 
L 2222 3053 
L 1275 3053 
L 1275 0 
L 697 0 
L 697 3053 
L 147 3053 
L 147 3500 
L 697 3500 
L 697 3744 
Q 697 4328 969 4595 
Q 1241 4863 1831 4863 
L 2375 4863 
z
" transform="scale(0.015625)"/>
      <path id="DejaVuSans-75" d="M 544 1381 
L 544 3500 
L 1119 3500 
L 1119 1403 
Q 1119 906 1312 657 
Q 1506 409 1894 409 
Q 2359 409 2629 706 
Q 2900 1003 2900 1516 
L 2900 3500 
L 3475 3500 
L 3475 0 
L 2900 0 
L 2900 538 
Q 2691 219 2414 64 
Q 2138 -91 1772 -91 
Q 1169 -91 856 284 
Q 544 659 544 1381 
z
M 1991 3584 
L 1991 3584 
z
" transform="scale(0.015625)"/>
      <path id="DejaVuSans-72" d="M 2631 2963 
Q 2534 3019 2420 3045 
Q 2306 3072 2169 3072 
Q 1681 3072 1420 2755 
Q 1159 2438 1159 1844 
L 1159 0 
L 581 0 
L 581 3500 
L 1159 3500 
L 1159 2956 
Q 1341 3275 1631 3429 
Q 1922 3584 2338 3584 
Q 2397 3584 2469 3576 
Q 2541 3569 2628 3553 
L 2631 2963 
z
" transform="scale(0.015625)"/>
      <path id="DejaVuSans-63" d="M 3122 3366 
L 3122 2828 
Q 2878 2963 2633 3030 
Q 2388 3097 2138 3097 
Q 1578 3097 1268 2742 
Q 959 2388 959 1747 
Q 959 1106 1268 751 
Q 1578 397 2138 397 
Q 2388 397 2633 464 
Q 2878 531 3122 666 
L 3122 134 
Q 2881 22 2623 -34 
Q 2366 -91 2075 -91 
Q 1284 -91 818 406 
Q 353 903 353 1747 
Q 353 2603 823 3093 
Q 1294 3584 2113 3584 
Q 2378 3584 2631 3529 
Q 2884 3475 3122 3366 
z
" transform="scale(0.015625)"/>
      <path id="DejaVuSans-61" d="M 2194 1759 
Q 1497 1759 1228 1600 
Q 959 1441 959 1056 
Q 959 750 1161 570 
Q 1363 391 1709 391 
Q 2188 391 2477 730 
Q 2766 1069 2766 1631 
L 2766 1759 
L 2194 1759 
z
M 3341 1997 
L 3341 0 
L 2766 0 
L 2766 531 
Q 2569 213 2275 61 
Q 1981 -91 1556 -91 
Q 1019 -91 701 211 
Q 384 513 384 1019 
Q 384 1609 779 1909 
Q 1175 2209 1959 2209 
L 2766 2209 
L 2766 2266 
Q 2766 2663 2505 2880 
Q 2244 3097 1772 3097 
Q 1472 3097 1187 3025 
Q 903 2953 641 2809 
L 641 3341 
Q 956 3463 1253 3523 
Q 1550 3584 1831 3584 
Q 2591 3584 2966 3190 
Q 3341 2797 3341 1997 
z
" transform="scale(0.015625)"/>
      <path id="DejaVuSans-6f" d="M 1959 3097 
Q 1497 3097 1228 2736 
Q 959 2375 959 1747 
Q 959 1119 1226 758 
Q 1494 397 1959 397 
Q 2419 397 2687 759 
Q 2956 1122 2956 1747 
Q 2956 2369 2687 2733 
Q 2419 3097 1959 3097 
z
M 1959 3584 
Q 2709 3584 3137 3096 
Q 3566 2609 3566 1747 
Q 3566 888 3137 398 
Q 2709 -91 1959 -91 
Q 1206 -91 779 398 
Q 353 888 353 1747 
Q 353 2609 779 3096 
Q 1206 3584 1959 3584 
z
" transform="scale(0.015625)"/>
      <path id="DejaVuSans-64" d="M 2906 2969 
L 2906 4863 
L 3481 4863 
L 3481 0 
L 2906 0 
L 2906 525 
Q 2725 213 2448 61 
Q 2172 -91 1784 -91 
Q 1150 -91 751 415 
Q 353 922 353 1747 
Q 353 2572 751 3078 
Q 1150 3584 1784 3584 
Q 2172 3584 2448 3432 
Q 2725 3281 2906 2969 
z
M 947 1747 
Q 947 1113 1208 752 
Q 1469 391 1925 391 
Q 2381 391 2643 752 
Q 2906 1113 2906 1747 
Q 2906 2381 2643 2742 
Q 2381 3103 1925 3103 
Q 1469 3103 1208 2742 
Q 947 2381 947 1747 
z
" transform="scale(0.015625)"/>
      <path id="DejaVuSans-67" d="M 2906 1791 
Q 2906 2416 2648 2759 
Q 2391 3103 1925 3103 
Q 1463 3103 1205 2759 
Q 947 2416 947 1791 
Q 947 1169 1205 825 
Q 1463 481 1925 481 
Q 2391 481 2648 825 
Q 2906 1169 2906 1791 
z
M 3481 434 
Q 3481 -459 3084 -895 
Q 2688 -1331 1869 -1331 
Q 1566 -1331 1297 -1286 
Q 1028 -1241 775 -1147 
L 775 -588 
Q 1028 -725 1275 -790 
Q 1522 -856 1778 -856 
Q 2344 -856 2625 -561 
Q 2906 -266 2906 331 
L 2906 616 
Q 2728 306 2450 153 
Q 2172 0 1784 0 
Q 1141 0 747 490 
Q 353 981 353 1791 
Q 353 2603 747 3093 
Q 1141 3584 1784 3584 
Q 2172 3584 2450 3431 
Q 2728 3278 2906 2969 
L 2906 3500 
L 3481 3500 
L 3481 434 
z
" transform="scale(0.015625)"/>
      <path id="DejaVuSans-6d" d="M 3328 2828 
Q 3544 3216 3844 3400 
Q 4144 3584 4550 3584 
Q 5097 3584 5394 3201 
Q 5691 2819 5691 2113 
L 5691 0 
L 5113 0 
L 5113 2094 
Q 5113 2597 4934 2840 
Q 4756 3084 4391 3084 
Q 3944 3084 3684 2787 
Q 3425 2491 3425 1978 
L 3425 0 
L 2847 0 
L 2847 2094 
Q 2847 2600 2669 2842 
Q 2491 3084 2119 3084 
Q 1678 3084 1418 2786 
Q 1159 2488 1159 1978 
L 1159 0 
L 581 0 
L 581 3500 
L 1159 3500 
L 1159 2956 
Q 1356 3278 1631 3431 
Q 1906 3584 2284 3584 
Q 2666 3584 2933 3390 
Q 3200 3197 3328 2828 
z
" transform="scale(0.015625)"/>
     </defs>
     <use xlink:href="#DejaVuSans-42"/>
     <use xlink:href="#DejaVuSans-69" x="68.603516"/>
     <use xlink:href="#DejaVuSans-66" x="96.386719"/>
     <use xlink:href="#DejaVuSans-75" x="131.591797"/>
     <use xlink:href="#DejaVuSans-72" x="194.970703"/>
     <use xlink:href="#DejaVuSans-63" x="233.833984"/>
     <use xlink:href="#DejaVuSans-61" x="288.814453"/>
     <use xlink:href="#DejaVuSans-74" x="350.09375"/>
     <use xlink:href="#DejaVuSans-69" x="389.302734"/>
     <use xlink:href="#DejaVuSans-6f" x="417.085938"/>
     <use xlink:href="#DejaVuSans-6e" x="478.267578"/>
     <use xlink:href="#DejaVuSans-20" x="541.646484"/>
     <use xlink:href="#DejaVuSans-64" x="573.433594"/>
     <use xlink:href="#DejaVuSans-69" x="636.910156"/>
     <use xlink:href="#DejaVuSans-61" x="664.693359"/>
     <use xlink:href="#DejaVuSans-67" x="725.972656"/>
     <use xlink:href="#DejaVuSans-72" x="789.449219"/>
     <use xlink:href="#DejaVuSans-61" x="830.5625"/>
     <use xlink:href="#DejaVuSans-6d" x="891.841797"/>
    </g>
   </g>
   <g id="legend_1">
    <g id="line2d_51">
     <path d="M 45.17625 38.455937 
L 55.17625 38.455937 
L 65.17625 38.455937 
" style="fill: none; stroke: #000000; stroke-opacity: 0.75; stroke-width: 1.5; stroke-linecap: square"/>
    </g>
    <g id="text_21">
     <!-- SN -->
     <g transform="translate(73.17625 41.955937) scale(0.1 -0.1)">
      <defs>
       <path id="DejaVuSans-4e" d="M 628 4666 
L 1478 4666 
L 3547 763 
L 3547 4666 
L 4159 4666 
L 4159 0 
L 3309 0 
L 1241 3903 
L 1241 0 
L 628 0 
L 628 4666 
z
" transform="scale(0.015625)"/>
      </defs>
      <use xlink:href="#DejaVuSans-53"/>
      <use xlink:href="#DejaVuSans-4e" x="63.476562"/>
     </g>
    </g>
    <g id="line2d_52">
     <g>
      <use xlink:href="#mb70112ee55" x="55.17625" y="53.134062" style="fill-opacity: 0.75; stroke: #000000; stroke-opacity: 0.75; stroke-linejoin: miter"/>
     </g>
    </g>
    <g id="text_22">
     <!-- Cusp -->
     <g transform="translate(73.17625 56.634062) scale(0.1 -0.1)">
      <defs>
       <path id="DejaVuSans-43" d="M 4122 4306 
L 4122 3641 
Q 3803 3938 3442 4084 
Q 3081 4231 2675 4231 
Q 1875 4231 1450 3742 
Q 1025 3253 1025 2328 
Q 1025 1406 1450 917 
Q 1875 428 2675 428 
Q 3081 428 3442 575 
Q 3803 722 4122 1019 
L 4122 359 
Q 3791 134 3420 21 
Q 3050 -91 2638 -91 
Q 1578 -91 968 557 
Q 359 1206 359 2328 
Q 359 3453 968 4101 
Q 1578 4750 2638 4750 
Q 3056 4750 3426 4639 
Q 3797 4528 4122 4306 
z
" transform="scale(0.015625)"/>
       <path id="DejaVuSans-73" d="M 2834 3397 
L 2834 2853 
Q 2591 2978 2328 3040 
Q 2066 3103 1784 3103 
Q 1356 3103 1142 2972 
Q 928 2841 928 2578 
Q 928 2378 1081 2264 
Q 1234 2150 1697 2047 
L 1894 2003 
Q 2506 1872 2764 1633 
Q 3022 1394 3022 966 
Q 3022 478 2636 193 
Q 2250 -91 1575 -91 
Q 1294 -91 989 -36 
Q 684 19 347 128 
L 347 722 
Q 666 556 975 473 
Q 1284 391 1588 391 
Q 1994 391 2212 530 
Q 2431 669 2431 922 
Q 2431 1156 2273 1281 
Q 2116 1406 1581 1522 
L 1381 1569 
Q 847 1681 609 1914 
Q 372 2147 372 2553 
Q 372 3047 722 3315 
Q 1072 3584 1716 3584 
Q 2034 3584 2315 3537 
Q 2597 3491 2834 3397 
z
" transform="scale(0.015625)"/>
      </defs>
      <use xlink:href="#DejaVuSans-43"/>
      <use xlink:href="#DejaVuSans-75" x="69.824219"/>
      <use xlink:href="#DejaVuSans-73" x="133.203125"/>
      <use xlink:href="#DejaVuSans-70" x="185.302734"/>
     </g>
    </g>
    <g id="line2d_53">
     <g>
      <use xlink:href="#m3d79cb6c53" x="55.17625" y="67.812187" style="fill: #440154; fill-opacity: 0.75; stroke: #440154; stroke-opacity: 0.75"/>
     </g>
    </g>
    <g id="text_23">
     <!-- BT, S ($\tau_\delta$ = 0) -->
     <g transform="translate(73.17625 71.312187) scale(0.1 -0.1)">
      <defs>
       <path id="DejaVuSans-54" d="M -19 4666 
L 3928 4666 
L 3928 4134 
L 2272 4134 
L 2272 0 
L 1638 0 
L 1638 4134 
L -19 4134 
L -19 4666 
z
" transform="scale(0.015625)"/>
       <path id="DejaVuSans-2c" d="M 750 794 
L 1409 794 
L 1409 256 
L 897 -744 
L 494 -744 
L 750 256 
L 750 794 
z
" transform="scale(0.015625)"/>
       <path id="DejaVuSans-Oblique-3c4" d="M 2103 638 
Q 2188 488 2525 488 
L 2800 488 
L 2706 0 
L 2363 0 
Q 1800 0 1600 300 
Q 1403 606 1534 1269 
L 1856 2925 
L 541 2925 
L 653 3500 
L 3881 3500 
L 3769 2925 
L 2444 2925 
L 2113 1234 
Q 2025 781 2103 638 
z
" transform="scale(0.015625)"/>
       <path id="DejaVuSans-Oblique-3b4" d="M 3472 4053 
Q 3197 4272 2450 4272 
Q 1659 4272 1588 3906 
Q 1531 3619 2328 3469 
Q 2953 3353 3253 3003 
Q 3616 2581 3447 1716 
Q 3284 888 2763 400 
Q 2238 -91 1488 -91 
Q 741 -91 406 400 
Q 72 888 241 1747 
Q 363 2384 891 2900 
Q 1097 3100 1353 3213 
Q 913 3459 1000 3900 
Q 1166 4750 2544 4750 
Q 3234 4750 3566 4531 
L 3472 4053 
z
M 1753 3056 
Q 1525 2966 1306 2738 
Q 969 2384 847 1747 
Q 722 1113 919 756 
Q 1119 397 1584 397 
Q 2044 397 2381 759 
Q 2722 1122 2838 1716 
Q 2956 2338 2731 2638 
Q 2491 2959 2103 2994 
Q 1906 3013 1753 3056 
z
" transform="scale(0.015625)"/>
       <path id="DejaVuSans-3d" d="M 678 2906 
L 4684 2906 
L 4684 2381 
L 678 2381 
L 678 2906 
z
M 678 1631 
L 4684 1631 
L 4684 1100 
L 678 1100 
L 678 1631 
z
" transform="scale(0.015625)"/>
      </defs>
      <use xlink:href="#DejaVuSans-42" transform="translate(0 0.125)"/>
      <use xlink:href="#DejaVuSans-54" transform="translate(68.603516 0.125)"/>
      <use xlink:href="#DejaVuSans-2c" transform="translate(129.6875 0.125)"/>
      <use xlink:href="#DejaVuSans-20" transform="translate(161.474609 0.125)"/>
      <use xlink:href="#DejaVuSans-53" transform="translate(193.261719 0.125)"/>
      <use xlink:href="#DejaVuSans-20" transform="translate(256.738281 0.125)"/>
      <use xlink:href="#DejaVuSans-28" transform="translate(288.525391 0.125)"/>
      <use xlink:href="#DejaVuSans-Oblique-3c4" transform="translate(327.539062 0.125)"/>
      <use xlink:href="#DejaVuSans-Oblique-3b4" transform="translate(387.744141 -16.28125) scale(0.7)"/>
      <use xlink:href="#DejaVuSans-20" transform="translate(433.305664 0.125)"/>
      <use xlink:href="#DejaVuSans-3d" transform="translate(465.092773 0.125)"/>
      <use xlink:href="#DejaVuSans-20" transform="translate(548.881836 0.125)"/>
      <use xlink:href="#DejaVuSans-30" transform="translate(580.668945 0.125)"/>
      <use xlink:href="#DejaVuSans-29" transform="translate(644.291992 0.125)"/>
     </g>
    </g>
    <g id="line2d_54">
     <g>
      <use xlink:href="#mdcd882a039" x="55.17625" y="82.490312" style="fill: #3e4a89; fill-opacity: 0.5; stroke: #3e4a89; stroke-opacity: 0.5"/>
     </g>
    </g>
    <g id="text_24">
     <!-- BT, $\tau_\delta$ = 2.5 ms -->
     <g transform="translate(73.17625 85.990312) scale(0.1 -0.1)">
      <defs>
       <path id="DejaVuSans-2e" d="M 684 794 
L 1344 794 
L 1344 0 
L 684 0 
L 684 794 
z
" transform="scale(0.015625)"/>
      </defs>
      <use xlink:href="#DejaVuSans-42" transform="translate(0 0.78125)"/>
      <use xlink:href="#DejaVuSans-54" transform="translate(68.603516 0.78125)"/>
      <use xlink:href="#DejaVuSans-2c" transform="translate(129.6875 0.78125)"/>
      <use xlink:href="#DejaVuSans-20" transform="translate(161.474609 0.78125)"/>
      <use xlink:href="#DejaVuSans-Oblique-3c4" transform="translate(193.261719 0.78125)"/>
      <use xlink:href="#DejaVuSans-Oblique-3b4" transform="translate(253.466797 -15.625) scale(0.7)"/>
      <use xlink:href="#DejaVuSans-20" transform="translate(299.02832 0.78125)"/>
      <use xlink:href="#DejaVuSans-3d" transform="translate(330.81543 0.78125)"/>
      <use xlink:href="#DejaVuSans-20" transform="translate(414.604492 0.78125)"/>
      <use xlink:href="#DejaVuSans-32" transform="translate(446.391602 0.78125)"/>
      <use xlink:href="#DejaVuSans-2e" transform="translate(510.014648 0.78125)"/>
      <use xlink:href="#DejaVuSans-35" transform="translate(541.801758 0.78125)"/>
      <use xlink:href="#DejaVuSans-20" transform="translate(605.424805 0.78125)"/>
      <use xlink:href="#DejaVuSans-6d" transform="translate(637.211914 0.78125)"/>
      <use xlink:href="#DejaVuSans-73" transform="translate(734.624023 0.78125)"/>
     </g>
    </g>
    <g id="line2d_55">
     <g>
      <use xlink:href="#m16bc046ac9" x="55.17625" y="97.168437" style="fill: #25848e; fill-opacity: 0.5; stroke: #25848e; stroke-opacity: 0.5"/>
     </g>
    </g>
    <g id="text_25">
     <!-- BT, $\tau_\delta$ = 5 ms -->
     <g transform="translate(73.17625 100.668437) scale(0.1 -0.1)">
      <use xlink:href="#DejaVuSans-42" transform="translate(0 0.09375)"/>
      <use xlink:href="#DejaVuSans-54" transform="translate(68.603516 0.09375)"/>
      <use xlink:href="#DejaVuSans-2c" transform="translate(129.6875 0.09375)"/>
      <use xlink:href="#DejaVuSans-20" transform="translate(161.474609 0.09375)"/>
      <use xlink:href="#DejaVuSans-Oblique-3c4" transform="translate(193.261719 0.09375)"/>
      <use xlink:href="#DejaVuSans-Oblique-3b4" transform="translate(253.466797 -16.3125) scale(0.7)"/>
      <use xlink:href="#DejaVuSans-20" transform="translate(299.02832 0.09375)"/>
      <use xlink:href="#DejaVuSans-3d" transform="translate(330.81543 0.09375)"/>
      <use xlink:href="#DejaVuSans-20" transform="translate(414.604492 0.09375)"/>
      <use xlink:href="#DejaVuSans-35" transform="translate(446.391602 0.09375)"/>
      <use xlink:href="#DejaVuSans-20" transform="translate(510.014648 0.09375)"/>
      <use xlink:href="#DejaVuSans-6d" transform="translate(541.801758 0.09375)"/>
      <use xlink:href="#DejaVuSans-73" transform="translate(639.213867 0.09375)"/>
     </g>
    </g>
    <g id="line2d_56">
     <g>
      <use xlink:href="#ma94864d405" x="55.17625" y="111.846562" style="fill: #38b977; fill-opacity: 0.5; stroke: #38b977; stroke-opacity: 0.5"/>
     </g>
    </g>
    <g id="text_26">
     <!-- BT, $\tau_\delta$ = 10 ms -->
     <g transform="translate(73.17625 115.346562) scale(0.1 -0.1)">
      <use xlink:href="#DejaVuSans-42" transform="translate(0 0.78125)"/>
      <use xlink:href="#DejaVuSans-54" transform="translate(68.603516 0.78125)"/>
      <use xlink:href="#DejaVuSans-2c" transform="translate(129.6875 0.78125)"/>
      <use xlink:href="#DejaVuSans-20" transform="translate(161.474609 0.78125)"/>
      <use xlink:href="#DejaVuSans-Oblique-3c4" transform="translate(193.261719 0.78125)"/>
      <use xlink:href="#DejaVuSans-Oblique-3b4" transform="translate(253.466797 -15.625) scale(0.7)"/>
      <use xlink:href="#DejaVuSans-20" transform="translate(299.02832 0.78125)"/>
      <use xlink:href="#DejaVuSans-3d" transform="translate(330.81543 0.78125)"/>
      <use xlink:href="#DejaVuSans-20" transform="translate(414.604492 0.78125)"/>
      <use xlink:href="#DejaVuSans-31" transform="translate(446.391602 0.78125)"/>
      <use xlink:href="#DejaVuSans-30" transform="translate(510.014648 0.78125)"/>
      <use xlink:href="#DejaVuSans-20" transform="translate(573.637695 0.78125)"/>
      <use xlink:href="#DejaVuSans-6d" transform="translate(605.424805 0.78125)"/>
      <use xlink:href="#DejaVuSans-73" transform="translate(702.836914 0.78125)"/>
     </g>
    </g>
    <g id="line2d_57">
     <g>
      <use xlink:href="#mf1719c51c2" x="55.17625" y="126.524687" style="fill: #bddf26; fill-opacity: 0.5; stroke: #bddf26; stroke-opacity: 0.5"/>
     </g>
    </g>
    <g id="text_27">
     <!-- BT, $\tau_\delta$ = 20 ms -->
     <g transform="translate(73.17625 130.024687) scale(0.1 -0.1)">
      <use xlink:href="#DejaVuSans-42" transform="translate(0 0.78125)"/>
      <use xlink:href="#DejaVuSans-54" transform="translate(68.603516 0.78125)"/>
      <use xlink:href="#DejaVuSans-2c" transform="translate(129.6875 0.78125)"/>
      <use xlink:href="#DejaVuSans-20" transform="translate(161.474609 0.78125)"/>
      <use xlink:href="#DejaVuSans-Oblique-3c4" transform="translate(193.261719 0.78125)"/>
      <use xlink:href="#DejaVuSans-Oblique-3b4" transform="translate(253.466797 -15.625) scale(0.7)"/>
      <use xlink:href="#DejaVuSans-20" transform="translate(299.02832 0.78125)"/>
      <use xlink:href="#DejaVuSans-3d" transform="translate(330.81543 0.78125)"/>
      <use xlink:href="#DejaVuSans-20" transform="translate(414.604492 0.78125)"/>
      <use xlink:href="#DejaVuSans-32" transform="translate(446.391602 0.78125)"/>
      <use xlink:href="#DejaVuSans-30" transform="translate(510.014648 0.78125)"/>
      <use xlink:href="#DejaVuSans-20" transform="translate(573.637695 0.78125)"/>
      <use xlink:href="#DejaVuSans-6d" transform="translate(605.424805 0.78125)"/>
      <use xlink:href="#DejaVuSans-73" transform="translate(702.836914 0.78125)"/>
     </g>
    </g>
    <g id="line2d_58">
     <path d="M 45.17625 141.202812 
L 55.17625 141.202812 
L 65.17625 141.202812 
" style="fill: none; stroke-dasharray: 1.5,2.475; stroke-dashoffset: 0; stroke: #bddf26; stroke-opacity: 0.75; stroke-width: 1.5"/>
    </g>
    <g id="text_28">
     <!-- Subcr-Hopf -->
     <g transform="translate(73.17625 144.702812) scale(0.1 -0.1)">
      <defs>
       <path id="DejaVuSans-62" d="M 3116 1747 
Q 3116 2381 2855 2742 
Q 2594 3103 2138 3103 
Q 1681 3103 1420 2742 
Q 1159 2381 1159 1747 
Q 1159 1113 1420 752 
Q 1681 391 2138 391 
Q 2594 391 2855 752 
Q 3116 1113 3116 1747 
z
M 1159 2969 
Q 1341 3281 1617 3432 
Q 1894 3584 2278 3584 
Q 2916 3584 3314 3078 
Q 3713 2572 3713 1747 
Q 3713 922 3314 415 
Q 2916 -91 2278 -91 
Q 1894 -91 1617 61 
Q 1341 213 1159 525 
L 1159 0 
L 581 0 
L 581 4863 
L 1159 4863 
L 1159 2969 
z
" transform="scale(0.015625)"/>
       <path id="DejaVuSans-2d" d="M 313 2009 
L 1997 2009 
L 1997 1497 
L 313 1497 
L 313 2009 
z
" transform="scale(0.015625)"/>
       <path id="DejaVuSans-48" d="M 628 4666 
L 1259 4666 
L 1259 2753 
L 3553 2753 
L 3553 4666 
L 4184 4666 
L 4184 0 
L 3553 0 
L 3553 2222 
L 1259 2222 
L 1259 0 
L 628 0 
L 628 4666 
z
" transform="scale(0.015625)"/>
      </defs>
      <use xlink:href="#DejaVuSans-53"/>
      <use xlink:href="#DejaVuSans-75" x="63.476562"/>
      <use xlink:href="#DejaVuSans-62" x="126.855469"/>
      <use xlink:href="#DejaVuSans-63" x="190.332031"/>
      <use xlink:href="#DejaVuSans-72" x="245.3125"/>
      <use xlink:href="#DejaVuSans-2d" x="280.050781"/>
      <use xlink:href="#DejaVuSans-48" x="316.134766"/>
      <use xlink:href="#DejaVuSans-6f" x="391.330078"/>
      <use xlink:href="#DejaVuSans-70" x="452.511719"/>
      <use xlink:href="#DejaVuSans-66" x="515.988281"/>
     </g>
    </g>
    <g id="line2d_59">
     <path d="M 45.17625 155.880937 
L 55.17625 155.880937 
L 65.17625 155.880937 
" style="fill: none; stroke: #bddf26; stroke-opacity: 0.75; stroke-width: 1.5; stroke-linecap: square"/>
    </g>
    <g id="text_29">
     <!-- Supercr-Hopf -->
     <g transform="translate(73.17625 159.380937) scale(0.1 -0.1)">
      <use xlink:href="#DejaVuSans-53"/>
      <use xlink:href="#DejaVuSans-75" x="63.476562"/>
      <use xlink:href="#DejaVuSans-70" x="126.855469"/>
      <use xlink:href="#DejaVuSans-65" x="190.332031"/>
      <use xlink:href="#DejaVuSans-72" x="251.855469"/>
      <use xlink:href="#DejaVuSans-63" x="290.71875"/>
      <use xlink:href="#DejaVuSans-72" x="345.699219"/>
      <use xlink:href="#DejaVuSans-2d" x="380.4375"/>
      <use xlink:href="#DejaVuSans-48" x="416.521484"/>
      <use xlink:href="#DejaVuSans-6f" x="491.716797"/>
      <use xlink:href="#DejaVuSans-70" x="552.898438"/>
      <use xlink:href="#DejaVuSans-66" x="616.375"/>
     </g>
    </g>
   </g>
  </g>
 </g>
 <defs>
  <clipPath id="pf7d48c9cd5">
   <rect x="36.17625" y="25.3575" width="357.12" height="266.112"/>
  </clipPath>
 </defs>
</svg>
