<?xml version="1.0" encoding="utf-8" standalone="no"?>
<!DOCTYPE svg PUBLIC "-//W3C//DTD SVG 1.1//EN"
  "http://www.w3.org/Graphics/SVG/1.1/DTD/svg11.dtd">
<svg xmlns:xlink="http://www.w3.org/1999/xlink" width="420.8525pt" height="319.298562pt" viewBox="0 0 420.8525 319.298562" xmlns="http://www.w3.org/2000/svg" version="1.1">
 <metadata>
  <rdf:RDF xmlns:dc="http://purl.org/dc/elements/1.1/" xmlns:cc="http://creativecommons.org/ns#" xmlns:rdf="http://www.w3.org/1999/02/22-rdf-syntax-ns#">
   <cc:Work>
    <dc:type rdf:resource="http://purl.org/dc/dcmitype/StillImage"/>
    <dc:date>2023-04-24T10:00:55.723555</dc:date>
    <dc:format>image/svg+xml</dc:format>
    <dc:creator>
     <cc:Agent>
      <dc:title>Matplotlib v3.6.2, https://matplotlib.org/</dc:title>
     </cc:Agent>
    </dc:creator>
   </cc:Work>
  </rdf:RDF>
 </metadata>
 <defs>
  <style type="text/css">*{stroke-linejoin: round; stroke-linecap: butt}</style>
 </defs>
 <g id="figure_1">
  <g id="patch_1">
   <path d="M 0 319.298562 
L 420.8525 319.298562 
L 420.8525 0 
L 0 0 
z
" style="fill: #ffffff"/>
  </g>
  <g id="axes_1">
   <g id="patch_2">
    <path d="M 56.5325 277.871062 
L 413.6525 277.871062 
L 413.6525 11.759062 
L 56.5325 11.759062 
z
" style="fill: #ffffff"/>
   </g>
   <g id="PolyCollection_1">
    <defs>
     <path id="mb61b510627" d="M 72.765227 -135.543022 
L 72.765227 -50.878482 
L 80.881591 -58.004227 
L 88.997955 -65.422641 
L 97.114318 -73.098579 
L 105.230682 -80.860613 
L 113.347045 -88.948861 
L 121.463409 -97.331788 
L 129.579773 -105.843622 
L 137.696136 -114.458444 
L 145.8125 -123.29062 
L 153.928864 -132.184772 
L 162.045227 -141.126274 
L 170.161591 -150.104514 
L 178.277955 -158.976031 
L 186.394318 -167.60111 
L 194.510682 -176.117062 
L 202.627045 -184.39079 
L 210.743409 -192.291976 
L 218.859773 -199.829464 
L 226.976136 -207.014095 
L 235.0925 -213.447999 
L 243.208864 -219.555225 
L 251.325227 -224.940092 
L 259.441591 -229.754659 
L 267.557955 -233.741031 
L 275.674318 -237.18857 
L 275.674318 -241.565412 
L 275.674318 -241.565412 
L 267.557955 -241.263729 
L 259.441591 -240.696764 
L 251.325227 -239.84871 
L 243.208864 -238.703909 
L 235.0925 -237.247078 
L 226.976136 -235.463568 
L 218.859773 -233.339661 
L 210.743409 -230.862897 
L 202.627045 -228.022435 
L 194.510682 -224.80943 
L 186.394318 -221.217425 
L 178.277955 -217.242741 
L 170.161591 -212.884843 
L 162.045227 -208.146669 
L 153.928864 -203.034904 
L 145.8125 -197.56016 
L 137.696136 -191.737063 
L 129.579773 -185.584214 
L 121.463409 -179.124025 
L 113.347045 -172.382413 
L 105.230682 -165.388376 
L 97.114318 -158.173447 
L 88.997955 -150.771062 
L 80.881591 -143.215872 
L 72.765227 -135.543022 
z
" style="stroke: #a9a9a9; stroke-opacity: 0.75"/>
    </defs>
    <g clip-path="url(#p87f2605aa6)">
     <use xlink:href="#mb61b510627" x="0" y="319.298562" style="fill: #a9a9a9; fill-opacity: 0.75; stroke: #a9a9a9; stroke-opacity: 0.75"/>
    </g>
   </g>
   <g id="PolyCollection_2">
    <path d="M 72.765227 183.755541 
L 72.765227 -182.498607 
L 74.3885 -179.839135 
L 76.011773 -177.17608 
L 77.635045 -173.108572 
L 79.258318 -170.437511 
L 80.881591 -167.762025 
L 82.504864 -165.081833 
L 84.128136 -162.396654 
L 85.751409 -159.706206 
L 87.374682 -155.609617 
L 88.997955 -152.907784 
L 90.621227 -150.199837 
L 92.2445 -147.485497 
L 93.867773 -144.764483 
L 95.491045 -142.036519 
L 97.114318 -139.301327 
L 98.737591 -136.558632 
L 100.360864 -133.808163 
L 101.984136 -131.049649 
L 103.607409 -128.282821 
L 105.230682 -125.507414 
L 106.853955 -122.723165 
L 108.477227 -121.330404 
L 110.1005 -118.527696 
L 111.723773 -115.715377 
L 113.347045 -112.893198 
L 114.970318 -110.060914 
L 116.593591 -108.618873 
L 118.216864 -105.76566 
L 119.840136 -102.90163 
L 121.463409 -100.026557 
L 123.086682 -98.540807 
L 124.709955 -95.642982 
L 126.333227 -92.733459 
L 127.9565 -91.21262 
L 129.579773 -88.279083 
L 131.203045 -85.333242 
L 132.826318 -83.775494 
L 134.449591 -80.804474 
L 136.072864 -79.221184 
L 137.696136 -76.224269 
L 139.319409 -74.614741 
L 140.942682 -71.59126 
L 142.565955 -69.954849 
L 144.189227 -68.304771 
L 145.8125 -65.240292 
L 147.435773 -63.562456 
L 149.059045 -60.469954 
L 150.682318 -58.763841 
L 152.305591 -57.04341 
L 153.928864 -53.907962 
L 155.552136 -52.158572 
L 157.175409 -50.394552 
L 158.798682 -48.615811 
L 160.421955 -46.822264 
L 162.045227 -43.613243 
L 163.6685 -41.789856 
L 165.291773 -39.951447 
L 166.915045 -38.097956 
L 168.538318 -36.22933 
L 170.161591 -34.345522 
L 171.784864 -32.446491 
L 173.408136 -30.532203 
L 175.031409 -28.602627 
L 176.654682 -26.65774 
L 178.277955 -24.697526 
L 179.901227 -22.721972 
L 181.5245 -20.731072 
L 183.147773 -18.724826 
L 184.771045 -16.703237 
L 186.394318 -14.666316 
L 188.017591 -12.614077 
L 189.640864 -10.546542 
L 191.264136 -8.463734 
L 192.887409 -7.766273 
L 194.510682 -5.653015 
L 196.133955 -3.524588 
L 197.757227 -1.381035 
L 199.3805 -0.622995 
L 201.003773 1.550661 
L 202.627045 3.739285 
L 204.250318 4.54223 
L 205.873591 6.76061 
L 207.496864 8.993768 
L 209.120136 9.841042 
L 210.743409 12.103539 
L 212.366682 14.38059 
L 213.989955 15.271525 
L 215.613227 17.577438 
L 217.2365 18.497064 
L 218.859773 20.831491 
L 220.483045 21.779448 
L 222.106318 24.142019 
L 223.729591 25.117927 
L 225.352864 27.508251 
L 226.976136 28.51171 
L 228.599409 29.528789 
L 230.222682 31.95997 
L 231.845955 33.003968 
L 233.469227 35.46185 
L 235.0925 36.532326 
L 236.715773 37.615873 
L 238.339045 40.112964 
L 239.962318 41.222304 
L 241.585591 42.344367 
L 243.208864 43.479032 
L 244.832136 46.02677 
L 246.455409 47.186281 
L 248.078682 48.358033 
L 249.701955 49.541903 
L 251.325227 52.138358 
L 252.9485 53.346094 
L 254.571773 54.565576 
L 256.195045 55.796681 
L 257.818318 57.039281 
L 259.441591 58.293251 
L 261.064864 59.558466 
L 262.688136 62.235387 
L 264.311409 63.52271 
L 265.934682 64.820898 
L 267.557955 66.129823 
L 269.181227 67.44936 
L 270.8045 68.779381 
L 272.427773 70.11976 
L 274.051045 71.470371 
L 275.674318 72.831088 
L 277.297591 74.201784 
L 278.920864 75.582335 
L 278.920864 77.683219 
L 278.920864 77.683219 
L 277.297591 77.703258 
L 275.674318 77.733151 
L 274.051045 77.773024 
L 272.427773 77.823002 
L 270.8045 77.883213 
L 269.181227 77.953781 
L 267.557955 78.034834 
L 265.934682 78.126498 
L 264.311409 78.2289 
L 262.688136 78.342166 
L 261.064864 78.466423 
L 259.441591 78.601799 
L 257.818318 78.748418 
L 256.195045 78.906407 
L 254.571773 79.075892 
L 252.9485 79.256999 
L 251.325227 79.449852 
L 249.701955 79.654577 
L 248.078682 79.871296 
L 246.455409 80.100134 
L 244.832136 80.341212 
L 243.208864 80.594653 
L 241.585591 80.860577 
L 239.962318 81.139104 
L 238.339045 81.430353 
L 236.715773 81.734441 
L 235.0925 82.051484 
L 233.469227 82.381598 
L 231.845955 82.724894 
L 230.222682 83.081486 
L 228.599409 83.451483 
L 226.976136 83.834994 
L 225.352864 84.232125 
L 223.729591 84.64298 
L 222.106318 85.067661 
L 220.483045 85.506269 
L 218.859773 85.958902 
L 217.2365 86.425653 
L 215.613227 86.906617 
L 213.989955 87.401883 
L 212.366682 87.911537 
L 210.743409 88.435665 
L 209.120136 88.974348 
L 207.496864 89.527662 
L 205.873591 90.095684 
L 204.250318 90.678483 
L 202.627045 91.276128 
L 201.003773 91.888682 
L 199.3805 92.516205 
L 197.757227 93.158754 
L 196.133955 93.816381 
L 194.510682 94.489133 
L 192.887409 95.177053 
L 191.264136 95.880182 
L 189.640864 96.598553 
L 188.017591 97.332197 
L 186.394318 98.081137 
L 184.771045 98.845395 
L 183.147773 99.624985 
L 181.5245 100.419917 
L 179.901227 101.230196 
L 178.277955 102.055821 
L 176.654682 102.896786 
L 175.031409 103.753079 
L 173.408136 104.624682 
L 171.784864 105.511572 
L 170.161591 106.41372 
L 168.538318 107.331091 
L 166.915045 108.263644 
L 165.291773 109.211332 
L 163.6685 110.174102 
L 162.045227 111.151894 
L 160.421955 112.144641 
L 158.798682 113.152274 
L 157.175409 114.174711 
L 155.552136 115.21187 
L 153.928864 116.263659 
L 152.305591 117.329979 
L 150.682318 118.410728 
L 149.059045 119.505794 
L 147.435773 120.61506 
L 145.8125 121.738403 
L 144.189227 122.875693 
L 142.565955 124.026793 
L 140.942682 125.191561 
L 139.319409 126.369849 
L 137.696136 127.5615 
L 136.072864 128.766353 
L 134.449591 129.984241 
L 132.826318 131.214991 
L 131.203045 132.458421 
L 129.579773 133.714348 
L 127.9565 134.98258 
L 126.333227 136.26292 
L 124.709955 137.555166 
L 123.086682 138.859109 
L 121.463409 140.174538 
L 119.840136 141.501233 
L 118.216864 142.838972 
L 116.593591 144.187527 
L 114.970318 145.546665 
L 113.347045 146.916149 
L 111.723773 148.295739 
L 110.1005 149.685188 
L 108.477227 151.084249 
L 106.853955 152.492667 
L 105.230682 153.910186 
L 103.607409 155.336547 
L 101.984136 156.771488 
L 100.360864 158.214742 
L 98.737591 159.666041 
L 97.114318 161.125115 
L 95.491045 162.591692 
L 93.867773 164.065496 
L 92.2445 165.54625 
L 90.621227 167.033678 
L 88.997955 168.5275 
L 87.374682 170.027436 
L 85.751409 171.533205 
L 84.128136 173.044524 
L 82.504864 174.561114 
L 80.881591 176.082691 
L 79.258318 177.608973 
L 77.635045 179.13968 
L 76.011773 180.67453 
L 74.3885 182.213244 
L 72.765227 183.755541 
z
" clip-path="url(#p87f2605aa6)" style="fill: #d3d3d3; fill-opacity: 0.5; stroke: #d3d3d3; stroke-opacity: 0.5"/>
   </g>
   <g id="matplotlib.axis_1">
    <g id="xtick_1">
     <g id="line2d_1">
      <defs>
       <path id="mc3d807e180" d="M 0 0 
L 0 3.5 
" style="stroke: #000000; stroke-width: 0.8"/>
      </defs>
      <g>
       <use xlink:href="#mc3d807e180" x="72.765227" y="277.871062" style="stroke: #000000; stroke-width: 0.8"/>
      </g>
     </g>
     <g id="text_1">
      <!-- 0.0 -->
      <g transform="translate(63.223352 293.989187) scale(0.12 -0.12)">
       <defs>
        <path id="DejaVuSans-30" d="M 2034 4250 
Q 1547 4250 1301 3770 
Q 1056 3291 1056 2328 
Q 1056 1369 1301 889 
Q 1547 409 2034 409 
Q 2525 409 2770 889 
Q 3016 1369 3016 2328 
Q 3016 3291 2770 3770 
Q 2525 4250 2034 4250 
z
M 2034 4750 
Q 2819 4750 3233 4129 
Q 3647 3509 3647 2328 
Q 3647 1150 3233 529 
Q 2819 -91 2034 -91 
Q 1250 -91 836 529 
Q 422 1150 422 2328 
Q 422 3509 836 4129 
Q 1250 4750 2034 4750 
z
" transform="scale(0.015625)"/>
        <path id="DejaVuSans-2e" d="M 684 794 
L 1344 794 
L 1344 0 
L 684 0 
L 684 794 
z
" transform="scale(0.015625)"/>
       </defs>
       <use xlink:href="#DejaVuSans-30"/>
       <use xlink:href="#DejaVuSans-2e" x="63.623047"/>
       <use xlink:href="#DejaVuSans-30" x="95.410156"/>
      </g>
     </g>
    </g>
    <g id="xtick_2">
     <g id="line2d_2">
      <g>
       <use xlink:href="#mc3d807e180" x="113.347045" y="277.871062" style="stroke: #000000; stroke-width: 0.8"/>
      </g>
     </g>
     <g id="text_2">
      <!-- 2.5 -->
      <g transform="translate(103.80517 293.989187) scale(0.12 -0.12)">
       <defs>
        <path id="DejaVuSans-32" d="M 1228 531 
L 3431 531 
L 3431 0 
L 469 0 
L 469 531 
Q 828 903 1448 1529 
Q 2069 2156 2228 2338 
Q 2531 2678 2651 2914 
Q 2772 3150 2772 3378 
Q 2772 3750 2511 3984 
Q 2250 4219 1831 4219 
Q 1534 4219 1204 4116 
Q 875 4013 500 3803 
L 500 4441 
Q 881 4594 1212 4672 
Q 1544 4750 1819 4750 
Q 2544 4750 2975 4387 
Q 3406 4025 3406 3419 
Q 3406 3131 3298 2873 
Q 3191 2616 2906 2266 
Q 2828 2175 2409 1742 
Q 1991 1309 1228 531 
z
" transform="scale(0.015625)"/>
        <path id="DejaVuSans-35" d="M 691 4666 
L 3169 4666 
L 3169 4134 
L 1269 4134 
L 1269 2991 
Q 1406 3038 1543 3061 
Q 1681 3084 1819 3084 
Q 2600 3084 3056 2656 
Q 3513 2228 3513 1497 
Q 3513 744 3044 326 
Q 2575 -91 1722 -91 
Q 1428 -91 1123 -41 
Q 819 9 494 109 
L 494 744 
Q 775 591 1075 516 
Q 1375 441 1709 441 
Q 2250 441 2565 725 
Q 2881 1009 2881 1497 
Q 2881 1984 2565 2268 
Q 2250 2553 1709 2553 
Q 1456 2553 1204 2497 
Q 953 2441 691 2322 
L 691 4666 
z
" transform="scale(0.015625)"/>
       </defs>
       <use xlink:href="#DejaVuSans-32"/>
       <use xlink:href="#DejaVuSans-2e" x="63.623047"/>
       <use xlink:href="#DejaVuSans-35" x="95.410156"/>
      </g>
     </g>
    </g>
    <g id="xtick_3">
     <g id="line2d_3">
      <g>
       <use xlink:href="#mc3d807e180" x="153.928864" y="277.871062" style="stroke: #000000; stroke-width: 0.8"/>
      </g>
     </g>
     <g id="text_3">
      <!-- 5.0 -->
      <g transform="translate(144.386989 293.989187) scale(0.12 -0.12)">
       <use xlink:href="#DejaVuSans-35"/>
       <use xlink:href="#DejaVuSans-2e" x="63.623047"/>
       <use xlink:href="#DejaVuSans-30" x="95.410156"/>
      </g>
     </g>
    </g>
    <g id="xtick_4">
     <g id="line2d_4">
      <g>
       <use xlink:href="#mc3d807e180" x="194.510682" y="277.871062" style="stroke: #000000; stroke-width: 0.8"/>
      </g>
     </g>
     <g id="text_4">
      <!-- 7.5 -->
      <g transform="translate(184.968807 293.989187) scale(0.12 -0.12)">
       <defs>
        <path id="DejaVuSans-37" d="M 525 4666 
L 3525 4666 
L 3525 4397 
L 1831 0 
L 1172 0 
L 2766 4134 
L 525 4134 
L 525 4666 
z
" transform="scale(0.015625)"/>
       </defs>
       <use xlink:href="#DejaVuSans-37"/>
       <use xlink:href="#DejaVuSans-2e" x="63.623047"/>
       <use xlink:href="#DejaVuSans-35" x="95.410156"/>
      </g>
     </g>
    </g>
    <g id="xtick_5">
     <g id="line2d_5">
      <g>
       <use xlink:href="#mc3d807e180" x="235.0925" y="277.871062" style="stroke: #000000; stroke-width: 0.8"/>
      </g>
     </g>
     <g id="text_5">
      <!-- 10.0 -->
      <g transform="translate(221.733125 293.989187) scale(0.12 -0.12)">
       <defs>
        <path id="DejaVuSans-31" d="M 794 531 
L 1825 531 
L 1825 4091 
L 703 3866 
L 703 4441 
L 1819 4666 
L 2450 4666 
L 2450 531 
L 3481 531 
L 3481 0 
L 794 0 
L 794 531 
z
" transform="scale(0.015625)"/>
       </defs>
       <use xlink:href="#DejaVuSans-31"/>
       <use xlink:href="#DejaVuSans-30" x="63.623047"/>
       <use xlink:href="#DejaVuSans-2e" x="127.246094"/>
       <use xlink:href="#DejaVuSans-30" x="159.033203"/>
      </g>
     </g>
    </g>
    <g id="xtick_6">
     <g id="line2d_6">
      <g>
       <use xlink:href="#mc3d807e180" x="275.674318" y="277.871062" style="stroke: #000000; stroke-width: 0.8"/>
      </g>
     </g>
     <g id="text_6">
      <!-- 12.5 -->
      <g transform="translate(262.314943 293.989187) scale(0.12 -0.12)">
       <use xlink:href="#DejaVuSans-31"/>
       <use xlink:href="#DejaVuSans-32" x="63.623047"/>
       <use xlink:href="#DejaVuSans-2e" x="127.246094"/>
       <use xlink:href="#DejaVuSans-35" x="159.033203"/>
      </g>
     </g>
    </g>
    <g id="xtick_7">
     <g id="line2d_7">
      <g>
       <use xlink:href="#mc3d807e180" x="316.256136" y="277.871062" style="stroke: #000000; stroke-width: 0.8"/>
      </g>
     </g>
     <g id="text_7">
      <!-- 15.0 -->
      <g transform="translate(302.896761 293.989187) scale(0.12 -0.12)">
       <use xlink:href="#DejaVuSans-31"/>
       <use xlink:href="#DejaVuSans-35" x="63.623047"/>
       <use xlink:href="#DejaVuSans-2e" x="127.246094"/>
       <use xlink:href="#DejaVuSans-30" x="159.033203"/>
      </g>
     </g>
    </g>
    <g id="xtick_8">
     <g id="line2d_8">
      <g>
       <use xlink:href="#mc3d807e180" x="356.837955" y="277.871062" style="stroke: #000000; stroke-width: 0.8"/>
      </g>
     </g>
     <g id="text_8">
      <!-- 17.5 -->
      <g transform="translate(343.47858 293.989187) scale(0.12 -0.12)">
       <use xlink:href="#DejaVuSans-31"/>
       <use xlink:href="#DejaVuSans-37" x="63.623047"/>
       <use xlink:href="#DejaVuSans-2e" x="127.246094"/>
       <use xlink:href="#DejaVuSans-35" x="159.033203"/>
      </g>
     </g>
    </g>
    <g id="xtick_9">
     <g id="line2d_9">
      <g>
       <use xlink:href="#mc3d807e180" x="397.419773" y="277.871062" style="stroke: #000000; stroke-width: 0.8"/>
      </g>
     </g>
     <g id="text_9">
      <!-- 20.0 -->
      <g transform="translate(384.060398 293.989187) scale(0.12 -0.12)">
       <use xlink:href="#DejaVuSans-32"/>
       <use xlink:href="#DejaVuSans-30" x="63.623047"/>
       <use xlink:href="#DejaVuSans-2e" x="127.246094"/>
       <use xlink:href="#DejaVuSans-30" x="159.033203"/>
      </g>
     </g>
    </g>
    <g id="text_10">
     <!-- $\tau_\delta$ (ms) -->
     <g transform="translate(213.1325 309.602937) scale(0.12 -0.12)">
      <defs>
       <path id="DejaVuSans-Oblique-3c4" d="M 2103 638 
Q 2188 488 2525 488 
L 2800 488 
L 2706 0 
L 2363 0 
Q 1800 0 1600 300 
Q 1403 606 1534 1269 
L 1856 2925 
L 541 2925 
L 653 3500 
L 3881 3500 
L 3769 2925 
L 2444 2925 
L 2113 1234 
Q 2025 781 2103 638 
z
" transform="scale(0.015625)"/>
       <path id="DejaVuSans-Oblique-3b4" d="M 3472 4053 
Q 3197 4272 2450 4272 
Q 1659 4272 1588 3906 
Q 1531 3619 2328 3469 
Q 2953 3353 3253 3003 
Q 3616 2581 3447 1716 
Q 3284 888 2763 400 
Q 2238 -91 1488 -91 
Q 741 -91 406 400 
Q 72 888 241 1747 
Q 363 2384 891 2900 
Q 1097 3100 1353 3213 
Q 913 3459 1000 3900 
Q 1166 4750 2544 4750 
Q 3234 4750 3566 4531 
L 3472 4053 
z
M 1753 3056 
Q 1525 2966 1306 2738 
Q 969 2384 847 1747 
Q 722 1113 919 756 
Q 1119 397 1584 397 
Q 2044 397 2381 759 
Q 2722 1122 2838 1716 
Q 2956 2338 2731 2638 
Q 2491 2959 2103 2994 
Q 1906 3013 1753 3056 
z
" transform="scale(0.015625)"/>
       <path id="DejaVuSans-20" transform="scale(0.015625)"/>
       <path id="DejaVuSans-28" d="M 1984 4856 
Q 1566 4138 1362 3434 
Q 1159 2731 1159 2009 
Q 1159 1288 1364 580 
Q 1569 -128 1984 -844 
L 1484 -844 
Q 1016 -109 783 600 
Q 550 1309 550 2009 
Q 550 2706 781 3412 
Q 1013 4119 1484 4856 
L 1984 4856 
z
" transform="scale(0.015625)"/>
       <path id="DejaVuSans-6d" d="M 3328 2828 
Q 3544 3216 3844 3400 
Q 4144 3584 4550 3584 
Q 5097 3584 5394 3201 
Q 5691 2819 5691 2113 
L 5691 0 
L 5113 0 
L 5113 2094 
Q 5113 2597 4934 2840 
Q 4756 3084 4391 3084 
Q 3944 3084 3684 2787 
Q 3425 2491 3425 1978 
L 3425 0 
L 2847 0 
L 2847 2094 
Q 2847 2600 2669 2842 
Q 2491 3084 2119 3084 
Q 1678 3084 1418 2786 
Q 1159 2488 1159 1978 
L 1159 0 
L 581 0 
L 581 3500 
L 1159 3500 
L 1159 2956 
Q 1356 3278 1631 3431 
Q 1906 3584 2284 3584 
Q 2666 3584 2933 3390 
Q 3200 3197 3328 2828 
z
" transform="scale(0.015625)"/>
       <path id="DejaVuSans-73" d="M 2834 3397 
L 2834 2853 
Q 2591 2978 2328 3040 
Q 2066 3103 1784 3103 
Q 1356 3103 1142 2972 
Q 928 2841 928 2578 
Q 928 2378 1081 2264 
Q 1234 2150 1697 2047 
L 1894 2003 
Q 2506 1872 2764 1633 
Q 3022 1394 3022 966 
Q 3022 478 2636 193 
Q 2250 -91 1575 -91 
Q 1294 -91 989 -36 
Q 684 19 347 128 
L 347 722 
Q 666 556 975 473 
Q 1284 391 1588 391 
Q 1994 391 2212 530 
Q 2431 669 2431 922 
Q 2431 1156 2273 1281 
Q 2116 1406 1581 1522 
L 1381 1569 
Q 847 1681 609 1914 
Q 372 2147 372 2553 
Q 372 3047 722 3315 
Q 1072 3584 1716 3584 
Q 2034 3584 2315 3537 
Q 2597 3491 2834 3397 
z
" transform="scale(0.015625)"/>
       <path id="DejaVuSans-29" d="M 513 4856 
L 1013 4856 
Q 1481 4119 1714 3412 
Q 1947 2706 1947 2009 
Q 1947 1309 1714 600 
Q 1481 -109 1013 -844 
L 513 -844 
Q 928 -128 1133 580 
Q 1338 1288 1338 2009 
Q 1338 2731 1133 3434 
Q 928 4138 513 4856 
z
" transform="scale(0.015625)"/>
      </defs>
      <use xlink:href="#DejaVuSans-Oblique-3c4" transform="translate(0 0.125)"/>
      <use xlink:href="#DejaVuSans-Oblique-3b4" transform="translate(60.205078 -16.28125) scale(0.7)"/>
      <use xlink:href="#DejaVuSans-20" transform="translate(105.766602 0.125)"/>
      <use xlink:href="#DejaVuSans-28" transform="translate(137.553711 0.125)"/>
      <use xlink:href="#DejaVuSans-6d" transform="translate(176.567383 0.125)"/>
      <use xlink:href="#DejaVuSans-73" transform="translate(273.979492 0.125)"/>
      <use xlink:href="#DejaVuSans-29" transform="translate(326.079102 0.125)"/>
     </g>
    </g>
   </g>
   <g id="matplotlib.axis_2">
    <g id="ytick_1">
     <g id="line2d_10">
      <defs>
       <path id="m7707fc1c0b" d="M 0 0 
L -3.5 0 
" style="stroke: #000000; stroke-width: 0.8"/>
      </defs>
      <g>
       <use xlink:href="#m7707fc1c0b" x="56.5325" y="256.86222" style="stroke: #000000; stroke-width: 0.8"/>
      </g>
     </g>
     <g id="text_11">
      <!-- 4.25 -->
      <g transform="translate(22.81375 261.421283) scale(0.12 -0.12)">
       <defs>
        <path id="DejaVuSans-34" d="M 2419 4116 
L 825 1625 
L 2419 1625 
L 2419 4116 
z
M 2253 4666 
L 3047 4666 
L 3047 1625 
L 3713 1625 
L 3713 1100 
L 3047 1100 
L 3047 0 
L 2419 0 
L 2419 1100 
L 313 1100 
L 313 1709 
L 2253 4666 
z
" transform="scale(0.015625)"/>
       </defs>
       <use xlink:href="#DejaVuSans-34"/>
       <use xlink:href="#DejaVuSans-2e" x="63.623047"/>
       <use xlink:href="#DejaVuSans-32" x="95.410156"/>
       <use xlink:href="#DejaVuSans-35" x="159.033203"/>
      </g>
     </g>
    </g>
    <g id="ytick_2">
     <g id="line2d_11">
      <g>
       <use xlink:href="#m7707fc1c0b" x="56.5325" y="221.847484" style="stroke: #000000; stroke-width: 0.8"/>
      </g>
     </g>
     <g id="text_12">
      <!-- 4.50 -->
      <g transform="translate(22.81375 226.406546) scale(0.12 -0.12)">
       <use xlink:href="#DejaVuSans-34"/>
       <use xlink:href="#DejaVuSans-2e" x="63.623047"/>
       <use xlink:href="#DejaVuSans-35" x="95.410156"/>
       <use xlink:href="#DejaVuSans-30" x="159.033203"/>
      </g>
     </g>
    </g>
    <g id="ytick_3">
     <g id="line2d_12">
      <g>
       <use xlink:href="#m7707fc1c0b" x="56.5325" y="186.832747" style="stroke: #000000; stroke-width: 0.8"/>
      </g>
     </g>
     <g id="text_13">
      <!-- 4.75 -->
      <g transform="translate(22.81375 191.391809) scale(0.12 -0.12)">
       <use xlink:href="#DejaVuSans-34"/>
       <use xlink:href="#DejaVuSans-2e" x="63.623047"/>
       <use xlink:href="#DejaVuSans-37" x="95.410156"/>
       <use xlink:href="#DejaVuSans-35" x="159.033203"/>
      </g>
     </g>
    </g>
    <g id="ytick_4">
     <g id="line2d_13">
      <g>
       <use xlink:href="#m7707fc1c0b" x="56.5325" y="151.81801" style="stroke: #000000; stroke-width: 0.8"/>
      </g>
     </g>
     <g id="text_14">
      <!-- 5.00 -->
      <g transform="translate(22.81375 156.377072) scale(0.12 -0.12)">
       <use xlink:href="#DejaVuSans-35"/>
       <use xlink:href="#DejaVuSans-2e" x="63.623047"/>
       <use xlink:href="#DejaVuSans-30" x="95.410156"/>
       <use xlink:href="#DejaVuSans-30" x="159.033203"/>
      </g>
     </g>
    </g>
    <g id="ytick_5">
     <g id="line2d_14">
      <g>
       <use xlink:href="#m7707fc1c0b" x="56.5325" y="116.803273" style="stroke: #000000; stroke-width: 0.8"/>
      </g>
     </g>
     <g id="text_15">
      <!-- 5.25 -->
      <g transform="translate(22.81375 121.362336) scale(0.12 -0.12)">
       <use xlink:href="#DejaVuSans-35"/>
       <use xlink:href="#DejaVuSans-2e" x="63.623047"/>
       <use xlink:href="#DejaVuSans-32" x="95.410156"/>
       <use xlink:href="#DejaVuSans-35" x="159.033203"/>
      </g>
     </g>
    </g>
    <g id="ytick_6">
     <g id="line2d_15">
      <g>
       <use xlink:href="#m7707fc1c0b" x="56.5325" y="81.788536" style="stroke: #000000; stroke-width: 0.8"/>
      </g>
     </g>
     <g id="text_16">
      <!-- 5.50 -->
      <g transform="translate(22.81375 86.347599) scale(0.12 -0.12)">
       <use xlink:href="#DejaVuSans-35"/>
       <use xlink:href="#DejaVuSans-2e" x="63.623047"/>
       <use xlink:href="#DejaVuSans-35" x="95.410156"/>
       <use xlink:href="#DejaVuSans-30" x="159.033203"/>
      </g>
     </g>
    </g>
    <g id="ytick_7">
     <g id="line2d_16">
      <g>
       <use xlink:href="#m7707fc1c0b" x="56.5325" y="46.773799" style="stroke: #000000; stroke-width: 0.8"/>
      </g>
     </g>
     <g id="text_17">
      <!-- 5.75 -->
      <g transform="translate(22.81375 51.332862) scale(0.12 -0.12)">
       <use xlink:href="#DejaVuSans-35"/>
       <use xlink:href="#DejaVuSans-2e" x="63.623047"/>
       <use xlink:href="#DejaVuSans-37" x="95.410156"/>
       <use xlink:href="#DejaVuSans-35" x="159.033203"/>
      </g>
     </g>
    </g>
    <g id="ytick_8">
     <g id="line2d_17">
      <g>
       <use xlink:href="#m7707fc1c0b" x="56.5325" y="11.759062" style="stroke: #000000; stroke-width: 0.8"/>
      </g>
     </g>
     <g id="text_18">
      <!-- 6.00 -->
      <g transform="translate(22.81375 16.318125) scale(0.12 -0.12)">
       <defs>
        <path id="DejaVuSans-36" d="M 2113 2584 
Q 1688 2584 1439 2293 
Q 1191 2003 1191 1497 
Q 1191 994 1439 701 
Q 1688 409 2113 409 
Q 2538 409 2786 701 
Q 3034 994 3034 1497 
Q 3034 2003 2786 2293 
Q 2538 2584 2113 2584 
z
M 3366 4563 
L 3366 3988 
Q 3128 4100 2886 4159 
Q 2644 4219 2406 4219 
Q 1781 4219 1451 3797 
Q 1122 3375 1075 2522 
Q 1259 2794 1537 2939 
Q 1816 3084 2150 3084 
Q 2853 3084 3261 2657 
Q 3669 2231 3669 1497 
Q 3669 778 3244 343 
Q 2819 -91 2113 -91 
Q 1303 -91 875 529 
Q 447 1150 447 2328 
Q 447 3434 972 4092 
Q 1497 4750 2381 4750 
Q 2619 4750 2861 4703 
Q 3103 4656 3366 4563 
z
" transform="scale(0.015625)"/>
       </defs>
       <use xlink:href="#DejaVuSans-36"/>
       <use xlink:href="#DejaVuSans-2e" x="63.623047"/>
       <use xlink:href="#DejaVuSans-30" x="95.410156"/>
       <use xlink:href="#DejaVuSans-30" x="159.033203"/>
      </g>
     </g>
    </g>
    <g id="text_19">
     <!-- $G_{\mathrm{in}}$ (nS) -->
     <g transform="translate(16.318125 167.675062) rotate(-90) scale(0.12 -0.12)">
      <defs>
       <path id="DejaVuSans-Oblique-47" d="M 3494 697 
L 3738 1919 
L 2700 1919 
L 2797 2438 
L 4453 2438 
L 4050 384 
Q 3634 156 3143 32 
Q 2653 -91 2156 -91 
Q 1278 -91 783 396 
Q 288 884 288 1753 
Q 288 2475 589 3126 
Q 891 3778 1422 4213 
Q 1756 4484 2153 4617 
Q 2550 4750 3034 4750 
Q 3472 4750 3873 4639 
Q 4275 4528 4641 4306 
L 4513 3634 
Q 4231 3928 3853 4083 
Q 3475 4238 3047 4238 
Q 2550 4238 2172 4048 
Q 1794 3859 1497 3463 
Q 1244 3125 1098 2667 
Q 953 2209 953 1734 
Q 953 1081 1287 751 
Q 1622 422 2284 422 
Q 2616 422 2925 492 
Q 3234 563 3494 697 
z
" transform="scale(0.015625)"/>
       <path id="DejaVuSans-69" d="M 603 3500 
L 1178 3500 
L 1178 0 
L 603 0 
L 603 3500 
z
M 603 4863 
L 1178 4863 
L 1178 4134 
L 603 4134 
L 603 4863 
z
" transform="scale(0.015625)"/>
       <path id="DejaVuSans-6e" d="M 3513 2113 
L 3513 0 
L 2938 0 
L 2938 2094 
Q 2938 2591 2744 2837 
Q 2550 3084 2163 3084 
Q 1697 3084 1428 2787 
Q 1159 2491 1159 1978 
L 1159 0 
L 581 0 
L 581 3500 
L 1159 3500 
L 1159 2956 
Q 1366 3272 1645 3428 
Q 1925 3584 2291 3584 
Q 2894 3584 3203 3211 
Q 3513 2838 3513 2113 
z
" transform="scale(0.015625)"/>
       <path id="DejaVuSans-53" d="M 3425 4513 
L 3425 3897 
Q 3066 4069 2747 4153 
Q 2428 4238 2131 4238 
Q 1616 4238 1336 4038 
Q 1056 3838 1056 3469 
Q 1056 3159 1242 3001 
Q 1428 2844 1947 2747 
L 2328 2669 
Q 3034 2534 3370 2195 
Q 3706 1856 3706 1288 
Q 3706 609 3251 259 
Q 2797 -91 1919 -91 
Q 1588 -91 1214 -16 
Q 841 59 441 206 
L 441 856 
Q 825 641 1194 531 
Q 1563 422 1919 422 
Q 2459 422 2753 634 
Q 3047 847 3047 1241 
Q 3047 1584 2836 1778 
Q 2625 1972 2144 2069 
L 1759 2144 
Q 1053 2284 737 2584 
Q 422 2884 422 3419 
Q 422 4038 858 4394 
Q 1294 4750 2059 4750 
Q 2388 4750 2728 4690 
Q 3069 4631 3425 4513 
z
" transform="scale(0.015625)"/>
      </defs>
      <use xlink:href="#DejaVuSans-Oblique-47" transform="translate(0 0.125)"/>
      <use xlink:href="#DejaVuSans-69" transform="translate(77.490234 -16.28125) scale(0.7)"/>
      <use xlink:href="#DejaVuSans-6e" transform="translate(96.938477 -16.28125) scale(0.7)"/>
      <use xlink:href="#DejaVuSans-20" transform="translate(144.038086 0.125)"/>
      <use xlink:href="#DejaVuSans-28" transform="translate(175.825195 0.125)"/>
      <use xlink:href="#DejaVuSans-6e" transform="translate(214.838867 0.125)"/>
      <use xlink:href="#DejaVuSans-53" transform="translate(278.217773 0.125)"/>
      <use xlink:href="#DejaVuSans-29" transform="translate(341.694336 0.125)"/>
     </g>
    </g>
   </g>
   <g id="line2d_18">
    <defs>
     <path id="mf73bf8a438" d="M 0 3 
C 0.795609 3 1.55874 2.683901 2.12132 2.12132 
C 2.683901 1.55874 3 0.795609 3 0 
C 3 -0.795609 2.683901 -1.55874 2.12132 -2.12132 
C 1.55874 -2.683901 0.795609 -3 0 -3 
C -0.795609 -3 -1.55874 -2.683901 -2.12132 -2.12132 
C -2.683901 -1.55874 -3 -0.795609 -3 0 
C -3 0.795609 -2.683901 1.55874 -2.12132 2.12132 
C -1.55874 2.683901 -0.795609 3 0 3 
z
" style="stroke: #440154; stroke-opacity: 0.75"/>
    </defs>
    <g clip-path="url(#p87f2605aa6)">
     <use xlink:href="#mf73bf8a438" x="72.765227" y="193.835694" style="fill: #440154; fill-opacity: 0.75; stroke: #440154; stroke-opacity: 0.75"/>
     <use xlink:href="#mf73bf8a438" x="72.765227" y="95.794431" style="fill: #440154; fill-opacity: 0.75; stroke: #440154; stroke-opacity: 0.75"/>
     <use xlink:href="#mf73bf8a438" x="72.765227" y="25.764957" style="fill: #440154; fill-opacity: 0.75; stroke: #440154; stroke-opacity: 0.75"/>
    </g>
   </g>
   <g id="line2d_19">
    <defs>
     <path id="m9d3328ec0f" d="M 0 3 
C 0.795609 3 1.55874 2.683901 2.12132 2.12132 
C 2.683901 1.55874 3 0.795609 3 0 
C 3 -0.795609 2.683901 -1.55874 2.12132 -2.12132 
C 1.55874 -2.683901 0.795609 -3 0 -3 
C -0.795609 -3 -1.55874 -2.683901 -2.12132 -2.12132 
C -2.683901 -1.55874 -3 -0.795609 -3 0 
C -3 0.795609 -2.683901 1.55874 -2.12132 2.12132 
C -1.55874 2.683901 -0.795609 3 0 3 
z
" style="stroke: #3e4a89; stroke-opacity: 0.75"/>
    </defs>
    <g clip-path="url(#p87f2605aa6)">
     <use xlink:href="#m9d3328ec0f" x="113.347045" y="193.835694" style="fill: #3e4a89; fill-opacity: 0.75; stroke: #3e4a89; stroke-opacity: 0.75"/>
     <use xlink:href="#m9d3328ec0f" x="113.347045" y="95.794431" style="fill: #3e4a89; fill-opacity: 0.75; stroke: #3e4a89; stroke-opacity: 0.75"/>
     <use xlink:href="#m9d3328ec0f" x="113.347045" y="25.764957" style="fill: #3e4a89; fill-opacity: 0.75; stroke: #3e4a89; stroke-opacity: 0.75"/>
    </g>
   </g>
   <g id="line2d_20">
    <defs>
     <path id="ma7ae2cfa89" d="M 0 3 
C 0.795609 3 1.55874 2.683901 2.12132 2.12132 
C 2.683901 1.55874 3 0.795609 3 0 
C 3 -0.795609 2.683901 -1.55874 2.12132 -2.12132 
C 1.55874 -2.683901 0.795609 -3 0 -3 
C -0.795609 -3 -1.55874 -2.683901 -2.12132 -2.12132 
C -2.683901 -1.55874 -3 -0.795609 -3 0 
C -3 0.795609 -2.683901 1.55874 -2.12132 2.12132 
C -1.55874 2.683901 -0.795609 3 0 3 
z
" style="stroke: #25848e; stroke-opacity: 0.75"/>
    </defs>
    <g clip-path="url(#p87f2605aa6)">
     <use xlink:href="#ma7ae2cfa89" x="153.928864" y="193.835694" style="fill: #25848e; fill-opacity: 0.75; stroke: #25848e; stroke-opacity: 0.75"/>
     <use xlink:href="#ma7ae2cfa89" x="153.928864" y="95.794431" style="fill: #25848e; fill-opacity: 0.75; stroke: #25848e; stroke-opacity: 0.75"/>
     <use xlink:href="#ma7ae2cfa89" x="153.928864" y="25.764957" style="fill: #25848e; fill-opacity: 0.75; stroke: #25848e; stroke-opacity: 0.75"/>
    </g>
   </g>
   <g id="line2d_21">
    <defs>
     <path id="m5887ebd522" d="M 0 3 
C 0.795609 3 1.55874 2.683901 2.12132 2.12132 
C 2.683901 1.55874 3 0.795609 3 0 
C 3 -0.795609 2.683901 -1.55874 2.12132 -2.12132 
C 1.55874 -2.683901 0.795609 -3 0 -3 
C -0.795609 -3 -1.55874 -2.683901 -2.12132 -2.12132 
C -2.683901 -1.55874 -3 -0.795609 -3 0 
C -3 0.795609 -2.683901 1.55874 -2.12132 2.12132 
C -1.55874 2.683901 -0.795609 3 0 3 
z
" style="stroke: #38b977; stroke-opacity: 0.75"/>
    </defs>
    <g clip-path="url(#p87f2605aa6)">
     <use xlink:href="#m5887ebd522" x="235.0925" y="193.835694" style="fill: #38b977; fill-opacity: 0.75; stroke: #38b977; stroke-opacity: 0.75"/>
     <use xlink:href="#m5887ebd522" x="235.0925" y="95.794431" style="fill: #38b977; fill-opacity: 0.75; stroke: #38b977; stroke-opacity: 0.75"/>
     <use xlink:href="#m5887ebd522" x="235.0925" y="25.764957" style="fill: #38b977; fill-opacity: 0.75; stroke: #38b977; stroke-opacity: 0.75"/>
    </g>
   </g>
   <g id="line2d_22">
    <defs>
     <path id="mce07f83ebe" d="M 0 3 
C 0.795609 3 1.55874 2.683901 2.12132 2.12132 
C 2.683901 1.55874 3 0.795609 3 0 
C 3 -0.795609 2.683901 -1.55874 2.12132 -2.12132 
C 1.55874 -2.683901 0.795609 -3 0 -3 
C -0.795609 -3 -1.55874 -2.683901 -2.12132 -2.12132 
C -2.683901 -1.55874 -3 -0.795609 -3 0 
C -3 0.795609 -2.683901 1.55874 -2.12132 2.12132 
C -1.55874 2.683901 -0.795609 3 0 3 
z
" style="stroke: #bddf26; stroke-opacity: 0.75"/>
    </defs>
    <g clip-path="url(#p87f2605aa6)">
     <use xlink:href="#mce07f83ebe" x="397.419773" y="193.835694" style="fill: #bddf26; fill-opacity: 0.75; stroke: #bddf26; stroke-opacity: 0.75"/>
     <use xlink:href="#mce07f83ebe" x="397.419773" y="95.794431" style="fill: #bddf26; fill-opacity: 0.75; stroke: #bddf26; stroke-opacity: 0.75"/>
     <use xlink:href="#mce07f83ebe" x="397.419773" y="25.764957" style="fill: #bddf26; fill-opacity: 0.75; stroke: #bddf26; stroke-opacity: 0.75"/>
    </g>
   </g>
   <g id="line2d_23">
    <path d="M 72.765227 183.755541 
L 87.374682 170.027436 
L 98.737591 159.666041 
L 108.477227 151.084249 
L 116.593591 144.187527 
L 124.709955 137.555166 
L 132.826318 131.214991 
L 140.942682 125.191561 
L 147.435773 120.61506 
L 153.928864 116.263659 
L 160.421955 112.144641 
L 166.915045 108.263644 
L 173.408136 104.624682 
L 179.901227 101.230196 
L 186.394318 98.081137 
L 192.887409 95.177053 
L 199.3805 92.516205 
L 205.873591 90.095684 
L 212.366682 87.911537 
L 218.859773 85.958902 
L 225.352864 84.232125 
L 231.845955 82.724894 
L 238.339045 81.430353 
L 244.832136 80.341212 
L 251.325227 79.449852 
L 257.818318 78.748418 
L 265.934682 78.126498 
L 274.051045 77.773024 
L 280.544136 77.67291 
L 280.544136 77.67291 
" clip-path="url(#p87f2605aa6)" style="fill: none; stroke: #000000; stroke-width: 2; stroke-linecap: square"/>
   </g>
   <g id="line2d_24">
    <path d="M 282.167409 77.672206 
L 283.790682 77.680982 
L 285.413955 77.699115 
L 287.037227 77.726481 
L 288.6605 77.762958 
L 290.283773 77.808423 
L 291.907045 77.862756 
L 293.530318 77.925836 
L 295.153591 77.997542 
L 296.776864 78.077755 
L 298.400136 78.166357 
L 300.023409 78.263229 
L 301.646682 78.368254 
L 303.269955 78.481317 
L 304.893227 78.602302 
L 306.5165 78.731094 
L 308.139773 78.867579 
L 309.763045 79.011645 
L 311.386318 79.163179 
L 313.009591 79.322072 
L 314.632864 79.488211 
L 316.256136 79.661489 
L 317.879409 79.841798 
L 319.502682 80.029029 
L 321.125955 80.223077 
L 322.749227 80.423837 
L 324.3725 80.631203 
L 325.995773 80.845073 
L 327.619045 81.065345 
L 329.242318 81.291917 
L 330.865591 81.524689 
L 332.488864 81.763562 
L 334.112136 82.008437 
L 335.735409 82.259217 
L 337.358682 82.515806 
L 338.981955 82.778109 
L 340.605227 83.046032 
L 342.2285 83.319481 
L 343.851773 83.598364 
L 345.475045 83.882591 
L 347.098318 84.172072 
L 348.721591 84.466716 
L 350.344864 84.766437 
L 351.968136 85.071147 
L 353.591409 85.380761 
L 355.214682 85.695192 
L 356.837955 86.014359 
L 358.461227 86.338176 
L 360.0845 86.666563 
L 361.707773 86.999439 
L 363.331045 87.336723 
L 364.954318 87.678337 
L 366.577591 88.024202 
L 368.200864 88.374242 
L 369.824136 88.728381 
L 371.447409 89.086542 
L 373.070682 89.448653 
L 374.693955 89.81464 
L 376.317227 90.184431 
L 377.9405 90.557954 
L 379.563773 90.935139 
L 381.187045 91.315916 
L 382.810318 91.700217 
L 384.433591 92.087975 
L 386.056864 92.479122 
L 387.680136 92.873592 
L 389.303409 93.271322 
L 390.926682 93.672245 
L 392.549955 94.0763 
L 394.173227 94.483423 
L 395.7965 94.893554 
L 397.419773 95.306631 
" clip-path="url(#p87f2605aa6)" style="fill: none; stroke-dasharray: 7.4,3.2; stroke-dashoffset: 0; stroke: #000000; stroke-width: 2"/>
   </g>
   <g id="line2d_25">
    <path d="M 72.765227 268.42008 
L 80.881591 261.294336 
L 88.997955 253.875921 
L 97.114318 246.199984 
L 105.230682 238.437949 
L 113.347045 230.349702 
L 121.463409 221.966774 
L 129.579773 213.45494 
L 137.696136 204.840118 
L 145.8125 196.007942 
L 153.928864 187.11379 
L 162.045227 178.172288 
L 170.161591 169.194049 
L 178.277955 160.322532 
L 186.394318 151.697453 
L 194.510682 143.181501 
L 202.627045 134.907772 
L 210.743409 127.006586 
L 218.859773 119.469099 
L 226.976136 112.284468 
L 235.0925 105.850563 
L 243.208864 99.743337 
L 251.325227 94.358471 
L 259.441591 89.543904 
L 267.557955 85.557531 
L 275.674318 82.109993 
" clip-path="url(#p87f2605aa6)" style="fill: none; stroke: #a9a9a9; stroke-opacity: 0.75; stroke-width: 2; stroke-linecap: square"/>
   </g>
   <g id="line2d_26">
    <path d="M 56.5325 77.67134 
L 413.6525 77.67134 
" clip-path="url(#p87f2605aa6)" style="fill: none; stroke: #e377c2; stroke-opacity: 0.75; stroke-width: 2; stroke-linecap: square"/>
   </g>
   <g id="patch_3">
    <path d="M 56.5325 277.871062 
L 56.5325 11.759062 
" style="fill: none; stroke: #000000; stroke-width: 0.8; stroke-linejoin: miter; stroke-linecap: square"/>
   </g>
   <g id="patch_4">
    <path d="M 56.5325 277.871062 
L 413.6525 277.871062 
" style="fill: none; stroke: #000000; stroke-width: 0.8; stroke-linejoin: miter; stroke-linecap: square"/>
   </g>
   <g id="text_20">
    <!-- Subcr-Hopf -->
    <g transform="translate(74.3885 123.80622) scale(0.12 -0.12)">
     <defs>
      <path id="DejaVuSans-75" d="M 544 1381 
L 544 3500 
L 1119 3500 
L 1119 1403 
Q 1119 906 1312 657 
Q 1506 409 1894 409 
Q 2359 409 2629 706 
Q 2900 1003 2900 1516 
L 2900 3500 
L 3475 3500 
L 3475 0 
L 2900 0 
L 2900 538 
Q 2691 219 2414 64 
Q 2138 -91 1772 -91 
Q 1169 -91 856 284 
Q 544 659 544 1381 
z
M 1991 3584 
L 1991 3584 
z
" transform="scale(0.015625)"/>
      <path id="DejaVuSans-62" d="M 3116 1747 
Q 3116 2381 2855 2742 
Q 2594 3103 2138 3103 
Q 1681 3103 1420 2742 
Q 1159 2381 1159 1747 
Q 1159 1113 1420 752 
Q 1681 391 2138 391 
Q 2594 391 2855 752 
Q 3116 1113 3116 1747 
z
M 1159 2969 
Q 1341 3281 1617 3432 
Q 1894 3584 2278 3584 
Q 2916 3584 3314 3078 
Q 3713 2572 3713 1747 
Q 3713 922 3314 415 
Q 2916 -91 2278 -91 
Q 1894 -91 1617 61 
Q 1341 213 1159 525 
L 1159 0 
L 581 0 
L 581 4863 
L 1159 4863 
L 1159 2969 
z
" transform="scale(0.015625)"/>
      <path id="DejaVuSans-63" d="M 3122 3366 
L 3122 2828 
Q 2878 2963 2633 3030 
Q 2388 3097 2138 3097 
Q 1578 3097 1268 2742 
Q 959 2388 959 1747 
Q 959 1106 1268 751 
Q 1578 397 2138 397 
Q 2388 397 2633 464 
Q 2878 531 3122 666 
L 3122 134 
Q 2881 22 2623 -34 
Q 2366 -91 2075 -91 
Q 1284 -91 818 406 
Q 353 903 353 1747 
Q 353 2603 823 3093 
Q 1294 3584 2113 3584 
Q 2378 3584 2631 3529 
Q 2884 3475 3122 3366 
z
" transform="scale(0.015625)"/>
      <path id="DejaVuSans-72" d="M 2631 2963 
Q 2534 3019 2420 3045 
Q 2306 3072 2169 3072 
Q 1681 3072 1420 2755 
Q 1159 2438 1159 1844 
L 1159 0 
L 581 0 
L 581 3500 
L 1159 3500 
L 1159 2956 
Q 1341 3275 1631 3429 
Q 1922 3584 2338 3584 
Q 2397 3584 2469 3576 
Q 2541 3569 2628 3553 
L 2631 2963 
z
" transform="scale(0.015625)"/>
      <path id="DejaVuSans-2d" d="M 313 2009 
L 1997 2009 
L 1997 1497 
L 313 1497 
L 313 2009 
z
" transform="scale(0.015625)"/>
      <path id="DejaVuSans-48" d="M 628 4666 
L 1259 4666 
L 1259 2753 
L 3553 2753 
L 3553 4666 
L 4184 4666 
L 4184 0 
L 3553 0 
L 3553 2222 
L 1259 2222 
L 1259 0 
L 628 0 
L 628 4666 
z
" transform="scale(0.015625)"/>
      <path id="DejaVuSans-6f" d="M 1959 3097 
Q 1497 3097 1228 2736 
Q 959 2375 959 1747 
Q 959 1119 1226 758 
Q 1494 397 1959 397 
Q 2419 397 2687 759 
Q 2956 1122 2956 1747 
Q 2956 2369 2687 2733 
Q 2419 3097 1959 3097 
z
M 1959 3584 
Q 2709 3584 3137 3096 
Q 3566 2609 3566 1747 
Q 3566 888 3137 398 
Q 2709 -91 1959 -91 
Q 1206 -91 779 398 
Q 353 888 353 1747 
Q 353 2609 779 3096 
Q 1206 3584 1959 3584 
z
" transform="scale(0.015625)"/>
      <path id="DejaVuSans-70" d="M 1159 525 
L 1159 -1331 
L 581 -1331 
L 581 3500 
L 1159 3500 
L 1159 2969 
Q 1341 3281 1617 3432 
Q 1894 3584 2278 3584 
Q 2916 3584 3314 3078 
Q 3713 2572 3713 1747 
Q 3713 922 3314 415 
Q 2916 -91 2278 -91 
Q 1894 -91 1617 61 
Q 1341 213 1159 525 
z
M 3116 1747 
Q 3116 2381 2855 2742 
Q 2594 3103 2138 3103 
Q 1681 3103 1420 2742 
Q 1159 2381 1159 1747 
Q 1159 1113 1420 752 
Q 1681 391 2138 391 
Q 2594 391 2855 752 
Q 3116 1113 3116 1747 
z
" transform="scale(0.015625)"/>
      <path id="DejaVuSans-66" d="M 2375 4863 
L 2375 4384 
L 1825 4384 
Q 1516 4384 1395 4259 
Q 1275 4134 1275 3809 
L 1275 3500 
L 2222 3500 
L 2222 3053 
L 1275 3053 
L 1275 0 
L 697 0 
L 697 3053 
L 147 3053 
L 147 3500 
L 697 3500 
L 697 3744 
Q 697 4328 969 4595 
Q 1241 4863 1831 4863 
L 2375 4863 
z
" transform="scale(0.015625)"/>
     </defs>
     <use xlink:href="#DejaVuSans-53"/>
     <use xlink:href="#DejaVuSans-75" x="63.476562"/>
     <use xlink:href="#DejaVuSans-62" x="126.855469"/>
     <use xlink:href="#DejaVuSans-63" x="190.332031"/>
     <use xlink:href="#DejaVuSans-72" x="245.3125"/>
     <use xlink:href="#DejaVuSans-2d" x="280.050781"/>
     <use xlink:href="#DejaVuSans-48" x="316.134766"/>
     <use xlink:href="#DejaVuSans-6f" x="391.330078"/>
     <use xlink:href="#DejaVuSans-70" x="452.511719"/>
     <use xlink:href="#DejaVuSans-66" x="515.988281"/>
    </g>
   </g>
   <g id="text_21">
    <!-- HOM -->
    <g transform="translate(121.463409 165.823905) scale(0.12 -0.12)">
     <defs>
      <path id="DejaVuSans-4f" d="M 2522 4238 
Q 1834 4238 1429 3725 
Q 1025 3213 1025 2328 
Q 1025 1447 1429 934 
Q 1834 422 2522 422 
Q 3209 422 3611 934 
Q 4013 1447 4013 2328 
Q 4013 3213 3611 3725 
Q 3209 4238 2522 4238 
z
M 2522 4750 
Q 3503 4750 4090 4092 
Q 4678 3434 4678 2328 
Q 4678 1225 4090 567 
Q 3503 -91 2522 -91 
Q 1538 -91 948 565 
Q 359 1222 359 2328 
Q 359 3434 948 4092 
Q 1538 4750 2522 4750 
z
" transform="scale(0.015625)"/>
      <path id="DejaVuSans-4d" d="M 628 4666 
L 1569 4666 
L 2759 1491 
L 3956 4666 
L 4897 4666 
L 4897 0 
L 4281 0 
L 4281 4097 
L 3078 897 
L 2444 897 
L 1241 4097 
L 1241 0 
L 628 0 
L 628 4666 
z
" transform="scale(0.015625)"/>
     </defs>
     <use xlink:href="#DejaVuSans-48"/>
     <use xlink:href="#DejaVuSans-4f" x="75.195312"/>
     <use xlink:href="#DejaVuSans-4d" x="153.90625"/>
    </g>
   </g>
   <g id="text_22">
    <!-- SNIC -->
    <g transform="translate(186.394318 235.853378) scale(0.12 -0.12)">
     <defs>
      <path id="DejaVuSans-4e" d="M 628 4666 
L 1478 4666 
L 3547 763 
L 3547 4666 
L 4159 4666 
L 4159 0 
L 3309 0 
L 1241 3903 
L 1241 0 
L 628 0 
L 628 4666 
z
" transform="scale(0.015625)"/>
      <path id="DejaVuSans-49" d="M 628 4666 
L 1259 4666 
L 1259 0 
L 628 0 
L 628 4666 
z
" transform="scale(0.015625)"/>
      <path id="DejaVuSans-43" d="M 4122 4306 
L 4122 3641 
Q 3803 3938 3442 4084 
Q 3081 4231 2675 4231 
Q 1875 4231 1450 3742 
Q 1025 3253 1025 2328 
Q 1025 1406 1450 917 
Q 1875 428 2675 428 
Q 3081 428 3442 575 
Q 3803 722 4122 1019 
L 4122 359 
Q 3791 134 3420 21 
Q 3050 -91 2638 -91 
Q 1578 -91 968 557 
Q 359 1206 359 2328 
Q 359 3453 968 4101 
Q 1578 4750 2638 4750 
Q 3056 4750 3426 4639 
Q 3797 4528 4122 4306 
z
" transform="scale(0.015625)"/>
     </defs>
     <use xlink:href="#DejaVuSans-53"/>
     <use xlink:href="#DejaVuSans-4e" x="63.476562"/>
     <use xlink:href="#DejaVuSans-49" x="138.28125"/>
     <use xlink:href="#DejaVuSans-43" x="167.773438"/>
    </g>
   </g>
   <g id="text_23">
    <!-- Supercr-Hopf -->
    <g transform="translate(316.256136 53.776747) scale(0.12 -0.12)">
     <defs>
      <path id="DejaVuSans-65" d="M 3597 1894 
L 3597 1613 
L 953 1613 
Q 991 1019 1311 708 
Q 1631 397 2203 397 
Q 2534 397 2845 478 
Q 3156 559 3463 722 
L 3463 178 
Q 3153 47 2828 -22 
Q 2503 -91 2169 -91 
Q 1331 -91 842 396 
Q 353 884 353 1716 
Q 353 2575 817 3079 
Q 1281 3584 2069 3584 
Q 2775 3584 3186 3129 
Q 3597 2675 3597 1894 
z
M 3022 2063 
Q 3016 2534 2758 2815 
Q 2500 3097 2075 3097 
Q 1594 3097 1305 2825 
Q 1016 2553 972 2059 
L 3022 2063 
z
" transform="scale(0.015625)"/>
     </defs>
     <use xlink:href="#DejaVuSans-53"/>
     <use xlink:href="#DejaVuSans-75" x="63.476562"/>
     <use xlink:href="#DejaVuSans-70" x="126.855469"/>
     <use xlink:href="#DejaVuSans-65" x="190.332031"/>
     <use xlink:href="#DejaVuSans-72" x="251.855469"/>
     <use xlink:href="#DejaVuSans-63" x="290.71875"/>
     <use xlink:href="#DejaVuSans-72" x="345.699219"/>
     <use xlink:href="#DejaVuSans-2d" x="380.4375"/>
     <use xlink:href="#DejaVuSans-48" x="416.521484"/>
     <use xlink:href="#DejaVuSans-6f" x="491.716797"/>
     <use xlink:href="#DejaVuSans-70" x="552.898438"/>
     <use xlink:href="#DejaVuSans-66" x="616.375"/>
    </g>
   </g>
   <g id="legend_1">
    <g id="line2d_27">
     <path d="M 305.354375 207.534187 
L 317.354375 207.534187 
L 329.354375 207.534187 
" style="fill: none; stroke: #000000; stroke-width: 2; stroke-linecap: square"/>
    </g>
    <g id="text_24">
     <!-- BT (upper) -->
     <g transform="translate(338.954375 211.734187) scale(0.12 -0.12)">
      <defs>
       <path id="DejaVuSans-42" d="M 1259 2228 
L 1259 519 
L 2272 519 
Q 2781 519 3026 730 
Q 3272 941 3272 1375 
Q 3272 1813 3026 2020 
Q 2781 2228 2272 2228 
L 1259 2228 
z
M 1259 4147 
L 1259 2741 
L 2194 2741 
Q 2656 2741 2882 2914 
Q 3109 3088 3109 3444 
Q 3109 3797 2882 3972 
Q 2656 4147 2194 4147 
L 1259 4147 
z
M 628 4666 
L 2241 4666 
Q 2963 4666 3353 4366 
Q 3744 4066 3744 3513 
Q 3744 3084 3544 2831 
Q 3344 2578 2956 2516 
Q 3422 2416 3680 2098 
Q 3938 1781 3938 1306 
Q 3938 681 3513 340 
Q 3088 0 2303 0 
L 628 0 
L 628 4666 
z
" transform="scale(0.015625)"/>
       <path id="DejaVuSans-54" d="M -19 4666 
L 3928 4666 
L 3928 4134 
L 2272 4134 
L 2272 0 
L 1638 0 
L 1638 4134 
L -19 4134 
L -19 4666 
z
" transform="scale(0.015625)"/>
      </defs>
      <use xlink:href="#DejaVuSans-42"/>
      <use xlink:href="#DejaVuSans-54" x="68.603516"/>
      <use xlink:href="#DejaVuSans-20" x="129.6875"/>
      <use xlink:href="#DejaVuSans-28" x="161.474609"/>
      <use xlink:href="#DejaVuSans-75" x="200.488281"/>
      <use xlink:href="#DejaVuSans-70" x="263.867188"/>
      <use xlink:href="#DejaVuSans-70" x="327.34375"/>
      <use xlink:href="#DejaVuSans-65" x="390.820312"/>
      <use xlink:href="#DejaVuSans-72" x="452.34375"/>
      <use xlink:href="#DejaVuSans-29" x="493.457031"/>
     </g>
    </g>
    <g id="line2d_28">
     <path d="M 305.354375 225.147937 
L 317.354375 225.147937 
L 329.354375 225.147937 
" style="fill: none; stroke-dasharray: 7.4,3.2; stroke-dashoffset: 0; stroke: #000000; stroke-width: 2"/>
    </g>
    <g id="text_25">
     <!-- BT (lower) -->
     <g transform="translate(338.954375 229.347937) scale(0.12 -0.12)">
      <defs>
       <path id="DejaVuSans-6c" d="M 603 4863 
L 1178 4863 
L 1178 0 
L 603 0 
L 603 4863 
z
" transform="scale(0.015625)"/>
       <path id="DejaVuSans-77" d="M 269 3500 
L 844 3500 
L 1563 769 
L 2278 3500 
L 2956 3500 
L 3675 769 
L 4391 3500 
L 4966 3500 
L 4050 0 
L 3372 0 
L 2619 2869 
L 1863 0 
L 1184 0 
L 269 3500 
z
" transform="scale(0.015625)"/>
      </defs>
      <use xlink:href="#DejaVuSans-42"/>
      <use xlink:href="#DejaVuSans-54" x="68.603516"/>
      <use xlink:href="#DejaVuSans-20" x="129.6875"/>
      <use xlink:href="#DejaVuSans-28" x="161.474609"/>
      <use xlink:href="#DejaVuSans-6c" x="200.488281"/>
      <use xlink:href="#DejaVuSans-6f" x="228.271484"/>
      <use xlink:href="#DejaVuSans-77" x="289.453125"/>
      <use xlink:href="#DejaVuSans-65" x="371.240234"/>
      <use xlink:href="#DejaVuSans-72" x="432.763672"/>
      <use xlink:href="#DejaVuSans-29" x="473.876953"/>
     </g>
    </g>
    <g id="line2d_29">
     <path d="M 305.354375 242.761687 
L 317.354375 242.761687 
L 329.354375 242.761687 
" style="fill: none; stroke: #a9a9a9; stroke-opacity: 0.75; stroke-width: 2; stroke-linecap: square"/>
    </g>
    <g id="text_26">
     <!-- SNL -->
     <g transform="translate(338.954375 246.961687) scale(0.12 -0.12)">
      <defs>
       <path id="DejaVuSans-4c" d="M 628 4666 
L 1259 4666 
L 1259 531 
L 3531 531 
L 3531 0 
L 628 0 
L 628 4666 
z
" transform="scale(0.015625)"/>
      </defs>
      <use xlink:href="#DejaVuSans-53"/>
      <use xlink:href="#DejaVuSans-4e" x="63.476562"/>
      <use xlink:href="#DejaVuSans-4c" x="138.28125"/>
     </g>
    </g>
    <g id="line2d_30">
     <path d="M 305.354375 260.375437 
L 317.354375 260.375437 
L 329.354375 260.375437 
" style="fill: none; stroke: #e377c2; stroke-opacity: 0.75; stroke-width: 2; stroke-linecap: square"/>
    </g>
    <g id="text_27">
     <!-- Cusp -->
     <g transform="translate(338.954375 264.575437) scale(0.12 -0.12)">
      <use xlink:href="#DejaVuSans-43"/>
      <use xlink:href="#DejaVuSans-75" x="69.824219"/>
      <use xlink:href="#DejaVuSans-73" x="133.203125"/>
      <use xlink:href="#DejaVuSans-70" x="185.302734"/>
     </g>
    </g>
   </g>
  </g>
 </g>
 <defs>
  <clipPath id="p87f2605aa6">
   <rect x="56.5325" y="11.759062" width="357.12" height="266.112"/>
  </clipPath>
 </defs>
</svg>
